<svg width="259" height="138" viewBox="0 0 259 138" fill="none" xmlns="http://www.w3.org/2000/svg">
<rect width="259" height="138" rx="12" fill="#FF3C9A"/>
<rect x="93.5128" y="71" width="72" height="39.641" rx="19.8205" transform="rotate(5.08403 93.5128 71)" fill="#3CDF90"/>
<path d="M112.239 97.5847L113.163 87.1957L114.641 87.3272L118.999 94.4333L119.592 87.7676L121.488 87.9363L120.564 98.3253L119.072 98.1926L114.739 90.9622L114.135 97.7534L112.239 97.5847ZM127.064 99.0723C124.094 98.808 122.037 96.334 122.312 93.2383C122.588 90.1425 124.992 88.0794 127.976 88.3449C130.194 88.5422 131.7 89.9411 132.112 91.4677L130.353 92.1264C130.044 91.0166 129.147 90.192 127.823 90.0741C125.87 89.9004 124.401 91.2455 124.209 93.407C124.015 95.5824 125.266 97.1694 127.218 97.3431C128.794 97.4833 130.248 96.6148 130.39 95.0251L130.394 94.9832L127.409 94.7177L127.552 93.1141L132.433 93.5483L132.34 94.5942C132.053 97.8155 129.518 99.2906 127.064 99.0723ZM133 99.4317L133.925 89.0428L135.403 89.1743L139.76 96.2804L140.353 89.6147L142.25 89.7834L141.325 100.172L139.833 100.04L135.501 92.8093L134.897 99.6005L133 99.4317Z" fill="white"/>
<rect x="165" y="81.9062" width="72" height="39.641" rx="19.8205" transform="rotate(-12.763 165 81.9062)" fill="white" fill-opacity="0.1"/>
<path d="M195.829 100.545C192.921 101.203 190.205 99.4789 189.518 96.4477C188.832 93.4165 190.488 90.7158 193.41 90.054C195.581 89.5622 197.443 90.4323 198.303 91.759L196.831 92.9252C196.197 91.9635 195.09 91.4533 193.793 91.7471C191.882 92.1801 190.896 93.9107 191.375 96.0271C191.858 98.1571 193.534 99.2846 195.446 98.8516C196.989 98.5021 198.107 97.2295 197.755 95.673L197.745 95.632L194.823 96.2939L194.468 94.7237L199.247 93.6412L199.478 94.6652C200.193 97.8193 198.232 100 195.829 100.545ZM201.59 99.0676L199.286 88.8953L201.143 88.4746L202.148 92.9122L206.476 91.9318L205.471 87.4942L207.342 87.0705L209.646 97.2428L207.775 97.6665L206.847 93.5703L202.519 94.5507L203.447 98.6469L201.59 99.0676ZM216.01 95.9734C213.102 96.6322 210.427 94.8983 209.74 91.8671C209.053 88.8359 210.71 86.1353 213.632 85.4734C215.803 84.9816 217.665 85.8517 218.525 87.1784L217.036 88.334C216.408 87.3997 215.299 86.8758 214.015 87.1665C212.104 87.5995 211.118 89.3301 211.597 91.4465C212.08 93.5765 213.715 94.7133 215.627 94.2803C216.91 93.9896 217.685 93.0388 217.849 91.9251L219.691 92.326C219.487 93.894 218.181 95.4816 216.01 95.9734Z" fill="white"/>
<rect x="178.167" y="23" width="67" height="39.641" rx="19.8205" transform="rotate(8.94916 178.167 23)" fill="white" fill-opacity="0.1"/>
<path d="M195.058 50.7865L196.68 40.4835L198.561 40.7797L197.84 45.3573L202.433 41.3895L204.798 41.7619L200.564 45.4319L203.3 52.0845L201.087 51.7361L199.036 46.7644L197.394 48.1923L196.939 51.0827L195.058 50.7865ZM204.029 52.1993L205.652 41.8963L212.497 42.9743L212.236 44.6338L207.271 43.852L206.855 46.4935L211.543 47.2317L211.282 48.8913L206.594 48.153L206.171 50.8359L211.136 51.6178L210.875 53.2773L204.029 52.1993ZM215.492 54.1744C213.528 53.8652 212.09 52.4625 211.807 50.6605L213.477 50.229C213.787 51.4967 214.672 52.3588 215.848 52.544C216.829 52.6986 217.558 52.3031 217.678 51.5424C217.773 50.9339 217.473 50.5039 216.791 50.1556L214.913 49.208C213.389 48.4437 212.732 47.3056 212.946 45.9503C213.225 44.1801 214.829 43.1714 216.862 43.4916C218.715 43.7834 220.02 45.0376 220.329 46.6737L218.671 47.1212C218.432 46.0347 217.668 45.305 216.603 45.1373C215.649 44.987 214.932 45.3985 214.812 46.1592C214.723 46.7262 215.024 47.2414 215.734 47.5941L217.535 48.4871C219.098 49.2718 219.766 50.3407 219.548 51.7236C219.269 53.4938 217.607 54.5076 215.492 54.1744Z" fill="white"/>
<rect x="16" y="73" width="67" height="39" rx="19.5" fill="white" fill-opacity="0.1"/>
<path d="M36.196 97.5V96.002L41.25 88.75H36.49V87.07H43.672V88.568L38.632 95.82H43.812V97.5H36.196ZM43.732 97.5L47.33 87.07H49.794L53.392 97.5H51.32L50.578 95.26H46.546L45.79 97.5H43.732ZM47.092 93.58H50.032L48.562 89.184L47.092 93.58ZM54.1328 97.5V87.07H58.0108C60.1388 87.07 61.6368 88.246 61.6368 90.36C61.6368 91.802 60.9088 92.838 59.7468 93.314L62.1408 97.5H59.9848L57.8288 93.65H56.0368V97.5H54.1328ZM56.0368 91.97H58.0388C59.0608 91.97 59.7328 91.34 59.7328 90.36C59.7328 89.38 59.0608 88.75 58.0388 88.75H56.0368V91.97Z" fill="white"/>
<rect x="25.4003" y="16" width="71" height="39.641" rx="19.8205" transform="rotate(15.2103 25.4003 16)" fill="white" fill-opacity="0.1"/>
<path d="M39.1603 45.4625L41.8968 35.3979L45.6389 36.4153C47.6924 36.9736 48.8294 38.5014 48.2747 40.5414C47.8964 41.9329 46.9221 42.7416 45.6759 42.896L46.8878 47.5635L44.8073 46.9978L43.737 42.7171L42.0077 42.2469L40.9976 45.962L39.1603 45.4625ZM42.4485 40.6258L44.3804 41.151C45.3666 41.4191 46.1803 40.9875 46.4374 40.0418C46.6946 39.0962 46.2114 38.3119 45.2252 38.0438L43.2933 37.5186L42.4485 40.6258ZM49.5249 48.2805L49.5595 37.4812L51.5319 38.0175L51.3393 46.0898L55.3551 39.057L57.2599 39.5749L57.1484 47.6692L61.0696 40.6107L63.042 41.147L57.6037 50.477L55.4962 49.904L55.5331 42.1376L51.6324 48.8535L49.5249 48.2805ZM61.0152 51.4046L63.7517 41.3399L70.4659 43.1654L70.0252 44.7866L65.1482 43.4606L64.3916 46.2436L68.6606 47.4043L68.2198 49.0254L63.9508 47.8647L62.8525 51.9041L61.0152 51.4046Z" fill="white"/>
<rect x="94" y="33.3042" width="61.8517" height="38.0712" rx="19.0356" transform="rotate(-9.59012 94 33.3042)" fill="#FCFF45"/>
<path d="M118.047 47.1892C117.755 47.2388 117.456 47.1921 117.194 47.0563C116.931 46.9205 116.72 46.703 116.593 46.4367C116.465 46.1703 116.427 45.8696 116.486 45.58C116.544 45.2904 116.695 45.0277 116.916 44.8316L119.911 40.6184C120.12 40.3245 120.438 40.1257 120.793 40.0657C121.149 40.0057 121.514 40.0895 121.808 40.2986C122.102 40.5078 122.301 40.8251 122.361 41.1808C122.421 41.5365 122.337 41.9015 122.128 42.1954L120.878 43.9511L131.002 42.2407C131.358 42.1806 131.722 42.2642 132.016 42.4732C132.31 42.6822 132.509 42.9994 132.569 43.355C132.629 43.7106 132.546 44.0755 132.337 44.3695C132.128 44.6634 131.811 44.8623 131.455 44.9224L118.047 47.1892ZM137.283 46.6532C137.575 46.6037 137.874 46.6503 138.136 46.7861C138.399 46.9219 138.61 47.1394 138.737 47.4058C138.865 47.6721 138.903 47.9728 138.844 48.2624C138.786 48.552 138.635 48.8147 138.414 49.0108L135.419 53.224C135.315 53.3695 135.184 53.4932 135.033 53.5881C134.881 53.6829 134.713 53.747 134.537 53.7767C134.36 53.8064 134.18 53.8011 134.006 53.7612C133.832 53.7212 133.668 53.6473 133.522 53.5438C133.376 53.4402 133.253 53.309 133.158 53.1577C133.063 53.0063 132.999 52.8378 132.969 52.6616C132.94 52.4855 132.945 52.3052 132.985 52.1312C133.025 51.9571 133.099 51.7926 133.202 51.647L134.452 49.8913L124.328 51.6017C123.972 51.6618 123.607 51.5782 123.314 51.3692C123.02 51.1602 122.821 50.8431 122.761 50.4874C122.701 50.1318 122.784 49.7669 122.993 49.473C123.202 49.179 123.519 48.9801 123.875 48.92L137.283 46.6532Z" fill="#FF459F"/>
</svg>
