<svg width="347" height="291" viewBox="0 0 347 291" fill="none" xmlns="http://www.w3.org/2000/svg">
<mask id="path-2-outside-1_290_413" maskUnits="userSpaceOnUse" x="150.557" y="63.3514" width="46" height="52" fill="black">
<rect fill="white" x="150.557" y="63.3514" width="46" height="52"/>
<path d="M190.864 73.8786C185.259 73.8786 179.797 71.8269 174.447 67.6778C174.174 67.466 173.842 67.3514 173.5 67.3514C173.158 67.3514 172.826 67.466 172.553 67.6778C167.203 71.8269 161.741 73.8786 156.136 73.8786C155.717 73.8786 155.316 74.0505 155.019 74.3565C154.723 74.6625 154.557 75.0776 154.557 75.5103V86.9328C154.557 97.8135 160.783 105.809 172.921 110.752C173.293 110.904 173.707 110.904 174.079 110.752C186.217 105.809 192.443 97.8114 192.443 86.9328V75.5103C192.443 75.0776 192.277 74.6625 191.98 74.3565C191.684 74.0505 191.283 73.8786 190.864 73.8786ZM183.512 83.2406L170.884 95.207C170.584 95.491 170.189 95.6443 169.783 95.6349C169.376 95.6256 168.989 95.4544 168.701 95.157L163.439 89.7177C163.284 89.5683 163.16 89.3882 163.073 89.188C162.987 88.9879 162.941 88.7718 162.937 88.5527C162.933 88.3336 162.972 88.1159 163.052 87.9128C163.131 87.7096 163.249 87.525 163.399 87.3701C163.549 87.2151 163.728 87.0929 163.924 87.0109C164.121 86.9288 164.331 86.8885 164.543 86.8924C164.755 86.8962 164.964 86.9442 165.158 87.0334C165.351 87.1226 165.526 87.2512 165.67 87.4115L169.865 91.7455L181.378 80.8343C181.687 80.5418 182.095 80.3879 182.514 80.4067C182.932 80.4255 183.326 80.6153 183.609 80.9344C183.892 81.2535 184.041 81.6757 184.023 82.1082C184.005 82.5407 183.821 82.9481 183.512 83.2406Z"/>
</mask>
<path d="M190.864 73.8786C185.259 73.8786 179.797 71.8269 174.447 67.6778C174.174 67.466 173.842 67.3514 173.5 67.3514C173.158 67.3514 172.826 67.466 172.553 67.6778C167.203 71.8269 161.741 73.8786 156.136 73.8786C155.717 73.8786 155.316 74.0505 155.019 74.3565C154.723 74.6625 154.557 75.0776 154.557 75.5103V86.9328C154.557 97.8135 160.783 105.809 172.921 110.752C173.293 110.904 173.707 110.904 174.079 110.752C186.217 105.809 192.443 97.8114 192.443 86.9328V75.5103C192.443 75.0776 192.277 74.6625 191.98 74.3565C191.684 74.0505 191.283 73.8786 190.864 73.8786ZM183.512 83.2406L170.884 95.207C170.584 95.491 170.189 95.6443 169.783 95.6349C169.376 95.6256 168.989 95.4544 168.701 95.157L163.439 89.7177C163.284 89.5683 163.16 89.3882 163.073 89.188C162.987 88.9879 162.941 88.7718 162.937 88.5527C162.933 88.3336 162.972 88.1159 163.052 87.9128C163.131 87.7096 163.249 87.525 163.399 87.3701C163.549 87.2151 163.728 87.0929 163.924 87.0109C164.121 86.9288 164.331 86.8885 164.543 86.8924C164.755 86.8962 164.964 86.9442 165.158 87.0334C165.351 87.1226 165.526 87.2512 165.67 87.4115L169.865 91.7455L181.378 80.8343C181.687 80.5418 182.095 80.3879 182.514 80.4067C182.932 80.4255 183.326 80.6153 183.609 80.9344C183.892 81.2535 184.041 81.6757 184.023 82.1082C184.005 82.5407 183.821 82.9481 183.512 83.2406Z" fill="#3CDF90"/>
<path d="M190.864 73.8786V69.8786V73.8786ZM174.447 67.6778L176.898 64.5169L176.898 64.5166L174.447 67.6778ZM173.5 67.3514V63.3514V67.3514ZM172.553 67.6778L170.102 64.5166L170.102 64.5169L172.553 67.6778ZM156.136 73.8786V69.8786V73.8786ZM172.921 110.752L174.43 107.048L174.43 107.048L172.921 110.752ZM174.079 110.752L172.57 107.048L172.57 107.048L174.079 110.752ZM183.512 83.2406L186.264 86.1442L186.264 86.1439L183.512 83.2406ZM170.884 95.207L173.633 98.1121L173.635 98.1106L170.884 95.207ZM168.701 95.157L171.577 92.3768L171.576 92.3758L168.701 95.157ZM163.439 89.7177L166.314 86.9366L166.265 86.8858L166.214 86.8368L163.439 89.7177ZM165.67 87.4115L162.699 90.0897L162.747 90.1424L162.796 90.1934L165.67 87.4115ZM169.865 91.7455L166.991 94.5274L169.744 97.3715L172.617 94.6488L169.865 91.7455ZM181.378 80.8343L178.627 77.931L178.627 77.931L181.378 80.8343ZM190.864 69.8786C186.313 69.8786 181.691 68.2335 176.898 64.5169L171.996 70.8387C177.904 75.4202 184.206 77.8786 190.864 77.8786V69.8786ZM176.898 64.5166C175.933 63.7683 174.741 63.3514 173.5 63.3514V71.3514C172.942 71.3514 172.415 71.1637 171.996 70.839L176.898 64.5166ZM173.5 63.3514C172.259 63.3514 171.067 63.7683 170.102 64.5166L175.004 70.839C174.585 71.1637 174.058 71.3514 173.5 71.3514V63.3514ZM170.102 64.5169C165.309 68.2335 160.687 69.8786 156.136 69.8786V77.8786C162.794 77.8786 169.096 75.4202 175.004 70.8387L170.102 64.5169ZM156.136 69.8786C154.613 69.8786 153.18 70.5053 152.145 71.5753L157.894 77.1377C157.451 77.5957 156.821 77.8786 156.136 77.8786L156.136 69.8786ZM152.145 71.5753C151.114 72.6409 150.557 74.0587 150.557 75.5103H158.557C158.557 76.0964 158.333 76.6841 157.894 77.1377L152.145 71.5753ZM150.557 75.5103V86.9328H158.557V75.5103H150.557ZM150.557 86.9328C150.557 93.19 152.367 98.7856 156.022 103.515C159.64 108.196 164.885 111.799 171.413 114.457L174.43 107.048C168.819 104.763 164.882 101.896 162.352 98.6231C159.86 95.399 158.557 91.5564 158.557 86.9328H150.557ZM171.412 114.457C172.751 115.003 174.249 115.003 175.588 114.457L172.57 107.048C173.165 106.805 173.835 106.805 174.43 107.048L171.412 114.457ZM175.587 114.457C182.115 111.799 187.36 108.196 190.978 103.514C194.633 98.7845 196.443 93.189 196.443 86.9328H188.443C188.443 91.5552 187.14 95.3979 184.648 98.6224C182.118 101.896 178.18 104.763 172.57 107.048L175.587 114.457ZM196.443 86.9328V75.5103H188.443V86.9328H196.443ZM196.443 75.5103C196.443 74.0587 195.886 72.6409 194.855 71.5753L189.106 77.1377C188.667 76.6841 188.443 76.0964 188.443 75.5103H196.443ZM194.855 71.5753C193.82 70.5053 192.387 69.8786 190.864 69.8786V77.8786C190.178 77.8786 189.549 77.5957 189.106 77.1377L194.855 71.5753ZM180.761 80.3371L168.132 92.3035L173.635 98.1106L186.264 86.1442L180.761 80.3371ZM168.134 92.302C168.587 91.8736 169.209 91.6207 169.874 91.636L169.691 99.6339C171.17 99.6678 172.581 99.1084 173.633 98.1121L168.134 92.302ZM169.874 91.636C170.54 91.6512 171.147 91.9319 171.577 92.3768L165.825 97.9372C166.83 98.9769 168.212 99.6 169.691 99.6339L169.874 91.636ZM171.576 92.3758L166.314 86.9366L160.564 92.4989L165.826 97.9382L171.576 92.3758ZM166.214 86.8368C166.446 87.0606 166.625 87.3231 166.747 87.6047L159.4 90.7714C159.694 91.4533 160.122 92.0761 160.664 92.5986L166.214 86.8368ZM166.747 87.6047C166.868 87.8861 166.931 88.1849 166.936 88.4844L158.938 88.6209C158.95 89.3586 159.106 90.0896 159.4 90.7714L166.747 87.6047ZM166.936 88.4844C166.942 88.7839 166.888 89.0841 166.777 89.3686L159.326 86.457C159.056 87.1478 158.925 87.8833 158.938 88.6209L166.936 88.4844ZM166.777 89.3686C166.666 89.6532 166.497 89.9205 166.274 90.1512L160.524 84.5889C160.001 85.1295 159.596 85.766 159.326 86.457L166.777 89.3686ZM166.274 90.1512C166.051 90.3822 165.777 90.572 165.465 90.7021L162.383 83.3197C161.678 83.6139 161.048 84.048 160.524 84.5889L166.274 90.1512ZM165.465 90.7021C165.154 90.8322 164.815 90.898 164.47 90.8917L164.616 82.893C163.848 82.879 163.088 83.0254 162.383 83.3197L165.465 90.7021ZM164.47 90.8917C164.126 90.8854 163.79 90.8074 163.484 90.6665L166.831 83.4002C166.138 83.081 165.384 82.907 164.616 82.893L164.47 90.8917ZM163.484 90.6665C163.179 90.5258 162.913 90.3272 162.699 90.0897L168.641 84.7333C168.138 84.1751 167.524 83.7193 166.831 83.4002L163.484 90.6665ZM162.796 90.1934L166.991 94.5274L172.739 88.9636L168.544 84.6296L162.796 90.1934ZM172.617 94.6488L184.13 83.7376L178.627 77.931L167.114 88.8422L172.617 94.6488ZM184.13 83.7376C183.664 84.1789 183.02 84.4334 182.334 84.4027L182.693 76.4107C181.171 76.3425 179.71 76.9046 178.627 77.931L184.13 83.7376ZM182.334 84.4027C181.65 84.372 181.036 84.062 180.617 83.5886L186.602 78.2802C185.616 77.1686 184.214 76.479 182.693 76.4107L182.334 84.4027ZM180.617 83.5886C180.201 83.1197 180.002 82.5259 180.026 81.9405L188.019 82.276C188.08 80.8256 187.584 79.3873 186.602 78.2802L180.617 83.5886ZM180.026 81.9405C180.051 81.3547 180.3 80.7743 180.761 80.3373L186.264 86.1439C187.342 85.1219 187.958 83.7268 188.019 82.276L180.026 81.9405Z" fill="black" mask="url(#path-2-outside-1_290_413)"/>
<path d="M76.7375 150.886H68.2063V136.834H76.7375V139.103H70.6954V142.756H76.3762V145.024H70.6954V148.618H76.7375V150.886ZM79.0934 150.886V140.849H81.0606C81.0472 141.411 80.9134 142.094 80.6591 142.897H81.3215C81.8033 141.331 82.8739 140.548 84.5333 140.548C86.8886 140.548 88.0663 141.906 88.0663 144.623V150.886H85.7377V145.225C85.7511 144.422 85.5705 143.813 85.1958 143.399C84.8344 142.97 84.3125 142.756 83.63 142.756C82.9341 142.756 82.3921 143.004 82.0041 143.499C81.616 143.981 81.4219 144.656 81.4219 145.526V150.886H79.0934ZM95.5039 146.691H97.8324V147.614C97.8324 148.738 97.5246 149.615 96.909 150.244C96.3068 150.873 95.457 151.187 94.3597 151.187C93.2757 151.187 92.4259 150.873 91.8103 150.244C91.2081 149.615 90.907 148.738 90.907 147.614V143.017H89.4216V140.849H90.9672V137.858H93.2356V140.849H97.732V143.017H93.2356V147.614C93.2489 148.029 93.3493 148.35 93.5367 148.578C93.7374 148.805 94.0117 148.919 94.3597 148.919C94.721 148.919 95.002 148.805 95.2028 148.578C95.4035 148.35 95.5039 148.029 95.5039 147.614V146.691ZM104.129 151.187C102.496 151.187 101.211 150.712 100.274 149.762C99.3377 148.798 98.8693 147.494 98.8693 145.848C98.8693 144.777 99.0701 143.84 99.4716 143.037C99.8864 142.234 100.469 141.619 101.218 141.19C101.981 140.762 102.871 140.548 103.888 140.548C104.878 140.548 105.748 140.749 106.497 141.15C107.26 141.538 107.849 142.1 108.264 142.836C108.692 143.559 108.906 144.396 108.906 145.346C108.906 145.948 108.859 146.416 108.766 146.751H101.238C101.385 147.514 101.706 148.116 102.202 148.557C102.71 148.986 103.352 149.2 104.129 149.2C104.784 149.2 105.32 149.086 105.735 148.859C106.163 148.618 106.377 148.31 106.377 147.935V147.895H108.685V147.935C108.685 148.578 108.491 149.146 108.103 149.641C107.729 150.123 107.193 150.505 106.497 150.786C105.801 151.053 105.012 151.187 104.129 151.187ZM106.537 145.105C106.43 144.288 106.143 143.653 105.674 143.198C105.206 142.743 104.61 142.515 103.888 142.515C103.165 142.515 102.563 142.743 102.081 143.198C101.613 143.653 101.325 144.288 101.218 145.105H106.537ZM115.678 140.548C116.628 140.548 117.357 140.829 117.866 141.391C118.374 141.94 118.629 142.749 118.629 143.82V145.285H116.2V144.523C116.2 143.974 116.059 143.546 115.778 143.238C115.51 142.917 115.136 142.756 114.654 142.756C114.119 142.756 113.697 142.957 113.389 143.358C113.095 143.76 112.948 144.315 112.948 145.024V150.886H110.619V140.849H112.586C112.573 141.411 112.439 142.094 112.185 142.897H112.847C113.209 141.331 114.152 140.548 115.678 140.548ZM126.562 150.886L123.029 140.849H125.478L127.124 145.466C127.325 146.028 127.485 146.657 127.606 147.353C127.726 148.036 127.786 148.671 127.786 149.26H128.449C128.449 148.671 128.509 148.036 128.629 147.353C128.75 146.657 128.91 146.028 129.111 145.466L130.737 140.849H133.186L129.653 150.886H126.562ZM138.426 151.187C136.794 151.187 135.509 150.712 134.572 149.762C133.635 148.798 133.167 147.494 133.167 145.848C133.167 144.777 133.368 143.84 133.769 143.037C134.184 142.234 134.766 141.619 135.516 141.19C136.278 140.762 137.168 140.548 138.185 140.548C139.176 140.548 140.046 140.749 140.795 141.15C141.558 141.538 142.147 142.1 142.561 142.836C142.99 143.559 143.204 144.396 143.204 145.346C143.204 145.948 143.157 146.416 143.063 146.751H135.536C135.683 147.514 136.004 148.116 136.499 148.557C137.008 148.986 137.65 149.2 138.426 149.2C139.082 149.2 139.617 149.086 140.032 148.859C140.46 148.618 140.675 148.31 140.675 147.935V147.895H142.983V147.935C142.983 148.578 142.789 149.146 142.401 149.641C142.026 150.123 141.491 150.505 140.795 150.786C140.099 151.053 139.31 151.187 138.426 151.187ZM140.835 145.105C140.728 144.288 140.44 143.653 139.972 143.198C139.504 142.743 138.908 142.515 138.185 142.515C137.463 142.515 136.861 142.743 136.379 143.198C135.91 143.653 135.623 144.288 135.516 145.105H140.835ZM149.975 140.548C150.926 140.548 151.655 140.829 152.163 141.391C152.672 141.94 152.926 142.749 152.926 143.82V145.285H150.497V144.523C150.497 143.974 150.357 143.546 150.076 143.238C149.808 142.917 149.433 142.756 148.952 142.756C148.416 142.756 147.995 142.957 147.687 143.358C147.393 143.76 147.245 144.315 147.245 145.024V150.886H144.917V140.849H146.884C146.871 141.411 146.737 142.094 146.483 142.897H147.145C147.506 141.331 148.45 140.548 149.975 140.548ZM155.618 139.464C155.216 139.464 154.869 139.33 154.574 139.063C154.293 138.782 154.153 138.44 154.153 138.039C154.153 137.651 154.293 137.323 154.574 137.055C154.869 136.774 155.216 136.634 155.618 136.634C156.019 136.634 156.361 136.774 156.642 137.055C156.923 137.323 157.063 137.651 157.063 138.039C157.063 138.44 156.923 138.782 156.642 139.063C156.361 139.33 156.019 139.464 155.618 139.464ZM156.822 150.886H154.494V140.849H156.822V150.886ZM166.42 139.223H164.092V138.862C164.092 138.447 163.991 138.133 163.791 137.918C163.603 137.691 163.322 137.577 162.947 137.577C162.6 137.577 162.325 137.691 162.124 137.918C161.924 138.133 161.823 138.447 161.823 138.862V140.849H165.296V143.017H161.823V150.886H159.495V143.017H158.29V140.849H159.495V138.862C159.495 137.778 159.796 136.935 160.398 136.333C161.014 135.717 161.864 135.409 162.947 135.409C164.045 135.409 164.895 135.717 165.497 136.333C166.112 136.935 166.42 137.778 166.42 138.862V139.223ZM168.356 139.464C167.955 139.464 167.607 139.33 167.312 139.063C167.031 138.782 166.891 138.44 166.891 138.039C166.891 137.651 167.031 137.323 167.312 137.055C167.607 136.774 167.955 136.634 168.356 136.634C168.758 136.634 169.099 136.774 169.38 137.055C169.661 137.323 169.801 137.651 169.801 138.039C169.801 138.44 169.661 138.782 169.38 139.063C169.099 139.33 168.758 139.464 168.356 139.464ZM169.56 150.886H167.232V140.849H169.56V150.886ZM176.649 151.187C175.605 151.187 174.695 150.973 173.919 150.545C173.156 150.103 172.568 149.481 172.153 148.678C171.738 147.875 171.53 146.931 171.53 145.848C171.53 144.777 171.731 143.84 172.133 143.037C172.547 142.234 173.13 141.619 173.879 141.19C174.642 140.762 175.538 140.548 176.569 140.548C177.92 140.548 178.991 140.909 179.781 141.632C180.584 142.355 180.985 143.338 180.985 144.583V144.743H178.596V144.583C178.596 144.034 178.409 143.606 178.034 143.298C177.673 142.977 177.184 142.816 176.569 142.816C175.753 142.816 175.103 143.091 174.622 143.639C174.153 144.175 173.919 144.911 173.919 145.848C173.919 146.798 174.16 147.547 174.642 148.096C175.137 148.644 175.806 148.919 176.649 148.919C177.305 148.919 177.827 148.778 178.215 148.497C178.603 148.203 178.797 147.808 178.797 147.313V147.152H181.166V147.313C181.179 148.504 180.778 149.447 179.961 150.143C179.145 150.839 178.041 151.187 176.649 151.187ZM186.015 151.187C184.918 151.187 184.054 150.926 183.425 150.404C182.81 149.882 182.502 149.153 182.502 148.216C182.502 147.279 182.85 146.523 183.546 145.948C184.255 145.372 185.205 145.051 186.396 144.984L189.287 144.784V144.663C189.287 143.967 189.093 143.419 188.705 143.017C188.317 142.616 187.781 142.415 187.099 142.415C186.497 142.415 186.002 142.582 185.613 142.917C185.239 143.238 185.038 143.666 185.011 144.201H182.643C182.683 143.024 183.098 142.107 183.887 141.451C184.677 140.782 185.747 140.448 187.099 140.448C188.504 140.448 189.608 140.829 190.411 141.592C191.214 142.341 191.615 143.399 191.615 144.764V150.886H189.969L189.909 149.16H189.247C189.126 149.789 188.778 150.284 188.203 150.645C187.627 151.006 186.898 151.187 186.015 151.187ZM186.517 149.36C187.373 149.36 188.049 149.133 188.544 148.678C189.039 148.21 189.287 147.581 189.287 146.791V146.51L186.497 146.771C186.002 146.824 185.607 146.972 185.312 147.213C185.031 147.453 184.891 147.741 184.891 148.076C184.891 148.464 185.031 148.778 185.312 149.019C185.607 149.247 186.008 149.36 186.517 149.36ZM198.985 146.691H201.314V147.614C201.314 148.738 201.006 149.615 200.39 150.244C199.788 150.873 198.938 151.187 197.841 151.187C196.757 151.187 195.907 150.873 195.291 150.244C194.689 149.615 194.388 148.738 194.388 147.614V143.017H192.903V140.849H194.448V137.858H196.717V140.849H201.213V143.017H196.717V147.614C196.73 148.029 196.83 148.35 197.018 148.578C197.218 148.805 197.493 148.919 197.841 148.919C198.202 148.919 198.483 148.805 198.684 148.578C198.885 148.35 198.985 148.029 198.985 147.614V146.691ZM204.418 139.464C204.017 139.464 203.669 139.33 203.374 139.063C203.093 138.782 202.953 138.44 202.953 138.039C202.953 137.651 203.093 137.323 203.374 137.055C203.669 136.774 204.017 136.634 204.418 136.634C204.819 136.634 205.161 136.774 205.442 137.055C205.723 137.323 205.863 137.651 205.863 138.039C205.863 138.44 205.723 138.782 205.442 139.063C205.161 139.33 204.819 139.464 204.418 139.464ZM205.622 150.886H203.294V140.849H205.622V150.886ZM212.751 151.187C211.707 151.187 210.797 150.973 210.021 150.545C209.245 150.103 208.643 149.481 208.215 148.678C207.8 147.875 207.592 146.931 207.592 145.848C207.592 144.777 207.8 143.84 208.215 143.037C208.643 142.234 209.245 141.619 210.021 141.19C210.797 140.762 211.707 140.548 212.751 140.548C213.808 140.548 214.725 140.762 215.501 141.19C216.278 141.619 216.873 142.234 217.288 143.037C217.716 143.84 217.93 144.777 217.93 145.848C217.93 146.931 217.716 147.875 217.288 148.678C216.873 149.481 216.278 150.103 215.501 150.545C214.725 150.973 213.808 151.187 212.751 151.187ZM212.751 148.939C213.608 148.939 214.284 148.665 214.779 148.116C215.274 147.554 215.521 146.798 215.521 145.848C215.521 144.897 215.274 144.148 214.779 143.599C214.284 143.051 213.608 142.776 212.751 142.776C211.908 142.776 211.232 143.057 210.724 143.619C210.229 144.168 209.981 144.911 209.981 145.848C209.981 146.784 210.229 147.534 210.724 148.096C211.232 148.658 211.908 148.939 212.751 148.939ZM219.95 150.886V140.849H221.917C221.904 141.411 221.77 142.094 221.516 142.897H222.178C222.66 141.331 223.73 140.548 225.39 140.548C227.745 140.548 228.923 141.906 228.923 144.623V150.886H226.594V145.225C226.608 144.422 226.427 143.813 226.052 143.399C225.691 142.97 225.169 142.756 224.486 142.756C223.791 142.756 223.249 143.004 222.861 143.499C222.472 143.981 222.278 144.656 222.278 145.526V150.886H219.95ZM240.277 151.187C239.233 151.187 238.323 150.973 237.547 150.545C236.784 150.103 236.195 149.481 235.781 148.678C235.366 147.875 235.158 146.931 235.158 145.848C235.158 144.777 235.359 143.84 235.76 143.037C236.175 142.234 236.757 141.619 237.507 141.19C238.27 140.762 239.166 140.548 240.197 140.548C241.548 140.548 242.619 140.909 243.409 141.632C244.211 142.355 244.613 143.338 244.613 144.583V144.743H242.224V144.583C242.224 144.034 242.037 143.606 241.662 143.298C241.301 142.977 240.812 142.816 240.197 142.816C239.38 142.816 238.731 143.091 238.25 143.639C237.781 144.175 237.547 144.911 237.547 145.848C237.547 146.798 237.788 147.547 238.27 148.096C238.765 148.644 239.434 148.919 240.277 148.919C240.933 148.919 241.455 148.778 241.843 148.497C242.231 148.203 242.425 147.808 242.425 147.313V147.152H244.794V147.313C244.807 148.504 244.406 149.447 243.589 150.143C242.773 150.839 241.669 151.187 240.277 151.187ZM251.048 151.187C250.004 151.187 249.094 150.973 248.318 150.545C247.542 150.103 246.94 149.481 246.511 148.678C246.096 147.875 245.889 146.931 245.889 145.848C245.889 144.777 246.096 143.84 246.511 143.037C246.94 142.234 247.542 141.619 248.318 141.19C249.094 140.762 250.004 140.548 251.048 140.548C252.105 140.548 253.022 140.762 253.798 141.19C254.574 141.619 255.17 142.234 255.585 143.037C256.013 143.84 256.227 144.777 256.227 145.848C256.227 146.931 256.013 147.875 255.585 148.678C255.17 149.481 254.574 150.103 253.798 150.545C253.022 150.973 252.105 151.187 251.048 151.187ZM251.048 148.939C251.904 148.939 252.58 148.665 253.075 148.116C253.571 147.554 253.818 146.798 253.818 145.848C253.818 144.897 253.571 144.148 253.075 143.599C252.58 143.051 251.904 142.776 251.048 142.776C250.205 142.776 249.529 143.057 249.021 143.619C248.525 144.168 248.278 144.911 248.278 145.848C248.278 146.784 248.525 147.534 249.021 148.096C249.529 148.658 250.205 148.939 251.048 148.939ZM265.072 135.71H267.38V150.886H265.333C265.333 150.284 265.486 149.601 265.794 148.838H265.132C264.543 150.404 263.412 151.187 261.739 151.187C260.361 151.187 259.297 150.725 258.548 149.802C257.798 148.865 257.424 147.54 257.424 145.827C257.424 144.155 257.798 142.857 258.548 141.933C259.297 141.01 260.361 140.548 261.739 140.548C263.439 140.548 264.57 141.324 265.132 142.877H265.814C265.319 141.94 265.072 140.976 265.072 139.986V135.71ZM262.422 148.919C263.252 148.919 263.894 148.651 264.349 148.116C264.817 147.567 265.052 146.804 265.052 145.827C265.052 144.864 264.817 144.121 264.349 143.599C263.894 143.077 263.252 142.816 262.422 142.816C261.592 142.816 260.943 143.077 260.475 143.599C260.02 144.121 259.792 144.864 259.792 145.827C259.792 146.804 260.02 147.567 260.475 148.116C260.943 148.651 261.592 148.919 262.422 148.919ZM274.649 151.187C273.016 151.187 271.731 150.712 270.794 149.762C269.858 148.798 269.389 147.494 269.389 145.848C269.389 144.777 269.59 143.84 269.991 143.037C270.406 142.234 270.988 141.619 271.738 141.19C272.501 140.762 273.391 140.548 274.408 140.548C275.398 140.548 276.268 140.749 277.017 141.15C277.78 141.538 278.369 142.1 278.784 142.836C279.212 143.559 279.426 144.396 279.426 145.346C279.426 145.948 279.379 146.416 279.286 146.751H271.758C271.905 147.514 272.226 148.116 272.722 148.557C273.23 148.986 273.872 149.2 274.649 149.2C275.304 149.2 275.84 149.086 276.254 148.859C276.683 148.618 276.897 148.31 276.897 147.935V147.895H279.205V147.935C279.205 148.578 279.011 149.146 278.623 149.641C278.248 150.123 277.713 150.505 277.017 150.786C276.321 151.053 275.532 151.187 274.649 151.187ZM277.057 145.105C276.95 144.288 276.663 143.653 276.194 143.198C275.726 142.743 275.13 142.515 274.408 142.515C273.685 142.515 273.083 142.743 272.601 143.198C272.133 143.653 271.845 144.288 271.738 145.105H277.057Z" fill="black"/>
<rect x="42" y="172.555" width="53.9982" height="53.9982" rx="4" stroke="#CACACA" stroke-width="2"/>
<rect x="111.667" y="172.555" width="53.9982" height="53.9982" rx="4" stroke="#CACACA" stroke-width="2"/>
<rect x="181.334" y="172.555" width="53.9982" height="53.9982" rx="4" stroke="#CACACA" stroke-width="2"/>
<rect x="251.002" y="172.555" width="53.9982" height="53.9982" rx="4" stroke="#CACACA" stroke-width="2"/>
<rect x="0.5" y="0.5" width="346" height="289.553" rx="13.5" stroke="#E4E4E4"/>
</svg>
