<svg width="611" height="249" viewBox="0 0 611 249" fill="none" xmlns="http://www.w3.org/2000/svg">
<rect width="611" height="249" rx="21" fill="#3CDF90"/>
<rect x="82.3828" y="34.3828" width="68.7266" height="68.7266" rx="34.3633" fill="#FCFF45"/>
<rect x="82.3828" y="34.3828" width="68.7266" height="68.7266" rx="34.3633" stroke="white" stroke-width="7.23437"/>
<path d="M127.84 63.1554H129.324C130.065 63.1554 130.776 63.4499 131.3 63.9741C131.825 64.4983 132.119 65.2092 132.119 65.9506V71.5411C132.119 72.2824 131.825 72.9934 131.3 73.5176C130.776 74.0418 130.065 74.3363 129.324 74.3363H127.84C127.499 77.0383 126.184 79.5231 124.142 81.3244C122.099 83.1257 119.469 84.1196 116.746 84.1196V81.3244C118.97 81.3244 121.103 80.4409 122.675 78.8683C124.248 77.2956 125.131 75.1627 125.131 72.9387V64.553C125.131 62.3289 124.248 60.196 122.675 58.6234C121.103 57.0508 118.97 56.1673 116.746 56.1673C114.522 56.1673 112.389 57.0508 110.817 58.6234C109.244 60.196 108.361 62.3289 108.361 64.553V74.3363H104.168C103.427 74.3363 102.716 74.0418 102.192 73.5176C101.668 72.9934 101.373 72.2824 101.373 71.5411V65.9506C101.373 65.2092 101.668 64.4983 102.192 63.9741C102.716 63.4499 103.427 63.1554 104.168 63.1554H105.652C105.993 60.4536 107.309 57.9692 109.351 56.1682C111.394 54.3672 114.023 53.3735 116.746 53.3735C119.469 53.3735 122.099 54.3672 124.141 56.1682C126.184 57.9692 127.499 60.4536 127.84 63.1554ZM104.168 65.9506V71.5411H105.566V65.9506H104.168ZM127.926 65.9506V71.5411H129.324V65.9506H127.926ZM110.82 74.0358L112.302 71.6655C113.634 72.4999 115.174 72.9412 116.746 72.9387C118.318 72.9412 119.858 72.4999 121.19 71.6655L122.672 74.0358C120.896 75.1485 118.842 75.7371 116.746 75.7339C114.65 75.7372 112.596 75.1486 110.82 74.0358Z" fill="#032E32"/>
<rect x="463.383" y="164.383" width="68.7266" height="68.7266" rx="34.3633" fill="#4845FF"/>
<rect x="463.383" y="164.383" width="68.7266" height="68.7266" rx="34.3633" stroke="white" stroke-width="7.23437"/>
<path d="M492.32 196.033C492.32 195.673 492.463 195.328 492.718 195.073C492.972 194.819 493.317 194.676 493.677 194.676H501.815C502.175 194.676 502.52 194.819 502.775 195.073C503.029 195.328 503.172 195.673 503.172 196.033C503.172 196.392 503.029 196.737 502.775 196.992C502.52 197.246 502.175 197.389 501.815 197.389H493.677C493.317 197.389 492.972 197.246 492.718 196.992C492.463 196.737 492.32 196.392 492.32 196.033ZM493.677 200.102C493.317 200.102 492.972 200.245 492.718 200.499C492.463 200.754 492.32 201.099 492.32 201.458C492.32 201.818 492.463 202.163 492.718 202.417C492.972 202.672 493.317 202.815 493.677 202.815H499.102C499.462 202.815 499.807 202.672 500.062 202.417C500.316 202.163 500.459 201.818 500.459 201.458C500.459 201.099 500.316 200.754 500.062 200.499C499.807 200.245 499.462 200.102 499.102 200.102H493.677ZM481.469 198.745C481.469 195.162 482.653 191.679 484.835 188.836C487.017 185.994 490.077 183.951 493.538 183.024C497 182.098 500.671 182.34 503.981 183.713C507.292 185.086 510.056 187.512 511.847 190.617C513.637 193.721 514.353 197.329 513.883 200.882C513.413 204.435 511.784 207.733 509.249 210.266C506.713 212.798 503.413 214.423 499.859 214.888C496.306 215.353 492.699 214.633 489.597 212.839L483.254 214.955C483.019 215.033 482.768 215.046 482.527 214.992C482.286 214.938 482.064 214.819 481.886 214.648C481.708 214.477 481.579 214.261 481.515 214.022C481.45 213.784 481.452 213.532 481.52 213.295L483.452 206.537C482.147 204.147 481.465 201.468 481.469 198.745ZM497.746 185.181C495.351 185.181 492.999 185.815 490.928 187.018C488.858 188.222 487.143 189.952 485.958 192.034C484.773 194.115 484.16 196.473 484.181 198.868C484.203 201.263 484.858 203.609 486.081 205.669C486.175 205.828 486.235 206.004 486.259 206.188C486.282 206.371 486.267 206.557 486.216 206.735L484.835 211.564L489.333 210.066C489.524 210.003 489.727 209.982 489.927 210.007C490.127 210.031 490.319 210.1 490.489 210.207C492.267 211.332 494.282 212.028 496.375 212.241C498.468 212.453 500.581 212.175 502.549 211.43C504.516 210.685 506.283 209.492 507.71 207.946C509.137 206.4 510.185 204.544 510.771 202.523C511.357 200.503 511.464 198.373 511.086 196.304C510.707 194.235 509.852 192.282 508.589 190.6C507.326 188.917 505.688 187.552 503.806 186.612C501.925 185.671 499.85 185.181 497.746 185.181Z" fill="#EFFFF7"/>
</svg>
