<svg width="38" height="37" viewBox="0 0 38 37" fill="none" xmlns="http://www.w3.org/2000/svg">
<rect x="0.918457" y="0.644043" width="36.2953" height="36.2953" rx="18.1476" fill="#FCFF45"/>
<path fill-rule="evenodd" clip-rule="evenodd" d="M25.3993 24.3859C25.9258 23.5827 26.1221 23.1722 26.5237 22.2709C23.5609 21.1464 23.0879 16.9253 26.015 15.3101C25.1226 14.1856 23.8643 13.5342 22.6774 13.5342C21.8207 13.5342 21.2317 13.7573 20.7052 13.9625C20.259 14.1321 19.8574 14.2838 19.3577 14.2838C18.8222 14.2838 18.3492 14.1143 17.8495 13.9358C17.3051 13.7394 16.734 13.5342 16.02 13.5342C14.6904 13.5342 13.2714 14.3463 12.3701 15.7384C11.1029 17.7017 11.326 21.3785 13.3696 24.5197C14.1014 25.6442 15.083 26.9025 16.3592 26.9203C16.8946 26.9292 17.2427 26.7686 17.6264 26.5991C18.0637 26.4027 18.5366 26.1885 19.3666 26.1885C20.1965 26.1796 20.6606 26.4027 21.0979 26.5991C21.4727 26.7686 21.8118 26.9292 22.3383 26.9203C23.6323 26.9025 24.6675 25.5103 25.3993 24.3859Z" fill="#3CDF90"/>
<path fill-rule="evenodd" clip-rule="evenodd" d="M22.4899 9.07178C22.6327 10.0534 22.2311 11.0262 21.7046 11.7044C21.1424 12.4362 20.1607 13.0073 19.2148 12.9716C19.0452 12.0256 19.4825 11.0529 20.018 10.4015C20.6159 9.68753 21.6243 9.13425 22.4899 9.07178Z" fill="#3CDF90"/>
</svg>
