<svg width="484" height="384" viewBox="0 0 484 384" fill="none" xmlns="http://www.w3.org/2000/svg">
<path d="M74.3566 184.5V146.379H82.4709L99.8975 171.757L102.13 170.178C100.896 168.144 99.952 166.111 99.2985 164.078C98.645 162.009 98.3182 160.121 98.3182 158.415V146.379H107.032V184.5H98.3727L81.4907 159.83L79.2579 161.41C80.4923 163.443 81.4362 165.494 82.0897 167.564C82.7432 169.597 83.0699 171.466 83.0699 173.173V184.5H74.3566ZM124.5 185.317C121.632 185.317 119.09 184.827 116.876 183.847C114.697 182.83 113.009 181.414 111.811 179.599C110.613 177.784 110.014 175.714 110.014 173.391H119.163C119.163 174.552 119.635 175.514 120.579 176.277C121.559 177.039 122.866 177.42 124.5 177.42C126.134 177.42 127.422 176.967 128.366 176.059C129.347 175.115 129.837 173.935 129.837 172.519C129.837 171.031 129.292 169.796 128.203 168.816C127.15 167.836 125.734 167.346 123.955 167.346C121.85 167.346 120.216 167.854 119.054 168.871L112.083 166.474L114.534 146.379H136.263V154.276H120.579L119.49 164.242L122.158 164.568C122.303 163.443 122.975 162.535 124.173 161.845C125.371 161.156 126.841 160.811 128.584 160.811C130.581 160.811 132.36 161.337 133.921 162.39C135.518 163.407 136.753 164.822 137.624 166.638C138.532 168.453 138.986 170.522 138.986 172.846C138.986 175.206 138.368 177.33 137.134 179.218C135.936 181.105 134.23 182.594 132.015 183.683C129.837 184.772 127.332 185.317 124.5 185.317ZM153.831 185.317C149.656 185.317 146.48 184.173 144.301 181.886C142.776 180.361 141.651 178.255 140.925 175.569C140.235 172.846 139.89 169.47 139.89 165.44C139.89 161.41 140.235 158.052 140.925 155.365C141.651 152.642 142.776 150.518 144.301 148.993C146.48 146.706 149.656 145.562 153.831 145.562C158.007 145.562 161.183 146.706 163.362 148.993C164.886 150.518 165.994 152.642 166.684 155.365C167.41 158.052 167.773 161.41 167.773 165.44C167.773 169.47 167.41 172.846 166.684 175.569C165.994 178.255 164.886 180.361 163.362 181.886C161.183 184.173 158.007 185.317 153.831 185.317ZM153.831 177.42C155.138 177.42 156.137 176.894 156.827 175.841C158.025 174.135 158.624 170.668 158.624 165.44C158.624 160.212 158.025 156.745 156.827 155.038C156.137 153.985 155.138 153.459 153.831 153.459C152.524 153.459 151.526 153.985 150.836 155.038C149.638 156.745 149.039 160.212 149.039 165.44C149.039 170.668 149.638 174.135 150.836 175.841C151.526 176.894 152.524 177.42 153.831 177.42ZM183.218 185.317C179.042 185.317 175.866 184.173 173.687 181.886C172.163 180.361 171.037 178.255 170.311 175.569C169.621 172.846 169.276 169.47 169.276 165.44C169.276 161.41 169.621 158.052 170.311 155.365C171.037 152.642 172.163 150.518 173.687 148.993C175.866 146.706 179.042 145.562 183.218 145.562C187.393 145.562 190.569 146.706 192.748 148.993C194.273 150.518 195.38 152.642 196.07 155.365C196.796 158.052 197.159 161.41 197.159 165.44C197.159 169.47 196.796 172.846 196.07 175.569C195.38 178.255 194.273 180.361 192.748 181.886C190.569 184.173 187.393 185.317 183.218 185.317ZM183.218 177.42C184.525 177.42 185.523 176.894 186.213 175.841C187.411 174.135 188.01 170.668 188.01 165.44C188.01 160.212 187.411 156.745 186.213 155.038C185.523 153.985 184.525 153.459 183.218 153.459C181.911 153.459 180.912 153.985 180.222 155.038C179.024 156.745 178.425 160.212 178.425 165.44C178.425 170.668 179.024 174.135 180.222 175.841C180.912 176.894 181.911 177.42 183.218 177.42ZM205.415 192.233H198.989L200.623 176.059H208.574L205.415 192.233ZM224.653 185.317C220.477 185.317 217.301 184.173 215.122 181.886C213.598 180.361 212.472 178.255 211.746 175.569C211.056 172.846 210.711 169.47 210.711 165.44C210.711 161.41 211.056 158.052 211.746 155.365C212.472 152.642 213.598 150.518 215.122 148.993C217.301 146.706 220.477 145.562 224.653 145.562C228.828 145.562 232.004 146.706 234.183 148.993C235.708 150.518 236.815 152.642 237.505 155.365C238.231 158.052 238.594 161.41 238.594 165.44C238.594 169.47 238.231 172.846 237.505 175.569C236.815 178.255 235.708 180.361 234.183 181.886C232.004 184.173 228.828 185.317 224.653 185.317ZM224.653 177.42C225.96 177.42 226.958 176.894 227.648 175.841C228.846 174.135 229.445 170.668 229.445 165.44C229.445 160.212 228.846 156.745 227.648 155.038C226.958 153.985 225.96 153.459 224.653 153.459C223.346 153.459 222.347 153.985 221.657 155.038C220.459 156.745 219.86 160.212 219.86 165.44C219.86 170.668 220.459 174.135 221.657 175.841C222.347 176.894 223.346 177.42 224.653 177.42ZM254.039 185.317C249.863 185.317 246.687 184.173 244.508 181.886C242.984 180.361 241.858 178.255 241.132 175.569C240.442 172.846 240.097 169.47 240.097 165.44C240.097 161.41 240.442 158.052 241.132 155.365C241.858 152.642 242.984 150.518 244.508 148.993C246.687 146.706 249.863 145.562 254.039 145.562C258.214 145.562 261.39 146.706 263.569 148.993C265.094 150.518 266.201 152.642 266.891 155.365C267.617 158.052 267.98 161.41 267.98 165.44C267.98 169.47 267.617 172.846 266.891 175.569C266.201 178.255 265.094 180.361 263.569 181.886C261.39 184.173 258.214 185.317 254.039 185.317ZM254.039 177.42C255.346 177.42 256.344 176.894 257.034 175.841C258.232 174.135 258.831 170.668 258.831 165.44C258.831 160.212 258.232 156.745 257.034 155.038C256.344 153.985 255.346 153.459 254.039 153.459C252.732 153.459 251.733 153.985 251.043 155.038C249.845 156.745 249.246 160.212 249.246 165.44C249.246 170.668 249.845 174.135 251.043 175.841C251.733 176.894 252.732 177.42 254.039 177.42ZM283.425 185.317C279.25 185.317 276.073 184.173 273.895 181.886C272.37 180.361 271.244 178.255 270.518 175.569C269.828 172.846 269.483 169.47 269.483 165.44C269.483 161.41 269.828 158.052 270.518 155.365C271.244 152.642 272.37 150.518 273.895 148.993C276.073 146.706 279.25 145.562 283.425 145.562C287.6 145.562 290.777 146.706 292.955 148.993C294.48 150.518 295.587 152.642 296.277 155.365C297.003 158.052 297.366 161.41 297.366 165.44C297.366 169.47 297.003 172.846 296.277 175.569C295.587 178.255 294.48 180.361 292.955 181.886C290.777 184.173 287.6 185.317 283.425 185.317ZM283.425 177.42C284.732 177.42 285.73 176.894 286.42 175.841C287.618 174.135 288.217 170.668 288.217 165.44C288.217 160.212 287.618 156.745 286.42 155.038C285.73 153.985 284.732 153.459 283.425 153.459C282.118 153.459 281.119 153.985 280.43 155.038C279.231 156.745 278.632 160.212 278.632 165.44C278.632 170.668 279.231 174.135 280.43 175.841C281.119 176.894 282.118 177.42 283.425 177.42Z" fill="#032E32"/>
<path d="M70.154 130.5L73.962 120.07H75.166L78.974 130.5H77.798L76.902 127.952H72.24L71.33 130.5H70.154ZM72.604 126.902H76.51L74.564 121.386L72.604 126.902ZM84.141 130.668C81.201 130.668 79.073 128.414 79.073 125.292C79.073 122.17 81.201 119.902 84.141 119.902C86.255 119.902 87.795 121.204 88.313 122.506L87.263 122.968C86.731 121.75 85.625 120.952 84.141 120.952C81.831 120.952 80.193 122.702 80.193 125.292C80.193 127.882 81.831 129.618 84.141 129.618C85.625 129.618 86.731 128.834 87.263 127.616L88.313 128.078C87.795 129.38 86.255 130.668 84.141 130.668ZM94.5185 130.668C91.5785 130.668 89.4505 128.414 89.4505 125.292C89.4505 122.17 91.5785 119.902 94.5185 119.902C96.6325 119.902 98.1725 121.204 98.6905 122.506L97.6405 122.968C97.1085 121.75 96.0025 120.952 94.5185 120.952C92.2085 120.952 90.5705 122.702 90.5705 125.292C90.5705 127.882 92.2085 129.618 94.5185 129.618C96.0025 129.618 97.1085 128.834 97.6405 127.616L98.6905 128.078C98.1725 129.38 96.6325 130.668 94.5185 130.668ZM105.05 130.668C102.152 130.668 99.828 128.428 99.828 125.278C99.828 122.142 102.152 119.902 105.05 119.902C107.948 119.902 110.272 122.156 110.272 125.278C110.272 128.414 107.948 130.668 105.05 130.668ZM105.05 129.618C107.458 129.618 109.152 127.672 109.152 125.278C109.152 122.912 107.472 120.952 105.05 120.952C102.628 120.952 100.948 122.912 100.948 125.278C100.948 127.672 102.642 129.618 105.05 129.618ZM115.535 130.668C113.309 130.668 111.825 129.17 111.825 127.098V120.07H112.945V127.098C112.945 128.61 113.995 129.618 115.535 129.618C117.075 129.618 118.125 128.61 118.125 127.098V120.07H119.245V127.098C119.245 129.17 117.761 130.668 115.535 130.668ZM121.11 130.5V120.07H122.09L127.83 128.302V120.07H128.95V130.5H127.97L122.23 122.212V130.5H121.11ZM132.664 130.5V121.12H129.78V120.07H136.64V121.12H133.784V130.5H132.664ZM139.281 130.5V120.07H143.663C145.427 120.07 146.561 121.12 146.561 122.688C146.561 123.64 146.127 124.424 145.371 124.886C146.379 125.404 146.981 126.356 146.981 127.462C146.981 129.338 145.707 130.5 143.677 130.5H139.281ZM140.401 124.48H143.579C144.699 124.48 145.441 123.752 145.441 122.73C145.441 121.694 144.699 121.12 143.579 121.12H140.401V124.48ZM140.401 129.45H143.677C144.993 129.45 145.861 128.708 145.861 127.476C145.861 126.272 144.993 125.488 143.677 125.488H140.401V129.45ZM147.35 130.5L151.158 120.07H152.362L156.17 130.5H154.994L154.098 127.952H149.436L148.526 130.5H147.35ZM149.8 126.902H153.706L151.76 121.386L149.8 126.902ZM157.001 130.5V120.07H158.121V129.45H162.741V130.5H157.001ZM162.801 130.5L166.609 120.07H167.813L171.621 130.5H170.445L169.549 127.952H164.887L163.977 130.5H162.801ZM165.251 126.902H169.157L167.211 121.386L165.251 126.902ZM172.451 130.5V120.07H173.431L179.171 128.302V120.07H180.291V130.5H179.311L173.571 122.212V130.5H172.451ZM186.96 130.668C184.02 130.668 181.892 128.414 181.892 125.292C181.892 122.17 184.02 119.902 186.96 119.902C189.074 119.902 190.614 121.204 191.132 122.506L190.082 122.968C189.55 121.75 188.444 120.952 186.96 120.952C184.65 120.952 183.012 122.702 183.012 125.292C183.012 127.882 184.65 129.618 186.96 129.618C188.444 129.618 189.55 128.834 190.082 127.616L191.132 128.078C190.614 129.38 189.074 130.668 186.96 130.668ZM192.578 130.5V120.07H199.298V121.12H193.698V124.746H199.018V125.796H193.698V129.45H199.298V130.5H192.578Z" fill="#707070"/>
<path d="M70 61.0688C70 64.1096 71.9498 66.686 74.6423 67.6377V54.5C71.9498 55.4517 70 58.0281 70 61.0688ZM83.9269 61.0688C83.9269 58.0281 82.0003 55.4517 79.2846 54.5V67.6377C82.0003 66.686 83.9269 64.1096 83.9269 61.0688Z" fill="#00A210"/>
<path d="M91.8509 66.0688V55.6388H93.5169L98.2209 61.8408V55.6388H100.391V66.0688H98.7109L94.0209 59.7268V66.0688H91.8509ZM106.694 66.2368C103.698 66.2368 101.374 63.9408 101.374 60.8468C101.374 57.7388 103.614 55.4708 106.638 55.4708C108.892 55.4708 110.558 56.7168 111.104 58.2568L109.186 59.1808C108.822 58.1728 107.898 57.4308 106.638 57.4308C104.79 57.4308 103.544 58.8168 103.544 60.8468C103.544 62.8908 104.846 64.2768 106.694 64.2768C108.122 64.2768 109.424 63.4228 109.424 61.9668V61.9388H106.638V60.1188H111.594V61.2248C111.594 64.6408 109.088 66.2368 106.694 66.2368ZM112.373 66.0688V55.6388H114.039L118.743 61.8408V55.6388H120.913V66.0688H119.233L114.543 59.7268V66.0688H112.373Z" fill="black"/>
<path d="M132.427 60.0688L134.927 62.5688L137.427 60.0688" stroke="black" stroke-width="1.5" stroke-linecap="round" stroke-linejoin="round"/>
<rect x="26" y="20.5" width="415" height="208" rx="12" stroke="#EFEFEF" stroke-width="3"/>
<g filter="url(#filter0_b_267_328)">
<rect x="110" y="201.5" width="357" height="163.952" rx="14.6522" fill="#F1F9F7"/>
<rect x="143.374" y="229.176" width="28.4893" height="28.4904" rx="5" fill="#3CDF90"/>
<path d="M155.178 243.829L153.143 245.864L155.178 247.899L157.213 245.864L155.178 243.829ZM160.062 235.688C158.726 235.688 157.44 236.193 156.462 237.102C155.483 238.011 154.884 239.256 154.785 240.587C153.775 240.662 152.808 241.026 151.998 241.635C151.188 242.243 150.57 243.072 150.217 244.022C149.865 244.971 149.792 246.002 150.008 246.992C150.224 247.982 150.72 248.889 151.436 249.605C152.153 250.321 153.059 250.817 154.049 251.033C155.039 251.249 156.07 251.176 157.02 250.824C157.969 250.471 158.798 249.853 159.407 249.043C160.015 248.234 160.379 247.266 160.454 246.256C161.819 246.154 163.092 245.527 164.005 244.506C164.917 243.486 165.399 242.151 165.348 240.783C165.297 239.415 164.718 238.12 163.732 237.17C162.746 236.22 161.431 235.689 160.062 235.688ZM160.325 244.634C160.097 243.683 159.61 242.814 158.919 242.123C158.227 241.431 157.358 240.945 156.408 240.717C156.458 240.016 156.709 239.345 157.13 238.784C157.551 238.222 158.124 237.793 158.782 237.548C159.44 237.302 160.154 237.252 160.84 237.401C161.526 237.55 162.155 237.893 162.651 238.39C163.148 238.886 163.491 239.515 163.64 240.201C163.79 240.887 163.739 241.601 163.494 242.259C163.248 242.917 162.819 243.491 162.258 243.912C161.696 244.332 161.025 244.583 160.325 244.634ZM158.841 245.864C158.841 246.835 158.455 247.767 157.768 248.454C157.081 249.141 156.149 249.527 155.178 249.527C154.206 249.527 153.274 249.141 152.587 248.454C151.901 247.767 151.515 246.835 151.515 245.864C151.515 244.892 151.901 243.96 152.587 243.273C153.274 242.586 154.206 242.201 155.178 242.201C156.149 242.201 157.081 242.586 157.768 243.273C158.455 243.96 158.841 244.892 158.841 245.864ZM150.294 239.352C150.294 238.488 150.637 237.66 151.247 237.049C151.858 236.439 152.686 236.095 153.55 236.095H154.771V237.723H153.55C153.118 237.723 152.704 237.895 152.398 238.2C152.093 238.506 151.922 238.92 151.922 239.352V240.573H150.294V239.352ZM163.318 247.492V246.271H164.946V247.492C164.946 248.355 164.603 249.183 163.992 249.794C163.381 250.405 162.553 250.748 161.69 250.748H160.469V249.12H161.69C162.121 249.12 162.536 248.948 162.841 248.643C163.146 248.337 163.318 247.923 163.318 247.492Z" fill="#032E32"/>
<path d="M148.845 288.984C147.243 288.984 145.992 288.6 145.094 287.831C144.208 287.05 143.765 285.962 143.765 284.569V284.256H146.891V284.569C146.891 285.051 147.06 285.428 147.399 285.702C147.737 285.962 148.213 286.093 148.825 286.093C149.359 286.093 149.776 285.995 150.075 285.8C150.388 285.604 150.544 285.324 150.544 284.96C150.544 284.725 150.44 284.491 150.232 284.256C150.036 284.022 149.756 283.813 149.392 283.631L146.656 282.244C145.823 281.827 145.172 281.306 144.703 280.681C144.247 280.056 144.019 279.392 144.019 278.688C144.019 277.451 144.442 276.487 145.289 275.797C146.149 275.094 147.347 274.736 148.884 274.723C150.42 274.723 151.619 275.113 152.478 275.895C153.338 276.676 153.768 277.757 153.768 279.138V279.607H150.642V279.333C150.642 278.799 150.492 278.382 150.193 278.083C149.893 277.783 149.476 277.633 148.942 277.633C148.434 277.633 148.037 277.725 147.751 277.907C147.477 278.089 147.34 278.35 147.34 278.688C147.34 278.884 147.431 279.086 147.614 279.294C147.796 279.489 148.05 279.672 148.376 279.841L151.58 281.404C152.296 281.756 152.856 282.244 153.26 282.869C153.663 283.494 153.865 284.191 153.865 284.96C153.865 286.223 153.423 287.213 152.537 287.929C151.664 288.632 150.433 288.984 148.845 288.984ZM157.728 288.984C156.582 288.984 155.729 288.626 155.169 287.909C154.609 287.18 154.329 286.145 154.329 284.803V278.727H157.299L157.259 284.393C157.259 284.953 157.396 285.396 157.67 285.721C157.943 286.034 158.327 286.19 158.822 286.19C159.369 286.19 159.793 285.975 160.092 285.546C160.405 285.103 160.561 284.491 160.561 283.709V278.727H163.511V288.691H161.089C161.206 287.831 161.343 287.135 161.499 286.601H160.678C160.47 287.395 160.131 287.994 159.662 288.398C159.194 288.789 158.549 288.984 157.728 288.984ZM169.624 288.984C168.583 288.984 167.671 288.769 166.889 288.339C166.121 287.909 165.528 287.297 165.112 286.503C164.695 285.695 164.486 284.758 164.486 283.69C164.486 282.622 164.688 281.697 165.092 280.916C165.496 280.121 166.069 279.509 166.811 279.079C167.567 278.649 168.452 278.434 169.468 278.434C170.862 278.434 171.962 278.819 172.77 279.587C173.59 280.355 174.001 281.397 174.001 282.713V282.869H170.953V282.713C170.953 282.283 170.816 281.944 170.543 281.697C170.282 281.449 169.924 281.326 169.468 281.326C168.869 281.326 168.387 281.541 168.023 281.97C167.671 282.387 167.495 282.96 167.495 283.69C167.495 284.432 167.684 285.018 168.062 285.448C168.452 285.878 168.973 286.093 169.624 286.093C170.08 286.093 170.438 286.001 170.699 285.819C170.959 285.637 171.09 285.389 171.09 285.077V284.92H174.118V285.077C174.144 286.275 173.753 287.226 172.946 287.929C172.138 288.632 171.031 288.984 169.624 288.984ZM179.361 288.984C178.319 288.984 177.407 288.769 176.625 288.339C175.857 287.909 175.264 287.297 174.848 286.503C174.431 285.695 174.223 284.758 174.223 283.69C174.223 282.622 174.424 281.697 174.828 280.916C175.232 280.121 175.805 279.509 176.547 279.079C177.303 278.649 178.188 278.434 179.204 278.434C180.598 278.434 181.698 278.819 182.506 279.587C183.326 280.355 183.737 281.397 183.737 282.713V282.869H180.689V282.713C180.689 282.283 180.552 281.944 180.279 281.697C180.018 281.449 179.66 281.326 179.204 281.326C178.605 281.326 178.123 281.541 177.759 281.97C177.407 282.387 177.231 282.96 177.231 283.69C177.231 284.432 177.42 285.018 177.798 285.448C178.188 285.878 178.709 286.093 179.361 286.093C179.816 286.093 180.175 286.001 180.435 285.819C180.696 285.637 180.826 285.389 180.826 285.077V284.92H183.854V285.077C183.88 286.275 183.489 287.226 182.682 287.929C181.874 288.632 180.767 288.984 179.361 288.984ZM189.097 288.984C188.055 288.984 187.143 288.769 186.362 288.339C185.593 287.909 185 287.297 184.584 286.503C184.167 285.695 183.959 284.758 183.959 283.69C183.959 282.622 184.16 281.697 184.564 280.916C184.981 280.121 185.574 279.509 186.342 279.079C187.11 278.649 188.009 278.434 189.038 278.434C190.067 278.434 190.966 278.623 191.734 279.001C192.502 279.379 193.088 279.919 193.492 280.622C193.909 281.326 194.117 282.153 194.117 283.104C194.117 283.677 194.072 284.159 193.981 284.549H186.85C186.967 285.213 187.221 285.734 187.612 286.112C188.016 286.477 188.511 286.659 189.097 286.659C189.696 286.659 190.171 286.568 190.523 286.386C190.887 286.19 191.07 285.93 191.07 285.604V285.546H193.883V285.604C193.883 286.633 193.453 287.454 192.594 288.066C191.734 288.678 190.568 288.984 189.097 288.984ZM191.207 282.752C191.076 282.114 190.822 281.619 190.445 281.267C190.067 280.916 189.598 280.74 189.038 280.74C188.478 280.74 188.009 280.916 187.631 281.267C187.254 281.619 187 282.114 186.869 282.752H191.207ZM198.291 288.984C196.976 288.984 195.953 288.691 195.224 288.105C194.494 287.506 194.13 286.672 194.13 285.604V285.409H197.08V285.604C197.08 285.917 197.184 286.164 197.392 286.347C197.614 286.516 197.913 286.601 198.291 286.601C198.669 286.601 198.962 286.529 199.17 286.386C199.378 286.229 199.483 286.014 199.483 285.741C199.483 285.559 199.411 285.396 199.268 285.253C199.138 285.109 198.949 285.005 198.701 284.94L196.728 284.354C195.999 284.132 195.432 283.787 195.028 283.318C194.625 282.85 194.423 282.296 194.423 281.658C194.423 280.655 194.774 279.874 195.478 279.314C196.194 278.74 197.184 278.447 198.447 278.434C199.724 278.434 200.72 278.734 201.436 279.333C202.153 279.919 202.511 280.746 202.511 281.814V282.01H199.561V281.814C199.561 281.502 199.463 281.261 199.268 281.091C199.072 280.909 198.799 280.818 198.447 280.818C198.122 280.818 197.868 280.896 197.685 281.052C197.516 281.196 197.431 281.397 197.431 281.658C197.431 281.997 197.718 282.257 198.291 282.439L199.952 282.947C200.746 283.195 201.365 283.566 201.807 284.061C202.263 284.543 202.491 285.103 202.491 285.741C202.491 286.77 202.12 287.571 201.378 288.144C200.635 288.704 199.606 288.984 198.291 288.984ZM206.711 288.984C205.395 288.984 204.373 288.691 203.643 288.105C202.914 287.506 202.549 286.672 202.549 285.604V285.409H205.499V285.604C205.499 285.917 205.604 286.164 205.812 286.347C206.033 286.516 206.333 286.601 206.711 286.601C207.088 286.601 207.381 286.529 207.59 286.386C207.798 286.229 207.902 286.014 207.902 285.741C207.902 285.559 207.831 285.396 207.687 285.253C207.557 285.109 207.368 285.005 207.121 284.94L205.148 284.354C204.418 284.132 203.852 283.787 203.448 283.318C203.044 282.85 202.842 282.296 202.842 281.658C202.842 280.655 203.194 279.874 203.897 279.314C204.614 278.74 205.604 278.447 206.867 278.434C208.143 278.434 209.14 278.734 209.856 279.333C210.572 279.919 210.93 280.746 210.93 281.814V282.01H207.98V281.814C207.98 281.502 207.883 281.261 207.687 281.091C207.492 280.909 207.219 280.818 206.867 280.818C206.541 280.818 206.287 280.896 206.105 281.052C205.936 281.196 205.851 281.397 205.851 281.658C205.851 281.997 206.138 282.257 206.711 282.439L208.371 282.947C209.166 283.195 209.784 283.566 210.227 284.061C210.683 284.543 210.911 285.103 210.911 285.741C210.911 286.77 210.54 287.571 209.797 288.144C209.055 288.704 208.026 288.984 206.711 288.984ZM219.585 277.633H216.635V277.516C216.635 276.722 216.315 276.324 215.677 276.324C215.391 276.324 215.156 276.429 214.974 276.637C214.805 276.832 214.72 277.125 214.72 277.516V278.727H218.158V281.521H214.72V288.691H211.77V281.521H210.617V278.727H211.77V277.516C211.77 276.292 212.115 275.341 212.805 274.664C213.496 273.974 214.453 273.629 215.677 273.629C216.902 273.629 217.859 273.974 218.549 274.664C219.239 275.341 219.585 276.292 219.585 277.516V277.633ZM222.561 288.984C221.415 288.984 220.562 288.626 220.002 287.909C219.442 287.18 219.162 286.145 219.162 284.803V278.727H222.131L222.092 284.393C222.092 284.953 222.229 285.396 222.502 285.721C222.776 286.034 223.16 286.19 223.655 286.19C224.202 286.19 224.625 285.975 224.925 285.546C225.238 285.103 225.394 284.491 225.394 283.709V278.727H228.344V288.691H225.921C226.038 287.831 226.175 287.135 226.332 286.601H225.511C225.303 287.395 224.964 287.994 224.495 288.398C224.026 288.789 223.382 288.984 222.561 288.984ZM233.012 288.691H230.062V273.922H233.012V288.691ZM237.635 288.691H234.685V273.922H237.635V288.691ZM241.3 293.458C240.18 293.458 239.282 293.139 238.604 292.5C237.927 291.875 237.589 291.016 237.589 289.922H240.031C240.031 290.247 240.148 290.501 240.382 290.684C240.617 290.879 240.923 290.977 241.3 290.977C242.03 290.977 242.505 290.625 242.727 289.922L243.117 288.691H241.476L238.253 278.727H241.203L243.762 286.718L246.341 278.688L249.33 278.727L245.559 290.039C245.195 291.133 244.648 291.973 243.918 292.559C243.202 293.158 242.329 293.458 241.3 293.458ZM254.074 288.71L251.71 278.727H254.738L255.715 282.928C255.91 283.748 256.008 285.025 256.008 286.757H256.828C256.828 285.311 256.932 284.035 257.141 282.928L257.922 278.727H261.986L262.767 282.928C262.976 284.035 263.08 285.311 263.08 286.757H263.9C263.9 285.025 263.998 283.748 264.193 282.928L265.17 278.727H268.198L265.834 288.71H260.97L260.462 285.292C260.397 284.784 260.364 284.054 260.364 283.104V281.463H259.544V283.104C259.544 284.054 259.511 284.784 259.446 285.292L258.938 288.71H254.074ZM270.077 278.024C269.608 278.024 269.211 277.868 268.885 277.555C268.56 277.243 268.397 276.865 268.397 276.422C268.397 275.979 268.56 275.602 268.885 275.289C269.211 274.976 269.608 274.82 270.077 274.82C270.533 274.82 270.923 274.976 271.249 275.289C271.575 275.602 271.737 275.979 271.737 276.422C271.737 276.865 271.575 277.243 271.249 277.555C270.923 277.868 270.533 278.024 270.077 278.024ZM271.62 288.691H268.67V278.727H271.62V288.691ZM278.584 283.846H281.534V285.096C281.534 286.321 281.189 287.278 280.499 287.968C279.808 288.645 278.851 288.984 277.627 288.984C276.402 288.984 275.445 288.645 274.755 287.968C274.065 287.278 273.72 286.321 273.72 285.096V281.521H272.196V278.727H273.817V276.031H276.669V278.727H281.339V281.521H276.669V285.096C276.696 285.409 276.793 285.656 276.963 285.839C277.132 286.008 277.353 286.093 277.627 286.093C277.926 286.093 278.161 286.008 278.33 285.839C278.499 285.656 278.584 285.409 278.584 285.096V283.846ZM288.437 278.434C289.635 278.434 290.507 278.773 291.054 279.45C291.614 280.115 291.894 281.104 291.894 282.42V288.691H288.944V283.416C288.971 282.713 288.821 282.172 288.495 281.795C288.183 281.417 287.74 281.228 287.167 281.228C286.568 281.228 286.099 281.449 285.76 281.892C285.434 282.322 285.272 282.928 285.272 283.709V288.691H282.322V273.922H285.252V277.653C285.252 277.966 285.167 278.402 284.998 278.962C284.842 279.522 284.62 280.141 284.334 280.818H285.135C285.643 279.229 286.743 278.434 288.437 278.434ZM299.958 273.922H302.888V288.691H300.329C300.329 288.222 300.518 287.525 300.896 286.601H300.036C299.776 287.408 299.385 288.007 298.864 288.398C298.343 288.789 297.672 288.984 296.852 288.984C295.523 288.984 294.488 288.522 293.745 287.597C293.003 286.659 292.632 285.357 292.632 283.69C292.632 282.036 293.003 280.746 293.745 279.821C294.488 278.897 295.523 278.434 296.852 278.434C297.672 278.434 298.343 278.63 298.864 279.02C299.398 279.411 299.789 280.004 300.036 280.798H300.896C300.596 280.251 300.362 279.704 300.192 279.157C300.036 278.61 299.958 278.109 299.958 277.653V273.922ZM297.789 286.093C298.467 286.093 298.994 285.884 299.372 285.467C299.749 285.038 299.938 284.445 299.938 283.69C299.938 282.947 299.749 282.368 299.372 281.951C298.994 281.534 298.467 281.326 297.789 281.326C297.112 281.326 296.585 281.534 296.207 281.951C295.829 282.368 295.64 282.947 295.64 283.69C295.64 284.445 295.829 285.038 296.207 285.467C296.585 285.884 297.112 286.093 297.789 286.093ZM310.245 278.434C311.235 278.434 311.964 278.714 312.433 279.274C312.915 279.821 313.156 280.681 313.156 281.853V283.748H310.011V282.83C310.011 282.322 309.9 281.931 309.679 281.658C309.47 281.371 309.171 281.228 308.78 281.228C308.389 281.228 308.083 281.378 307.862 281.677C307.653 281.977 307.549 282.394 307.549 282.928V288.691H304.599V278.727H307.061C306.983 279.353 306.826 280.049 306.592 280.818H307.432C307.771 279.229 308.708 278.434 310.245 278.434ZM316.542 288.984C315.448 288.984 314.595 288.737 313.983 288.242C313.371 287.734 313.065 287.037 313.065 286.151C313.065 285.122 313.442 284.315 314.198 283.729C314.953 283.13 316.008 282.797 317.363 282.732L319.473 282.654V282.537C319.473 281.977 319.323 281.541 319.023 281.228C318.737 280.916 318.313 280.759 317.753 280.759C317.258 280.759 316.848 280.896 316.523 281.169C316.21 281.443 316.054 281.769 316.054 282.146H313.065C313.117 280.974 313.547 280.069 314.354 279.431C315.162 278.78 316.295 278.454 317.753 278.454C319.212 278.454 320.358 278.825 321.192 279.568C322.025 280.297 322.442 281.352 322.442 282.732V288.691H320.43L320.332 286.991H319.492C319.414 287.616 319.108 288.105 318.574 288.456C318.04 288.808 317.363 288.984 316.542 288.984ZM317.304 286.952C317.968 286.952 318.496 286.776 318.886 286.425C319.277 286.06 319.473 285.604 319.473 285.057V284.549L317.538 284.764C317.096 284.816 316.737 284.946 316.464 285.155C316.203 285.363 316.073 285.611 316.073 285.897C316.073 286.21 316.184 286.464 316.405 286.659C316.627 286.855 316.926 286.952 317.304 286.952ZM324.992 288.71L322.628 278.727H325.657L326.633 282.928C326.829 283.748 326.926 285.025 326.926 286.757H327.747C327.747 285.311 327.851 284.035 328.059 282.928L328.841 278.727H332.904L333.686 282.928C333.894 284.035 333.998 285.311 333.998 286.757H334.819C334.819 285.025 334.917 283.748 335.112 282.928L336.089 278.727H339.117L336.753 288.71H331.889L331.381 285.292C331.316 284.784 331.283 284.054 331.283 283.104V281.463H330.462V283.104C330.462 284.054 330.43 284.784 330.365 285.292L329.857 288.71H324.992ZM339.168 288.691V278.727H341.63C341.552 279.353 341.396 280.049 341.161 280.818H341.982C342.49 279.229 343.59 278.434 345.283 278.434C346.481 278.434 347.354 278.773 347.901 279.45C348.461 280.115 348.741 281.104 348.741 282.42V288.691H345.791V283.416C345.817 282.713 345.667 282.172 345.342 281.795C345.029 281.417 344.586 281.228 344.013 281.228C343.414 281.228 342.945 281.449 342.607 281.892C342.281 282.322 342.118 282.928 342.118 283.709V288.691H339.168ZM353.585 288.691V275.016H356.496L362.747 284.119L363.548 283.553C363.105 282.824 362.767 282.094 362.532 281.365C362.298 280.622 362.181 279.945 362.181 279.333V275.016H365.306V288.691H362.2L356.144 279.841L355.343 280.408C355.786 281.137 356.124 281.873 356.359 282.615C356.593 283.345 356.711 284.015 356.711 284.627V288.691H353.585ZM373.312 288.984C371.866 288.984 370.609 288.697 369.541 288.124C368.473 287.538 367.653 286.711 367.08 285.643C366.507 284.562 366.22 283.292 366.22 281.834C366.22 280.388 366.507 279.131 367.08 278.063C367.653 276.995 368.473 276.175 369.541 275.602C370.609 275.016 371.866 274.723 373.312 274.723C374.51 274.723 375.571 274.937 376.496 275.367C377.434 275.797 378.157 276.403 378.665 277.184C379.186 277.953 379.446 278.838 379.446 279.841V279.997H376.027V279.841C376.027 279.151 375.78 278.61 375.285 278.22C374.803 277.816 374.145 277.614 373.312 277.614C372.153 277.614 371.234 277.992 370.557 278.747C369.88 279.502 369.541 280.531 369.541 281.834C369.541 283.149 369.88 284.191 370.557 284.96C371.234 285.715 372.153 286.093 373.312 286.093C374.197 286.093 374.894 285.936 375.402 285.624C375.923 285.311 376.184 284.888 376.184 284.354V284.1H373.546V281.209H380.95V284.1H379.544V284.373C379.544 285.311 379.29 286.132 378.782 286.835C378.274 287.525 377.551 288.059 376.613 288.437C375.676 288.802 374.575 288.984 373.312 288.984ZM381.337 288.691V275.016H384.248L390.499 284.119L391.3 283.553C390.857 282.824 390.519 282.094 390.284 281.365C390.05 280.622 389.933 279.945 389.933 279.333V275.016H393.059V288.691H389.952L383.896 279.841L383.095 280.408C383.538 281.137 383.877 281.873 384.111 282.615C384.345 283.345 384.463 284.015 384.463 284.627V288.691H381.337Z" fill="#032E32"/>
<path d="M143.536 310.691L147.521 299.775H148.781L152.766 310.691H151.536L150.598 308.024H145.719L144.766 310.691H143.536ZM146.1 306.925H150.188L148.151 301.152L146.1 306.925ZM156.485 310.867C154.17 310.867 152.573 309.094 152.573 306.749C152.573 304.405 154.17 302.662 156.485 302.662C157.936 302.662 159.24 303.511 159.753 304.669L158.756 305.182C158.361 304.347 157.526 303.76 156.485 303.76C154.932 303.76 153.745 305.035 153.745 306.764C153.745 308.478 154.932 309.768 156.485 309.768C157.526 309.768 158.346 309.196 158.756 308.317L159.753 308.859C159.24 310.002 157.936 310.867 156.485 310.867ZM164.392 310.867C162.077 310.867 160.48 309.094 160.48 306.749C160.48 304.405 162.077 302.662 164.392 302.662C165.842 302.662 167.146 303.511 167.659 304.669L166.663 305.182C166.267 304.347 165.432 303.76 164.392 303.76C162.839 303.76 161.652 305.035 161.652 306.764C161.652 308.478 162.839 309.768 164.392 309.768C165.432 309.768 166.253 309.196 166.663 308.317L167.659 308.859C167.146 310.002 165.842 310.867 164.392 310.867ZM172.284 310.867C170.086 310.867 168.386 309.123 168.386 306.735C168.386 304.376 170.012 302.662 172.166 302.662C174.423 302.662 175.785 304.522 175.785 306.398C175.785 306.588 175.771 306.852 175.727 307.101H169.544C169.588 308.786 170.892 309.841 172.284 309.841C173.426 309.841 174.188 309.226 174.687 308.405L175.624 308.903C175.141 309.973 173.881 310.867 172.284 310.867ZM172.166 303.687C170.892 303.687 169.749 304.596 169.573 306.075H174.599C174.584 304.669 173.47 303.687 172.166 303.687ZM179.569 310.867C178.06 310.867 176.858 310.046 176.36 308.742L177.283 308.303C177.738 309.27 178.587 309.87 179.569 309.87C180.507 309.87 181.239 309.372 181.239 308.625C181.239 307.819 180.39 307.541 179.921 307.409L178.793 307.086C177.342 306.676 176.741 305.914 176.741 304.933C176.741 303.555 177.913 302.662 179.379 302.662C180.697 302.662 181.884 303.394 182.338 304.625L181.401 305.064C181.005 304.185 180.228 303.658 179.335 303.658C178.456 303.658 177.884 304.156 177.884 304.845C177.884 305.651 178.631 305.885 179.042 306.002L180.346 306.383C181.606 306.749 182.368 307.57 182.368 308.625C182.368 309.929 181.21 310.867 179.569 310.867ZM186.145 310.867C184.636 310.867 183.434 310.046 182.936 308.742L183.859 308.303C184.313 309.27 185.163 309.87 186.145 309.87C187.083 309.87 187.815 309.372 187.815 308.625C187.815 307.819 186.965 307.541 186.496 307.409L185.368 307.086C183.918 306.676 183.317 305.914 183.317 304.933C183.317 303.555 184.489 302.662 185.954 302.662C187.273 302.662 188.46 303.394 188.914 304.625L187.976 305.064C187.581 304.185 186.804 303.658 185.91 303.658C185.031 303.658 184.46 304.156 184.46 304.845C184.46 305.651 185.207 305.885 185.617 306.002L186.921 306.383C188.181 306.749 188.943 307.57 188.943 308.625C188.943 309.929 187.786 310.867 186.145 310.867ZM195.577 310.867C194.36 310.867 193.306 310.339 192.705 309.416V310.691H191.606V299.599H192.705V304.024C193.335 303.189 194.346 302.662 195.577 302.662C197.804 302.662 199.445 304.405 199.445 306.764C199.445 309.123 197.789 310.867 195.577 310.867ZM195.518 309.768C197.1 309.768 198.273 308.478 198.273 306.764C198.273 305.05 197.086 303.76 195.518 303.76C193.936 303.76 192.705 305.064 192.705 306.764C192.705 308.464 193.936 309.768 195.518 309.768ZM202.771 310.867C201.276 310.867 200.177 309.944 200.177 308.654C200.177 307.438 200.939 306.471 202.683 306.178L205.525 305.709V305.299C205.525 304.361 204.763 303.716 203.679 303.716C202.712 303.716 201.965 304.244 201.613 305.006L200.617 304.464C201.056 303.467 202.36 302.662 203.679 302.662C205.408 302.662 206.624 303.746 206.624 305.299V310.691H205.525V309.563C205.012 310.325 203.987 310.867 202.771 310.867ZM201.349 308.61C201.349 309.314 201.965 309.87 202.844 309.87C204.441 309.87 205.525 308.742 205.525 307.292V306.706L202.947 307.13C201.804 307.321 201.349 307.892 201.349 308.61ZM208.005 310.691V302.837H209.104V303.804C209.573 303.086 210.394 302.662 211.361 302.662C213.016 302.662 214.306 303.922 214.306 305.592V310.691H213.207V306.017C213.207 304.596 212.372 303.76 211.17 303.76C209.969 303.76 209.104 304.61 209.104 306.017V310.691H208.005ZM215.526 310.691V299.599H216.624V306.823L220.566 302.837H221.987L218.91 305.988L222.265 310.691H220.947L218.119 306.793L216.624 308.332V310.691H215.526ZM224.284 310.691V299.599H225.383V303.804C225.852 303.086 226.672 302.662 227.64 302.662C229.295 302.662 230.585 303.922 230.585 305.592V310.691H229.486V306.017C229.486 304.596 228.621 303.76 227.449 303.76C226.277 303.76 225.383 304.61 225.383 306.017V310.691H224.284ZM234.075 310.867C232.581 310.867 231.482 309.944 231.482 308.654C231.482 307.438 232.244 306.471 233.987 306.178L236.83 305.709V305.299C236.83 304.361 236.068 303.716 234.984 303.716C234.017 303.716 233.269 304.244 232.918 305.006L231.921 304.464C232.361 303.467 233.665 302.662 234.984 302.662C236.713 302.662 237.929 303.746 237.929 305.299V310.691H236.83V309.563C236.317 310.325 235.291 310.867 234.075 310.867ZM232.654 308.61C232.654 309.314 233.269 309.87 234.149 309.87C235.746 309.87 236.83 308.742 236.83 307.292V306.706L234.251 307.13C233.108 307.321 232.654 307.892 232.654 308.61ZM242.035 310.867C240.526 310.867 239.325 310.046 238.827 308.742L239.75 308.303C240.204 309.27 241.054 309.87 242.035 309.87C242.973 309.87 243.706 309.372 243.706 308.625C243.706 307.819 242.856 307.541 242.387 307.409L241.259 307.086C239.808 306.676 239.208 305.914 239.208 304.933C239.208 303.555 240.38 302.662 241.845 302.662C243.164 302.662 244.35 303.394 244.805 304.625L243.867 305.064C243.471 304.185 242.695 303.658 241.801 303.658C240.922 303.658 240.35 304.156 240.35 304.845C240.35 305.651 241.098 305.885 241.508 306.002L242.812 306.383C244.072 306.749 244.834 307.57 244.834 308.625C244.834 309.929 243.676 310.867 242.035 310.867ZM247.496 310.691V302.837H248.595V303.687C249.006 303.086 249.709 302.735 250.661 302.735H251.159V303.834H250.471C249.343 303.834 248.595 304.566 248.595 305.856V310.691H247.496ZM255.143 310.867C252.945 310.867 251.246 309.123 251.246 306.735C251.246 304.376 252.872 302.662 255.026 302.662C257.282 302.662 258.645 304.522 258.645 306.398C258.645 306.588 258.63 306.852 258.586 307.101H252.403C252.447 308.786 253.751 309.841 255.143 309.841C256.286 309.841 257.048 309.226 257.546 308.405L258.484 308.903C258 309.973 256.74 310.867 255.143 310.867ZM255.026 303.687C253.751 303.687 252.608 304.596 252.433 306.075H257.458C257.444 304.669 256.33 303.687 255.026 303.687ZM263.293 310.867C260.978 310.867 259.381 309.094 259.381 306.749C259.381 304.405 260.978 302.662 263.293 302.662C264.744 302.662 266.048 303.511 266.561 304.669L265.564 305.182C265.169 304.347 264.334 303.76 263.293 303.76C261.74 303.76 260.553 305.035 260.553 306.764C260.553 308.478 261.74 309.768 263.293 309.768C264.334 309.768 265.154 309.196 265.564 308.317L266.561 308.859C266.048 310.002 264.744 310.867 263.293 310.867ZM271.185 310.867C268.987 310.867 267.288 309.123 267.288 306.735C267.288 304.376 268.914 302.662 271.068 302.662C273.324 302.662 274.687 304.522 274.687 306.398C274.687 306.588 274.672 306.852 274.628 307.101H268.445C268.489 308.786 269.793 309.841 271.185 309.841C272.328 309.841 273.09 309.226 273.588 308.405L274.526 308.903C274.042 309.973 272.782 310.867 271.185 310.867ZM271.068 303.687C269.793 303.687 268.65 304.596 268.474 306.075H273.5C273.485 304.669 272.372 303.687 271.068 303.687ZM275.745 301.387V299.775H276.844V301.387H275.745ZM275.745 310.691V302.837H276.844V310.691H275.745ZM280.31 310.691L277.247 302.837H278.478L280.866 309.196L283.255 302.837H284.5L281.409 310.691H280.31ZM288.337 310.867C286.139 310.867 284.439 309.123 284.439 306.735C284.439 304.376 286.066 302.662 288.219 302.662C290.476 302.662 291.839 304.522 291.839 306.398C291.839 306.588 291.824 306.852 291.78 307.101H285.597C285.641 308.786 286.945 309.841 288.337 309.841C289.48 309.841 290.241 309.226 290.74 308.405L291.677 308.903C291.194 309.973 289.934 310.867 288.337 310.867ZM288.219 303.687C286.945 303.687 285.802 304.596 285.626 306.075H290.652C290.637 304.669 289.523 303.687 288.219 303.687ZM296.443 310.867C294.23 310.867 292.575 309.123 292.575 306.764C292.575 304.405 294.216 302.662 296.443 302.662C297.673 302.662 298.684 303.189 299.315 304.024V299.599H300.413V310.691H299.315V309.416C298.714 310.339 297.659 310.867 296.443 310.867ZM296.501 309.768C298.084 309.768 299.315 308.464 299.315 306.764C299.315 305.064 298.084 303.76 296.501 303.76C294.934 303.76 293.747 305.05 293.747 306.764C293.747 308.478 294.919 309.768 296.501 309.768ZM303.562 313.914C303.255 313.914 302.918 313.87 302.61 313.753V312.728C302.8 312.757 303.123 312.815 303.445 312.815C304.398 312.815 304.808 312.493 305.291 311.365L305.57 310.691L302.434 302.837H303.621L306.185 309.314L308.749 302.837H309.965L306.376 311.687C305.907 312.845 305.116 313.914 303.562 313.914ZM313.912 310.867C311.685 310.867 309.912 309.123 309.912 306.749C309.912 304.405 311.626 302.662 313.912 302.662C316.183 302.662 317.898 304.39 317.898 306.749C317.898 309.167 316.095 310.867 313.912 310.867ZM313.912 309.768C315.48 309.768 316.725 308.464 316.725 306.749C316.725 305.05 315.48 303.76 313.912 303.76C312.33 303.76 311.084 305.05 311.084 306.749C311.084 308.464 312.33 309.768 313.912 309.768ZM321.74 310.867C320.085 310.867 318.795 309.607 318.795 307.79V302.837H319.894V307.658C319.894 308.933 320.729 309.768 321.931 309.768C323.132 309.768 323.997 308.918 323.997 307.511V302.837H325.096V310.691H323.997V309.724C323.528 310.442 322.708 310.867 321.74 310.867ZM326.477 310.691V302.837H327.576V303.687C327.986 303.086 328.689 302.735 329.642 302.735H330.14V303.834H329.451C328.323 303.834 327.576 304.566 327.576 305.856V310.691H326.477ZM332.32 310.691V299.775H333.346L339.353 308.391V299.775H340.525V310.691H339.5L333.492 302.017V310.691H332.32ZM341.79 310.691V309.958L344.838 306.603C346.611 304.654 347.417 303.892 347.417 302.662C347.417 301.357 346.596 300.625 345.321 300.625C344.017 300.625 343.08 301.401 342.772 302.735L341.702 302.5C342.083 300.727 343.461 299.599 345.307 299.599C347.255 299.599 348.589 300.874 348.589 302.662C348.589 303.892 347.842 304.859 346.244 306.618L343.475 309.665H348.882V310.691H341.79ZM354.224 310.867C351.645 310.867 349.902 308.596 349.902 305.226C349.902 301.856 351.631 299.599 354.21 299.599C356.788 299.599 358.517 301.856 358.517 305.226C358.517 308.61 356.803 310.867 354.224 310.867ZM354.224 309.768C356.1 309.768 357.36 307.951 357.36 305.226C357.36 302.515 356.1 300.698 354.21 300.698C352.334 300.698 351.074 302.515 351.074 305.226C351.074 307.936 352.334 309.768 354.224 309.768ZM364.077 310.867C361.498 310.867 359.754 308.596 359.754 305.226C359.754 301.856 361.483 299.599 364.062 299.599C366.641 299.599 368.37 301.856 368.37 305.226C368.37 308.61 366.655 310.867 364.077 310.867ZM364.077 309.768C365.952 309.768 367.212 307.951 367.212 305.226C367.212 302.515 365.952 300.698 364.062 300.698C362.186 300.698 360.926 302.515 360.926 305.226C360.926 307.936 362.186 309.768 364.077 309.768ZM369.724 312.596V312.083C370.31 311.922 370.574 311.497 370.574 310.691H370.017V309.079H371.189V310.31C371.189 311.585 370.691 312.361 369.724 312.596ZM376.999 310.867C374.42 310.867 372.677 308.596 372.677 305.226C372.677 301.856 374.406 299.599 376.984 299.599C379.563 299.599 381.292 301.856 381.292 305.226C381.292 308.61 379.578 310.867 376.999 310.867ZM376.999 309.768C378.875 309.768 380.135 307.951 380.135 305.226C380.135 302.515 378.875 300.698 376.984 300.698C375.109 300.698 373.849 302.515 373.849 305.226C373.849 307.936 375.109 309.768 376.999 309.768ZM386.852 310.867C384.273 310.867 382.529 308.596 382.529 305.226C382.529 301.856 384.258 299.599 386.837 299.599C389.416 299.599 391.145 301.856 391.145 305.226C391.145 308.61 389.43 310.867 386.852 310.867ZM386.852 309.768C388.727 309.768 389.987 307.951 389.987 305.226C389.987 302.515 388.727 300.698 386.837 300.698C384.961 300.698 383.701 302.515 383.701 305.226C383.701 307.936 384.961 309.768 386.852 309.768ZM396.704 310.867C394.125 310.867 392.382 308.596 392.382 305.226C392.382 301.856 394.111 299.599 396.689 299.599C399.268 299.599 400.997 301.856 400.997 305.226C400.997 308.61 399.283 310.867 396.704 310.867ZM396.704 309.768C398.579 309.768 399.84 307.951 399.84 305.226C399.84 302.515 398.579 300.698 396.689 300.698C394.814 300.698 393.554 302.515 393.554 305.226C393.554 307.936 394.814 309.768 396.704 309.768Z" fill="#032E32"/>
<path d="M149.484 327.291C150.681 327.291 151.553 327.628 152.099 328.301C152.659 328.961 152.938 329.945 152.938 331.252V337.485H149.991V332.242C150.017 331.543 149.868 331.006 149.542 330.631C149.23 330.255 148.788 330.068 148.215 330.068C147.616 330.068 147.148 330.288 146.81 330.728C146.484 331.155 146.322 331.757 146.322 332.534V337.485H143.374V325.715H146.302V326.515C146.302 326.825 146.218 327.259 146.048 327.816C145.892 328.372 145.671 328.987 145.385 329.66H146.185C146.693 328.081 147.792 327.291 149.484 327.291Z" fill="#032E32"/>
<path d="M156.549 337.485H153.602V327.583H156.549V337.485Z" fill="#032E32"/>
<path d="M157.223 337.485V334.883L162.024 329.874L161.478 329.33C161.204 329.654 160.886 329.906 160.521 330.087C160.17 330.268 159.812 330.359 159.448 330.359H157.193V327.583H165.772V330.126L160.814 335.194L161.36 335.737C161.634 335.414 161.946 335.161 162.297 334.98C162.662 334.799 163.026 334.708 163.39 334.708H165.798V337.485H157.223Z" fill="#032E32"/>
<path d="M170.838 337.776C169.784 337.776 168.866 337.562 168.086 337.135C167.305 336.708 166.706 336.1 166.29 335.31C165.874 334.508 165.665 333.576 165.665 332.514C165.665 331.453 165.874 330.534 166.29 329.757C166.706 328.968 167.305 328.359 168.086 327.932C168.866 327.505 169.784 327.291 170.838 327.291C171.892 327.291 172.809 327.505 173.59 327.932C174.371 328.359 174.969 328.968 175.386 329.757C175.802 330.534 176.01 331.453 176.01 332.514C176.01 333.576 175.802 334.508 175.386 335.31C174.969 336.1 174.371 336.708 173.59 337.135C172.809 337.562 171.892 337.776 170.838 337.776ZM170.838 334.961C171.501 334.961 172.028 334.741 172.419 334.3C172.809 333.86 173.004 333.265 173.004 332.514C173.004 331.776 172.809 331.194 172.419 330.767C172.028 330.327 171.501 330.107 170.838 330.107C170.174 330.107 169.647 330.327 169.257 330.767C168.866 331.194 168.671 331.776 168.671 332.514C168.671 333.265 168.866 333.86 169.257 334.3C169.647 334.741 170.174 334.961 170.838 334.961Z" fill="#032E32"/>
<path d="M180.466 327.748L178.414 325.715L176.01 328.098L177.185 329.262L176.01 330.426L178.414 332.81L180.819 330.426L179.787 329.404C179.426 329.803 179.103 330.235 178.822 330.695L178.148 330.045L180.466 327.748Z" fill="#3CDF90"/>
<rect x="108" y="199.5" width="361" height="167.952" rx="16.6522" stroke="white" stroke-width="4"/>
</g>
<defs>
<filter id="filter0_b_267_328" x="86" y="177.5" width="405" height="211.952" filterUnits="userSpaceOnUse" color-interpolation-filters="sRGB">
<feFlood flood-opacity="0" result="BackgroundImageFix"/>
<feGaussianBlur in="BackgroundImageFix" stdDeviation="10"/>
<feComposite in2="SourceAlpha" operator="in" result="effect1_backgroundBlur_267_328"/>
<feBlend mode="normal" in="SourceGraphic" in2="effect1_backgroundBlur_267_328" result="shape"/>
</filter>
</defs>
</svg>
