<svg width="15" height="19" viewBox="0 0 15 19" fill="none" xmlns="http://www.w3.org/2000/svg">
<path d="M2.79309 6.00969C2.7076 6.92168 2.6476 8.53565 3.18609 9.22264C3.18609 9.22264 2.93259 7.44967 5.20506 5.2252C6.12004 4.32972 6.33154 3.11174 6.01204 2.19825C5.83055 1.68076 5.49905 1.25327 5.21106 0.954771C5.04306 0.779274 5.17206 0.489778 5.41655 0.500278C6.89553 0.566277 9.29249 0.97727 10.311 3.53323C10.758 4.65521 10.791 5.8147 10.578 6.99368C10.443 7.74667 9.96298 9.42064 11.058 9.62614C11.8395 9.77313 12.2174 9.15214 12.3869 8.70515C12.4574 8.51915 12.7019 8.47265 12.8339 8.62115C14.1539 10.1226 14.2664 11.8911 13.9934 13.4136C13.4654 16.3565 10.485 18.4985 7.52402 18.4985C3.82508 18.4985 0.880624 16.382 0.117136 12.5511C-0.19036 11.0046 -0.0343618 7.94466 2.3506 5.7847C2.5276 5.6227 2.81709 5.7667 2.79309 6.00969Z" fill="url(#paint0_radial_5802_17477)"/>
<path d="M8.87541 11.513C7.51193 9.75807 8.12242 7.7556 8.45691 6.95761C8.50191 6.85261 8.38192 6.75362 8.28742 6.81811C7.70093 7.21711 6.49944 8.15609 5.93995 9.47757C5.18246 11.264 5.23646 12.1385 5.68496 13.2065C5.95495 13.85 5.64146 13.9865 5.48396 14.0105C5.33096 14.0345 5.18996 13.9325 5.07747 13.826C4.75497 13.5185 4.52247 13.118 4.41148 12.686C4.38748 12.593 4.26598 12.5675 4.21048 12.644C3.79049 13.2245 3.57299 14.156 3.56249 14.8145C3.52949 16.85 5.21096 18.4999 7.24493 18.4999C9.80839 18.4999 11.6759 15.665 10.2029 13.295C9.77539 12.605 9.3734 12.1535 8.87541 11.513Z" fill="url(#paint1_radial_5802_17477)"/>
<defs>
<radialGradient id="paint0_radial_5802_17477" cx="0" cy="0" r="1" gradientUnits="userSpaceOnUse" gradientTransform="translate(6.79144 18.5451) rotate(-179.751) scale(10.588 17.3728)">
<stop offset="0.3144" stop-color="#FF9800"/>
<stop offset="0.6616" stop-color="#FF6D00"/>
<stop offset="0.9715" stop-color="#F44336"/>
</radialGradient>
<radialGradient id="paint1_radial_5802_17477" cx="0" cy="0" r="1" gradientUnits="userSpaceOnUse" gradientTransform="translate(7.3859 8.00893) rotate(90.5787) scale(11.0783 8.33723)">
<stop offset="0.2141" stop-color="#FFF176"/>
<stop offset="0.3275" stop-color="#FFF27D"/>
<stop offset="0.4868" stop-color="#FFF48F"/>
<stop offset="0.6722" stop-color="#FFF7AD"/>
<stop offset="0.7931" stop-color="#FFF9C4"/>
<stop offset="0.8221" stop-color="#FFF8BD" stop-opacity="0.804"/>
<stop offset="0.8627" stop-color="#FFF6AB" stop-opacity="0.529"/>
<stop offset="0.9101" stop-color="#FFF38D" stop-opacity="0.2088"/>
<stop offset="0.9409" stop-color="#FFF176" stop-opacity="0"/>
</radialGradient>
</defs>
</svg>
