<svg width="263" height="50" viewBox="0 0 263 50" fill="none" xmlns="http://www.w3.org/2000/svg">
<rect width="262.764" height="49.1124" rx="24.5562" fill="#EFFFF7"/>
<rect x="6.33704" y="7.39307" width="34.3258" height="34.3258" rx="17.1629" fill="#00616A"/>
<path d="M28.2727 26.5455H31V17H21.4545V19.7273M25.5455 29.2727H28.2727V19.7273H18.7273V22.4545M16 32H25.5455V22.4545H16V32Z" stroke="#FCFF45" stroke-width="1.36364"/>
<path d="M63.3919 17.7901V28.0688H61.2373V22.1627H61.212L60.7557 23.2526L57.904 28.1956H57.8533L55.0016 23.2526L54.5454 22.1753H54.52V28.0688H52.3654V17.7901H54.1398L57.4224 23.4808L57.866 24.5581H57.8913L58.3223 23.4808L61.6175 17.7901H63.3919ZM72.6162 20.0714V28.0688H70.4996V27.3717H70.4743C69.9547 27.8914 69.1308 28.1829 68.2563 28.1829C65.8356 28.1829 64.7456 26.9028 64.7583 24.9383V20.0714H66.8748V24.8242C66.8748 25.7875 67.2804 26.3578 68.5732 26.3578C69.7265 26.3578 70.4996 25.7875 70.4996 24.7355V20.0714H72.6162ZM76.0671 17.4099V28.0562H73.9505V17.4099H76.0671ZM81.8596 25.7368L83.1016 26.9788C82.2778 27.79 81.492 28.1829 80.4907 28.1829C78.653 28.1829 77.7658 27.2323 77.7658 25.3692V21.9599L77.8672 21.7698H76.7012V20.0714H77.8672L77.7658 19.8813V18.9308L79.8824 17.8028V19.8813L79.7683 20.0714H82.2398V21.7698H79.7683L79.8824 21.9599V25.3692C79.8824 26.0283 80.2119 26.3705 80.6809 26.3705C81.1118 26.3705 81.454 26.1804 81.8596 25.7368ZM85.6237 20.0714V28.0562H83.5071V20.0714H85.6237ZM85.7124 18.3731C85.7124 19.0322 85.2435 19.5391 84.5717 19.5391C83.8873 19.5391 83.4311 19.0322 83.4311 18.3731C83.4311 17.714 83.8873 17.2071 84.5717 17.2071C85.2435 17.2071 85.7124 17.714 85.7124 18.3731ZM93.1779 24.0765C93.1779 22.6696 92.5822 21.7698 91.074 21.7698C89.5657 21.7698 88.9574 22.6696 88.9574 24.0765C88.9574 25.5086 89.5531 26.3578 91.0613 26.3578C92.5695 26.3578 93.1779 25.496 93.1779 24.0765ZM95.2945 24.0638C95.2945 26.4339 94.0017 28.1956 91.3148 28.1956C90.4022 28.1956 89.5531 27.9041 89.0968 27.4478H89.0714V30.7304H86.9549V20.0714H89.0714V20.6544H89.0968C89.5784 20.2235 90.3896 19.9574 91.3148 19.9574C93.9763 19.9574 95.2945 21.6937 95.2945 24.0638ZM98.3365 17.4099V28.0562H96.2199V17.4099H98.3365ZM101.341 23.1893H105.675L105.472 22.9865C105.181 22.15 104.535 21.6811 103.521 21.6811C102.481 21.6811 101.86 22.1753 101.531 22.9865L101.341 23.1893ZM107.741 24.1272C107.741 24.33 107.728 24.6341 107.69 24.8876H101.315L101.505 25.0904C101.81 25.9015 102.545 26.4339 103.635 26.4339C104.433 26.4339 105.08 26.1931 105.713 25.6734L106.993 26.9662C106.043 27.79 104.965 28.1829 103.635 28.1829C100.682 28.1829 99.2494 26.3958 99.2494 24.1272C99.2494 21.7317 100.808 19.9447 103.521 19.9447C106.36 19.9447 107.741 21.7951 107.741 24.1272ZM115.245 23.8103H118.465L118.249 23.6075L117.185 21.3769L116.868 20.439L116.842 20.4517L116.526 21.3769L115.461 23.6075L115.245 23.8103ZM117.806 17.7901L122.736 28.0562H120.378L119.301 25.8002L119.428 25.61H114.27L114.396 25.8002L113.332 28.0562H110.962L115.905 17.7901H117.806ZM128.122 20.0841V21.7698H125.676L125.777 21.9726V28.0562H123.661V21.9599L123.762 21.7698H122.52V20.0841H123.762L123.661 19.8813C123.661 18.3097 124.852 17.3338 126.614 17.3338C127.248 17.3338 127.742 17.4099 128.122 17.5493V19.2476C127.742 19.1082 127.336 19.0322 126.918 19.0322C126.12 19.0322 125.79 19.349 125.79 19.8813L125.663 20.0841H128.122ZM133.576 19.9827V21.9092H132.942C131.446 21.9092 130.762 22.6063 130.762 24.1018V28.0562H128.645V20.0714H130.762V21.1361H130.787C131.244 20.4136 132.029 19.9827 133.107 19.9827H133.576ZM136.215 20.0714V28.0562H134.098V20.0714H136.215ZM136.304 18.3731C136.304 19.0322 135.835 19.5391 135.163 19.5391C134.478 19.5391 134.022 19.0322 134.022 18.3731C134.022 17.714 134.478 17.2071 135.163 17.2071C135.835 17.2071 136.304 17.714 136.304 18.3731ZM143.376 25.5086L144.758 26.8901C143.883 27.714 142.717 28.1829 141.399 28.1829C138.509 28.1829 137.128 26.3832 137.128 24.1145C137.128 21.8078 138.674 19.9447 141.424 19.9447C142.869 19.9447 143.934 20.4136 144.72 21.1994L143.325 22.5936C142.793 22.0359 142.223 21.7698 141.437 21.7698C139.992 21.7698 139.244 22.7837 139.244 24.1272C139.244 25.4073 139.878 26.3705 141.412 26.3705C142.197 26.3705 142.78 26.0917 143.376 25.5086ZM150.838 24.7989L151.04 24.5961C150.964 24.5834 150.609 24.5834 150.559 24.5834C150.217 24.5834 149.887 24.5834 149.456 24.6088C149.038 24.6215 148.594 24.6595 148.201 24.7482C147.403 24.913 147.073 25.1918 147.073 25.5974C147.073 26.1804 147.834 26.4339 148.658 26.4339C149.304 26.4339 150.838 26.3578 150.838 25.5593V24.7989ZM152.954 23.1006V28.0688H150.838V27.6126H150.812C150.217 28.0055 149.393 28.1956 148.582 28.1956C147.01 28.1956 144.969 27.6252 144.969 25.572C144.969 23.1513 148.277 22.9104 150.305 22.9104C150.369 22.9104 150.939 22.9104 151.015 22.9231L150.8 22.7203C150.749 22.0486 150.14 21.7064 149.19 21.7064C148.391 21.7064 147.568 21.8965 146.845 22.3781L145.54 21.06C146.63 20.2869 147.859 19.9574 149.215 19.9574C151.37 19.9574 152.954 20.9079 152.954 23.1006ZM162.191 23.1006L162.179 28.0562H160.075V23.3033C160.075 22.3401 159.834 21.7698 158.313 21.7698C157.147 21.7698 156.348 22.3401 156.348 23.3921V28.0562H154.232V20.0588H156.348V20.7558H156.374C156.919 20.2615 157.793 19.9447 158.68 19.9447C160.797 19.9447 162.191 21.1107 162.191 23.1006ZM174.633 24.913L176.09 26.3578C175 27.5365 173.53 28.1956 171.769 28.1956C168.156 28.1956 166.268 26.0536 166.268 22.9865C166.268 19.9193 168.232 17.676 171.781 17.676C173.619 17.676 175 18.259 176.078 19.4757L174.595 20.9586C173.936 20.0588 173.011 19.5898 171.781 19.5898C169.449 19.5898 168.461 21.0347 168.461 22.9865C168.461 24.8749 169.386 26.2691 171.769 26.2691C172.998 26.2691 173.961 25.7875 174.633 24.913ZM184.561 20.0714V28.0688H182.445V27.3717H182.419C181.9 27.8914 181.076 28.1829 180.201 28.1829C177.781 28.1829 176.691 26.9028 176.703 24.9383V20.0714H178.82V24.8242C178.82 25.7875 179.225 26.3578 180.518 26.3578C181.672 26.3578 182.445 25.7875 182.445 24.7355V20.0714H184.561ZM190.826 19.9827V21.9092H190.192C188.696 21.9092 188.012 22.6063 188.012 24.1018V28.0562H185.895V20.0714H188.012V21.1361H188.037C188.494 20.4136 189.279 19.9827 190.357 19.9827H190.826ZM196.279 19.9827V21.9092H195.645C194.149 21.9092 193.465 22.6063 193.465 24.1018V28.0562H191.348V20.0714H193.465V21.1361H193.49C193.947 20.4136 194.732 19.9827 195.81 19.9827H196.279ZM198.474 23.1893H202.809L202.606 22.9865C202.314 22.15 201.668 21.6811 200.654 21.6811C199.615 21.6811 198.994 22.1753 198.664 22.9865L198.474 23.1893ZM204.875 24.1272C204.875 24.33 204.862 24.6341 204.824 24.8876H198.449L198.639 25.0904C198.943 25.9015 199.678 26.4339 200.768 26.4339C201.567 26.4339 202.213 26.1931 202.847 25.6734L204.127 26.9662C203.176 27.79 202.099 28.1829 200.768 28.1829C197.815 28.1829 196.383 26.3958 196.383 24.1272C196.383 21.7317 197.942 19.9447 200.654 19.9447C203.493 19.9447 204.875 21.7951 204.875 24.1272ZM213.753 23.1006L213.741 28.0562H211.637V23.3033C211.637 22.3401 211.396 21.7698 209.875 21.7698C208.709 21.7698 207.91 22.3401 207.91 23.3921V28.0562H205.794V20.0588H207.91V20.7558H207.936C208.481 20.2615 209.355 19.9447 210.243 19.9447C212.359 19.9447 213.753 21.1107 213.753 23.1006ZM220.852 25.5086L222.233 26.8901C221.359 27.714 220.193 28.1829 218.875 28.1829C215.985 28.1829 214.604 26.3832 214.604 24.1145C214.604 21.8078 216.15 19.9447 218.9 19.9447C220.345 19.9447 221.41 20.4136 222.195 21.1994L220.801 22.5936C220.269 22.0359 219.699 21.7698 218.913 21.7698C217.468 21.7698 216.72 22.7837 216.72 24.1272C216.72 25.4073 217.354 26.3705 218.887 26.3705C219.673 26.3705 220.256 26.0917 220.852 25.5086ZM224.98 20.0714V28.0562H222.863V20.0714H224.98ZM225.069 18.3731C225.069 19.0322 224.6 19.5391 223.928 19.5391C223.244 19.5391 222.787 19.0322 222.787 18.3731C222.787 17.714 223.244 17.2071 223.928 17.2071C224.6 17.2071 225.069 17.714 225.069 18.3731ZM227.984 23.1893H232.319L232.116 22.9865C231.824 22.15 231.178 21.6811 230.164 21.6811C229.125 21.6811 228.504 22.1753 228.174 22.9865L227.984 23.1893ZM234.385 24.1272C234.385 24.33 234.372 24.6341 234.334 24.8876H227.959L228.149 25.0904C228.453 25.9015 229.188 26.4339 230.278 26.4339C231.077 26.4339 231.723 26.1931 232.357 25.6734L233.637 26.9662C232.686 27.79 231.609 28.1829 230.278 28.1829C227.325 28.1829 225.893 26.3958 225.893 24.1272C225.893 21.7317 227.452 19.9447 230.164 19.9447C233.003 19.9447 234.385 21.7951 234.385 24.1272ZM242.503 25.6734C242.503 27.0295 241.311 28.1956 238.84 28.1956C237.382 28.1956 236.064 27.7013 234.886 26.6873L236.242 25.3185C236.914 26.0283 237.889 26.4339 238.802 26.4339C240.019 26.4339 240.374 26.0536 240.374 25.7621C240.374 25.5086 240.259 25.3059 239.334 25.0777C239.157 25.0397 238.08 24.7482 237.902 24.7102C236.533 24.368 235.126 23.8103 235.126 22.3528C235.126 20.9713 236.445 19.9574 238.713 19.9574C240.209 19.9574 241.387 20.401 242.3 21.2882L240.982 22.5936C240.412 22.0359 239.588 21.6937 238.726 21.6937C237.535 21.6937 237.256 22.0993 237.256 22.3274C237.256 22.657 237.687 22.7837 238.663 23.0245C238.827 23.0625 239.765 23.316 239.943 23.3667C241.628 23.785 242.503 24.4694 242.503 25.6734Z" fill="#032E32"/>
</svg>
