<svg width="123" height="50" viewBox="0 0 123 50" fill="none" xmlns="http://www.w3.org/2000/svg">
<rect width="122.764" height="49.1124" rx="24.5562" fill="#EFFFF7"/>
<rect x="6.33716" y="7.39307" width="34.3258" height="34.3258" rx="17.1629" fill="#00616A"/>
<path d="M31.1599 18.2376C28.7173 18.2376 26.337 17.3435 24.0053 15.5353C23.8862 15.443 23.7414 15.3931 23.5925 15.3931C23.4437 15.3931 23.2988 15.443 23.1797 15.5353C20.8481 17.3435 18.4678 18.2376 16.0251 18.2376C15.8426 18.2376 15.6677 18.3125 15.5387 18.4459C15.4096 18.5793 15.3372 18.7601 15.3372 18.9487V23.9267C15.3372 28.6685 18.0504 32.1531 23.3403 34.3074C23.5024 34.3734 23.6827 34.3734 23.8448 34.3074C29.1346 32.1531 31.8479 28.6676 31.8479 23.9267V18.9487C31.8479 18.7601 31.7754 18.5793 31.6464 18.4459C31.5174 18.3125 31.3424 18.2376 31.1599 18.2376ZM27.9559 22.3176L22.4524 27.5326C22.3216 27.6564 22.1497 27.7232 21.9725 27.7191C21.7953 27.715 21.6265 27.6404 21.5012 27.5108L19.208 25.1404C19.1404 25.0753 19.0862 24.9968 19.0486 24.9095C19.011 24.8223 18.9908 24.7281 18.9892 24.6326C18.9875 24.5372 19.0045 24.4423 19.0391 24.3538C19.0737 24.2652 19.1252 24.1848 19.1905 24.1172C19.2559 24.0497 19.3337 23.9965 19.4193 23.9607C19.505 23.9249 19.5968 23.9074 19.6891 23.9091C19.7815 23.9107 19.8726 23.9316 19.957 23.9705C20.0414 24.0094 20.1173 24.0654 20.1803 24.1353L22.0084 26.0241L27.0258 21.2689C27.1604 21.1414 27.3384 21.0744 27.5207 21.0826C27.7031 21.0908 27.8748 21.1735 27.9981 21.3126C28.1215 21.4516 28.1863 21.6356 28.1784 21.8241C28.1705 22.0126 28.0905 22.1901 27.9559 22.3176Z" fill="#3CDF90"/>
<path d="M61.3006 25.1284C61.3006 26.7127 59.9064 28.1829 56.7379 28.1829C54.9128 28.1829 53.1511 27.6126 51.8583 26.3705L53.3539 24.8749C54.4058 25.8255 55.6225 26.2691 56.8139 26.2691C58.4996 26.2691 59.1079 25.7368 59.1079 25.1664C59.1079 24.8369 58.8164 24.33 57.473 24.0004C57.2448 23.9497 55.8127 23.5948 55.5718 23.5315C53.7468 23.0625 52.1118 22.3781 52.1118 20.6418C52.1118 19.0068 53.6707 17.6633 56.6111 17.6633C58.4489 17.6633 59.9698 18.2844 61.0851 19.4251L59.5769 20.9206C58.8671 20.1095 57.7771 19.5771 56.5858 19.5771C54.9128 19.5771 54.3044 20.1095 54.3044 20.5911C54.3044 21.022 54.7734 21.2882 56.4337 21.7064C56.6618 21.7698 57.8532 22.0739 58.094 22.1246C60.2359 22.6443 61.3006 23.7596 61.3006 25.1284ZM63.8953 23.1893H68.2299L68.0271 22.9865C67.7356 22.15 67.0892 21.6811 66.0753 21.6811C65.036 21.6811 64.4149 22.1753 64.0854 22.9865L63.8953 23.1893ZM70.2958 24.1272C70.2958 24.33 70.2831 24.6341 70.2451 24.8876H63.87L64.0601 25.0904C64.3642 25.9015 65.0993 26.4339 66.1893 26.4339C66.9878 26.4339 67.6342 26.1931 68.2679 25.6734L69.548 26.9662C68.5974 27.79 67.5201 28.1829 66.1893 28.1829C63.2362 28.1829 61.8041 26.3958 61.8041 24.1272C61.8041 21.7317 63.363 19.9447 66.0753 19.9447C68.9143 19.9447 70.2958 21.7951 70.2958 24.1272ZM77.0451 25.5086L78.4266 26.8901C77.5521 27.714 76.3861 28.1829 75.068 28.1829C72.1783 28.1829 70.7968 26.3832 70.7968 24.1145C70.7968 21.8078 72.343 19.9447 75.0933 19.9447C76.5382 19.9447 77.6028 20.4136 78.3886 21.1994L76.9944 22.5936C76.4621 22.0359 75.8918 21.7698 75.106 21.7698C73.6611 21.7698 72.9134 22.7837 72.9134 24.1272C72.9134 25.4073 73.5471 26.3705 75.0806 26.3705C75.8664 26.3705 76.4494 26.0917 77.0451 25.5086ZM86.8513 20.0714V28.0688H84.7347V27.3717H84.7093C84.1897 27.8914 83.3659 28.1829 82.4914 28.1829C80.0706 28.1829 78.9806 26.9028 78.9933 24.9383V20.0714H81.1099V24.8242C81.1099 25.7875 81.5154 26.3578 82.8082 26.3578C83.9616 26.3578 84.7347 25.7875 84.7347 24.7355V20.0714H86.8513ZM93.1158 19.9827V21.9092H92.4821C90.9865 21.9092 90.3021 22.6063 90.3021 24.1018V28.0562H88.1855V20.0714H90.3021V21.1361H90.3275C90.7837 20.4136 91.5695 19.9827 92.6468 19.9827H93.1158ZM95.3114 23.1893H99.6459L99.4431 22.9865C99.1516 22.15 98.5053 21.6811 97.4913 21.6811C96.452 21.6811 95.831 22.1753 95.5015 22.9865L95.3114 23.1893ZM101.712 24.1272C101.712 24.33 101.699 24.6341 101.661 24.8876H95.286L95.4761 25.0904C95.7803 25.9015 96.5154 26.4339 97.6054 26.4339C98.4039 26.4339 99.0502 26.1931 99.6839 25.6734L100.964 26.9662C100.013 27.79 98.9362 28.1829 97.6054 28.1829C94.6523 28.1829 93.2201 26.3958 93.2201 24.1272C93.2201 21.7317 94.7791 19.9447 97.4913 19.9447C100.33 19.9447 101.712 21.7951 101.712 24.1272Z" fill="#032E32"/>
</svg>
