<svg width="397" height="340" viewBox="0 0 397 340" fill="none" xmlns="http://www.w3.org/2000/svg">
<g clip-path="url(#clip0_724_1194)">
<rect x="69.8221" width="285.108" height="179.563" rx="6.85355" transform="rotate(8.91353 69.8221 0)" fill="#EFFFF7"/>
<g clip-path="url(#clip1_724_1194)">
<path d="M102.29 29.1033C99.6891 28.7027 97.2314 30.0112 96.0595 32.2088L107.298 33.9399C106.841 31.4914 104.891 29.504 102.29 29.1033Z" fill="#C94747"/>
<path d="M100.455 41.0165C103.056 41.4172 105.514 40.1087 106.686 37.911L95.4478 36.1799C95.904 38.6284 97.8541 40.6159 100.455 41.0165Z" fill="#699635"/>
<path d="M96.0595 32.209C95.7462 32.7908 95.5231 33.4476 95.4161 34.1425C95.309 34.8374 95.3242 35.5309 95.4478 36.18L106.686 37.9111C106.999 37.3292 107.222 36.6725 107.329 35.9776C107.436 35.2826 107.421 34.5892 107.298 33.94L96.0595 32.209Z" fill="#FFCE31"/>
<path d="M101.211 36.1122L102.298 37.2351L102.054 35.6527L103.435 34.8694L101.926 34.6369L101.679 33.0744L100.992 34.4932L99.4636 34.2577L100.545 35.4202L99.8358 36.8558L101.211 36.1122Z" fill="#3E4347"/>
</g>
<path d="M115.865 41.0094C115.222 40.9084 114.682 40.6931 114.247 40.3635C113.812 40.028 113.505 39.6025 113.324 39.0871C113.145 38.5659 113.106 37.9806 113.208 37.3312C113.309 36.6876 113.524 36.1481 113.854 35.7127C114.183 35.2773 114.606 34.9693 115.121 34.7888C115.638 34.6024 116.217 34.5597 116.861 34.6607C117.394 34.7443 117.852 34.9141 118.234 35.17C118.621 35.4268 118.901 35.7469 119.072 36.1302C119.25 36.5086 119.305 36.9211 119.235 37.3675L119.224 37.4371L117.702 37.1984L117.713 37.1288C117.761 36.8215 117.688 36.5636 117.495 36.3552C117.309 36.1418 117.03 36.006 116.659 35.9478C116.143 35.8669 115.708 35.9709 115.354 36.2599C115 36.5489 114.777 36.9833 114.686 37.5631C114.594 38.1487 114.672 38.6361 114.92 39.0255C115.169 39.4091 115.551 39.6413 116.067 39.7222C116.461 39.7841 116.783 39.7631 117.031 39.6595C117.284 39.5567 117.43 39.3864 117.467 39.1487L117.485 39.0357L116.311 38.8515L116.513 37.5644L119.809 38.0813L119.607 39.3685L118.981 39.2703L118.962 39.392C118.896 39.8095 118.726 40.157 118.451 40.4346C118.176 40.7065 117.817 40.8937 117.373 40.9964C116.93 41.0932 116.428 41.0976 115.865 41.0094ZM122.966 37.3112C123.5 37.3949 123.864 37.6065 124.061 37.9462C124.263 38.281 124.319 38.7412 124.227 39.3268L123.789 42.1185L122.476 41.9125L122.844 39.5644C122.905 39.2531 122.876 39.002 122.758 38.8112C122.645 38.6212 122.461 38.5062 122.206 38.4662C121.939 38.4244 121.715 38.4902 121.533 38.6637C121.358 38.8323 121.243 39.0905 121.189 39.4384L120.841 41.6561L119.528 41.4501L120.559 34.8753L121.864 35.0799L121.603 36.741C121.581 36.8802 121.513 37.0685 121.399 37.306C121.29 37.5444 121.148 37.8043 120.973 38.0858L121.33 38.1417C121.667 37.4698 122.212 37.193 122.966 37.3112ZM125.863 42.5773C125.376 42.5009 125.013 42.3312 124.775 42.0682C124.538 41.7993 124.451 41.4677 124.512 41.0735C124.584 40.6154 124.809 40.2823 125.186 40.0742C125.564 39.8602 126.057 39.786 126.664 39.8516L127.609 39.9641L127.617 39.9119C127.656 39.6626 127.62 39.458 127.509 39.2979C127.403 39.1387 127.225 39.0396 126.976 39.0005C126.756 38.9659 126.564 38.9982 126.4 39.0972C126.241 39.1971 126.149 39.3312 126.123 39.4993L124.792 39.2906C124.897 38.7724 125.152 38.3995 125.556 38.1718C125.96 37.9383 126.488 37.8724 127.137 37.9743C127.786 38.0761 128.271 38.3214 128.59 38.7101C128.91 39.0929 129.022 39.5917 128.926 40.2062L128.51 42.8588L127.614 42.7183L127.689 41.9549L127.315 41.8962C127.237 42.169 127.066 42.3651 126.804 42.4844C126.542 42.6036 126.228 42.6346 125.863 42.5773ZM126.344 41.726C126.639 41.7724 126.886 41.731 127.085 41.6017C127.284 41.4666 127.403 41.2774 127.441 41.0338L127.477 40.8077L126.601 40.7684C126.4 40.7606 126.231 40.7936 126.095 40.8673C125.965 40.9419 125.889 41.0429 125.869 41.1705C125.848 41.3096 125.879 41.4304 125.964 41.5328C126.049 41.6353 126.175 41.6997 126.344 41.726ZM129.254 42.9755L129.949 38.5401L131.045 38.712C130.967 38.9848 130.849 39.2841 130.691 39.6098L131.056 39.6671C131.393 38.9952 131.938 38.7184 132.692 38.8366C133.225 38.9203 133.59 39.1319 133.787 39.4716C133.989 39.8064 134.045 40.2666 133.953 40.8522L133.515 43.6439L132.202 43.4379L132.57 41.0898C132.631 40.7785 132.602 40.5274 132.484 40.3366C132.371 40.1466 132.187 40.0316 131.932 39.9916C131.665 39.9498 131.441 40.0156 131.259 40.1891C131.084 40.3577 130.969 40.6159 130.915 40.9638L130.567 43.1815L129.254 42.9755ZM135.588 44.1027C135.101 44.0263 134.739 43.8565 134.501 43.5935C134.264 43.3246 134.176 42.9931 134.238 42.5988C134.31 42.1408 134.534 41.8077 134.911 41.5995C135.29 41.3855 135.782 41.3114 136.39 41.3769L137.335 41.4895L137.343 41.4373C137.382 41.188 137.346 40.9833 137.234 40.8232C137.128 40.6641 136.951 40.5649 136.702 40.5258C136.481 40.4913 136.289 40.5235 136.125 40.6225C135.967 40.7225 135.874 40.8565 135.848 41.0246L134.518 40.816C134.623 40.2978 134.877 39.9248 135.281 39.6971C135.686 39.4636 136.213 39.3978 136.863 39.4996C137.512 39.6014 137.996 39.8467 138.315 40.2354C138.636 40.6183 138.747 41.117 138.651 41.7316L138.235 44.3841L137.339 44.2436L137.414 43.4802L137.041 43.4215C136.962 43.6944 136.792 43.8904 136.529 44.0097C136.267 44.129 135.953 44.1599 135.588 44.1027ZM136.069 43.2514C136.365 43.2977 136.612 43.2563 136.81 43.127C137.01 42.992 137.129 42.8027 137.167 42.5592L137.202 42.3331L136.326 42.2937C136.126 42.286 135.957 42.3189 135.821 42.3926C135.69 42.4672 135.615 42.5683 135.595 42.6958C135.573 42.835 135.605 42.9557 135.69 43.0582C135.775 43.1606 135.901 43.225 136.069 43.2514ZM143.152 45.289C142.532 45.1917 142.015 44.983 141.602 44.6627C141.196 44.3376 140.911 43.9187 140.748 43.406C140.59 42.8942 140.564 42.3049 140.669 41.6381C140.772 40.9772 140.977 40.4271 141.284 39.9881C141.596 39.5499 141.995 39.2412 142.481 39.0619C142.972 38.8835 143.528 38.843 144.148 38.9403C144.653 39.0194 145.088 39.1947 145.456 39.4662C145.83 39.7328 146.101 40.0664 146.27 40.4671C146.44 40.8621 146.489 41.2857 146.418 41.7379L146.407 41.8075L144.981 41.5838L144.992 41.5142C145.042 41.1953 144.967 40.9162 144.767 40.6769C144.574 40.4327 144.3 40.2829 143.946 40.2274C143.471 40.1529 143.074 40.2599 142.755 40.5486C142.443 40.8381 142.24 41.2786 142.147 41.87C142.053 42.4672 142.111 42.9544 142.319 43.3316C142.534 43.7039 142.879 43.9273 143.354 44.0019C143.737 44.0619 144.068 44.0187 144.346 43.8723C144.625 43.72 144.787 43.5019 144.832 43.2178L144.849 43.1047L146.267 43.327L146.249 43.4401C146.181 43.8749 146.001 44.2477 145.709 44.5583C145.422 44.8698 145.055 45.0913 144.606 45.223C144.159 45.3488 143.674 45.3709 143.152 45.289ZM148.356 46.1052C147.892 46.0324 147.502 45.8731 147.184 45.6272C146.872 45.3822 146.651 45.0684 146.52 44.6856C146.391 44.297 146.364 43.865 146.439 43.3896C146.513 42.9142 146.668 42.5166 146.902 42.1969C147.143 41.8723 147.449 41.6412 147.822 41.5035C148.194 41.3659 148.609 41.3329 149.067 41.4048C149.525 41.4766 149.912 41.6234 150.227 41.8452C150.543 42.067 150.766 42.3485 150.897 42.6898C151.033 43.032 151.068 43.4147 151.002 43.838C150.962 44.0931 150.908 44.3044 150.84 44.472L147.666 43.9741C147.672 44.278 147.748 44.5276 147.896 44.7231C148.05 44.9136 148.258 45.0293 148.519 45.0702C148.785 45.1121 149.003 45.1047 149.173 45.0481C149.349 44.9866 149.448 44.8833 149.471 44.7384L149.475 44.7123L150.727 44.9087L150.723 44.9348C150.651 45.3928 150.402 45.7281 149.977 45.9406C149.552 46.1531 149.011 46.2079 148.356 46.1052ZM149.731 43.4782C149.717 43.185 149.639 42.9469 149.495 42.764C149.352 42.5811 149.155 42.4701 148.906 42.431C148.656 42.3919 148.435 42.4374 148.243 42.5676C148.05 42.6978 147.902 42.9004 147.8 43.1754L149.731 43.4782ZM155.066 40.2873L156.371 40.4919L155.34 47.0668L154.2 46.8881C154.233 46.6794 154.366 46.3824 154.599 45.9971L154.216 45.9371C154.044 46.2784 153.828 46.5178 153.569 46.6553C153.309 46.7929 152.997 46.833 152.632 46.7758C152.041 46.683 151.612 46.4049 151.346 45.9414C151.081 45.4721 151.007 44.8664 151.123 44.1243C151.239 43.3879 151.494 42.8399 151.889 42.48C152.284 42.1202 152.777 41.9867 153.368 42.0794C153.734 42.1367 154.019 42.2705 154.223 42.4808C154.434 42.6921 154.566 42.9831 154.621 43.3541L155.004 43.4141C154.909 43.1497 154.842 42.8898 154.805 42.6345C154.774 42.38 154.774 42.1514 154.806 41.9484L155.066 40.2873ZM153.251 45.5541C153.553 45.6014 153.802 45.5454 153.999 45.3863C154.197 45.2213 154.323 44.9707 154.376 44.6344C154.427 44.3039 154.384 44.0327 154.245 43.8208C154.106 43.6089 153.886 43.4793 153.584 43.4321C153.283 43.3848 153.033 43.4407 152.836 43.5999C152.639 43.759 152.514 44.0039 152.462 44.3343C152.41 44.6706 152.452 44.9476 152.59 45.1653C152.729 45.3772 152.95 45.5068 153.251 45.5541ZM157.577 42.5523C157.368 42.5196 157.202 42.4223 157.079 42.2604C156.956 42.0985 156.91 41.919 156.941 41.7219C156.971 41.5247 157.07 41.368 157.237 41.2516C157.404 41.1351 157.592 41.0933 157.8 41.126C158.003 41.1579 158.166 41.2547 158.289 41.4166C158.413 41.5785 158.459 41.758 158.428 41.9551C158.397 42.1522 158.298 42.309 158.131 42.4254C157.964 42.5418 157.78 42.5841 157.577 42.5523ZM157.519 47.4086L156.206 47.2026L156.901 42.7672L158.215 42.9732L157.519 47.4086ZM159.816 47.9025C159.23 47.8106 158.796 47.6088 158.512 47.297C158.229 46.9793 158.125 46.5828 158.199 46.1074L158.213 46.0204L159.526 46.2264L159.513 46.3133C159.491 46.4525 159.52 46.5699 159.6 46.6656C159.687 46.7565 159.814 46.8151 159.982 46.8414C160.15 46.8678 160.286 46.8564 160.389 46.8072C160.492 46.7521 160.554 46.6637 160.573 46.542C160.585 46.4608 160.565 46.3833 160.511 46.3096C160.463 46.2367 160.386 46.1771 160.281 46.1309L159.443 45.7322C159.134 45.5827 158.906 45.3895 158.759 45.1526C158.612 44.9157 158.561 44.6552 158.605 44.3711C158.675 43.9246 158.886 43.6013 159.239 43.4011C159.598 43.196 160.059 43.1347 160.622 43.2171C161.19 43.3062 161.613 43.5091 161.89 43.8258C162.168 44.1367 162.269 44.5299 162.195 45.0053L162.181 45.0923L160.868 44.8863L160.882 44.7994C160.904 44.6602 160.877 44.5461 160.802 44.4571C160.727 44.3623 160.612 44.3026 160.456 44.2781C160.311 44.2553 160.192 44.2724 160.1 44.3292C160.015 44.3812 159.963 44.4652 159.945 44.5811C159.921 44.7319 160.03 44.8678 160.273 44.989L160.977 45.3311C161.313 45.4967 161.562 45.7051 161.725 45.9564C161.894 46.2027 161.957 46.4679 161.912 46.752C161.84 47.2101 161.619 47.5407 161.249 47.744C160.879 47.9415 160.401 47.9943 159.816 47.9025Z" fill="#032E32"/>
<path d="M169.567 42.9209C169.759 42.8075 170.001 42.855 170.137 43.0231L170.175 43.0771L172.93 47.7367L177.589 44.9823C177.781 44.8689 178.023 44.9164 178.16 45.0845L178.197 45.1384C178.31 45.3302 178.263 45.5725 178.095 45.7087L178.041 45.7462L172.999 48.7267C172.807 48.84 172.565 48.7926 172.429 48.6245L172.391 48.5705L169.411 43.5287C169.286 43.3177 169.356 43.0456 169.567 42.9209Z" fill="black"/>
<rect x="90.9059" y="60.1926" width="101.2" height="40.4613" rx="4.11213" transform="rotate(8.91353 90.9059 60.1926)" fill="white"/>
<path d="M104.089 80.5891L102.57 80.3508L105.625 74.1861L107.941 74.5494L108.962 81.3533L107.443 81.115L107.295 80.0574L104.553 79.6273L104.089 80.5891ZM105.194 78.3232L107.093 78.621L106.948 77.6112C106.809 76.6403 106.757 76.0278 106.79 75.7736L106.336 75.7024C106.287 75.9793 106.052 76.5499 105.631 77.4141L105.194 78.3232ZM111.239 81.8528C110.745 81.7753 110.329 81.6056 109.99 81.3437C109.658 81.0828 109.422 80.7485 109.284 80.3408C109.146 79.9269 109.117 79.4668 109.197 78.9604C109.276 78.454 109.44 78.0305 109.69 77.69C109.941 77.3433 110.258 77.0957 110.642 76.9471C111.032 76.7995 111.468 76.7635 111.949 76.839C112.61 76.9427 113.104 77.2067 113.429 77.6311C113.761 78.0565 113.878 78.581 113.78 79.2047L113.769 79.2789L112.324 79.0522L112.335 78.9781C112.367 78.7743 112.328 78.6036 112.216 78.4659C112.111 78.3292 111.951 78.2439 111.734 78.21C111.45 78.1654 111.206 78.2315 111.001 78.4082C110.803 78.5796 110.677 78.8383 110.623 79.1841C110.568 79.5361 110.614 79.8281 110.761 80.0599C110.914 80.2928 111.145 80.4334 111.454 80.4819C111.67 80.5158 111.847 80.4992 111.984 80.4321C112.121 80.365 112.201 80.2573 112.224 80.1091L112.236 80.035L113.672 80.2602L113.66 80.3343C113.583 80.9044 113.327 81.3262 112.892 81.5996C112.457 81.873 111.906 81.9574 111.239 81.8528ZM115.948 82.5914C115.454 82.5139 115.038 82.3442 114.699 82.0823C114.367 81.8214 114.131 81.487 113.993 81.0793C113.855 80.6655 113.826 80.2053 113.906 79.6989C113.985 79.1925 114.15 78.7691 114.399 78.4286C114.65 78.0819 114.967 77.8343 115.351 77.6857C115.741 77.5381 116.177 77.502 116.659 77.5776C117.319 77.6812 117.813 77.9452 118.138 78.3696C118.47 78.795 118.587 79.3196 118.489 79.9433L118.478 80.0174L117.033 79.7908L117.044 79.7167C117.076 79.5129 117.037 79.3421 116.925 79.2045C116.82 79.0678 116.66 78.9825 116.444 78.9486C116.159 78.904 115.915 78.9701 115.71 79.1467C115.512 79.3182 115.386 79.5768 115.332 79.9227C115.277 80.2747 115.323 80.5666 115.47 80.7985C115.623 81.0314 115.854 81.172 116.163 81.2204C116.379 81.2543 116.556 81.2377 116.693 81.1706C116.83 81.1036 116.91 80.9959 116.933 80.8477L116.945 80.7736L118.381 80.9988L118.369 81.0729C118.293 81.643 118.037 82.0647 117.601 82.3382C117.166 82.6116 116.615 82.696 115.948 82.5914ZM120.676 83.3329C120.176 83.2544 119.756 83.0842 119.418 82.8223C119.079 82.5604 118.84 82.2256 118.702 81.8179C118.564 81.404 118.535 80.9439 118.615 80.4375C118.694 79.9311 118.862 79.5081 119.117 79.1686C119.374 78.8229 119.704 78.5772 120.106 78.4315C120.509 78.2858 120.96 78.2522 121.46 78.3307C121.961 78.4091 122.38 78.5793 122.718 78.8412C123.057 79.1031 123.296 79.4379 123.434 79.8456C123.574 80.2472 123.604 80.7011 123.524 81.2075C123.445 81.7139 123.276 82.143 123.019 82.4949C122.762 82.8406 122.432 83.0863 122.03 83.232C121.627 83.3777 121.176 83.4113 120.676 83.3329ZM120.886 81.9897C121.201 82.0391 121.468 81.9733 121.686 81.7924C121.904 81.6115 122.042 81.342 122.098 80.9838C122.153 80.6318 122.104 80.3393 121.951 80.1065C121.798 79.8675 121.565 79.7233 121.25 79.6739C120.935 79.6245 120.668 79.6902 120.45 79.8711C120.233 80.0459 120.096 80.3092 120.041 80.6612C119.985 81.0194 120.033 81.318 120.185 81.557C120.338 81.7961 120.571 81.9403 120.886 81.9897ZM125.283 84.0554C124.739 83.9702 124.362 83.7369 124.149 83.3556C123.938 82.9681 123.882 82.4564 123.982 81.8203L124.434 78.9394L125.842 79.1602L125.402 81.8437C125.36 82.1092 125.392 82.3294 125.498 82.5041C125.604 82.6727 125.775 82.7753 126.009 82.8121C126.269 82.8528 126.485 82.7824 126.659 82.6009C126.841 82.4142 126.96 82.1355 127.018 81.765L127.389 79.4029L128.788 79.6222L128.047 84.3465L126.898 84.1664C127.017 83.7675 127.134 83.4473 127.248 83.2057L126.859 83.1447C126.701 83.5059 126.496 83.7648 126.244 83.9214C125.992 84.0718 125.672 84.1164 125.283 84.0554ZM128.972 84.4917L129.713 79.7674L130.88 79.9505C130.797 80.2411 130.671 80.5599 130.503 80.9068L130.892 80.9678C131.251 80.2522 131.832 79.9573 132.634 80.0832C133.203 80.1723 133.591 80.3978 133.8 80.7596C134.016 81.1162 134.075 81.6063 133.978 82.2301L133.511 85.2036L132.113 84.9842L132.505 82.4831C132.569 82.1516 132.539 81.8842 132.412 81.6809C132.292 81.4785 132.096 81.356 131.825 81.3134C131.54 81.2689 131.302 81.339 131.108 81.5238C130.922 81.7033 130.8 81.9784 130.742 82.3489L130.371 84.7111L128.972 84.4917ZM137.139 83.4187L138.537 83.6381L138.445 84.2309C138.353 84.8114 138.119 85.2397 137.74 85.5156C137.362 85.7854 136.883 85.8748 136.303 85.7838C135.722 85.6927 135.294 85.461 135.017 85.0885C134.741 84.7099 134.648 84.2303 134.739 83.6498L135.005 81.9546L134.283 81.8413L134.49 80.5166L135.259 80.6372L135.46 79.3589L136.812 79.571L136.612 80.8493L138.826 81.1966L138.618 82.5212L136.404 82.174L136.138 83.8692C136.127 84.0193 136.155 84.1439 136.222 84.243C136.289 84.3358 136.388 84.3924 136.518 84.4128C136.66 84.4351 136.777 84.4124 136.87 84.3447C136.964 84.2708 137.023 84.1598 137.046 84.0116L137.139 83.4187ZM140.331 86.2732L141.072 81.549L142.24 81.732C142.156 82.0226 142.03 82.3414 141.862 82.6883L142.251 82.7493C142.61 82.0337 143.191 81.7388 143.994 81.8647C144.562 81.9539 144.95 82.1793 145.159 82.5411C145.375 82.8977 145.435 83.3879 145.337 84.0116L144.87 86.9851L143.472 86.7658L143.864 84.2647C143.929 83.9331 143.898 83.6657 143.771 83.4624C143.651 83.2601 143.455 83.1376 143.184 83.095C142.9 83.0504 142.661 83.1205 142.467 83.3053C142.281 83.4849 142.159 83.7599 142.101 84.1305L141.73 86.4926L140.331 86.2732ZM147.254 87.5014C146.711 87.4161 146.333 87.1829 146.121 86.8016C145.909 86.4141 145.854 85.9023 145.953 85.2662L146.405 82.3853L147.813 82.6062L147.373 85.2896C147.332 85.5552 147.364 85.7753 147.469 85.95C147.576 86.1186 147.746 86.2213 147.981 86.2581C148.24 86.2988 148.457 86.2283 148.631 86.0468C148.812 85.8601 148.932 85.5815 148.99 85.2109L149.36 82.8488L150.759 83.0682L150.018 87.7925L148.869 87.6123C148.989 87.2134 149.106 86.8932 149.219 86.6516L148.83 86.5906C148.672 86.9518 148.467 87.2107 148.215 87.3673C147.964 87.5177 147.643 87.5624 147.254 87.5014ZM157.22 83.9296C157.67 84.0003 158.005 84.2047 158.224 84.5428C158.451 84.8756 158.525 85.2891 158.447 85.7831L157.937 89.0345L156.539 88.8152L156.979 86.1317C157.02 85.8662 156.988 85.6491 156.881 85.4806C156.782 85.3068 156.618 85.202 156.39 85.1662C156.174 85.1323 155.99 85.1921 155.84 85.3456C155.69 85.493 155.591 85.718 155.544 86.0206L155.14 88.5958L153.741 88.3764L154.181 85.6929C154.223 85.4274 154.19 85.2104 154.084 85.0418C153.985 84.868 153.821 84.7632 153.592 84.7274C153.376 84.6935 153.191 84.7626 153.038 84.9347C152.884 85.1067 152.781 85.3626 152.727 85.7022L152.342 88.157L150.944 87.9376L151.685 83.2134L152.852 83.3964C152.768 83.687 152.642 84.0058 152.474 84.3527L152.854 84.4123C153.158 83.6818 153.632 83.3669 154.274 83.4676C154.922 83.5693 155.264 84.012 155.299 84.7958L155.651 84.851C155.789 84.4993 155.99 84.243 156.256 84.0822C156.528 83.9223 156.849 83.8715 157.22 83.9296ZM162.362 84.7456C162.992 84.8444 163.449 85.1407 163.732 85.6343C164.015 86.128 164.095 86.767 163.972 87.5513C163.848 88.3417 163.575 88.9317 163.154 89.3211C162.733 89.7044 162.208 89.8466 161.578 89.7478C161.189 89.6868 160.885 89.5443 160.667 89.3203C160.449 89.0963 160.308 88.7831 160.245 88.3809L159.837 88.317C159.948 88.7835 159.985 89.1279 159.951 89.3503L158.737 89.1599L159.835 82.1569L161.225 82.3748L160.947 84.1441C160.914 84.3602 160.836 84.5917 160.715 84.8385C160.6 85.0862 160.452 85.3287 160.269 85.5658L160.676 85.6297C160.853 85.2714 161.079 85.019 161.355 84.8724C161.637 84.7269 161.973 84.6846 162.362 84.7456ZM161.348 88.3071C161.669 88.3575 161.935 88.2979 162.145 88.1284C162.356 87.9527 162.49 87.6857 162.546 87.3275C162.601 86.9755 162.554 86.6867 162.406 86.461C162.258 86.2353 162.024 86.0972 161.703 86.0469C161.381 85.9965 161.116 86.0561 160.906 86.2256C160.696 86.3951 160.563 86.6559 160.508 87.0079C160.452 87.3661 160.497 87.6611 160.644 87.893C160.792 88.1187 161.027 88.2567 161.348 88.3071ZM166.196 90.4722C165.702 90.3947 165.286 90.225 164.947 89.9631C164.615 89.7021 164.379 89.3678 164.241 88.9601C164.103 88.5462 164.074 88.0861 164.154 87.5797C164.233 87.0733 164.398 86.6499 164.647 86.3094C164.904 85.9637 165.23 85.7175 165.627 85.5708C166.023 85.4242 166.465 85.3891 166.953 85.4656C167.441 85.5421 167.853 85.6985 168.189 85.9348C168.525 86.171 168.763 86.4709 168.902 86.8344C169.048 87.1988 169.085 87.6065 169.014 88.0573C168.971 88.329 168.914 88.5541 168.842 88.7326L165.461 88.2023C165.467 88.526 165.549 88.7919 165.706 89.0001C165.87 89.203 166.091 89.3263 166.369 89.3698C166.653 89.4144 166.885 89.4065 167.066 89.3462C167.253 89.2807 167.359 89.1707 167.383 89.0164L167.387 88.9886L168.721 89.1978L168.717 89.2256C168.64 89.7134 168.376 90.0705 167.923 90.2969C167.469 90.5232 166.894 90.5816 166.196 90.4722ZM167.66 87.6741C167.646 87.3618 167.562 87.1082 167.409 86.9134C167.256 86.7186 167.047 86.6003 166.781 86.5587C166.516 86.5171 166.28 86.5656 166.075 86.7042C165.87 86.8429 165.713 87.0586 165.604 87.3516L167.66 87.6741ZM172.582 86.3484C173.051 86.422 173.376 86.609 173.557 86.9095C173.744 87.2047 173.795 87.6302 173.708 88.186L173.567 89.0845L172.075 88.8506L172.144 88.4152C172.181 88.1744 172.158 87.9809 172.073 87.8347C171.996 87.6834 171.864 87.5932 171.679 87.5641C171.494 87.5351 171.338 87.5833 171.21 87.7089C171.089 87.8354 171.009 88.0253 170.969 88.2785L170.54 91.0112L169.142 90.7918L169.883 86.0675L171.05 86.2506C170.966 86.5412 170.84 86.8599 170.672 87.2069L171.07 87.2693C171.349 86.5411 171.853 86.2341 172.582 86.3484Z" fill="black"/>
<path d="M101.789 91.6215L101.901 90.9083L103.43 91.148L103.985 87.6094C104.015 87.418 104.072 87.253 104.157 87.1145C104.242 86.9759 104.367 86.8247 104.532 86.6607L104.271 86.3919C104.106 86.5559 103.958 86.6688 103.828 86.7307C103.706 86.7873 103.542 86.7997 103.338 86.7677L102.931 86.7038L103.025 86.1017C103.353 86.153 103.634 86.1118 103.87 85.978C104.113 85.8451 104.256 85.6398 104.299 85.3619L105.096 85.4868L104.189 91.2671L105.69 91.5025L105.578 92.2158L101.789 91.6215ZM108.731 92.8432C108.003 92.7289 107.457 92.4757 107.095 92.0835C106.739 91.6922 106.606 91.2033 106.698 90.6166L107.569 90.7532C107.513 91.1114 107.595 91.4153 107.815 91.665C108.043 91.9094 108.385 92.0675 108.842 92.1392C109.274 92.207 109.634 92.1527 109.921 91.9762C110.209 91.7936 110.382 91.5171 110.44 91.1465C110.499 90.7698 110.42 90.4504 110.201 90.1884C109.983 89.9264 109.658 89.7615 109.225 89.6937L108.697 89.6109L108.786 89.0458L109.314 89.1286C109.734 89.1945 110.081 89.1413 110.355 88.9691C110.636 88.7917 110.804 88.5239 110.86 88.1657C110.916 87.8076 110.838 87.5041 110.623 87.2554C110.409 87.0067 110.095 86.8499 109.682 86.785C109.268 86.7201 108.921 86.7733 108.641 86.9445C108.361 87.1157 108.194 87.3773 108.138 87.7293L107.268 87.5928C107.359 87.0123 107.627 86.5894 108.074 86.3241C108.528 86.0535 109.1 85.9725 109.792 86.081C110.478 86.1885 110.995 86.4374 111.345 86.8276C111.696 87.2117 111.828 87.6817 111.741 88.2375C111.695 88.5339 111.588 88.7733 111.42 88.9558C111.252 89.1383 111.065 89.2639 110.858 89.3327C110.657 89.4025 110.483 89.4226 110.336 89.3932L110.277 89.7638C110.427 89.7808 110.588 89.86 110.762 90.0011C110.943 90.1371 111.089 90.3212 111.198 90.5535C111.307 90.7857 111.338 91.0501 111.292 91.3465C111.202 91.9146 110.928 92.3335 110.468 92.603C110.008 92.8726 109.429 92.9526 108.731 92.8432ZM111.76 93.1759L111.871 92.4718L114.892 90.1552C115.409 89.7618 115.702 89.3428 115.772 88.8981C115.826 88.5523 115.758 88.26 115.568 88.0214C115.384 87.7837 115.119 87.6377 114.773 87.5835C114.427 87.5293 114.127 87.5866 113.873 87.7555C113.625 87.9254 113.473 88.1833 113.419 88.5291C113.406 88.6156 113.401 88.7035 113.406 88.7928L112.519 88.8245C112.523 88.6353 112.533 88.4913 112.548 88.3925C112.637 87.8306 112.892 87.415 113.313 87.1458C113.742 86.8714 114.266 86.7826 114.883 86.8795C115.501 86.9763 115.969 87.2206 116.287 87.6122C116.612 87.9985 116.731 88.4727 116.643 89.0347C116.555 89.5967 116.215 90.1066 115.625 90.5644L112.833 92.6892L113.072 92.9829C113.253 92.7962 113.587 92.7411 114.075 92.8176L115.974 93.1154L115.864 93.8195L111.76 93.1759ZM116.944 93.9889L117.054 93.2849L120.075 90.9682C120.593 90.5748 120.886 90.1558 120.956 89.7111C121.01 89.3653 120.942 89.0731 120.752 88.8344C120.568 88.5967 120.303 88.4507 119.957 88.3965C119.611 88.3423 119.311 88.3996 119.057 88.5685C118.808 88.7384 118.657 88.9963 118.603 89.3421C118.589 89.4286 118.585 89.5165 118.59 89.6059L117.702 89.6375C117.707 89.4483 117.717 89.3044 117.732 89.2056C117.82 88.6436 118.075 88.228 118.497 87.9588C118.926 87.6844 119.45 87.5956 120.067 87.6925C120.685 87.7894 121.153 88.0336 121.471 88.4252C121.796 88.8116 121.915 89.2857 121.827 89.8477C121.738 90.4097 121.399 90.9196 120.808 91.3774L118.017 93.5023L118.256 93.7959C118.437 93.6092 118.771 93.5541 119.259 93.6306L121.158 93.9285L121.048 94.6325L116.944 93.9889ZM123.766 90.2848L123.31 90.9536L122.769 90.4131L123.43 89.9474L123.393 89.7612L122.615 89.5158L122.959 88.8389L123.622 89.332L123.787 89.2441L123.775 88.4164L124.525 88.5341L124.251 89.3167L124.391 89.4526L125.173 89.1861L125.292 89.9357L124.478 89.9219L124.395 90.0892L124.881 90.7443L124.209 91.0945L123.952 90.3139L123.766 90.2848ZM126.625 90.7332L126.169 91.402L125.628 90.8615L126.289 90.3958L126.252 90.2096L125.474 89.9642L125.818 89.2873L126.481 89.7804L126.646 89.6925L126.634 88.8648L127.384 88.9824L127.109 89.7651L127.25 89.901L128.032 89.6345L128.151 90.3841L127.337 90.3703L127.254 90.5376L127.74 91.1927L127.068 91.5429L126.811 90.7623L126.625 90.7332ZM129.484 91.1816L129.028 91.8504L128.487 91.3099L129.148 90.8441L129.111 90.658L128.333 90.4126L128.677 89.7357L129.34 90.2288L129.505 90.1409L129.493 89.3132L130.243 89.4308L129.968 90.2135L130.108 90.3494L130.891 90.0829L131.01 90.8325L130.196 90.8187L130.113 90.986L130.599 91.6411L129.927 91.9913L129.67 91.2107L129.484 91.1816ZM132.343 91.63L131.887 92.2988L131.346 91.7583L132.007 91.2925L131.97 91.1064L131.192 90.861L131.536 90.184L132.199 90.6772L132.364 90.5893L132.352 89.7616L133.102 89.8792L132.827 90.6619L132.967 90.7978L133.75 90.5313L133.869 91.2809L133.055 91.2671L132.972 91.4344L133.458 92.0895L132.786 92.4397L132.529 91.6591L132.343 91.63ZM135.202 92.0784L134.746 92.7472L134.205 92.2067L134.866 91.7409L134.829 91.5548L134.051 91.3094L134.395 90.6324L135.058 91.1256L135.223 91.0376L135.211 90.2099L135.961 90.3276L135.686 91.1103L135.826 91.2461L136.608 90.9797L136.728 91.7293L135.914 91.7155L135.831 91.8828L136.317 92.5379L135.645 92.8881L135.388 92.1075L135.202 92.0784ZM138.061 92.5268L137.605 93.1956L137.064 92.655L137.725 92.1893L137.688 92.0032L136.91 91.7578L137.254 91.0808L137.916 91.574L138.082 91.486L138.07 90.6583L138.82 90.776L138.545 91.5587L138.685 91.6945L139.467 91.4281L139.587 92.1777L138.773 92.1639L138.69 92.3312L139.176 92.9863L138.504 93.3365L138.247 92.5558L138.061 92.5268ZM140.92 92.9752L140.464 93.644L139.923 93.1034L140.584 92.6377L140.547 92.4515L139.769 92.2062L140.112 91.5292L140.775 92.0223L140.941 91.9344L140.929 91.1067L141.679 91.2244L141.404 92.0071L141.544 92.1429L142.326 91.8765L142.446 92.626L141.632 92.6123L141.549 92.7796L142.035 93.4347L141.363 93.7849L141.105 93.0042L140.92 92.9752ZM143.779 93.4236L143.323 94.0924L142.781 93.5518L143.443 93.0861L143.406 92.8999L142.628 92.6546L142.971 91.9776L143.634 92.4707L143.8 92.3828L143.787 91.5551L144.538 91.6728L144.263 92.4555L144.403 92.5913L145.185 92.3248L145.305 93.0744L144.491 93.0607L144.408 93.2279L144.894 93.8831L144.222 94.2333L143.964 93.4526L143.779 93.4236ZM146.638 93.872L146.182 94.5408L145.64 94.0002L146.302 93.5345L146.265 93.3483L145.487 93.103L145.83 92.426L146.493 92.9191L146.659 92.8312L146.646 92.0035L147.397 92.1212L147.122 92.9039L147.262 93.0397L148.044 92.7732L148.164 93.5228L147.35 93.509L147.267 93.6763L147.752 94.3315L147.081 94.6817L146.823 93.901L146.638 93.872ZM149.497 94.3204L149.041 94.9891L148.499 94.4486L149.161 93.9829L149.124 93.7967L148.346 93.5514L148.689 92.8744L149.352 93.3675L149.518 93.2796L149.505 92.4519L150.256 92.5696L149.981 93.3522L150.121 93.4881L150.903 93.2216L151.023 93.9712L150.209 93.9574L150.126 94.1247L150.611 94.7799L149.94 95.1301L149.682 94.3494L149.497 94.3204Z" fill="black"/>
<rect x="82.458" y="114.057" width="85.5316" height="29.7955" rx="3.98921" transform="rotate(8.91353 82.458 114.057)" fill="#3CDF90"/>
<path d="M93.4777 134.553C92.7068 134.432 92.1342 134.152 91.7597 133.715C91.3925 133.272 91.2615 132.715 91.3667 132.045L91.3903 131.894L92.8944 132.13L92.8709 132.28C92.8345 132.512 92.8875 132.707 93.0298 132.864C93.1731 133.015 93.392 133.114 93.6866 133.16C93.9435 133.2 94.1515 133.184 94.3103 133.113C94.4755 133.043 94.5719 132.92 94.5994 132.744C94.6171 132.631 94.5846 132.511 94.502 132.382C94.4257 132.255 94.3067 132.133 94.145 132.018L92.9335 131.144C92.5638 130.881 92.2898 130.581 92.1113 130.245C91.9392 129.909 91.8796 129.572 91.9327 129.234C92.0261 128.639 92.3025 128.207 92.762 127.938C93.2287 127.665 93.8324 127.583 94.5729 127.693C95.3124 127.809 95.8596 128.087 96.2142 128.528C96.5689 128.969 96.6941 129.522 96.5899 130.186L96.5546 130.412L95.0504 130.176L95.071 130.044C95.1113 129.787 95.0707 129.575 94.9492 129.408C94.8276 129.242 94.6384 129.138 94.3814 129.098C94.137 129.06 93.9389 129.073 93.7873 129.14C93.6419 129.207 93.5564 129.322 93.5309 129.485C93.5161 129.579 93.5448 129.683 93.6168 129.797C93.6898 129.905 93.7982 130.011 93.9422 130.117L95.366 131.111C95.6842 131.335 95.9168 131.612 96.0639 131.943C96.211 132.275 96.2556 132.625 96.1976 132.995C96.1022 133.603 95.8144 134.046 95.3342 134.324C94.8612 134.596 94.2424 134.673 93.4777 134.553ZM98.5098 135.342C98.0084 135.263 97.5859 135.091 97.2423 134.825C96.905 134.56 96.666 134.221 96.5254 133.807C96.3858 133.387 96.3563 132.92 96.4369 132.406C96.5175 131.892 96.6845 131.463 96.9377 131.117C97.1982 130.766 97.5296 130.516 97.9318 130.368C98.334 130.219 98.7827 130.183 99.2778 130.261C99.773 130.338 100.191 130.497 100.532 130.737C100.874 130.977 101.115 131.281 101.256 131.65C101.404 132.02 101.441 132.433 101.37 132.891C101.326 133.167 101.268 133.395 101.195 133.576L97.7634 133.038C97.7697 133.367 97.8526 133.637 98.0121 133.848C98.1789 134.054 98.4033 134.179 98.6853 134.223C98.9736 134.268 99.2092 134.26 99.3922 134.199C99.5825 134.133 99.6899 134.021 99.7144 133.864L99.7189 133.836L101.073 134.048L101.068 134.077C100.991 134.572 100.722 134.934 100.262 135.164C99.8021 135.394 99.2181 135.453 98.5098 135.342ZM99.9955 132.502C99.981 132.185 99.8961 131.928 99.7409 131.73C99.5857 131.532 99.3734 131.412 99.1039 131.37C98.8344 131.328 98.5955 131.377 98.3872 131.518C98.1789 131.658 98.0193 131.877 97.9085 132.175L99.9955 132.502ZM101.499 135.666L102.251 130.872L103.436 131.057C103.351 131.352 103.223 131.676 103.052 132.028L103.447 132.09C103.812 131.364 104.401 131.064 105.216 131.192C105.792 131.283 106.187 131.511 106.399 131.879C106.618 132.24 106.678 132.738 106.579 133.371L106.106 136.389L104.686 136.166L105.084 133.628C105.15 133.291 105.119 133.02 104.99 132.813C104.869 132.608 104.67 132.484 104.394 132.441C104.106 132.395 103.863 132.467 103.667 132.654C103.478 132.836 103.354 133.115 103.295 133.492L102.919 135.889L101.499 135.666ZM111.194 129.905L112.604 130.126L111.49 137.233L110.258 137.04C110.294 136.814 110.437 136.493 110.689 136.077L110.275 136.012C110.089 136.381 109.855 136.64 109.575 136.788C109.295 136.937 108.958 136.98 108.563 136.918C107.923 136.818 107.46 136.518 107.173 136.017C106.886 135.509 106.806 134.855 106.932 134.052C107.056 133.256 107.332 132.664 107.759 132.275C108.186 131.886 108.72 131.742 109.359 131.842C109.754 131.904 110.062 132.048 110.283 132.276C110.51 132.504 110.654 132.819 110.713 133.22L111.127 133.285C111.024 132.999 110.952 132.718 110.912 132.442C110.878 132.167 110.878 131.92 110.913 131.7L111.194 129.905ZM109.232 135.598C109.558 135.649 109.828 135.589 110.041 135.416C110.255 135.238 110.391 134.967 110.448 134.604C110.504 134.246 110.457 133.953 110.306 133.724C110.156 133.495 109.918 133.355 109.592 133.304C109.266 133.253 108.996 133.313 108.783 133.485C108.57 133.657 108.435 133.922 108.379 134.279C108.322 134.643 108.369 134.942 108.518 135.178C108.668 135.407 108.906 135.547 109.232 135.598ZM120.471 133.575C120.928 133.647 121.268 133.854 121.491 134.197C121.72 134.535 121.796 134.955 121.717 135.456L121.199 138.756L119.78 138.533L120.226 135.81C120.268 135.54 120.236 135.32 120.128 135.149C120.027 134.973 119.86 134.866 119.629 134.83C119.409 134.796 119.223 134.856 119.07 135.012C118.918 135.162 118.818 135.39 118.77 135.697L118.36 138.311L116.941 138.088L117.387 135.365C117.429 135.095 117.396 134.875 117.288 134.704C117.188 134.527 117.021 134.421 116.789 134.385C116.57 134.35 116.382 134.42 116.227 134.595C116.071 134.77 115.966 135.029 115.912 135.374L115.521 137.865L114.102 137.643L114.854 132.848L116.038 133.034C115.953 133.329 115.825 133.652 115.655 134.004L116.04 134.065C116.349 133.323 116.829 133.004 117.481 133.106C118.139 133.209 118.486 133.659 118.522 134.454L118.879 134.51C119.019 134.153 119.223 133.893 119.493 133.73C119.769 133.568 120.095 133.516 120.471 133.575ZM124.123 139.359C123.615 139.279 123.19 139.107 122.846 138.841C122.502 138.575 122.26 138.235 122.12 137.821C121.98 137.401 121.951 136.934 122.031 136.42C122.112 135.907 122.282 135.477 122.541 135.133C122.802 134.782 123.136 134.532 123.545 134.385C123.953 134.237 124.411 134.203 124.919 134.282C125.427 134.362 125.852 134.535 126.196 134.8C126.54 135.066 126.782 135.406 126.922 135.82C127.064 136.227 127.094 136.688 127.014 137.202C126.933 137.716 126.762 138.151 126.501 138.508C126.24 138.859 125.906 139.109 125.497 139.257C125.089 139.404 124.63 139.439 124.123 139.359ZM124.337 137.996C124.656 138.046 124.927 137.979 125.148 137.796C125.37 137.612 125.509 137.338 125.566 136.975C125.622 136.618 125.572 136.321 125.417 136.085C125.262 135.842 125.025 135.696 124.705 135.645C124.386 135.595 124.115 135.662 123.894 135.846C123.673 136.023 123.535 136.29 123.479 136.648C123.422 137.011 123.471 137.314 123.625 137.557C123.78 137.799 124.017 137.946 124.337 137.996ZM127.204 139.698L127.956 134.903L129.14 135.089C129.055 135.384 128.928 135.707 128.757 136.059L129.152 136.121C129.516 135.395 130.105 135.096 130.92 135.223C131.497 135.314 131.891 135.543 132.103 135.91C132.323 136.272 132.383 136.769 132.283 137.402L131.81 140.42L130.391 140.197L130.789 137.659C130.854 137.323 130.823 137.051 130.695 136.845C130.573 136.64 130.374 136.515 130.098 136.472C129.81 136.427 129.568 136.498 129.371 136.685C129.182 136.868 129.058 137.147 128.999 137.523L128.623 139.92L127.204 139.698ZM134.709 141.019C134.208 140.941 133.785 140.768 133.441 140.503C133.104 140.238 132.865 139.898 132.725 139.485C132.585 139.065 132.555 138.598 132.636 138.084C132.717 137.57 132.884 137.14 133.137 136.794C133.397 136.444 133.729 136.194 134.131 136.045C134.533 135.896 134.982 135.861 135.477 135.938C135.972 136.016 136.39 136.175 136.732 136.414C137.073 136.654 137.314 136.958 137.455 137.327C137.603 137.697 137.641 138.111 137.569 138.568C137.526 138.844 137.467 139.073 137.394 139.254L133.963 138.716C133.969 139.044 134.052 139.314 134.211 139.525C134.378 139.731 134.602 139.856 134.884 139.9C135.173 139.946 135.408 139.938 135.591 139.876C135.782 139.81 135.889 139.698 135.914 139.542L135.918 139.514L137.272 139.726L137.267 139.754C137.19 140.249 136.921 140.612 136.461 140.841C136.001 141.071 135.417 141.13 134.709 141.019ZM136.195 138.179C136.18 137.863 136.095 137.605 135.94 137.407C135.785 137.21 135.572 137.09 135.303 137.047C135.033 137.005 134.795 137.054 134.586 137.195C134.378 137.336 134.218 137.555 134.108 137.852L136.195 138.179ZM138.279 143.785C137.74 143.7 137.331 143.479 137.054 143.121C136.775 142.769 136.677 142.33 136.759 141.803L137.934 141.987C137.91 142.144 137.947 142.275 138.046 142.381C138.144 142.492 138.284 142.562 138.466 142.591C138.817 142.646 139.072 142.513 139.232 142.191L139.513 141.628L138.723 141.504L137.924 136.466L139.343 136.689L139.972 140.727L141.819 137.058L143.254 137.302L140.586 142.461C140.328 142.96 140.001 143.323 139.606 143.55C139.216 143.784 138.774 143.863 138.279 143.785Z" fill="white"/>
<path d="M147.011 141.671C146.784 141.829 146.728 142.141 146.886 142.367C147.044 142.594 147.355 142.65 147.582 142.493L147.011 141.671ZM154.305 137.641C154.354 137.369 154.173 137.109 153.902 137.06L149.473 136.264C149.201 136.215 148.941 136.395 148.892 136.667C148.843 136.939 149.024 137.199 149.296 137.248L153.233 137.956L152.524 141.893C152.475 142.165 152.656 142.425 152.928 142.473C153.2 142.522 153.46 142.342 153.509 142.07L154.305 137.641ZM147.582 142.493L154.098 137.963L153.528 137.142L147.011 141.671L147.582 142.493Z" fill="white"/>
<rect x="206.124" y="78.2629" width="91.1997" height="40.4613" rx="4.11213" transform="rotate(8.91353 206.124 78.2629)" fill="white"/>
<path d="M219.307 98.6597L217.788 98.4214L220.843 92.2567L223.158 92.6199L224.179 99.4238L222.66 99.1856L222.513 98.1279L219.771 97.6979L219.307 98.6597ZM220.412 96.3938L222.311 96.6916L222.166 95.6817C222.027 94.7108 221.974 94.0983 222.008 93.8441L221.554 93.773C221.504 94.0499 221.269 94.6205 220.849 95.4847L220.412 96.3938ZM226.457 99.9234C225.963 99.8459 225.546 99.6762 225.208 99.4143C224.875 99.1534 224.64 98.819 224.501 98.4113C224.364 97.9975 224.335 97.5373 224.414 97.0309C224.494 96.5245 224.658 96.1011 224.908 95.7606C225.158 95.4139 225.475 95.1663 225.859 95.0177C226.25 94.8701 226.685 94.834 227.167 94.9096C227.828 95.0132 228.321 95.2772 228.647 95.7016C228.979 96.127 229.096 96.6516 228.998 97.2753L228.986 97.3494L227.541 97.1228L227.553 97.0487C227.585 96.8449 227.545 96.6741 227.434 96.5365C227.329 96.3998 227.168 96.3144 226.952 96.2805C226.668 96.236 226.424 96.3021 226.219 96.4787C226.021 96.6502 225.895 96.9088 225.841 97.2547C225.786 97.6067 225.831 97.8986 225.979 98.1305C226.132 98.3634 226.363 98.504 226.672 98.5524C226.888 98.5863 227.064 98.5697 227.202 98.5026C227.339 98.4356 227.419 98.3279 227.442 98.1797L227.454 98.1056L228.889 98.3308L228.878 98.4049C228.801 98.975 228.545 99.3967 228.11 99.6701C227.675 99.9436 227.124 100.028 226.457 99.9234ZM231.166 100.662C230.672 100.584 230.255 100.415 229.917 100.153C229.584 99.8919 229.349 99.5576 229.21 99.1499C229.073 98.736 229.044 98.2759 229.123 97.7695C229.203 97.2631 229.367 96.8397 229.617 96.4991C229.867 96.1525 230.185 95.9048 230.568 95.7562C230.959 95.6086 231.395 95.5726 231.876 95.6481C232.537 95.7518 233.03 96.0158 233.356 96.4402C233.688 96.8656 233.805 97.3901 233.707 98.0139L233.696 98.088L232.25 97.8613L232.262 97.7872C232.294 97.5834 232.254 97.4127 232.143 97.275C232.038 97.1383 231.877 97.053 231.661 97.0191C231.377 96.9746 231.133 97.0406 230.928 97.2173C230.73 97.3888 230.604 97.6474 230.55 97.9932C230.495 98.3452 230.541 98.6372 230.688 98.8691C230.841 99.1019 231.072 99.2426 231.381 99.291C231.597 99.3249 231.774 99.3083 231.911 99.2412C232.048 99.1741 232.128 99.0665 232.151 98.9183L232.163 98.8441L233.599 99.0693L233.587 99.1434C233.51 99.7135 233.254 100.135 232.819 100.409C232.384 100.682 231.833 100.767 231.166 100.662ZM235.893 101.403C235.393 101.325 234.974 101.155 234.635 100.893C234.297 100.631 234.058 100.296 233.92 99.8885C233.782 99.4746 233.753 99.0145 233.832 98.5081C233.912 98.0017 234.079 97.5787 234.335 97.2392C234.592 96.8934 234.921 96.6478 235.324 96.5021C235.726 96.3564 236.178 96.3228 236.678 96.4012C237.178 96.4797 237.598 96.6499 237.936 96.9118C238.275 97.1737 238.513 97.5085 238.652 97.9162C238.791 98.3177 238.821 98.7717 238.742 99.2781C238.662 99.7845 238.494 100.214 238.236 100.565C237.98 100.911 237.65 101.157 237.247 101.303C236.845 101.448 236.394 101.482 235.893 101.403ZM236.104 100.06C236.419 100.11 236.686 100.044 236.904 99.863C237.122 99.6821 237.259 99.4125 237.315 99.0543C237.371 98.7023 237.322 98.4099 237.168 98.177C237.016 97.938 236.782 97.7938 236.467 97.7444C236.152 97.695 235.886 97.7608 235.668 97.9417C235.45 98.1164 235.314 98.3798 235.259 98.7318C235.203 99.09 235.251 99.3886 235.403 99.6276C235.555 99.8666 235.789 100.011 236.104 100.06ZM240.501 102.126C239.957 102.041 239.579 101.807 239.367 101.426C239.156 101.039 239.1 100.527 239.2 99.8908L239.651 97.01L241.059 97.2308L240.62 99.9142C240.578 100.18 240.61 100.4 240.715 100.575C240.822 100.743 240.992 100.846 241.227 100.883C241.486 100.923 241.703 100.853 241.877 100.671C242.058 100.485 242.178 100.206 242.236 99.8356L242.606 97.4734L244.005 97.6928L243.264 102.417L242.116 102.237C242.235 101.838 242.352 101.518 242.466 101.276L242.077 101.215C241.919 101.576 241.714 101.835 241.461 101.992C241.21 102.142 240.89 102.187 240.501 102.126ZM244.19 102.562L244.931 97.838L246.098 98.021C246.015 98.3116 245.889 98.6304 245.72 98.9773L246.109 99.0384C246.468 98.3227 247.049 98.0278 247.852 98.1538C248.42 98.2429 248.809 98.4683 249.018 98.8301C249.234 99.1867 249.293 99.6769 249.195 100.301L248.729 103.274L247.33 103.055L247.722 100.554C247.787 100.222 247.756 99.9547 247.63 99.7514C247.51 99.5491 247.314 99.4266 247.042 99.384C246.758 99.3394 246.519 99.4095 246.326 99.5943C246.14 99.7739 246.017 100.049 245.959 100.419L245.589 102.782L244.19 102.562ZM252.356 101.489L253.755 101.709L253.662 102.301C253.571 102.882 253.336 103.31 252.958 103.586C252.58 103.856 252.101 103.945 251.52 103.854C250.94 103.763 250.511 103.532 250.234 103.159C249.958 102.78 249.866 102.301 249.957 101.72L250.223 100.025L249.5 99.9118L249.708 98.5872L250.477 98.7078L250.677 97.4294L252.03 97.6416L251.829 98.9199L254.043 99.2671L253.835 100.592L251.621 100.245L251.356 101.94C251.345 102.09 251.373 102.214 251.439 102.314C251.507 102.406 251.606 102.463 251.735 102.483C251.877 102.506 251.995 102.483 252.088 102.415C252.182 102.341 252.24 102.23 252.263 102.082L252.356 101.489ZM255.549 104.344L256.29 99.6195L257.457 99.8026C257.374 100.093 257.248 100.412 257.079 100.759L257.468 100.82C257.827 100.104 258.408 99.8094 259.211 99.9353C259.779 100.024 260.168 100.25 260.377 100.612C260.593 100.968 260.652 101.458 260.554 102.082L260.088 105.056L258.689 104.836L259.082 102.335C259.146 102.004 259.115 101.736 258.989 101.533C258.869 101.331 258.673 101.208 258.401 101.166C258.117 101.121 257.878 101.191 257.685 101.376C257.499 101.555 257.376 101.831 257.318 102.201L256.948 104.563L255.549 104.344ZM262.296 105.544C261.777 105.463 261.391 105.282 261.138 105.002C260.885 104.716 260.792 104.362 260.858 103.943C260.934 103.455 261.173 103.1 261.575 102.878C261.978 102.65 262.503 102.571 263.15 102.641L264.156 102.761L264.165 102.705C264.207 102.44 264.168 102.222 264.049 102.051C263.937 101.882 263.747 101.776 263.482 101.735C263.247 101.698 263.043 101.732 262.868 101.838C262.699 101.944 262.601 102.087 262.573 102.266L261.156 102.044C261.267 101.492 261.539 101.094 261.969 100.852C262.4 100.603 262.962 100.533 263.653 100.641C264.345 100.75 264.861 101.011 265.201 101.425C265.542 101.833 265.661 102.364 265.558 103.019L265.115 105.844L264.161 105.694L264.241 104.881L263.843 104.819C263.759 105.109 263.578 105.318 263.299 105.445C263.019 105.572 262.685 105.605 262.296 105.544ZM262.808 104.638C263.123 104.687 263.386 104.643 263.598 104.505C263.81 104.361 263.937 104.16 263.977 103.9L264.015 103.659L263.082 103.618C262.868 103.609 262.689 103.644 262.544 103.723C262.405 103.802 262.324 103.91 262.303 104.046C262.28 104.194 262.314 104.323 262.404 104.432C262.494 104.541 262.629 104.61 262.808 104.638ZM272.202 101.963C272.653 102.034 272.988 102.238 273.207 102.576C273.433 102.909 273.507 103.323 273.43 103.817L272.92 107.068L271.521 106.849L271.961 104.165C272.003 103.9 271.97 103.683 271.864 103.514C271.765 103.34 271.601 103.236 271.372 103.2C271.156 103.166 270.973 103.226 270.822 103.379C270.672 103.527 270.574 103.752 270.526 104.054L270.122 106.629L268.724 106.41L269.163 103.727C269.205 103.461 269.173 103.244 269.066 103.075C268.967 102.902 268.803 102.797 268.575 102.761C268.358 102.727 268.174 102.796 268.02 102.968C267.867 103.14 267.763 103.396 267.71 103.736L267.325 106.191L265.926 105.971L266.667 101.247L267.834 101.43C267.751 101.721 267.625 102.039 267.456 102.386L267.836 102.446C268.141 101.715 268.614 101.401 269.256 101.501C269.905 101.603 270.247 102.046 270.282 102.83L270.634 102.885C270.771 102.533 270.973 102.277 271.238 102.116C271.51 101.956 271.831 101.905 272.202 101.963ZM275.782 107.659C275.288 107.582 274.872 107.412 274.533 107.15C274.201 106.889 273.965 106.555 273.827 106.147C273.689 105.734 273.66 105.273 273.739 104.767C273.819 104.261 273.983 103.837 274.233 103.497C274.49 103.151 274.816 102.905 275.212 102.758C275.609 102.611 276.051 102.576 276.539 102.653C277.027 102.729 277.439 102.886 277.775 103.122C278.111 103.358 278.349 103.658 278.488 104.022C278.633 104.386 278.671 104.794 278.6 105.245C278.557 105.516 278.5 105.741 278.428 105.92L275.047 105.39C275.053 105.713 275.134 105.979 275.292 106.187C275.456 106.39 275.677 106.514 275.955 106.557C276.239 106.602 276.471 106.594 276.651 106.533C276.839 106.468 276.945 106.358 276.969 106.204L276.973 106.176L278.307 106.385L278.303 106.413C278.226 106.901 277.962 107.258 277.508 107.484C277.055 107.71 276.48 107.769 275.782 107.659ZM277.246 104.861C277.232 104.549 277.148 104.296 276.995 104.101C276.842 103.906 276.633 103.788 276.367 103.746C276.102 103.704 275.866 103.753 275.661 103.891C275.456 104.03 275.299 104.246 275.189 104.539L277.246 104.861Z" fill="black"/>
<path d="M217.904 109.965C217.342 109.877 216.929 109.645 216.665 109.268C216.402 108.891 216.316 108.41 216.408 107.823L216.466 107.453L217.272 107.579L217.228 107.857C217.167 108.246 217.206 108.562 217.345 108.805C217.484 109.049 217.708 109.194 218.017 109.243C218.326 109.291 218.584 109.221 218.791 109.032C218.997 108.843 219.131 108.554 219.192 108.165L219.934 103.498L220.74 103.624L219.984 108.384C219.892 108.971 219.663 109.403 219.296 109.681C218.93 109.959 218.466 110.054 217.904 109.965ZM222.808 110.735C222.339 110.661 221.944 110.498 221.622 110.245C221.308 109.993 221.083 109.67 220.949 109.276C220.821 108.882 220.795 108.441 220.871 107.954C220.948 107.466 221.107 107.057 221.348 106.728C221.597 106.394 221.909 106.158 222.285 106.021C222.668 105.878 223.094 105.844 223.563 105.918C224.033 105.991 224.425 106.154 224.74 106.406C225.062 106.652 225.287 106.973 225.415 107.366C225.55 107.754 225.58 108.192 225.503 108.68C225.427 109.168 225.264 109.579 225.015 109.913C224.773 110.249 224.46 110.487 224.077 110.63C223.7 110.773 223.277 110.808 222.808 110.735ZM222.921 110.012C223.391 110.086 223.785 109.992 224.104 109.732C224.43 109.467 224.634 109.075 224.716 108.557C224.796 108.044 224.721 107.615 224.491 107.268C224.266 106.923 223.92 106.714 223.45 106.64C222.981 106.567 222.583 106.659 222.258 106.918C221.939 107.178 221.739 107.565 221.659 108.077C221.577 108.596 221.648 109.031 221.872 109.382C222.102 109.728 222.452 109.938 222.921 110.012ZM228.842 106.746C229.367 106.828 229.74 107.051 229.962 107.415C230.189 107.779 230.255 108.264 230.16 108.869L229.72 111.676L228.97 111.559L229.396 108.844C229.459 108.443 229.411 108.122 229.252 107.882C229.101 107.637 228.846 107.486 228.488 107.43C228.142 107.376 227.848 107.456 227.605 107.672C227.363 107.887 227.209 108.204 227.143 108.624L226.737 111.208L225.987 111.091L227.085 104.088L227.827 104.204L227.485 106.381C227.414 106.832 227.272 107.214 227.058 107.529L227.281 107.564C227.593 106.904 228.113 106.631 228.842 106.746ZM230.891 111.86L231.603 107.321L232.251 107.423C232.212 107.714 232.116 108.006 231.962 108.298L232.184 108.333C232.497 107.673 233.017 107.4 233.746 107.515C234.271 107.597 234.644 107.82 234.865 108.184C235.093 108.548 235.159 109.033 235.064 109.639L234.624 112.445L233.874 112.328L234.299 109.614C234.362 109.212 234.315 108.891 234.156 108.651C234.005 108.406 233.75 108.256 233.392 108.199C233.046 108.145 232.752 108.226 232.509 108.441C232.267 108.656 232.113 108.973 232.047 109.393L231.641 111.978L230.891 111.86ZM237.758 112.937L238.775 106.453L240.461 106.717C241.11 106.819 241.648 107.036 242.077 107.369C242.506 107.696 242.807 108.119 242.978 108.64C243.15 109.16 243.183 109.757 243.077 110.43C242.971 111.11 242.755 111.677 242.431 112.132C242.107 112.581 241.69 112.899 241.18 113.085C240.671 113.264 240.093 113.303 239.444 113.201L237.758 112.937ZM239.557 112.479C240.274 112.591 240.864 112.456 241.329 112.073C241.801 111.692 242.099 111.099 242.225 110.297C242.348 109.512 242.243 108.869 241.911 108.368C241.585 107.861 241.064 107.552 240.348 107.44L239.468 107.302L238.677 112.341L239.557 112.479ZM245.326 114.266C244.856 114.193 244.461 114.029 244.14 113.777C243.825 113.525 243.601 113.202 243.467 112.807C243.338 112.414 243.313 111.973 243.389 111.485C243.466 110.997 243.625 110.589 243.866 110.26C244.115 109.925 244.427 109.69 244.803 109.552C245.186 109.41 245.612 109.376 246.081 109.449C246.551 109.523 246.943 109.686 247.258 109.937C247.58 110.184 247.805 110.504 247.933 110.898C248.068 111.286 248.097 111.724 248.021 112.212C247.944 112.7 247.782 113.111 247.533 113.445C247.291 113.78 246.978 114.019 246.595 114.162C246.218 114.305 245.795 114.34 245.326 114.266ZM245.439 113.544C245.908 113.617 246.303 113.524 246.622 113.264C246.948 112.999 247.152 112.607 247.233 112.088C247.314 111.576 247.239 111.146 247.008 110.8C246.784 110.455 246.437 110.245 245.968 110.172C245.499 110.098 245.101 110.191 244.776 110.45C244.457 110.71 244.257 111.096 244.177 111.609C244.095 112.127 244.166 112.563 244.389 112.914C244.62 113.26 244.97 113.47 245.439 113.544ZM250.53 115.082C249.771 114.963 249.209 114.654 248.844 114.154C248.486 113.654 248.365 113.031 248.483 112.284C248.559 111.796 248.715 111.387 248.95 111.057C249.193 110.722 249.496 110.485 249.859 110.345C250.23 110.201 250.637 110.164 251.082 110.234C251.502 110.299 251.867 110.455 252.176 110.699C252.487 110.938 252.711 111.242 252.85 111.612C252.989 111.975 253.025 112.37 252.958 112.796C252.911 113.093 252.857 113.296 252.796 113.407L249.239 112.849C249.251 113.256 249.378 113.592 249.621 113.858C249.864 114.124 250.205 114.291 250.644 114.36C250.965 114.41 251.243 114.391 251.479 114.301C251.721 114.206 251.858 114.06 251.889 113.862L251.891 113.853L252.678 113.977L252.676 113.986C252.635 114.251 252.511 114.479 252.304 114.668C252.104 114.852 251.846 114.982 251.531 115.059C251.222 115.131 250.889 115.139 250.53 115.082ZM252.17 112.616C252.197 112.164 252.103 111.792 251.89 111.499C251.677 111.2 251.37 111.019 250.969 110.956C250.567 110.893 250.22 110.971 249.926 111.191C249.633 111.405 249.43 111.73 249.317 112.168L252.17 112.616Z" fill="black"/>
</g>
<rect x="69.8221" width="285.108" height="179.563" rx="6.85355" transform="rotate(8.91353 69.8221 0)" stroke="#F2F2F2" stroke-width="1.76537"/>
<g filter="url(#filter0_b_724_1194)">
<rect x="22" y="172" width="357" height="163.952" rx="14.6522" fill="#F1F9F7"/>
<rect x="55.3744" y="199.676" width="28.4893" height="28.4904" rx="5" fill="#3CDF90"/>
<path d="M67.1776 214.329L65.1426 216.364L67.1776 218.399L69.2126 216.364L67.1776 214.329ZM72.0617 206.188C70.7263 206.188 69.4404 206.693 68.4618 207.602C67.4832 208.511 66.8843 209.756 66.7853 211.087C65.775 211.162 64.8075 211.526 63.9978 212.135C63.1881 212.743 62.5702 213.572 62.2175 214.522C61.8648 215.471 61.7921 216.502 62.0082 217.492C62.2242 218.482 62.7199 219.389 63.4362 220.105C64.1525 220.821 65.0595 221.317 66.0492 221.533C67.039 221.749 68.0699 221.676 69.0196 221.324C69.9693 220.971 70.7978 220.353 71.4066 219.543C72.0154 218.734 72.3789 217.766 72.454 216.756C73.8193 216.654 75.092 216.027 76.0046 215.006C76.9172 213.986 77.3987 212.651 77.3479 211.283C77.2972 209.915 76.718 208.62 75.7322 207.67C74.7464 206.72 73.4308 206.189 72.0617 206.188ZM72.3246 215.134C72.0966 214.183 71.61 213.314 70.9187 212.623C70.2274 211.931 69.3583 211.445 68.4076 211.217C68.4581 210.516 68.7087 209.845 69.1297 209.284C69.5507 208.722 70.1242 208.293 70.782 208.048C71.4399 207.802 72.1543 207.752 72.8403 207.901C73.5263 208.05 74.1549 208.393 74.6513 208.89C75.1477 209.386 75.491 210.015 75.6404 210.701C75.7897 211.387 75.7387 212.101 75.4936 212.759C75.2485 213.417 74.8194 213.991 74.2576 214.412C73.6958 214.832 73.0248 215.083 72.3246 215.134ZM70.8407 216.364C70.8407 217.335 70.4547 218.267 69.7678 218.954C69.0808 219.641 68.1491 220.027 67.1776 220.027C66.2061 220.027 65.2744 219.641 64.5875 218.954C63.9005 218.267 63.5146 217.335 63.5146 216.364C63.5146 215.392 63.9005 214.46 64.5875 213.773C65.2744 213.086 66.2061 212.701 67.1776 212.701C68.1491 212.701 69.0808 213.086 69.7678 213.773C70.4547 214.46 70.8407 215.392 70.8407 216.364ZM62.2936 209.852C62.2936 208.988 62.6366 208.16 63.2472 207.549C63.8579 206.939 64.6861 206.595 65.5496 206.595H66.7706V208.223H65.5496C65.1178 208.223 64.7037 208.395 64.3984 208.7C64.0931 209.006 63.9216 209.42 63.9216 209.852V211.073H62.2936V209.852ZM75.3177 217.992V216.771H76.9457V217.992C76.9457 218.855 76.6027 219.683 75.9921 220.294C75.3814 220.905 74.5532 221.248 73.6897 221.248H72.4687V219.62H73.6897C74.1215 219.62 74.5356 219.448 74.8409 219.143C75.1462 218.837 75.3177 218.423 75.3177 217.992Z" fill="#032E32"/>
<path d="M60.8445 259.484C59.2426 259.484 57.9922 259.1 57.0936 258.331C56.2079 257.55 55.7651 256.462 55.7651 255.069V254.756H58.8909V255.069C58.8909 255.551 59.0602 255.928 59.3988 256.202C59.7375 256.462 60.2129 256.593 60.825 256.593C61.359 256.593 61.7758 256.495 62.0753 256.3C62.3879 256.104 62.5442 255.824 62.5442 255.46C62.5442 255.225 62.44 254.991 62.2316 254.756C62.0362 254.522 61.7562 254.313 61.3915 254.131L58.6565 252.744C57.8229 252.327 57.1717 251.806 56.7029 251.181C56.247 250.556 56.0191 249.892 56.0191 249.188C56.0191 247.951 56.4424 246.987 57.2889 246.297C58.1485 245.594 59.3468 245.236 60.8836 245.223C62.4204 245.223 63.6187 245.613 64.4783 246.395C65.3379 247.176 65.7677 248.257 65.7677 249.638V250.107H62.6419V249.833C62.6419 249.299 62.4921 248.882 62.1925 248.583C61.893 248.283 61.4762 248.133 60.9422 248.133C60.4343 248.133 60.037 248.225 59.7505 248.407C59.477 248.589 59.3402 248.85 59.3402 249.188C59.3402 249.384 59.4314 249.586 59.6137 249.794C59.7961 249.989 60.0501 250.172 60.3757 250.341L63.5796 251.904C64.2959 252.256 64.856 252.744 65.2597 253.369C65.6635 253.994 65.8653 254.691 65.8653 255.46C65.8653 256.723 65.4225 257.713 64.5369 258.429C63.6643 259.132 62.4335 259.484 60.8445 259.484ZM69.7283 259.484C68.5822 259.484 67.7291 259.126 67.1691 258.409C66.609 257.68 66.329 256.645 66.329 255.303V249.227H69.2985L69.2594 254.893C69.2594 255.453 69.3962 255.896 69.6697 256.221C69.9432 256.534 70.3274 256.69 70.8223 256.69C71.3694 256.69 71.7926 256.475 72.0922 256.046C72.4048 255.603 72.5611 254.991 72.5611 254.209V249.227H75.511V259.191H73.0885C73.2058 258.331 73.3425 257.635 73.4988 257.101H72.6783C72.4699 257.895 72.1313 258.494 71.6624 258.898C71.1935 259.289 70.5488 259.484 69.7283 259.484ZM81.6245 259.484C80.5826 259.484 79.6709 259.269 78.8894 258.839C78.121 258.409 77.5284 257.797 77.1116 257.003C76.6949 256.195 76.4865 255.258 76.4865 254.19C76.4865 253.122 76.6883 252.197 77.0921 251.416C77.4958 250.621 78.0689 250.009 78.8113 249.579C79.5667 249.149 80.4523 248.934 81.4682 248.934C82.8618 248.934 83.9623 249.319 84.7698 250.087C85.5903 250.855 86.0006 251.897 86.0006 253.213V253.369H82.953V253.213C82.953 252.783 82.8162 252.444 82.5427 252.197C82.2822 251.949 81.924 251.826 81.4682 251.826C80.8691 251.826 80.3872 252.041 80.0225 252.47C79.6709 252.887 79.495 253.46 79.495 254.19C79.495 254.932 79.6839 255.518 80.0616 255.948C80.4523 256.378 80.9733 256.593 81.6245 256.593C82.0803 256.593 82.4385 256.501 82.699 256.319C82.9595 256.137 83.0897 255.889 83.0897 255.577V255.42H86.1178V255.577C86.1439 256.775 85.7531 257.726 84.9456 258.429C84.1381 259.132 83.0311 259.484 81.6245 259.484ZM91.3605 259.484C90.3186 259.484 89.4069 259.269 88.6255 258.839C87.857 258.409 87.2644 257.797 86.8477 257.003C86.4309 256.195 86.2225 255.258 86.2225 254.19C86.2225 253.122 86.4244 252.197 86.8281 251.416C87.2319 250.621 87.805 250.009 88.5473 249.579C89.3027 249.149 90.1884 248.934 91.2043 248.934C92.5978 248.934 93.6984 249.319 94.5059 250.087C95.3264 250.855 95.7367 251.897 95.7367 253.213V253.369H92.689V253.213C92.689 252.783 92.5523 252.444 92.2787 252.197C92.0183 251.949 91.6601 251.826 91.2043 251.826C90.6051 251.826 90.1232 252.041 89.7586 252.47C89.4069 252.887 89.2311 253.46 89.2311 254.19C89.2311 254.932 89.4199 255.518 89.7976 255.948C90.1884 256.378 90.7093 256.593 91.3605 256.593C91.8164 256.593 92.1746 256.501 92.435 256.319C92.6955 256.137 92.8258 255.889 92.8258 255.577V255.42H95.8539V255.577C95.8799 256.775 95.4892 257.726 94.6817 258.429C93.8742 259.132 92.7671 259.484 91.3605 259.484ZM101.097 259.484C100.055 259.484 99.143 259.269 98.3615 258.839C97.5931 258.409 97.0005 257.797 96.5837 257.003C96.167 256.195 95.9586 255.258 95.9586 254.19C95.9586 253.122 96.1604 252.197 96.5642 251.416C96.981 250.621 97.5736 250.009 98.342 249.579C99.1104 249.149 100.009 248.934 101.038 248.934C102.067 248.934 102.966 249.123 103.734 249.501C104.502 249.879 105.088 250.419 105.492 251.122C105.909 251.826 106.117 252.653 106.117 253.604C106.117 254.177 106.072 254.659 105.981 255.049H98.8499C98.9671 255.713 99.2211 256.234 99.6118 256.612C100.016 256.977 100.511 257.159 101.097 257.159C101.696 257.159 102.171 257.068 102.523 256.886C102.887 256.69 103.07 256.43 103.07 256.104V256.046H105.883V256.104C105.883 257.133 105.453 257.954 104.594 258.566C103.734 259.178 102.568 259.484 101.097 259.484ZM103.207 253.252C103.076 252.614 102.822 252.119 102.445 251.767C102.067 251.416 101.598 251.24 101.038 251.24C100.478 251.24 100.009 251.416 99.6314 251.767C99.2537 252.119 98.9997 252.614 98.8695 253.252H103.207ZM110.291 259.484C108.976 259.484 107.953 259.191 107.224 258.605C106.494 258.006 106.13 257.172 106.13 256.104V255.909H109.08V256.104C109.08 256.417 109.184 256.664 109.392 256.847C109.614 257.016 109.913 257.101 110.291 257.101C110.669 257.101 110.962 257.029 111.17 256.886C111.378 256.729 111.483 256.514 111.483 256.241C111.483 256.059 111.411 255.896 111.268 255.753C111.138 255.609 110.949 255.505 110.701 255.44L108.728 254.854C107.999 254.632 107.432 254.287 107.028 253.818C106.625 253.35 106.423 252.796 106.423 252.158C106.423 251.155 106.774 250.374 107.478 249.814C108.194 249.24 109.184 248.947 110.447 248.934C111.724 248.934 112.72 249.234 113.436 249.833C114.153 250.419 114.511 251.246 114.511 252.314V252.51H111.561V252.314C111.561 252.002 111.463 251.761 111.268 251.591C111.072 251.409 110.799 251.318 110.447 251.318C110.122 251.318 109.868 251.396 109.685 251.552C109.516 251.696 109.431 251.897 109.431 252.158C109.431 252.497 109.718 252.757 110.291 252.939L111.952 253.447C112.746 253.695 113.365 254.066 113.807 254.561C114.263 255.043 114.491 255.603 114.491 256.241C114.491 257.27 114.12 258.071 113.378 258.644C112.635 259.204 111.606 259.484 110.291 259.484ZM118.711 259.484C117.395 259.484 116.373 259.191 115.643 258.605C114.914 258.006 114.549 257.172 114.549 256.104V255.909H117.499V256.104C117.499 256.417 117.604 256.664 117.812 256.847C118.033 257.016 118.333 257.101 118.711 257.101C119.088 257.101 119.381 257.029 119.59 256.886C119.798 256.729 119.902 256.514 119.902 256.241C119.902 256.059 119.831 255.896 119.687 255.753C119.557 255.609 119.368 255.505 119.121 255.44L117.148 254.854C116.418 254.632 115.852 254.287 115.448 253.818C115.044 253.35 114.842 252.796 114.842 252.158C114.842 251.155 115.194 250.374 115.897 249.814C116.614 249.24 117.604 248.947 118.867 248.934C120.143 248.934 121.14 249.234 121.856 249.833C122.572 250.419 122.93 251.246 122.93 252.314V252.51H119.98V252.314C119.98 252.002 119.883 251.761 119.687 251.591C119.492 251.409 119.219 251.318 118.867 251.318C118.541 251.318 118.287 251.396 118.105 251.552C117.936 251.696 117.851 251.897 117.851 252.158C117.851 252.497 118.138 252.757 118.711 252.939L120.371 253.447C121.166 253.695 121.784 254.066 122.227 254.561C122.683 255.043 122.911 255.603 122.911 256.241C122.911 257.27 122.54 258.071 121.797 258.644C121.055 259.204 120.026 259.484 118.711 259.484ZM131.585 248.133H128.635V248.016C128.635 247.222 128.315 246.824 127.677 246.824C127.391 246.824 127.156 246.929 126.974 247.137C126.805 247.332 126.72 247.625 126.72 248.016V249.227H130.158V252.021H126.72V259.191H123.77V252.021H122.617V249.227H123.77V248.016C123.77 246.792 124.115 245.841 124.805 245.164C125.496 244.474 126.453 244.129 127.677 244.129C128.902 244.129 129.859 244.474 130.549 245.164C131.239 245.841 131.585 246.792 131.585 248.016V248.133ZM134.561 259.484C133.415 259.484 132.562 259.126 132.002 258.409C131.442 257.68 131.162 256.645 131.162 255.303V249.227H134.131L134.092 254.893C134.092 255.453 134.229 255.896 134.502 256.221C134.776 256.534 135.16 256.69 135.655 256.69C136.202 256.69 136.625 256.475 136.925 256.046C137.238 255.603 137.394 254.991 137.394 254.209V249.227H140.344V259.191H137.921C138.038 258.331 138.175 257.635 138.332 257.101H137.511C137.303 257.895 136.964 258.494 136.495 258.898C136.026 259.289 135.382 259.484 134.561 259.484ZM145.012 259.191H142.062V244.422H145.012V259.191ZM149.635 259.191H146.685V244.422H149.635V259.191ZM153.3 263.958C152.18 263.958 151.282 263.639 150.604 263C149.927 262.375 149.589 261.516 149.589 260.422H152.031C152.031 260.747 152.148 261.001 152.382 261.184C152.617 261.379 152.923 261.477 153.3 261.477C154.03 261.477 154.505 261.125 154.727 260.422L155.117 259.191H153.476L150.253 249.227H153.203L155.762 257.218L158.341 249.188L161.33 249.227L157.559 260.539C157.195 261.633 156.648 262.473 155.918 263.059C155.202 263.658 154.329 263.958 153.3 263.958ZM172.716 248.133H169.766V248.016C169.766 247.222 169.447 246.824 168.809 246.824C168.522 246.824 168.288 246.929 168.105 247.137C167.936 247.332 167.851 247.625 167.851 248.016V249.227H171.29V252.021H167.851V259.191H164.901V252.021H163.749V249.227H164.901V248.016C164.901 246.792 165.247 245.841 165.937 245.164C166.627 244.474 167.584 244.129 168.809 244.129C170.033 244.129 170.99 244.474 171.68 245.164C172.371 245.841 172.716 246.792 172.716 248.016V248.133ZM175.692 259.484C174.546 259.484 173.693 259.126 173.133 258.409C172.573 257.68 172.293 256.645 172.293 255.303V249.227H175.263L175.224 254.893C175.224 255.453 175.36 255.896 175.634 256.221C175.907 256.534 176.292 256.69 176.786 256.69C177.333 256.69 177.757 256.475 178.056 256.046C178.369 255.603 178.525 254.991 178.525 254.209V249.227H181.475V259.191H179.053C179.17 258.331 179.307 257.635 179.463 257.101H178.642C178.434 257.895 178.095 258.494 177.626 258.898C177.158 259.289 176.513 259.484 175.692 259.484ZM183.232 259.191V249.227H185.694C185.615 249.853 185.459 250.549 185.225 251.318H186.045C186.553 249.729 187.654 248.934 189.347 248.934C190.545 248.934 191.418 249.273 191.965 249.95C192.525 250.615 192.805 251.604 192.805 252.92V259.191H189.855V253.916C189.881 253.213 189.731 252.672 189.405 252.295C189.093 251.917 188.65 251.728 188.077 251.728C187.478 251.728 187.009 251.949 186.67 252.392C186.345 252.822 186.182 253.428 186.182 254.209V259.191H183.232ZM200.867 244.422H203.798V259.191H201.238C201.238 258.722 201.427 258.025 201.805 257.101H200.945C200.685 257.908 200.294 258.507 199.773 258.898C199.252 259.289 198.582 259.484 197.761 259.484C196.433 259.484 195.397 259.022 194.655 258.097C193.912 257.159 193.541 255.857 193.541 254.19C193.541 252.536 193.912 251.246 194.655 250.321C195.397 249.397 196.433 248.934 197.761 248.934C198.582 248.934 199.252 249.13 199.773 249.52C200.307 249.911 200.698 250.504 200.945 251.298H201.805C201.505 250.751 201.271 250.204 201.102 249.657C200.945 249.11 200.867 248.609 200.867 248.153V244.422ZM198.699 256.593C199.376 256.593 199.903 256.384 200.281 255.967C200.659 255.538 200.848 254.945 200.848 254.19C200.848 253.447 200.659 252.868 200.281 252.451C199.903 252.034 199.376 251.826 198.699 251.826C198.021 251.826 197.494 252.034 197.116 252.451C196.739 252.868 196.55 253.447 196.55 254.19C196.55 254.945 196.739 255.538 197.116 255.967C197.494 256.384 198.021 256.593 198.699 256.593ZM209.865 259.484C208.823 259.484 207.912 259.269 207.13 258.839C206.362 258.409 205.769 257.797 205.352 257.003C204.936 256.195 204.727 255.258 204.727 254.19C204.727 253.122 204.929 252.197 205.333 251.416C205.75 250.621 206.342 250.009 207.111 249.579C207.879 249.149 208.778 248.934 209.807 248.934C210.835 248.934 211.734 249.123 212.503 249.501C213.271 249.879 213.857 250.419 214.261 251.122C214.678 251.826 214.886 252.653 214.886 253.604C214.886 254.177 214.84 254.659 214.749 255.049H207.619C207.736 255.713 207.99 256.234 208.38 256.612C208.784 256.977 209.279 257.159 209.865 257.159C210.464 257.159 210.94 257.068 211.291 256.886C211.656 256.69 211.838 256.43 211.838 256.104V256.046H214.652V256.104C214.652 257.133 214.222 257.954 213.362 258.566C212.503 259.178 211.337 259.484 209.865 259.484ZM211.975 253.252C211.845 252.614 211.591 252.119 211.213 251.767C210.835 251.416 210.367 251.24 209.807 251.24C209.247 251.24 208.778 251.416 208.4 251.767C208.022 252.119 207.768 252.614 207.638 253.252H211.975ZM222.381 244.422H225.311V259.191H222.752C222.752 258.722 222.941 258.025 223.318 257.101H222.459C222.198 257.908 221.808 258.507 221.287 258.898C220.766 259.289 220.095 259.484 219.274 259.484C217.946 259.484 216.911 259.022 216.168 258.097C215.426 257.159 215.055 255.857 215.055 254.19C215.055 252.536 215.426 251.246 216.168 250.321C216.911 249.397 217.946 248.934 219.274 248.934C220.095 248.934 220.766 249.13 221.287 249.52C221.821 249.911 222.211 250.504 222.459 251.298H223.318C223.019 250.751 222.784 250.204 222.615 249.657C222.459 249.11 222.381 248.609 222.381 248.153V244.422ZM220.212 256.593C220.889 256.593 221.417 256.384 221.795 255.967C222.172 255.538 222.361 254.945 222.361 254.19C222.361 253.447 222.172 252.868 221.795 252.451C221.417 252.034 220.889 251.826 220.212 251.826C219.535 251.826 219.007 252.034 218.63 252.451C218.252 252.868 218.063 253.447 218.063 254.19C218.063 254.945 218.252 255.538 218.63 255.967C219.007 256.384 219.535 256.593 220.212 256.593ZM230.348 259.191V245.516H233.259L239.51 254.619L240.311 254.053C239.868 253.324 239.53 252.594 239.295 251.865C239.061 251.122 238.944 250.445 238.944 249.833V245.516H242.07V259.191H238.963L232.907 250.341L232.106 250.908C232.549 251.637 232.888 252.373 233.122 253.115C233.356 253.845 233.474 254.515 233.474 255.127V259.191H230.348ZM250.075 259.484C248.629 259.484 247.372 259.197 246.304 258.624C245.236 258.038 244.416 257.211 243.843 256.143C243.27 255.062 242.983 253.792 242.983 252.334C242.983 250.888 243.27 249.631 243.843 248.563C244.416 247.495 245.236 246.675 246.304 246.102C247.372 245.516 248.629 245.223 250.075 245.223C251.273 245.223 252.335 245.437 253.259 245.867C254.197 246.297 254.92 246.903 255.428 247.684C255.949 248.453 256.209 249.338 256.209 250.341V250.497H252.79V250.341C252.79 249.651 252.543 249.11 252.048 248.72C251.566 248.316 250.908 248.114 250.075 248.114C248.916 248.114 247.997 248.492 247.32 249.247C246.643 250.002 246.304 251.031 246.304 252.334C246.304 253.649 246.643 254.691 247.32 255.46C247.997 256.215 248.916 256.593 250.075 256.593C250.96 256.593 251.657 256.436 252.165 256.124C252.686 255.811 252.947 255.388 252.947 254.854V254.6H250.309V251.709H257.713V254.6H256.307V254.873C256.307 255.811 256.053 256.632 255.545 257.335C255.037 258.025 254.314 258.559 253.376 258.937C252.439 259.302 251.338 259.484 250.075 259.484ZM258.1 259.191V245.516H261.011L267.262 254.619L268.063 254.053C267.621 253.324 267.282 252.594 267.048 251.865C266.813 251.122 266.696 250.445 266.696 249.833V245.516H269.822V259.191H266.715L260.659 250.341L259.858 250.908C260.301 251.637 260.64 252.373 260.874 253.115C261.109 253.845 261.226 254.515 261.226 255.127V259.191H258.1Z" fill="#032E32"/>
<path d="M59.3598 281.191V276.121L55.5356 270.275H56.8396L59.9459 275.008L63.0375 270.275H64.3415L60.5319 276.121V281.191H59.3598ZM66.9707 281.367C64.7435 281.367 62.9706 279.623 62.9706 277.249C62.9706 274.905 64.6849 273.162 66.9707 273.162C69.2417 273.162 70.956 274.89 70.956 277.249C70.956 279.667 69.1538 281.367 66.9707 281.367ZM66.9707 280.268C68.5384 280.268 69.7839 278.964 69.7839 277.249C69.7839 275.55 68.5384 274.26 66.9707 274.26C65.3882 274.26 64.1428 275.55 64.1428 277.249C64.1428 278.964 65.3882 280.268 66.9707 280.268ZM74.7989 281.367C73.1432 281.367 71.8538 280.107 71.8538 278.29V273.337H72.9527V278.158C72.9527 279.433 73.7879 280.268 74.9894 280.268C76.1909 280.268 77.0553 279.418 77.0553 278.011V273.337H78.1543V281.191H77.0553V280.224C76.5865 280.942 75.766 281.367 74.7989 281.367ZM79.5791 273.645V273.132C80.1652 272.971 80.3996 272.546 80.4289 271.887H79.8721V270.275H81.0443V271.506C81.0443 272.634 80.5461 273.411 79.5791 273.645ZM84.7005 281.191L81.6382 273.337H82.8689L85.2572 279.696L87.6455 273.337H88.891L85.7994 281.191H84.7005ZM92.7274 281.367C90.5296 281.367 88.83 279.623 88.83 277.235C88.83 274.876 90.4563 273.162 92.6102 273.162C94.8666 273.162 96.2293 275.022 96.2293 276.898C96.2293 277.088 96.2146 277.352 96.1707 277.601H89.9875C90.0314 279.286 91.3355 280.341 92.7274 280.341C93.8703 280.341 94.6322 279.726 95.1304 278.905L96.0681 279.403C95.5846 280.473 94.3245 281.367 92.7274 281.367ZM92.6102 274.187C91.3355 274.187 90.1926 275.096 90.0168 276.575H95.0425C95.0278 275.169 93.9143 274.187 92.6102 274.187ZM101.624 281.367C100.114 281.367 98.9129 280.546 98.4148 279.242L99.3378 278.803C99.7921 279.77 100.642 280.37 101.624 280.37C102.561 280.37 103.294 279.872 103.294 279.125C103.294 278.319 102.444 278.041 101.975 277.909L100.847 277.586C99.3964 277.176 98.7957 276.414 98.7957 275.433C98.7957 274.055 99.9679 273.162 101.433 273.162C102.752 273.162 103.939 273.894 104.393 275.125L103.455 275.564C103.059 274.685 102.283 274.158 101.389 274.158C100.51 274.158 99.9386 274.656 99.9386 275.345C99.9386 276.151 100.686 276.385 101.096 276.502L102.4 276.883C103.66 277.249 104.422 278.07 104.422 279.125C104.422 280.429 103.265 281.367 101.624 281.367ZM108.258 281.367C106.602 281.367 105.313 280.107 105.313 278.29V273.337H106.412V278.158C106.412 279.433 107.247 280.268 108.448 280.268C109.65 280.268 110.514 279.418 110.514 278.011V273.337H111.613V281.191H110.514V280.224C110.045 280.942 109.225 281.367 108.258 281.367ZM116.584 281.367C114.269 281.367 112.672 279.594 112.672 277.249C112.672 274.905 114.269 273.162 116.584 273.162C118.034 273.162 119.338 274.011 119.851 275.169L118.855 275.682C118.459 274.847 117.624 274.26 116.584 274.26C115.031 274.26 113.844 275.535 113.844 277.264C113.844 278.978 115.031 280.268 116.584 280.268C117.624 280.268 118.445 279.696 118.855 278.817L119.851 279.359C119.338 280.502 118.034 281.367 116.584 281.367ZM124.49 281.367C122.175 281.367 120.578 279.594 120.578 277.249C120.578 274.905 122.175 273.162 124.49 273.162C125.941 273.162 127.245 274.011 127.758 275.169L126.761 275.682C126.366 274.847 125.531 274.26 124.49 274.26C122.937 274.26 121.75 275.535 121.75 277.264C121.75 278.978 122.937 280.268 124.49 280.268C125.531 280.268 126.351 279.696 126.761 278.817L127.758 279.359C127.245 280.502 125.941 281.367 124.49 281.367ZM132.382 281.367C130.184 281.367 128.485 279.623 128.485 277.235C128.485 274.876 130.111 273.162 132.265 273.162C134.521 273.162 135.884 275.022 135.884 276.898C135.884 277.088 135.869 277.352 135.825 277.601H129.642C129.686 279.286 130.99 280.341 132.382 280.341C133.525 280.341 134.287 279.726 134.785 278.905L135.723 279.403C135.239 280.473 133.979 281.367 132.382 281.367ZM132.265 274.187C130.99 274.187 129.847 275.096 129.671 276.575H134.697C134.683 275.169 133.569 274.187 132.265 274.187ZM139.668 281.367C138.159 281.367 136.957 280.546 136.459 279.242L137.382 278.803C137.836 279.77 138.686 280.37 139.668 280.37C140.605 280.37 141.338 279.872 141.338 279.125C141.338 278.319 140.488 278.041 140.019 277.909L138.891 277.586C137.441 277.176 136.84 276.414 136.84 275.433C136.84 274.055 138.012 273.162 139.477 273.162C140.796 273.162 141.983 273.894 142.437 275.125L141.499 275.564C141.104 274.685 140.327 274.158 139.433 274.158C138.554 274.158 137.983 274.656 137.983 275.345C137.983 276.151 138.73 276.385 139.14 276.502L140.444 276.883C141.704 277.249 142.466 278.07 142.466 279.125C142.466 280.429 141.309 281.367 139.668 281.367ZM146.243 281.367C144.734 281.367 143.533 280.546 143.035 279.242L143.958 278.803C144.412 279.77 145.262 280.37 146.243 280.37C147.181 280.37 147.914 279.872 147.914 279.125C147.914 278.319 147.064 278.041 146.595 277.909L145.467 277.586C144.016 277.176 143.416 276.414 143.416 275.433C143.416 274.055 144.588 273.162 146.053 273.162C147.372 273.162 148.558 273.894 149.013 275.125L148.075 275.564C147.679 274.685 146.903 274.158 146.009 274.158C145.13 274.158 144.558 274.656 144.558 275.345C144.558 276.151 145.306 276.385 145.716 276.502L147.02 276.883C148.28 277.249 149.042 278.07 149.042 279.125C149.042 280.429 147.884 281.367 146.243 281.367ZM150.9 281.191V274.436H149.332V273.337H150.9V272.634C150.9 270.993 152.145 270.099 153.522 270.099C153.713 270.099 154.006 270.129 154.167 270.172V271.169C154.035 271.14 153.742 271.125 153.64 271.125C152.702 271.125 151.999 271.52 151.999 272.634V273.337H153.918V274.436H151.999V281.191H150.9ZM157.751 281.367C156.095 281.367 154.806 280.107 154.806 278.29V273.337H155.905V278.158C155.905 279.433 156.74 280.268 157.941 280.268C159.143 280.268 160.007 279.418 160.007 278.011V273.337H161.106V281.191H160.007V280.224C159.538 280.942 158.718 281.367 157.751 281.367ZM162.487 281.191V270.099H163.586V281.191H162.487ZM164.956 281.191V270.099H166.055V281.191H164.956ZM167.586 284.414C167.279 284.414 166.942 284.37 166.634 284.253V283.228C166.824 283.257 167.147 283.315 167.469 283.315C168.421 283.315 168.832 282.993 169.315 281.865L169.594 281.191L166.458 273.337H167.645L170.209 279.814L172.773 273.337H173.989L170.4 282.187C169.931 283.345 169.139 284.414 167.586 284.414ZM179.558 281.367C177.345 281.367 175.69 279.623 175.69 277.264C175.69 274.905 177.331 273.162 179.558 273.162C180.789 273.162 181.8 273.689 182.43 274.524V270.099H183.529V281.191H182.43V279.916C181.829 280.839 180.774 281.367 179.558 281.367ZM179.617 280.268C181.199 280.268 182.43 278.964 182.43 277.264C182.43 275.564 181.199 274.26 179.617 274.26C178.049 274.26 176.862 275.55 176.862 277.264C176.862 278.978 178.034 280.268 179.617 280.268ZM188.481 281.367C186.283 281.367 184.584 279.623 184.584 277.235C184.584 274.876 186.21 273.162 188.364 273.162C190.62 273.162 191.983 275.022 191.983 276.898C191.983 277.088 191.968 277.352 191.924 277.601H185.741C185.785 279.286 187.089 280.341 188.481 280.341C189.624 280.341 190.386 279.726 190.884 278.905L191.822 279.403C191.338 280.473 190.078 281.367 188.481 281.367ZM188.364 274.187C187.089 274.187 185.946 275.096 185.77 276.575H190.796C190.781 275.169 189.668 274.187 188.364 274.187ZM193.041 284.121V273.337H194.14V274.524C194.77 273.689 195.781 273.162 197.012 273.162C199.239 273.162 200.88 274.905 200.88 277.264C200.88 279.623 199.224 281.367 197.012 281.367C195.796 281.367 194.741 280.839 194.14 279.916V284.121H193.041ZM196.953 280.268C198.536 280.268 199.708 278.978 199.708 277.264C199.708 275.55 198.521 274.26 196.953 274.26C195.371 274.26 194.14 275.564 194.14 277.264C194.14 278.964 195.371 280.268 196.953 280.268ZM205.613 281.367C203.386 281.367 201.613 279.623 201.613 277.249C201.613 274.905 203.327 273.162 205.613 273.162C207.884 273.162 209.598 274.89 209.598 277.249C209.598 279.667 207.796 281.367 205.613 281.367ZM205.613 280.268C207.18 280.268 208.426 278.964 208.426 277.249C208.426 275.55 207.18 274.26 205.613 274.26C204.03 274.26 202.785 275.55 202.785 277.249C202.785 278.964 204.03 280.268 205.613 280.268ZM213.382 281.367C211.873 281.367 210.672 280.546 210.174 279.242L211.097 278.803C211.551 279.77 212.401 280.37 213.382 280.37C214.32 280.37 215.053 279.872 215.053 279.125C215.053 278.319 214.203 278.041 213.734 277.909L212.606 277.586C211.155 277.176 210.554 276.414 210.554 275.433C210.554 274.055 211.727 273.162 213.192 273.162C214.511 273.162 215.697 273.894 216.152 275.125L215.214 275.564C214.818 274.685 214.042 274.158 213.148 274.158C212.269 274.158 211.697 274.656 211.697 275.345C211.697 276.151 212.445 276.385 212.855 276.502L214.159 276.883C215.419 277.249 216.181 278.07 216.181 279.125C216.181 280.429 215.023 281.367 213.382 281.367ZM217.233 271.887V270.275H218.332V271.887H217.233ZM217.233 281.191V273.337H218.332V281.191H217.233ZM222.706 281.279C221.299 281.279 220.508 280.429 220.508 278.905V274.436H219.057V273.337H219.423C220.083 273.337 220.508 272.854 220.508 272.18V271.52H221.607V273.337H223.336V274.436H221.607V278.905C221.607 279.696 221.914 280.253 222.896 280.253C223.057 280.253 223.292 280.239 223.453 280.209V281.191C223.218 281.25 222.881 281.279 222.706 281.279ZM227.792 281.367C225.594 281.367 223.895 279.623 223.895 277.235C223.895 274.876 225.521 273.162 227.675 273.162C229.931 273.162 231.294 275.022 231.294 276.898C231.294 277.088 231.279 277.352 231.236 277.601H225.052C225.096 279.286 226.4 280.341 227.792 280.341C228.935 280.341 229.697 279.726 230.195 278.905L231.133 279.403C230.649 280.473 229.389 281.367 227.792 281.367ZM227.675 274.187C226.4 274.187 225.257 275.096 225.082 276.575H230.107C230.093 275.169 228.979 274.187 227.675 274.187ZM235.898 281.367C233.686 281.367 232.03 279.623 232.03 277.264C232.03 274.905 233.671 273.162 235.898 273.162C237.129 273.162 238.14 273.689 238.77 274.524V270.099H239.869V281.191H238.77V279.916C238.169 280.839 237.114 281.367 235.898 281.367ZM235.957 280.268C237.539 280.268 238.77 278.964 238.77 277.264C238.77 275.564 237.539 274.26 235.957 274.26C234.389 274.26 233.202 275.55 233.202 277.264C233.202 278.978 234.375 280.268 235.957 280.268ZM243.018 281.191V270.275H244.044L250.051 278.891V270.275H251.223V281.191H250.198L244.19 272.517V281.191H243.018ZM257.909 281.367C254.832 281.367 252.605 279.008 252.605 275.74C252.605 272.473 254.832 270.099 257.909 270.099C260.122 270.099 261.734 271.462 262.276 272.825L261.221 273.337C260.679 272.004 259.507 271.198 257.909 271.198C255.492 271.198 253.778 273.03 253.778 275.74C253.778 278.451 255.492 280.268 257.909 280.268C260.049 280.268 261.69 278.759 261.69 276.649V276.575H257.909V275.55H262.862V276.458C262.862 279.315 260.679 281.367 257.909 281.367ZM264.082 281.191V270.275H265.108L271.115 278.891V270.275H272.287V281.191H271.262L265.254 272.517V281.191H264.082ZM280.54 281.191V278.612H274.987V277.66L280.54 270.275H281.566V277.66H282.899V278.612H281.566V281.191H280.54ZM280.54 277.66V271.872L276.203 277.66H280.54ZM288.04 281.367C285.462 281.367 283.718 279.096 283.718 275.726C283.718 272.356 285.447 270.099 288.026 270.099C290.605 270.099 292.334 272.356 292.334 275.726C292.334 279.11 290.619 281.367 288.04 281.367ZM288.04 280.268C289.916 280.268 291.176 278.451 291.176 275.726C291.176 273.015 289.916 271.198 288.026 271.198C286.15 271.198 284.89 273.015 284.89 275.726C284.89 278.436 286.15 280.268 288.04 280.268ZM297.893 281.367C295.314 281.367 293.57 279.096 293.57 275.726C293.57 272.356 295.299 270.099 297.878 270.099C300.457 270.099 302.186 272.356 302.186 275.726C302.186 279.11 300.472 281.367 297.893 281.367ZM297.893 280.268C299.768 280.268 301.028 278.451 301.028 275.726C301.028 273.015 299.768 271.198 297.878 271.198C296.003 271.198 294.743 273.015 294.743 275.726C294.743 278.436 296.003 280.268 297.893 280.268ZM303.54 283.096V282.583C304.126 282.422 304.39 281.997 304.39 281.191H303.833V279.579H305.005V280.81C305.005 282.085 304.507 282.861 303.54 283.096ZM310.815 281.367C308.237 281.367 306.493 279.096 306.493 275.726C306.493 272.356 308.222 270.099 310.801 270.099C313.38 270.099 315.108 272.356 315.108 275.726C315.108 279.11 313.394 281.367 310.815 281.367ZM310.815 280.268C312.691 280.268 313.951 278.451 313.951 275.726C313.951 273.015 312.691 271.198 310.801 271.198C308.925 271.198 307.665 273.015 307.665 275.726C307.665 278.436 308.925 280.268 310.815 280.268ZM320.668 281.367C318.089 281.367 316.345 279.096 316.345 275.726C316.345 272.356 318.074 270.099 320.653 270.099C323.232 270.099 324.961 272.356 324.961 275.726C324.961 279.11 323.247 281.367 320.668 281.367ZM320.668 280.268C322.543 280.268 323.803 278.451 323.803 275.726C323.803 273.015 322.543 271.198 320.653 271.198C318.778 271.198 317.518 273.015 317.518 275.726C317.518 278.436 318.778 280.268 320.668 280.268ZM330.52 281.367C327.941 281.367 326.198 279.096 326.198 275.726C326.198 272.356 327.927 270.099 330.506 270.099C333.084 270.099 334.813 272.356 334.813 275.726C334.813 279.11 333.099 281.367 330.52 281.367ZM330.52 280.268C332.396 280.268 333.656 278.451 333.656 275.726C333.656 273.015 332.396 271.198 330.506 271.198C328.63 271.198 327.37 273.015 327.37 275.726C327.37 278.436 328.63 280.268 330.52 280.268Z" fill="#032E32"/>
<path d="M61.4837 297.791C62.6808 297.791 63.5526 298.128 64.0991 298.801C64.6587 299.461 64.9384 300.445 64.9384 301.752V307.985H61.9911V302.742C62.0172 302.043 61.8675 301.506 61.5422 301.131C61.2299 300.755 60.7875 300.568 60.215 300.568C59.6164 300.568 59.148 300.788 58.8096 301.228C58.4843 301.655 58.3217 302.257 58.3217 303.034V307.985H55.3744V296.215H58.3022V297.015C58.3022 297.325 58.2176 297.759 58.0484 298.316C57.8923 298.872 57.6711 299.487 57.3848 300.16H58.185C58.6925 298.581 59.7921 297.791 61.4837 297.791Z" fill="#032E32"/>
<path d="M68.5489 307.985H65.6016V298.083H68.5489V307.985Z" fill="#032E32"/>
<path d="M69.2226 307.985V305.383L74.0241 300.374L73.4776 299.83C73.2043 300.154 72.8855 300.406 72.5212 300.587C72.1699 300.768 71.812 300.859 71.4477 300.859H69.1927V298.083H77.7716V300.626L72.814 305.694L73.3605 306.237C73.6337 305.914 73.946 305.661 74.2974 305.48C74.6617 305.299 75.0261 305.208 75.3904 305.208H77.798V307.985H69.2226Z" fill="#032E32"/>
<path d="M82.8378 308.276C81.7838 308.276 80.8664 308.062 80.0857 307.635C79.3049 307.208 78.7063 306.6 78.29 305.81C77.8736 305.008 77.6654 304.076 77.6654 303.014C77.6654 301.953 77.8736 301.034 78.29 300.257C78.7063 299.468 79.3049 298.859 80.0857 298.432C80.8664 298.005 81.7838 297.791 82.8378 297.791C83.8917 297.791 84.8091 298.005 85.5899 298.432C86.3706 298.859 86.9692 299.468 87.3855 300.257C87.8019 301.034 88.0101 301.953 88.0101 303.014C88.0101 304.076 87.8019 305.008 87.3855 305.81C86.9692 306.6 86.3706 307.208 85.5899 307.635C84.8091 308.062 83.8917 308.276 82.8378 308.276ZM82.8378 305.461C83.5014 305.461 84.0284 305.241 84.4187 304.8C84.8091 304.36 85.0043 303.765 85.0043 303.014C85.0043 302.276 84.8091 301.694 84.4187 301.267C84.0284 300.827 83.5014 300.607 82.8378 300.607C82.1741 300.607 81.6471 300.827 81.2568 301.267C80.8664 301.694 80.6712 302.276 80.6712 303.014C80.6712 303.765 80.8664 304.36 81.2568 304.8C81.6471 305.241 82.1741 305.461 82.8378 305.461Z" fill="#032E32"/>
<path d="M92.4656 298.248L90.4145 296.215L88.0101 298.598L89.1848 299.762L88.0101 300.926L90.4145 303.31L92.8188 300.926L91.7874 299.904C91.4262 300.303 91.103 300.735 90.8224 301.195L90.148 300.545L92.4656 298.248Z" fill="#3CDF90"/>
<rect x="20" y="170" width="361" height="167.952" rx="16.6522" stroke="white" stroke-width="4"/>
</g>
<defs>
<filter id="filter0_b_724_1194" x="-2" y="148" width="405" height="211.952" filterUnits="userSpaceOnUse" color-interpolation-filters="sRGB">
<feFlood flood-opacity="0" result="BackgroundImageFix"/>
<feGaussianBlur in="BackgroundImageFix" stdDeviation="10"/>
<feComposite in2="SourceAlpha" operator="in" result="effect1_backgroundBlur_724_1194"/>
<feBlend mode="normal" in="SourceGraphic" in2="effect1_backgroundBlur_724_1194" result="shape"/>
</filter>
<clipPath id="clip0_724_1194">
<rect x="69.8221" width="285.108" height="179.563" rx="6.85355" transform="rotate(8.91353 69.8221 0)" fill="white"/>
</clipPath>
<clipPath id="clip1_724_1194">
<rect width="12.8572" height="12.8572" fill="white" transform="translate(95.9977 27.7275) rotate(8.75679)"/>
</clipPath>
</defs>
</svg>
