<svg width="312" height="280" viewBox="0 0 312 280" fill="none" xmlns="http://www.w3.org/2000/svg">
<rect x="0.266357" y="0.729004" width="311.467" height="78.8281" rx="6.72923" fill="#EFEFEF"/>
<rect x="204.066" y="19.9556" width="97.0622" height="41.0819" rx="5.76791" fill="#F8F8F8"/>
<g clip-path="url(#clip0_744_1360)">
<path d="M224.583 33.1826H231.232V47.8102H224.583V33.1826Z" fill="#E6E7E8"/>
<path d="M220.594 33.1826C218.391 33.1826 217.27 34.8199 217.27 36.8395V44.1533C217.27 46.1729 218.391 47.8102 220.594 47.8102H224.583V33.1826H220.594ZM235.222 33.1826H231.232V47.8102H235.222C237.425 47.8102 238.546 46.1729 238.546 44.1533V36.8395C238.546 34.8199 237.425 33.1826 235.222 33.1826Z" fill="#128807"/>
</g>
<path d="M244.688 45.4966V35.7779H246.241L250.624 41.5569V35.7779H252.646V45.4966H251.081L246.71 39.5871V45.4966H244.688ZM258.649 45.6531C255.858 45.6531 253.692 43.5137 253.692 40.6307C253.692 37.7347 255.779 35.6214 258.597 35.6214C260.697 35.6214 262.25 36.7824 262.758 38.2174L260.971 39.0784C260.632 38.1391 259.771 37.4477 258.597 37.4477C256.875 37.4477 255.714 38.7392 255.714 40.6307C255.714 42.5353 256.927 43.8268 258.649 43.8268C259.98 43.8268 261.193 43.031 261.193 41.6743V41.6483H258.597V39.9524H263.215V40.9829C263.215 44.166 260.88 45.6531 258.649 45.6531ZM264.072 45.4966V35.7779H265.625L270.008 41.5569V35.7779H272.03V45.4966H270.464L266.094 39.5871V45.4966H264.072Z" fill="#ACACAC"/>
<path d="M279.234 38.2043C279.385 38.0528 279.622 38.0391 279.789 38.163L279.837 38.2043L283.517 41.8837L287.196 38.2043C287.348 38.0528 287.585 38.0391 287.752 38.163L287.8 38.2043C287.951 38.3557 287.965 38.5927 287.841 38.7597L287.8 38.8075L283.818 42.7888C283.667 42.9402 283.43 42.954 283.263 42.8301L283.215 42.7888L279.234 38.8075C279.067 38.6409 279.067 38.3709 279.234 38.2043Z" fill="#BDBDBD"/>
<path d="M40.1112 54.3695H36.7196V33.1435H40.1112V54.3695Z" fill="#0B0B0B"/>
<rect x="0.266357" y="86.2861" width="311.467" height="78.8281" rx="6.72923" fill="#EFEFEF"/>
<rect x="204.066" y="105.272" width="96.0408" height="173.999" rx="4.80659" fill="#F8F8F8"/>
<g clip-path="url(#clip1_744_1360)">
<path d="M234.87 118.435H220.529C218.369 118.435 217.27 120.04 217.27 122.02V125.605H238.129V122.02C238.129 120.04 237.03 118.435 234.87 118.435Z" fill="#27AAE1"/>
<path d="M217.27 129.19C217.27 131.17 218.369 132.775 220.529 132.775H234.87C237.03 132.775 238.129 131.17 238.129 129.19V128.864H217.27V129.19Z" fill="#128807"/>
<path fill-rule="evenodd" clip-rule="evenodd" d="M233.491 120.873L233.147 119.194C233.144 119.179 233.143 119.165 233.14 119.151C233.145 119.147 233.149 119.147 233.152 119.152L233.697 120.798C233.7 120.797 233.704 120.796 233.708 120.796C233.742 120.227 233.775 119.659 233.81 119.089C233.813 119.08 233.816 119.08 233.82 119.089C233.837 119.355 233.854 119.619 233.87 119.884C233.888 120.183 233.905 120.481 233.922 120.779C233.928 120.781 233.933 120.782 233.938 120.783C234.113 120.257 234.289 119.73 234.463 119.203C234.487 119.203 234.479 119.216 234.475 119.228C234.419 119.509 234.362 119.79 234.304 120.071C234.252 120.322 234.198 120.574 234.146 120.824C234.134 120.843 234.152 120.869 234.131 120.884C234.105 120.901 234.078 120.892 234.053 120.885C233.896 120.838 233.73 120.838 233.573 120.885C233.552 120.891 233.529 120.898 233.506 120.888C233.5 120.885 233.494 120.88 233.491 120.874M233.117 122.181C232.638 122.421 232.161 122.663 231.684 122.902C231.667 122.911 231.65 122.918 231.632 122.925C231.618 122.932 231.618 122.925 231.62 122.914L233.001 122.004C233.002 121.981 232.988 121.987 232.975 121.992C232.597 122.07 232.218 122.148 231.839 122.225C231.661 122.262 231.482 122.297 231.304 122.333C231.301 122.331 231.3 122.328 231.302 122.326L231.304 122.323C231.842 122.145 232.381 121.967 232.917 121.789C232.932 121.784 232.946 121.782 232.96 121.779C232.98 121.769 232.991 121.784 233.004 121.795C233.026 121.824 233.03 121.86 233.04 121.893C233.06 121.962 233.089 122.025 233.127 122.085C233.14 122.106 233.153 122.128 233.152 122.154C233.15 122.174 233.133 122.179 233.117 122.181ZM234.638 121.329C234.92 121.27 235.202 121.21 235.484 121.152C235.718 121.103 235.951 121.056 236.184 121.008C236.204 121.003 236.225 121.001 236.246 120.998C236.26 120.992 236.262 121 236.26 121.012C235.754 121.179 235.249 121.348 234.743 121.516L234.701 121.53C234.693 121.544 234.706 121.547 234.714 121.552C235.25 121.583 235.786 121.613 236.323 121.644C236.349 121.663 236.388 121.626 236.409 121.665L234.819 121.756C234.798 121.757 234.778 121.757 234.757 121.756C234.722 121.766 234.688 121.76 234.653 121.761C234.627 121.746 234.624 121.721 234.625 121.697C234.628 121.597 234.615 121.497 234.586 121.402C234.583 121.393 234.582 121.383 234.582 121.374C234.583 121.365 234.585 121.355 234.589 121.347C234.599 121.325 234.622 121.336 234.638 121.329ZM231.646 120.394L232.48 120.81L233.08 121.111C233.094 121.118 233.108 121.129 233.127 121.123C233.144 121.115 233.16 121.108 233.172 121.131C233.137 121.215 233.105 121.3 233.032 121.36C233.011 121.362 232.995 121.356 232.985 121.336C232.981 121.325 232.996 121.315 232.988 121.303C232.558 121.019 232.128 120.736 231.699 120.452C231.676 120.437 231.654 120.421 231.632 120.406C231.63 120.395 231.631 120.386 231.646 120.394ZM233.719 122.602C233.714 122.574 233.71 122.546 233.703 122.505C233.522 123.052 233.344 123.585 233.167 124.119C233.155 124.122 233.148 124.12 233.155 124.105C233.211 123.825 233.268 123.545 233.325 123.264C233.377 123.012 233.429 122.761 233.48 122.509C233.485 122.489 233.503 122.466 233.483 122.445C233.481 122.442 233.481 122.438 233.482 122.434C233.483 122.431 233.485 122.428 233.488 122.426C233.562 122.402 233.622 122.454 233.691 122.461C233.715 122.463 233.732 122.479 233.739 122.503C233.748 122.54 233.758 122.576 233.719 122.602ZM234.348 122.359C234.507 122.676 234.663 122.992 234.821 123.306L235.079 123.828C235.086 123.843 235.078 123.844 235.067 123.843L234.163 122.472C234.162 122.469 234.161 122.465 234.16 122.46C234.147 122.455 234.139 122.446 234.139 122.431C234.192 122.363 234.263 122.324 234.345 122.304C234.368 122.321 234.361 122.34 234.348 122.359Z" fill="#E4BD01"/>
<path fill-rule="evenodd" clip-rule="evenodd" d="M234.651 121.756C234.686 121.756 234.721 121.757 234.756 121.758C234.729 121.762 234.703 121.765 234.665 121.773L236.284 122.311C236.287 122.323 236.285 122.329 236.271 122.323L235.192 122.102C235.011 122.066 234.832 122.029 234.651 121.993C234.629 121.984 234.612 122.013 234.589 122.001C234.584 121.998 234.58 121.993 234.577 121.987C234.586 121.905 234.59 121.821 234.651 121.756ZM234.348 120.968C234.497 120.85 234.631 120.72 234.774 120.596C235.043 120.358 235.313 120.118 235.582 119.88C235.595 119.876 235.598 119.881 235.596 119.893C235.236 120.3 234.875 120.706 234.514 121.113C234.526 121.132 234.523 121.149 234.508 121.164C234.5 121.169 234.49 121.172 234.484 121.167C234.419 121.111 234.347 121.06 234.306 120.981C234.315 120.957 234.329 120.952 234.348 120.968ZM233.165 121.125C233.153 121.126 233.14 121.136 233.128 121.124L232.205 120.082C232.137 120.007 232.073 119.931 232.005 119.857C232.011 119.85 232.018 119.85 232.025 119.853C232.381 120.171 232.739 120.487 233.095 120.804C233.156 120.858 233.218 120.909 233.279 120.963C233.301 120.956 233.309 120.969 233.314 120.986C233.282 121.052 233.241 121.108 233.165 121.125ZM234.147 122.433L234.16 122.46C234.135 122.472 234.15 122.493 234.153 122.508C234.258 123.02 234.364 123.53 234.47 124.042C234.473 124.059 234.475 124.076 234.477 124.092C234.483 124.105 234.475 124.108 234.464 124.107L233.96 122.589L233.944 122.548C233.938 122.527 233.912 122.521 233.905 122.5C233.904 122.493 233.905 122.487 233.908 122.481C233.971 122.44 234.045 122.436 234.115 122.419C234.127 122.416 234.14 122.422 234.147 122.433Z" fill="#E4BD01"/>
<path fill-rule="evenodd" clip-rule="evenodd" d="M233.305 120.989C233.297 120.98 233.289 120.971 233.28 120.963C233.286 120.937 233.269 120.919 233.259 120.899C233.026 120.432 232.791 119.966 232.557 119.5C232.55 119.484 232.544 119.469 232.537 119.454C232.53 119.44 232.537 119.44 232.547 119.441C232.845 119.893 233.141 120.344 233.439 120.795C233.456 120.821 233.474 120.846 233.491 120.873L233.506 120.874C233.507 120.877 233.509 120.879 233.508 120.88C233.484 120.927 233.359 120.992 233.305 120.989ZM233.482 122.431L233.481 122.445C233.464 122.474 233.448 122.503 233.43 122.53L232.548 123.867C232.538 123.871 232.531 123.87 232.538 123.856L233.276 122.383C233.276 122.379 233.279 122.375 233.279 122.372C233.289 122.356 233.272 122.338 233.285 122.323C233.289 122.318 233.294 122.314 233.3 122.312C233.374 122.331 233.443 122.359 233.482 122.431ZM234.348 120.968C234.336 120.971 234.324 120.973 234.311 120.975C234.245 120.981 234.154 120.928 234.138 120.874C234.138 120.856 234.135 120.838 234.148 120.824C234.149 120.832 234.149 120.841 234.152 120.862L235.082 119.453C235.092 119.451 235.099 119.452 235.093 119.464C234.856 119.939 234.619 120.413 234.381 120.887C234.368 120.914 234.348 120.937 234.348 120.968ZM234.5 121.165C234.504 121.148 234.508 121.13 234.512 121.113C234.542 121.119 234.566 121.104 234.589 121.092C235.047 120.862 235.505 120.632 235.964 120.404C235.978 120.395 235.994 120.39 236.009 120.384C236.022 120.376 236.021 120.384 236.021 120.392C235.631 120.651 235.24 120.909 234.849 121.166C234.777 121.213 234.706 121.261 234.634 121.307C234.618 121.318 234.611 121.326 234.638 121.329C234.627 121.339 234.614 121.339 234.6 121.34C234.547 121.321 234.494 121.231 234.5 121.165ZM234.348 122.359C234.339 122.343 234.346 122.326 234.348 122.309C234.352 122.251 234.429 122.173 234.495 122.158C234.513 122.165 234.525 122.175 234.512 122.197C234.685 122.392 234.858 122.588 235.03 122.785C235.223 123.003 235.416 123.221 235.608 123.44C235.614 123.446 235.612 123.452 235.606 123.457C235.306 123.193 235.008 122.929 234.709 122.665C234.607 122.573 234.504 122.481 234.4 122.389C234.386 122.376 234.375 122.355 234.348 122.36" fill="#E4BD01"/>
<path fill-rule="evenodd" clip-rule="evenodd" d="M233.292 122.318C233.291 122.322 233.291 122.326 233.291 122.331C233.289 122.346 233.277 122.352 233.265 122.359C232.876 122.704 232.487 123.05 232.098 123.396C232.076 123.416 232.054 123.433 232.031 123.452C232.019 123.456 232.015 123.452 232.019 123.44C232.376 123.04 232.732 122.639 233.087 122.236C233.099 122.223 233.136 122.214 233.115 122.182L233.139 122.159C233.198 122.169 233.282 122.257 233.292 122.318ZM232.989 121.805L232.961 121.779C232.924 121.754 232.881 121.761 232.841 121.758C232.317 121.726 231.792 121.696 231.269 121.665C231.279 121.628 231.313 121.66 231.331 121.644C231.86 121.614 232.387 121.583 232.915 121.552C232.968 121.523 232.993 121.549 233.005 121.599C233.009 121.649 233.003 121.701 233.012 121.752C233.014 121.762 233.013 121.773 233.009 121.783C233.005 121.792 232.998 121.8 232.989 121.805ZM234.512 122.197C234.511 122.181 234.502 122.173 234.487 122.169C234.476 122.113 234.534 122.014 234.589 121.995C234.594 121.994 234.598 121.994 234.604 121.993C234.622 121.983 234.63 121.994 234.638 122.006C235.093 122.308 235.55 122.609 236.005 122.908L236.059 122.945C236.03 122.955 236.013 122.935 235.995 122.925C235.521 122.689 235.049 122.453 234.576 122.215C234.557 122.205 234.538 122.189 234.512 122.197Z" fill="#E4BD01"/>
<path fill-rule="evenodd" clip-rule="evenodd" d="M232.989 121.33L233.029 121.356C233.06 121.426 233.023 121.485 232.994 121.545C232.969 121.554 232.947 121.546 232.926 121.53C232.422 121.362 231.918 121.195 231.414 121.027C231.398 121.022 231.382 121.016 231.367 121.01C231.366 120.999 231.369 120.992 231.382 120.999C231.564 121.035 231.746 121.07 231.929 121.107C232.273 121.176 232.616 121.247 232.96 121.317C232.969 121.322 232.983 121.317 232.989 121.33ZM233.905 122.496L233.915 122.497C233.933 122.507 233.928 122.521 233.923 122.537L233.83 124.128C233.829 124.159 233.824 124.19 233.821 124.221C233.816 124.23 233.813 124.229 233.81 124.22C233.779 123.696 233.748 123.171 233.717 122.647C233.716 122.632 233.717 122.616 233.717 122.603C233.719 122.567 233.719 122.53 233.721 122.495C233.749 122.478 233.781 122.469 233.813 122.469C233.845 122.469 233.877 122.479 233.905 122.496Z" fill="#E4BD01"/>
<path fill-rule="evenodd" clip-rule="evenodd" d="M236.41 121.665C236.381 121.658 236.352 121.65 236.323 121.644C236.376 121.635 236.428 121.649 236.481 121.665H236.41Z" fill="#6BAE75"/>
<path fill-rule="evenodd" clip-rule="evenodd" d="M231.331 121.644C231.309 121.651 231.288 121.658 231.268 121.665H231.205C231.196 121.662 231.195 121.658 231.203 121.654C231.244 121.645 231.288 121.641 231.331 121.644Z" fill="#B1B632"/>
<path fill-rule="evenodd" clip-rule="evenodd" d="M232.927 121.53C232.948 121.525 232.965 121.553 232.988 121.538C233.011 121.563 233.016 121.587 232.979 121.604C232.991 121.545 232.948 121.554 232.915 121.551C232.919 121.545 232.923 121.536 232.927 121.53Z" fill="#3CA8A4"/>
<path fill-rule="evenodd" clip-rule="evenodd" d="M235.597 119.895L235.582 119.882C235.597 119.858 235.619 119.839 235.645 119.83C235.638 119.857 235.621 119.88 235.597 119.895Z" fill="#A8B63B"/>
<path fill-rule="evenodd" clip-rule="evenodd" d="M235.067 123.843C235.072 123.838 235.075 123.833 235.08 123.828C235.1 123.854 235.116 123.881 235.11 123.917C235.096 123.892 235.082 123.868 235.067 123.843Z" fill="#B9B82B"/>
<path fill-rule="evenodd" clip-rule="evenodd" d="M236.262 121.012C236.257 121.007 236.252 121.003 236.247 120.998C236.258 120.991 236.271 120.987 236.285 120.986C236.299 120.985 236.312 120.988 236.324 120.994C236.304 121 236.282 121.005 236.262 121.012Z" fill="#BAB829"/>
<path fill-rule="evenodd" clip-rule="evenodd" d="M231.646 120.394C231.641 120.398 231.636 120.402 231.631 120.406C231.604 120.391 231.577 120.376 231.551 120.36C231.595 120.354 231.62 120.376 231.646 120.394Z" fill="#BCB828"/>
<path fill-rule="evenodd" clip-rule="evenodd" d="M231.62 122.914C231.624 122.918 231.629 122.922 231.633 122.925C231.621 122.936 231.607 122.944 231.593 122.949C231.578 122.954 231.562 122.956 231.547 122.955C231.572 122.941 231.596 122.928 231.62 122.914Z" fill="#ADB636"/>
<path fill-rule="evenodd" clip-rule="evenodd" d="M234.464 124.108C234.468 124.103 234.472 124.097 234.477 124.093C234.493 124.115 234.493 124.14 234.479 124.169L234.464 124.108Z" fill="#B6B82D"/>
<path fill-rule="evenodd" clip-rule="evenodd" d="M232.027 119.856L232.007 119.859C231.987 119.845 231.97 119.827 231.958 119.806C231.963 119.8 231.967 119.799 231.973 119.805C231.99 119.823 232.008 119.839 232.027 119.856Z" fill="#ABB639"/>
<path fill-rule="evenodd" clip-rule="evenodd" d="M231.306 122.323C231.305 122.327 231.304 122.33 231.304 122.334C231.288 122.352 231.269 122.352 231.243 122.34C231.267 122.333 231.287 122.327 231.306 122.323Z" fill="#6DAE74"/>
<path fill-rule="evenodd" clip-rule="evenodd" d="M235.092 119.468C235.087 119.464 235.083 119.459 235.079 119.455C235.084 119.442 235.088 119.426 235.108 119.422C235.116 119.443 235.104 119.455 235.092 119.468Z" fill="#AAB639"/>
<path fill-rule="evenodd" clip-rule="evenodd" d="M236.271 122.323C236.276 122.319 236.28 122.315 236.285 122.311C236.302 122.315 236.319 122.319 236.336 122.324C236.339 122.336 236.337 122.342 236.324 122.336C236.305 122.335 236.286 122.337 236.271 122.323Z" fill="#A9B63A"/>
<path fill-rule="evenodd" clip-rule="evenodd" d="M235.71 123.55C235.681 123.537 235.665 123.529 235.662 123.508C235.688 123.505 235.694 123.524 235.71 123.55Z" fill="#55AB8A"/>
<path fill-rule="evenodd" clip-rule="evenodd" d="M233.153 124.105C233.157 124.111 233.162 124.115 233.166 124.12L233.152 124.171C233.147 124.177 233.144 124.178 233.139 124.172C233.139 124.149 233.138 124.126 233.153 124.105Z" fill="#ACB637"/>
<path fill-rule="evenodd" clip-rule="evenodd" d="M234.476 119.23C234.472 119.222 234.468 119.214 234.464 119.204C234.468 119.191 234.472 119.177 234.475 119.164C234.482 119.159 234.487 119.159 234.492 119.164C234.489 119.187 234.492 119.211 234.476 119.23Z" fill="#A8B63B"/>
<path fill-rule="evenodd" clip-rule="evenodd" d="M232.548 119.444C232.544 119.448 232.541 119.453 232.537 119.456C232.529 119.45 232.523 119.442 232.519 119.433C232.515 119.424 232.513 119.414 232.513 119.405C232.535 119.411 232.541 119.428 232.548 119.444Z" fill="#A0B543"/>
<path fill-rule="evenodd" clip-rule="evenodd" d="M234.716 121.554C234.7 121.555 234.68 121.564 234.672 121.546C234.669 121.536 234.69 121.529 234.703 121.531L234.716 121.554Z" fill="#44A99B"/>
<path fill-rule="evenodd" clip-rule="evenodd" d="M231.205 121.654C231.206 121.658 231.207 121.661 231.207 121.665H231.143C231.166 121.649 231.185 121.651 231.205 121.654Z" fill="#6FAF71"/>
<path fill-rule="evenodd" clip-rule="evenodd" d="M231.332 121C231.314 120.995 231.297 120.991 231.281 120.986C231.276 120.985 231.274 120.982 231.275 120.979C231.276 120.978 231.277 120.976 231.277 120.974C231.298 120.974 231.317 120.971 231.332 120.986C231.342 120.99 231.342 120.996 231.332 121Z" fill="#9DB445"/>
<path fill-rule="evenodd" clip-rule="evenodd" d="M236.343 120.984C236.351 120.963 236.368 120.962 236.389 120.964C236.377 120.983 236.363 120.987 236.343 120.984Z" fill="#5BAC85"/>
<path fill-rule="evenodd" clip-rule="evenodd" d="M233.821 119.09H233.81C233.805 119.066 233.807 119.042 233.815 119.02C233.824 119.042 233.826 119.066 233.821 119.09Z" fill="#A1B541"/>
<path fill-rule="evenodd" clip-rule="evenodd" d="M236.021 120.392L236.009 120.383C236.015 120.376 236.023 120.371 236.031 120.367C236.04 120.363 236.049 120.361 236.058 120.361C236.052 120.381 236.036 120.385 236.021 120.392Z" fill="#DCBC09"/>
<path fill-rule="evenodd" clip-rule="evenodd" d="M232.023 123.439C232.028 123.443 232.032 123.447 232.036 123.452C232.027 123.467 232.016 123.481 231.991 123.483C231.992 123.46 232.007 123.45 232.023 123.439Z" fill="#A3B540"/>
<path fill-rule="evenodd" clip-rule="evenodd" d="M235.606 123.456C235.607 123.45 235.609 123.443 235.609 123.438C235.624 123.45 235.644 123.459 235.643 123.487C235.624 123.483 235.614 123.471 235.606 123.456Z" fill="#C2B922"/>
<path fill-rule="evenodd" clip-rule="evenodd" d="M232.539 123.856C232.543 123.861 232.546 123.864 232.55 123.868C232.545 123.883 232.542 123.898 232.523 123.902C232.514 123.881 232.526 123.868 232.539 123.856Z" fill="#A2B541"/>
<path fill-rule="evenodd" clip-rule="evenodd" d="M233.153 119.153L233.141 119.153C233.126 119.141 233.127 119.125 233.13 119.104C233.138 119.11 233.143 119.118 233.147 119.126C233.151 119.135 233.153 119.144 233.153 119.153Z" fill="#79B068"/>
<path fill-rule="evenodd" clip-rule="evenodd" d="M231.975 119.807L231.959 119.807C231.943 119.803 231.937 119.79 231.929 119.773C231.939 119.775 231.948 119.778 231.956 119.784C231.964 119.79 231.971 119.798 231.975 119.807Z" fill="#68AE79"/>
<path fill-rule="evenodd" clip-rule="evenodd" d="M236.323 122.336L236.335 122.324C236.349 122.328 236.363 122.332 236.389 122.341C236.358 122.352 236.341 122.348 236.323 122.336Z" fill="#66AD7A"/>
<path fill-rule="evenodd" clip-rule="evenodd" d="M231.281 120.975C231.281 120.98 231.282 120.983 231.283 120.987C231.269 120.982 231.255 120.977 231.238 120.971C231.257 120.957 231.271 120.961 231.281 120.975Z" fill="#53AB8C"/>
<path fill-rule="evenodd" clip-rule="evenodd" d="M232.99 121.33C232.98 121.325 232.97 121.322 232.96 121.317L232.989 121.304C233 121.308 233.013 121.31 233.012 121.325C233.012 121.327 232.998 121.329 232.99 121.33Z" fill="#27A5B7"/>
<path fill-rule="evenodd" clip-rule="evenodd" d="M234.492 119.165H234.475C234.479 119.149 234.485 119.132 234.489 119.115C234.492 119.108 234.496 119.108 234.501 119.113C234.501 119.132 234.504 119.15 234.492 119.165Z" fill="#96B34C"/>
<path fill-rule="evenodd" clip-rule="evenodd" d="M231.33 120.999V120.985C231.349 120.987 231.368 120.985 231.385 120.999C231.38 121.003 231.374 121.006 231.369 121.011L231.33 120.999Z" fill="#D2BB13"/>
<path fill-rule="evenodd" clip-rule="evenodd" d="M234.501 119.116C234.497 119.117 234.493 119.118 234.489 119.119L234.505 119.073C234.52 119.094 234.515 119.106 234.501 119.116Z" fill="#4CAA93"/>
<path fill-rule="evenodd" clip-rule="evenodd" d="M233.925 122.538L233.917 122.497C233.938 122.507 233.946 122.527 233.947 122.549L233.925 122.538Z" fill="#3CA8A4"/>
<path fill-rule="evenodd" clip-rule="evenodd" d="M234.639 122.007C234.626 122.003 234.615 121.998 234.604 121.994C234.62 121.971 234.637 121.983 234.654 121.993C234.649 121.998 234.644 122.003 234.639 122.007Z" fill="#44A99B"/>
<path fill-rule="evenodd" clip-rule="evenodd" d="M232.976 121.993C232.991 121.983 233.01 121.973 233.023 121.987C233.029 121.993 233.013 122.002 233.002 122.005C232.994 122.001 232.985 121.998 232.976 121.993Z" fill="#5AAC87"/>
<path fill-rule="evenodd" clip-rule="evenodd" d="M233.266 122.361C233.275 122.351 233.284 122.341 233.293 122.332C233.303 122.351 233.293 122.364 233.279 122.375C233.275 122.37 233.27 122.366 233.266 122.361Z" fill="#5BAC85"/>
<path fill-rule="evenodd" clip-rule="evenodd" d="M232.979 121.604C232.993 121.584 232.993 121.562 232.988 121.539C232.989 121.475 233.017 121.417 233.03 121.355C233.067 121.275 233.112 121.197 233.165 121.125L233.304 120.989C233.372 120.95 233.439 120.913 233.506 120.874C233.715 120.798 233.925 120.806 234.136 120.874C234.194 120.908 234.252 120.941 234.31 120.975C234.379 121.034 234.443 121.096 234.5 121.165C234.533 121.224 234.566 121.281 234.6 121.34C234.641 121.475 234.663 121.613 234.652 121.755C234.637 121.836 234.616 121.916 234.589 121.994C234.554 122.053 234.521 122.111 234.487 122.169L234.349 122.308C234.282 122.35 234.215 122.392 234.147 122.433C234.068 122.454 233.986 122.475 233.905 122.495C233.844 122.495 233.783 122.494 233.722 122.494C233.641 122.478 233.561 122.457 233.482 122.431C233.419 122.393 233.357 122.355 233.294 122.317C233.243 122.264 233.192 122.211 233.141 122.158C233.067 122.052 233.015 121.931 232.988 121.805C232.982 121.739 232.973 121.672 232.979 121.604Z" fill="#00A0DD"/>
<path fill-rule="evenodd" clip-rule="evenodd" d="M233.818 120.9C233.918 120.9 234.016 120.919 234.108 120.958C234.2 120.996 234.284 121.052 234.354 121.122C234.424 121.193 234.48 121.276 234.518 121.368C234.556 121.46 234.575 121.559 234.574 121.659C234.574 121.86 234.493 122.053 234.351 122.195C234.208 122.337 234.015 122.417 233.814 122.418C233.613 122.416 233.421 122.335 233.279 122.193C233.137 122.051 233.057 121.858 233.056 121.657C233.057 121.455 233.137 121.263 233.28 121.121C233.423 120.979 233.617 120.899 233.818 120.9Z" fill="#E4BD01"/>
<path d="M217.27 124.953H238.129V128.864H217.27V124.953Z" fill="#F9CB38"/>
</g>
<path d="M243.797 130.605V120.886H247.515C249.523 120.886 250.958 121.956 250.958 123.991C250.958 125.321 250.306 126.261 249.276 126.73L251.493 130.605H249.223L247.254 127.083H245.819V130.605H243.797ZM245.819 125.321H247.528C248.376 125.321 248.936 124.787 248.936 123.991C248.936 123.182 248.376 122.647 247.528 122.647H245.819V125.321ZM253.933 130.605L251.389 120.886H253.58L255.211 127.813L256.933 120.886H259.02L260.742 127.813L262.373 120.886H264.564L262.021 130.605H259.673L257.977 124.082L256.281 130.605H253.933ZM265.181 130.605V120.886H271.834V122.647H267.203V125.113H271.181V126.874H267.203V130.605H265.181Z" fill="#ACACAC"/>
<path d="M277.867 123.312C278.019 123.161 278.256 123.147 278.423 123.271L278.47 123.312L282.15 126.992L285.83 123.312C285.981 123.161 286.218 123.147 286.385 123.271L286.433 123.312C286.584 123.464 286.598 123.701 286.474 123.868L286.433 123.916L282.452 127.897C282.3 128.048 282.063 128.062 281.896 127.938L281.848 127.897L277.867 123.916C277.701 123.749 277.701 123.479 277.867 123.312Z" fill="#BDBDBD"/>
<g clip-path="url(#clip2_744_1360)">
<path d="M238.673 165.545H217.27V170.227H238.673V165.545Z" fill="#F9CB38"/>
<path d="M220.614 160.528H235.329C237.545 160.528 238.673 162.175 238.673 164.207V165.545H217.27V164.207C217.27 162.175 218.398 160.528 220.614 160.528Z" fill="#EC1C24"/>
<path d="M238.673 171.565C238.673 173.596 237.545 175.243 235.329 175.243H220.614C218.398 175.243 217.27 173.596 217.27 171.565V170.227H238.673V171.565Z" fill="#137A08"/>
<path d="M228.046 165.82L227.395 167.14L225.938 167.353L226.991 168.38L226.743 169.83L228.046 169.145L229.349 169.83L229.1 168.38L230.153 167.353L228.697 167.14L228.046 165.82Z" fill="#25333A"/>
</g>
<path d="M249.011 173.042C246.22 173.042 244.054 170.903 244.054 168.02C244.054 165.124 246.141 163.01 248.959 163.01C251.059 163.01 252.612 164.171 253.12 165.606L251.333 166.467C250.994 165.528 250.133 164.837 248.959 164.837C247.237 164.837 246.076 166.128 246.076 168.02C246.076 169.924 247.289 171.216 249.011 171.216C250.342 171.216 251.555 170.42 251.555 169.063V169.037H248.959V167.341H253.577V168.372C253.577 171.555 251.242 173.042 249.011 173.042ZM254.434 172.885V163.167H256.456V167.367H260.239V163.167H262.261V172.885H260.239V169.128H256.456V172.885H254.434ZM268.216 173.042C265.424 173.042 263.311 170.903 263.311 168.02C263.311 165.124 265.398 163.01 268.216 163.01C270.316 163.01 271.868 164.171 272.377 165.606L270.59 166.467C270.251 165.528 269.39 164.837 268.216 164.837C266.494 164.837 265.333 166.128 265.333 168.02C265.333 169.924 266.494 171.216 268.216 171.216C269.39 171.216 270.251 170.524 270.59 169.585L272.377 170.446C271.868 171.881 270.316 173.042 268.216 173.042Z" fill="#ACACAC"/>
<g clip-path="url(#clip3_744_1360)">
<path d="M217.27 208.097H238.673V212.779H217.27V208.097Z" fill="#EC1C24"/>
<path d="M217.27 207.094H238.673V208.097H217.27V207.094ZM217.27 212.779H238.673V213.782H217.27V212.779Z" fill="#E6E7E8"/>
<path d="M235.329 203.081H220.614C218.398 203.081 217.27 204.728 217.27 206.759V207.094H238.673V206.759C238.673 204.728 237.545 203.081 235.329 203.081Z" fill="#25333A"/>
<path d="M217.27 214.117C217.27 216.148 218.398 217.795 220.614 217.795H235.329C237.545 217.795 238.673 216.148 238.673 214.117V213.782H217.27V214.117Z" fill="#137A08"/>
<path d="M224.907 215.718L230.161 206.903C230.198 206.498 230.335 206.108 230.557 205.767C230.831 205.347 231.22 205.034 231.674 204.833C231.671 205.33 231.538 205.81 231.263 206.231C231.059 206.542 230.787 206.804 230.468 206.997L225.175 215.877L224.907 215.718Z" fill="white"/>
<path d="M231.674 215.718L226.42 206.903C226.383 206.498 226.246 206.108 226.024 205.767C225.749 205.347 225.361 205.034 224.907 204.833C224.91 205.33 225.041 205.81 225.317 206.231C225.522 206.542 225.794 206.804 226.112 206.997L231.404 215.878L231.674 215.718Z" fill="white"/>
<path d="M228.29 205.75C226.939 206.53 225.998 208.298 225.998 210.355C225.998 212.411 226.941 214.178 228.29 214.96C229.638 214.178 230.582 212.411 230.582 210.355C230.582 208.298 229.64 206.53 228.29 205.75Z" fill="#D9271E"/>
<path d="M226.421 212.65C226.692 211.962 226.845 211.181 226.845 210.355C226.845 209.527 226.692 208.747 226.421 208.059C226.152 208.748 225.998 209.527 225.998 210.355C225.998 211.182 226.152 211.963 226.421 212.65ZM230.16 212.65C230.429 211.962 230.583 211.181 230.583 210.355C230.583 209.527 230.429 208.747 230.16 208.059C229.888 208.748 229.736 209.527 229.736 210.355C229.736 211.182 229.888 211.963 230.16 212.65Z" fill="#25333A"/>
<path d="M228.29 211.116C228.645 211.116 228.933 210.775 228.933 210.354C228.933 209.934 228.645 209.593 228.29 209.593C227.935 209.593 227.648 209.934 227.648 210.354C227.648 210.775 227.935 211.116 228.29 211.116Z" fill="white"/>
<path d="M228.135 211.388C227.846 211.813 227.663 212.417 227.663 213.088C227.663 213.76 227.846 214.363 228.135 214.788V211.388ZM228.423 214.789C228.712 214.364 228.894 213.76 228.894 213.089C228.894 212.417 228.712 211.814 228.423 211.389V214.789ZM228.146 205.945C227.856 206.37 227.675 206.974 227.675 207.643C227.675 208.315 227.856 208.919 228.146 209.344V205.945ZM228.435 209.344C228.725 208.918 228.906 208.314 228.906 207.643C228.906 206.974 228.725 206.369 228.435 205.945V209.344Z" fill="white"/>
</g>
<path d="M244.341 215.438V205.72H246.363V209.711L249.689 205.72H252.22L248.933 209.685L252.299 215.438H249.937L247.563 211.329L246.363 212.777V215.438H244.341ZM252.905 215.438V205.72H259.441V207.481H254.927V209.685H259.18V211.446H254.927V213.677H259.441V215.438H252.905ZM263.731 215.595C261.892 215.595 260.326 214.551 259.765 212.868L261.422 212.125C261.905 213.194 262.818 213.834 263.862 213.834C264.684 213.834 265.218 213.429 265.218 212.803C265.218 212.347 264.944 212.033 264.357 211.838L262.453 211.212C260.9 210.703 260.118 209.764 260.118 208.459C260.118 206.75 261.487 205.563 263.483 205.563C265.231 205.563 266.653 206.502 267.201 208.029L265.558 208.772C265.192 207.872 264.423 207.324 263.483 207.324C262.661 207.324 262.114 207.755 262.114 208.381C262.114 208.837 262.414 209.177 263.001 209.372L264.866 209.972C266.432 210.481 267.201 211.381 267.201 212.686C267.201 214.395 265.779 215.595 263.731 215.595Z" fill="#ACACAC"/>
<g clip-path="url(#clip4_744_1360)">
<path d="M217.27 254.107V256.024C217.27 256.41 217.314 256.781 217.399 257.128L222.304 254.107H217.27ZM217.386 247.939C217.307 248.286 217.268 248.641 217.27 248.997V250.913H222.076L217.386 247.939ZM237.712 250.913V248.997C237.712 247.056 236.635 245.483 234.518 245.483H220.464C220.167 245.483 219.894 245.517 219.638 245.575L228.13 250.913H237.712Z" fill="#EC1C24"/>
<path d="M228.449 250.274L221.016 245.483H220.464C220.167 245.483 219.894 245.517 219.638 245.575L228.13 250.913H237.712V250.274H228.449Z" fill="#E6E7E8"/>
<path d="M219.671 259.454C219.917 259.507 220.18 259.538 220.464 259.538H234.518C236.635 259.538 237.712 257.965 237.712 256.024V254.108H228.13L219.671 259.454Z" fill="#2B3990"/>
<path d="M221.054 259.538L228.449 254.746H237.712V254.108H228.13L219.671 259.454C219.917 259.507 220.18 259.538 220.464 259.538H221.054Z" fill="#E6E7E8"/>
<path d="M222.061 254.105L222.049 254.104L217.399 257.128C217.684 258.293 218.445 259.187 219.671 259.453L228.13 254.108H237.712V250.914H228.13L219.639 245.575C218.416 245.855 217.66 246.762 217.386 247.939L222.076 250.914H222.061L224.297 252.511" fill="#29B473"/>
<path d="M217.387 247.938C217.308 248.285 217.268 248.641 217.27 248.997V256.024C217.27 256.403 217.312 256.767 217.394 257.109L224.616 252.511L217.387 247.938Z" fill="#25333A"/>
<path d="M217.387 247.938C217.317 248.236 217.284 248.552 217.276 248.878L223.019 252.511L217.277 256.166C217.287 256.493 217.322 256.811 217.393 257.109L224.616 252.511L217.387 247.938Z" fill="#DBAD2B"/>
</g>
<path d="M242.662 257.51V255.88L247.085 249.553H242.923V247.792H249.641V249.422L245.232 255.749H249.772V257.51H242.662ZM249.673 257.51L252.96 247.792H255.647L258.935 257.51H256.73L256.078 255.527H252.516L251.864 257.51H249.673ZM253.077 253.766H255.517L254.304 250.022L253.077 253.766ZM259.553 257.51V247.792H263.271C265.28 247.792 266.715 248.861 266.715 250.896C266.715 252.227 266.063 253.166 265.032 253.636L267.25 257.51H264.98L263.01 253.988H261.575V257.51H259.553ZM261.575 252.227H263.284C264.132 252.227 264.693 251.692 264.693 250.896C264.693 250.088 264.132 249.553 263.284 249.553H261.575V252.227Z" fill="#ACACAC"/>
<rect x="128.415" y="70.5801" width="42.4505" height="24.6509" rx="12.3255" transform="rotate(-9.59012 128.415 70.5801)" fill="#3CDF90"/>
<path d="M144.198 79.3979C143.98 79.435 143.756 79.4 143.559 79.2984C143.363 79.1968 143.205 79.034 143.109 78.8346C143.014 78.6352 142.986 78.4102 143.029 78.1934C143.073 77.9767 143.186 77.78 143.352 77.6333L145.593 74.4797C145.75 74.2597 145.988 74.1109 146.254 74.066C146.52 74.0211 146.793 74.0838 147.013 74.2403C147.233 74.3969 147.382 74.6344 147.427 74.9006C147.472 75.1669 147.409 75.44 147.253 75.66L146.317 76.9742L153.895 75.6939C154.161 75.649 154.434 75.7116 154.654 75.868C154.874 76.0244 155.023 76.2618 155.068 76.528C155.113 76.7942 155.05 77.0673 154.894 77.2873C154.738 77.5073 154.5 77.6562 154.234 77.7012L144.198 79.3979ZM158.596 78.9967C158.814 78.9596 159.039 78.9945 159.235 79.0962C159.431 79.1978 159.589 79.3606 159.685 79.56C159.78 79.7593 159.808 79.9844 159.765 80.2012C159.721 80.4179 159.608 80.6145 159.443 80.7613L157.201 83.9149C157.123 84.0238 157.025 84.1164 156.912 84.1874C156.799 84.2584 156.672 84.3064 156.541 84.3286C156.409 84.3508 156.274 84.3469 156.143 84.317C156.013 84.2871 155.89 84.2318 155.781 84.1543C155.672 84.0768 155.58 83.9786 155.509 83.8653C155.438 83.752 155.39 83.6258 155.367 83.494C155.345 83.3621 155.349 83.2272 155.379 83.0969C155.409 82.9666 155.464 82.8435 155.542 82.7345L156.477 81.4204L148.899 82.7007C148.633 82.7456 148.36 82.683 148.14 82.5266C147.92 82.3702 147.771 82.1328 147.726 81.8666C147.681 81.6004 147.744 81.3273 147.9 81.1073C148.057 80.8872 148.294 80.7384 148.56 80.6934L158.596 78.9967Z" fill="#EFFFF7"/>
<rect x="128.415" y="70.5801" width="42.4505" height="24.6509" rx="12.3255" transform="rotate(-9.59012 128.415 70.5801)" stroke="white" stroke-width="3.84527"/>
<defs>
<clipPath id="clip0_744_1360">
<rect width="21.2764" height="21.2764" fill="white" transform="translate(217.27 29.8582)"/>
</clipPath>
<clipPath id="clip1_744_1360">
<rect width="20.8594" height="20.8594" fill="white" transform="translate(217.27 115.175)"/>
</clipPath>
<clipPath id="clip2_744_1360">
<rect width="21.4038" height="21.4038" fill="white" transform="matrix(-1 0 0 1 238.673 157.184)"/>
</clipPath>
<clipPath id="clip3_744_1360">
<rect width="21.4038" height="21.4038" fill="white" transform="translate(217.27 199.736)"/>
</clipPath>
<clipPath id="clip4_744_1360">
<rect width="20.4426" height="20.4426" fill="white" transform="translate(217.27 242.289)"/>
</clipPath>
</defs>
</svg>
