<svg width="327" height="284" viewBox="0 0 327 284" fill="none" xmlns="http://www.w3.org/2000/svg">
<path d="M214.558 204.788C180.215 225.408 144.279 235.716 114.035 235.846C83.7136 235.976 59.7168 225.925 48.1022 206.58C36.4875 187.236 38.8956 161.331 53.2629 134.629C67.5937 107.995 93.5835 81.1223 127.926 60.5024C162.269 39.8824 198.204 29.5742 228.449 29.4445C258.77 29.3143 282.767 39.3654 294.382 58.7097C305.996 78.054 303.588 103.959 289.221 130.661C274.89 157.295 248.9 184.168 214.558 204.788Z" stroke="#FCFF45" stroke-width="6.1888"/>
<rect x="104.345" y="29.6658" width="68.3451" height="33.8125" rx="16.9063" transform="rotate(0.863393 104.345 29.6658)" fill="#FCFF45"/>
<path d="M127.726 52.9087C126.569 52.8912 125.566 52.6467 124.719 52.1751C123.871 51.6931 123.224 51.0211 122.778 50.1593C122.332 49.2871 122.118 48.2671 122.136 47.0995C122.153 45.9422 122.398 44.9396 122.869 44.0916C123.341 43.2436 124.008 42.5967 124.87 42.1509C125.732 41.6946 126.741 41.4752 127.898 41.4926C128.858 41.5071 129.705 41.6919 130.44 42.0471C131.185 42.4025 131.756 42.896 132.154 43.5276C132.561 44.149 132.759 44.8611 132.747 45.6639L132.745 45.789L130.009 45.7478L130.01 45.6227C130.019 45.0701 129.827 44.6344 129.436 44.3157C129.055 43.9867 128.531 43.8172 127.864 43.8071C126.936 43.7931 126.196 44.0844 125.645 44.6809C125.094 45.2774 124.81 46.097 124.794 47.1395C124.779 48.1925 125.037 49.0306 125.57 49.6539C126.103 50.2668 126.833 50.5802 127.761 50.5942C128.47 50.6049 129.03 50.4882 129.44 50.2441C129.861 50.0001 130.075 49.6645 130.081 49.237L130.084 49.0337L127.973 49.0019L128.008 46.6874L133.935 46.7767L133.9 49.0912L132.774 49.0742L132.771 49.2932C132.759 50.0438 132.546 50.6976 132.131 51.2544C131.716 51.8009 131.131 52.2196 130.376 52.5106C129.621 52.7912 128.738 52.9239 127.726 52.9087ZM136.5 52.8063L133.997 52.7685L134.162 41.8217L136.665 41.8594L136.595 46.504L140.942 46.5695L141.012 41.9249L143.514 41.9626L143.349 52.9095L140.847 52.8718L140.907 48.884L136.56 48.8185L136.5 52.8063ZM149.285 53.2336C148.17 53.2168 147.209 52.9781 146.402 52.5175C145.607 52.0467 145.001 51.3806 144.587 50.5193C144.183 49.6581 143.99 48.628 144.008 47.4291C144.026 46.2406 144.249 45.222 144.679 44.3734C145.12 43.5249 145.745 42.8826 146.554 42.4464C147.374 42.0103 148.342 41.8007 149.457 41.8175C150.364 41.8312 151.175 42.0311 151.889 42.4173C152.613 42.7932 153.173 43.3126 153.57 43.9755C153.967 44.628 154.159 45.3609 154.147 46.1741L154.145 46.2992L151.58 46.2606L151.582 46.1354C151.591 45.562 151.389 45.0897 150.978 44.7186C150.577 44.3371 150.058 44.1416 149.423 44.132C148.568 44.1191 147.896 44.4062 147.407 44.9932C146.929 45.5804 146.682 46.4057 146.666 47.4691C146.65 48.543 146.872 49.3858 147.332 49.9975C147.803 50.599 148.465 50.9062 149.32 50.9191C150.008 50.9295 150.579 50.7712 151.032 50.4443C151.486 50.1071 151.716 49.683 151.724 49.1721L151.727 48.9688L154.276 49.0072L154.273 49.2105C154.261 49.9925 154.037 50.693 153.6 51.3121C153.174 51.9313 152.583 52.4125 151.827 52.7557C151.071 53.0884 150.224 53.2477 149.285 53.2336Z" fill="#032E32"/>
<rect x="104.345" y="29.6658" width="68.3451" height="33.8125" rx="16.9063" transform="rotate(0.863393 104.345 29.6658)" stroke="#EFFFF7" stroke-width="2.68816"/>
<rect x="47.2955" y="73.5521" width="68.3451" height="33.8125" rx="16.9063" transform="rotate(7.61954 47.2955 73.5521)" fill="#3CDF90"/>
<path d="M62.3081 98.4151L62.7083 95.4232L70.2037 90.3507L69.7709 89.6932C68.928 90.2537 67.9949 90.4655 66.9718 90.3287L63.5283 89.8838L63.8373 87.574L72.6735 88.756L72.2774 91.7169L64.7934 96.8224L65.2262 97.4799C66.0691 96.9194 67.0021 96.7076 68.0252 96.8445L71.9338 97.3516L71.6249 99.6614L62.3081 98.4151ZM73.5873 99.9239L71.045 99.5838L75.9071 89.1886L79.7826 89.7071L81.7414 101.015L79.1991 100.675L78.9136 98.9165L74.3249 98.3027L73.5873 99.9239ZM75.345 96.1037L78.5229 96.5289L78.2425 94.8503C77.9745 93.2365 77.8636 92.217 77.91 91.7919L77.1504 91.6903C77.0778 92.154 76.7074 93.1143 76.0391 94.5713L75.345 96.1037ZM81.822 101.026L83.2736 90.1741L87.8622 90.7879C88.9991 90.94 89.8609 91.3393 90.4476 91.9859C91.0358 92.6221 91.2669 93.4104 91.1411 94.3509C91.0347 95.1467 90.6551 95.7429 90.0024 96.1395C89.3511 96.5257 88.5391 96.659 87.5662 96.5394L87.4625 97.3145C88.1239 97.403 88.6799 97.6509 89.1303 98.0583C89.5911 98.4671 89.8558 98.9654 89.9245 99.5532L90.2282 102.119L87.6973 101.812L87.4554 99.4911C87.4025 99.0212 87.2332 98.6356 86.9474 98.3344C86.6733 98.0242 86.3192 97.8401 85.8852 97.782L84.8 97.6368L84.3023 101.357L81.822 101.026ZM87.0447 95.6018C87.4271 95.6529 87.7478 95.5749 88.007 95.3676C88.2662 95.1603 88.4227 94.8551 88.4766 94.4521C88.5278 94.0697 88.4542 93.7548 88.2559 93.5073C88.0679 93.2613 87.7775 93.112 87.3848 93.0594L85.447 92.8002L85.1069 95.3425L87.0447 95.6018Z" fill="#EFFFF7"/>
<rect x="47.2955" y="73.5521" width="68.3451" height="33.8125" rx="16.9063" transform="rotate(7.61954 47.2955 73.5521)" stroke="#EFFFF7" stroke-width="2.68816"/>
<rect x="24.9094" y="212.101" width="67.333" height="33.8125" rx="16.9063" transform="rotate(-12.0072 24.9094 212.101)" fill="#FF459F"/>
<path d="M47.9366 230.363L45.659 219.655L50.1872 218.692C51.3091 218.453 52.2549 218.54 53.0248 218.951C53.7924 219.353 54.275 220.018 54.4724 220.946C54.6394 221.731 54.4821 222.421 54.0006 223.013C53.5169 223.596 52.7968 223.994 51.8403 224.208L52.0029 224.973C52.6557 224.834 53.2626 224.881 53.8237 225.114C54.395 225.344 54.8117 225.724 55.0738 226.255L56.2216 228.569L53.7345 229.13L52.7273 227.026C52.5197 226.601 52.2307 226.295 51.8603 226.107C51.4979 225.907 51.1026 225.852 50.6742 225.943L49.6034 226.171L50.3843 229.843L47.9366 230.363ZM51.0341 223.5C51.4114 223.42 51.6873 223.239 51.8618 222.956C52.0363 222.674 52.0813 222.334 51.9967 221.936C51.9164 221.559 51.7413 221.287 51.4714 221.121C51.2117 220.952 50.888 220.909 50.5005 220.991L48.5882 221.398L49.1218 223.907L51.0341 223.5ZM58.1726 228.186L53.4321 218.001L55.9409 217.468L58.2827 222.614C58.5745 223.234 58.8647 224.223 59.1532 225.579L59.9181 225.416C59.6426 224.121 59.4952 223.103 59.476 222.36L59.3677 216.739L62.5803 216.056L64.7691 221.235C65.0535 221.92 65.3335 222.911 65.6089 224.206L66.3738 224.043C66.0853 222.687 65.9482 221.666 65.9623 220.981L66.007 215.327L68.5159 214.793L68.3305 226.026L64.8273 226.771L62.6996 221.579C62.3877 220.814 62.1004 219.814 61.838 218.58L61.0731 218.743C61.3355 219.977 61.48 221.007 61.5064 221.833L61.6759 227.441L58.1726 228.186ZM73.3337 224.962L70.886 225.482L68.6084 214.774L75.569 213.293L76.0505 215.557L71.5376 216.517L72.0192 218.781L76.2567 217.88L76.7383 220.144L72.5007 221.045L73.3337 224.962Z" fill="#EFFFF7"/>
<rect x="24.9094" y="212.101" width="67.333" height="33.8125" rx="16.9063" transform="rotate(-12.0072 24.9094 212.101)" stroke="#EFFFF7" stroke-width="2.68816"/>
<rect x="23.9633" y="125.19" width="63.9585" height="33.8125" rx="16.9062" transform="rotate(30.1215 23.9633 125.19)" fill="#4845FF"/>
<path d="M28.7911 154.181L34.2852 144.711L36.4497 145.967L35.2018 148.118C34.9977 148.469 34.6592 148.803 34.1864 149.12C33.7136 149.436 33.1427 149.714 32.4738 149.952L32.7153 150.689L40.2106 148.149L43.038 149.789L36.9116 151.84L37.6385 159.314L35.014 157.791L34.4995 152.538L32.18 153.326L30.9556 155.436L28.7911 154.181ZM43.9278 162.963L37.9078 159.47L43.4019 150L49.422 153.493L48.2604 155.495L44.4048 153.258L43.4002 154.99L47.0122 157.085L45.8506 159.088L42.2386 156.992L41.2339 158.724L45.0895 160.96L43.9278 162.963ZM47.2608 165.168C46.1515 164.524 45.4401 163.756 45.1265 162.862C44.8272 161.966 44.9575 161.035 45.5173 160.07L45.6429 159.853L47.8074 161.109L47.6819 161.325C47.4882 161.659 47.4537 161.989 47.5784 162.314C47.7082 162.63 47.9851 162.912 48.4089 163.158C48.7787 163.372 49.1066 163.472 49.3925 163.457C49.6874 163.447 49.9081 163.316 50.0546 163.064C50.1488 162.901 50.1709 162.697 50.1208 162.451C50.0797 162.21 49.9695 161.953 49.7902 161.681L48.4535 159.621C48.0438 158.998 47.8021 158.375 47.7286 157.754C47.6641 157.138 47.7731 156.587 48.0557 156.1C48.5528 155.243 49.2331 154.745 50.0967 154.608C50.9745 154.466 51.9481 154.699 53.0175 155.308C54.0817 155.925 54.7545 156.677 55.0358 157.564C55.3171 158.45 55.1804 159.371 54.6257 160.327L54.4374 160.652L52.2729 159.396L52.3827 159.207C52.5973 158.837 52.661 158.488 52.5739 158.16C52.4868 157.833 52.2584 157.561 51.8886 157.347C51.5369 157.143 51.2252 157.046 50.9535 157.058C50.6909 157.074 50.4915 157.199 50.3555 157.434C50.277 157.569 50.259 157.746 50.3016 157.963C50.3493 158.172 50.452 158.4 50.6094 158.648L52.2001 161.017C52.5549 161.549 52.7465 162.112 52.7749 162.707C52.8033 163.302 52.6632 163.866 52.3544 164.398C51.8469 165.273 51.1426 165.78 50.2415 165.92C49.3547 166.057 48.3611 165.806 47.2608 165.168Z" fill="#EFFFF7"/>
<rect x="23.9633" y="125.19" width="63.9585" height="33.8125" rx="16.9062" transform="rotate(30.1215 23.9633 125.19)" stroke="#EFFFF7" stroke-width="2.68816"/>
</svg>
