<svg width="38" height="37" viewBox="0 0 38 37" fill="none" xmlns="http://www.w3.org/2000/svg">
<rect x="0.918457" y="0.64407" width="36.2953" height="36.2953" rx="18.1476" fill="#032E32"/>
<path fill-rule="evenodd" clip-rule="evenodd" d="M25.3993 24.3858C25.9258 23.5826 26.1221 23.1721 26.5237 22.2707C23.5609 21.1463 23.0879 16.9252 26.015 15.3099C25.1226 14.1855 23.8643 13.534 22.6774 13.534C21.8207 13.534 21.2317 13.7572 20.7052 13.9624C20.259 14.132 19.8574 14.2837 19.3577 14.2837C18.8222 14.2837 18.3492 14.1141 17.8495 13.9356C17.3051 13.7393 16.734 13.534 16.02 13.534C14.6904 13.534 13.2714 14.3461 12.3701 15.7383C11.1029 17.7016 11.326 21.3783 13.3696 24.5196C14.1014 25.644 15.083 26.9023 16.3592 26.9202C16.8946 26.9291 17.2427 26.7685 17.6264 26.5989C18.0637 26.4026 18.5366 26.1884 19.3666 26.1884C20.1965 26.1795 20.6606 26.4026 21.0979 26.5989C21.4727 26.7685 21.8118 26.9291 22.3383 26.9202C23.6323 26.9023 24.6675 25.5102 25.3993 24.3858Z" fill="#FCFF45"/>
<path fill-rule="evenodd" clip-rule="evenodd" d="M22.4899 9.072C22.6327 10.0537 22.2311 11.0264 21.7046 11.7046C21.1424 12.4364 20.1607 13.0075 19.2148 12.9718C19.0452 12.0259 19.4825 11.0531 20.018 10.4017C20.6159 9.68775 21.6243 9.13447 22.4899 9.072Z" fill="#FCFF45"/>
</svg>
