<svg width="147" height="28" viewBox="0 0 147 28" fill="none" xmlns="http://www.w3.org/2000/svg">
<path d="M4.74399 0.44043V15.9368H13.4907V20.325H0V0.44043H4.74399Z" fill="#032E32"/>
<path d="M19.6556 20.7697C18.0743 20.7697 16.6906 20.4436 15.5046 19.7913C14.3384 19.139 13.439 18.21 12.8065 17.0042C12.1739 15.7787 11.8577 14.3555 11.8577 12.7346C11.8577 11.1137 12.164 9.71031 12.7768 8.52431C13.4093 7.31855 14.3087 6.38952 15.4749 5.73722C16.6412 5.08492 18.0051 4.75877 19.5666 4.75877C21.1282 4.75877 22.4921 5.04539 23.6583 5.61862C24.8246 6.19185 25.7141 7.01217 26.3268 8.07957C26.9593 9.14696 27.2756 10.4021 27.2756 11.8451C27.2756 12.7148 27.2064 13.4462 27.0681 14.0392H16.2458C16.4237 15.0473 16.8092 15.838 17.4022 16.4112C18.015 16.9647 18.7661 17.2414 19.6556 17.2414C20.5648 17.2414 21.2863 17.103 21.82 16.8263C22.3735 16.5298 22.6502 16.1345 22.6502 15.6403V15.5513H26.9198V15.6403C26.9198 17.2019 26.2675 18.4472 24.9629 19.3762C23.6583 20.3052 21.8892 20.7697 19.6556 20.7697ZM22.8578 11.3114C22.6601 10.3428 22.2747 9.59171 21.7014 9.05801C21.1282 8.52432 20.4166 8.25747 19.5666 8.25747C18.7167 8.25747 18.0051 8.52432 17.4318 9.05801C16.8586 9.59171 16.4732 10.3428 16.2755 11.3114H22.8578Z" fill="#032E32"/>
<path d="M27.6798 20.325V5.20352H31.4157C31.2971 6.15232 31.0599 7.20984 30.7041 8.37607H31.9494C32.7203 5.96454 34.3906 4.75877 36.9603 4.75877C38.7788 4.75877 40.1031 5.27271 40.9333 6.30057C41.7833 7.30867 42.2083 8.81093 42.2083 10.8074V20.325H37.7312V12.3195C37.7707 11.2521 37.5434 10.4318 37.0492 9.85856C36.5748 9.28533 35.9027 8.99871 35.033 8.99871C34.1237 8.99871 33.4121 9.33475 32.8982 10.0068C32.404 10.6591 32.157 11.5783 32.157 12.7643V20.325H27.6798Z" fill="#032E32"/>
<path d="M53.4069 0.52082H57.8544V20.325H53.9703C53.9703 19.6134 54.2569 18.5559 54.8301 17.1524H53.5255C53.1302 18.378 52.5372 19.2872 51.7465 19.8802C50.9559 20.4732 49.9379 20.7697 48.6926 20.7697C46.6764 20.7697 45.1049 20.068 43.9782 18.6646C42.8516 17.2414 42.2882 15.2647 42.2882 12.7346C42.2882 10.2242 42.8516 8.26735 43.9782 6.86392C45.1049 5.46049 46.6764 4.75877 48.6926 4.75877C49.9379 4.75877 50.9559 5.05527 51.7465 5.64827C52.557 6.24127 53.15 7.14065 53.5255 8.34642H54.8301C54.3755 7.51622 54.0197 6.68602 53.7627 5.85582C53.5255 5.02562 53.4069 4.26461 53.4069 3.57278V0.52082ZM50.1158 16.3815C51.1437 16.3815 51.9442 16.0653 52.5174 15.4327C53.0907 14.7804 53.3773 13.8811 53.3773 12.7346C53.3773 11.6079 53.0907 10.7283 52.5174 10.0958C51.9442 9.46323 51.1437 9.14696 50.1158 9.14696C49.0879 9.14696 48.2874 9.46323 47.7141 10.0958C47.1409 10.7283 46.8543 11.6079 46.8543 12.7346C46.8543 13.8811 47.1409 14.7804 47.7141 15.4327C48.2874 16.0653 49.0879 16.3815 50.1158 16.3815Z" fill="#032E32"/>
<path d="M68.7007 5.35177C70.7565 5.35177 72.3279 6.01396 73.4151 7.33832C74.522 8.66268 75.0755 10.5504 75.0755 13.0015C75.0755 15.492 74.522 17.4094 73.4151 18.7535C72.3081 20.0977 70.7367 20.7697 68.7007 20.7697C67.4752 20.7697 66.4276 20.493 65.5578 19.9395C64.6881 19.3663 64.016 18.5361 63.5416 17.4489H62.8893C63.2254 18.4373 63.3835 19.396 63.3637 20.325H61.2289V0.52082H63.6009V4.87737C63.6009 6.32034 63.344 7.5854 62.83 8.67257H63.512C64.4806 6.4587 66.2101 5.35177 68.7007 5.35177ZM68.1374 18.457C69.5803 18.457 70.6873 17.9925 71.4582 17.0635C72.2291 16.1147 72.6145 14.7607 72.6145 13.0015C72.6145 11.2818 72.2291 9.96728 71.4582 9.05801C70.6873 8.12898 69.5803 7.66447 68.1374 7.66447C66.6944 7.66447 65.5776 8.12898 64.7869 9.05801C64.016 9.96728 63.6306 11.2818 63.6306 13.0015C63.6306 14.7607 64.016 16.1147 64.7869 17.0635C65.5776 17.9925 66.6944 18.457 68.1374 18.457Z" fill="#032E32"/>
<path d="M76.9332 27.5596C75.6879 27.5596 74.7095 27.1939 73.9979 26.4625C73.306 25.7509 72.9601 24.8219 72.9601 23.6754H75.3025C75.3025 24.1301 75.431 24.5254 75.6879 24.8614C75.9647 25.2172 76.3798 25.3951 76.9332 25.3951C77.5262 25.3951 77.9907 25.1678 78.3268 24.7132C78.6826 24.2783 79.0186 23.6557 79.3349 22.8452L80.2837 20.325H78.8012L73.9089 5.79652H76.4292L80.7877 18.9314L85.6799 5.79652H88.0519L81.4104 24.1498C81.0348 25.2172 80.4418 26.0474 79.6314 26.6404C78.8407 27.2532 77.9413 27.5596 76.9332 27.5596Z" fill="#032E32"/>
<path d="M98.55 4.44785C100.374 4.44785 101.703 4.96073 102.536 5.98648C103.389 6.99251 103.815 8.49169 103.815 10.484V19.9821H99.3234V11.9931C99.3631 10.9279 99.135 10.1092 98.6393 9.53717C98.1633 8.96511 97.4891 8.67909 96.6166 8.67909C95.7044 8.67909 94.9905 9.01443 94.4749 9.68511C93.9792 10.3361 93.7313 11.2533 93.7313 12.4369V19.9821H89.2397V0.522217H93.7015V3.26429C93.7015 3.73772 93.5726 4.39854 93.3149 5.24676C93.0769 6.09498 92.7398 7.03196 92.3035 8.05772H93.5231C94.2964 5.65114 95.9721 4.44785 98.55 4.44785Z" fill="#032E32"/>
<path d="M109.317 19.9821H104.826V4.89169H109.317V19.9821Z" fill="#032E32"/>
<path d="M110.344 19.9821V16.0172L117.661 8.3832L116.828 7.5547C116.412 8.04785 115.926 8.43251 115.371 8.70868C114.835 8.98484 114.29 9.12292 113.735 9.12292H110.298V4.89169H123.372V8.76786L115.817 16.4906L116.65 17.3191C117.066 16.8259 117.542 16.4413 118.078 16.1651C118.633 15.889 119.188 15.7509 119.743 15.7509H123.412V19.9821H110.344Z" fill="#032E32"/>
<path d="M131.093 20.4259C129.487 20.4259 128.089 20.1005 126.899 19.4495C125.709 18.7985 124.797 17.8714 124.162 16.6681C123.528 15.4451 123.21 14.0248 123.21 12.4073C123.21 10.7898 123.528 9.38922 124.162 8.20566C124.797 7.00237 125.709 6.07525 126.899 5.42429C128.089 4.77333 129.487 4.44785 131.093 4.44785C132.699 4.44785 134.097 4.77333 135.287 5.42429C136.477 6.07525 137.389 7.00237 138.023 8.20566C138.658 9.38922 138.975 10.7898 138.975 12.4073C138.975 14.0248 138.658 15.4451 138.023 16.6681C137.389 17.8714 136.477 18.7985 135.287 19.4495C134.097 20.1005 132.699 20.4259 131.093 20.4259ZM131.093 16.1355C132.104 16.1355 132.907 15.8002 133.502 15.1295C134.097 14.4588 134.395 13.5514 134.395 12.4073C134.395 11.2829 134.097 10.3953 133.502 9.74429C132.907 9.07361 132.104 8.73827 131.093 8.73827C130.081 8.73827 129.278 9.07361 128.683 9.74429C128.089 10.3953 127.791 11.2829 127.791 12.4073C127.791 13.5514 128.089 14.4588 128.683 15.1295C129.278 15.8002 130.081 16.1355 131.093 16.1355Z" fill="#032E32"/>
<path d="M145.766 5.14292L142.64 2.04468L138.976 5.67641L140.766 7.45072L138.976 9.22503L142.64 12.8568L146.304 9.22503L144.732 7.66712C144.182 8.27441 143.689 8.9329 143.261 9.6344L142.234 8.64358L145.766 5.14292Z" fill="#3CDF90"/>
</svg>
