<svg width="147" height="21" viewBox="0 0 147 21" fill="none" xmlns="http://www.w3.org/2000/svg">
<path d="M8.85994 4.95049C10.5961 4.95049 11.8604 5.43855 12.653 6.41469C13.4645 7.37206 13.8702 8.79872 13.8702 10.6947V19.7333H9.59591V12.1307C9.63365 11.117 9.41663 10.338 8.94486 9.79363C8.49195 9.24924 7.85034 8.97705 7.02001 8.97705C6.15195 8.97705 5.47259 9.29617 4.98194 9.93442C4.51017 10.5539 4.27428 11.4268 4.27428 12.5531V19.7333H0V2.66425H4.24598V3.82418C4.24598 4.2747 4.12331 4.90356 3.87799 5.71075C3.65154 6.51794 3.33073 7.4096 2.91557 8.38574H4.07614C4.81211 6.09557 6.40671 4.95049 8.85994 4.95049Z" fill="#032E32"/>
<path d="M19.1062 19.7333H14.8319V5.37285H19.1062V19.7333Z" fill="#032E32"/>
<path d="M20.0833 19.7333V15.9602L27.0466 8.69547L26.2541 7.90705C25.8578 8.37635 25.3954 8.7424 24.8671 9.00521C24.3575 9.26801 23.8386 9.39942 23.3102 9.39942H20.0399V5.37285H32.4815V9.06153L25.2916 16.4107L26.0842 17.1991C26.4805 16.7298 26.9334 16.3638 27.4429 16.101C27.9713 15.8382 28.4997 15.7068 29.0281 15.7068H32.5198V19.7333H20.0833Z" fill="#032E32"/>
<path d="M39.8286 20.1557C38.3 20.1557 36.9696 19.846 35.8374 19.2265C34.7051 18.607 33.837 17.7247 33.2332 16.5797C32.6293 15.4158 32.3274 14.0642 32.3274 12.5249C32.3274 10.9856 32.6293 9.65284 33.2332 8.52653C33.837 7.38144 34.7051 6.49917 35.8374 5.87969C36.9696 5.26022 38.3 4.95049 39.8286 4.95049C41.3571 4.95049 42.6875 5.26022 43.8198 5.87969C44.9521 6.49917 45.8201 7.38144 46.424 8.52653C47.0279 9.65284 47.3298 10.9856 47.3298 12.5249C47.3298 14.0642 47.0279 15.4158 46.424 16.5797C45.8201 17.7247 44.9521 18.607 43.8198 19.2265C42.6875 19.846 41.3571 20.1557 39.8286 20.1557ZM39.8286 16.0728C40.791 16.0728 41.5553 15.7537 42.1214 15.1155C42.6875 14.4772 42.9706 13.6137 42.9706 12.5249C42.9706 11.4549 42.6875 10.6102 42.1214 9.99073C41.5553 9.35249 40.791 9.03337 39.8286 9.03337C38.8662 9.03337 38.1019 9.35249 37.5358 9.99073C36.9696 10.6102 36.6866 11.4549 36.6866 12.5249C36.6866 13.6137 36.9696 14.4772 37.5358 15.1155C38.1019 15.7537 38.8662 16.0728 39.8286 16.0728Z" fill="#032E32"/>
<path d="M53.7916 5.61263L50.8169 2.66425L47.3301 6.1203L49.0336 7.80879L47.3301 9.49728L50.8169 12.9533L54.3038 9.49728L52.808 8.01473C52.2843 8.59264 51.8155 9.21927 51.4086 9.88685L50.4306 8.94396L53.7916 5.61263Z" fill="#3CDF90"/>
<path d="M67.836 6.09902C69.7734 6.09902 71.2544 6.72308 72.279 7.9712C73.3222 9.21931 73.8438 10.9983 73.8438 13.3083C73.8438 15.6555 73.3222 17.4625 72.279 18.7292C71.2358 19.996 69.7548 20.6293 67.836 20.6293C66.6811 20.6293 65.6938 20.3685 64.8741 19.8469C64.0544 19.3067 63.4211 18.5243 62.974 17.4997H62.3592C62.6759 18.4312 62.825 19.3347 62.8063 20.2102H60.7944V2.67648H63.0299V5.65194C63.0299 7.01183 62.7877 8.20406 62.3034 9.22863H62.946C63.8588 7.14223 65.4888 6.09902 67.836 6.09902ZM67.3051 18.4498C68.665 18.4498 69.7082 18.012 70.4347 17.1365C71.1613 16.2423 71.5245 14.9662 71.5245 13.3083C71.5245 11.6876 71.1613 10.4488 70.4347 9.59189C69.7082 8.71634 68.665 8.27857 67.3051 8.27857C65.9452 8.27857 64.8927 8.71634 64.1476 9.59189C63.4211 10.4488 63.0578 11.6876 63.0578 13.3083C63.0578 14.9662 63.4211 16.2423 64.1476 17.1365C64.8927 18.012 65.9452 18.4498 67.3051 18.4498Z" fill="#032E32"/>
<path d="M79.3948 20.6293C77.83 20.6293 76.6098 20.1077 75.7343 19.0645C74.8587 18.0213 74.421 16.5683 74.421 14.7054V6.51817H76.6843V14.426C76.6843 15.6928 76.9731 16.6801 77.5506 17.388C78.1467 18.0958 78.957 18.4498 79.9816 18.4498C81.0807 18.4498 81.9376 18.1145 82.5524 17.4438C83.1857 16.7546 83.5024 15.8045 83.5024 14.5937V6.51817H85.7658V20.2102H83.8098C83.7912 19.3347 83.9402 18.4312 84.2569 17.4997H83.6701C83.3534 18.5243 82.8318 19.3067 82.1053 19.8469C81.3974 20.3685 80.4939 20.6293 79.3948 20.6293Z" fill="#032E32"/>
<path d="M91.7862 20.6293C90.0723 20.6293 88.7404 20.2288 87.7903 19.4278C86.8589 18.6081 86.3932 17.4625 86.3932 15.9908V15.1805H88.6566V15.9908C88.6566 16.7546 88.9267 17.36 89.4669 17.8071C90.0258 18.2356 90.7989 18.4498 91.7862 18.4498C92.6431 18.4498 93.3137 18.3008 93.7981 18.0027C94.301 17.7046 94.5525 17.2948 94.5525 16.7732C94.5525 16.3634 94.3942 15.9815 94.0775 15.6276C93.7794 15.2736 93.3603 14.9942 92.8201 14.7893L89.6346 13.5039C88.8149 13.1686 88.1536 12.6842 87.6506 12.0509C87.1663 11.3989 86.9241 10.691 86.9241 9.9272C86.9241 8.73497 87.3433 7.80354 88.1815 7.13291C89.0385 6.44365 90.1934 6.09902 91.6465 6.09902C93.2672 6.09902 94.5246 6.50885 95.4188 7.32851C96.3316 8.12954 96.788 9.26589 96.788 10.7375V11.5479H94.5246V10.7375C94.5246 9.97377 94.2731 9.37766 93.7701 8.9492C93.2671 8.50211 92.5593 8.27857 91.6465 8.27857C90.9386 8.27857 90.3611 8.4276 89.914 8.72566C89.4669 9.02372 89.2434 9.42423 89.2434 9.9272C89.2434 10.2811 89.3738 10.6071 89.6346 10.9052C89.914 11.1846 90.2959 11.4268 90.7802 11.6317L93.7142 12.8053C94.7015 13.1965 95.4746 13.7461 96.0335 14.454C96.5924 15.1432 96.8718 15.9163 96.8718 16.7732C96.8718 17.9841 96.4247 18.9341 95.5305 19.6234C94.6364 20.294 93.3882 20.6293 91.7862 20.6293Z" fill="#032E32"/>
<path d="M99.19 3.69593C98.7242 3.69593 98.3237 3.53759 97.9884 3.2209C97.6717 2.88559 97.5134 2.48507 97.5134 2.01936C97.5134 1.57227 97.6717 1.19039 97.9884 0.8737C98.3237 0.538385 98.7242 0.370728 99.19 0.370728C99.637 0.370728 100.019 0.538385 100.336 0.8737C100.671 1.19039 100.839 1.57227 100.839 2.01936C100.839 2.48507 100.671 2.88559 100.336 3.2209C100.019 3.53759 99.637 3.69593 99.19 3.69593ZM100.308 20.2102H98.0443V6.51817H100.308V20.2102Z" fill="#032E32"/>
<path d="M102.175 20.2102V6.51817H104.131C104.15 7.39371 104.001 8.2972 103.684 9.22863H104.355C104.97 7.14223 106.376 6.09902 108.574 6.09902C110.158 6.09902 111.359 6.58337 112.179 7.55205C113.017 8.52074 113.436 9.91789 113.436 11.7435V20.2102H111.173V12.0229C111.173 10.8121 110.884 9.88995 110.307 9.25657C109.748 8.60457 108.928 8.27857 107.848 8.27857C106.804 8.27857 105.975 8.65114 105.361 9.39629C104.746 10.1414 104.439 11.1474 104.439 12.4141V20.2102H102.175Z" fill="#032E32"/>
<path d="M121.409 20.6293C119.118 20.6293 117.32 19.9773 116.016 18.6733C114.731 17.3693 114.088 15.5903 114.088 13.3362C114.088 11.8646 114.358 10.5885 114.899 9.50806C115.458 8.40897 116.24 7.57068 117.246 6.9932C118.27 6.39708 119.453 6.09902 120.795 6.09902C122.061 6.09902 123.207 6.38777 124.232 6.96525C125.256 7.52411 126.057 8.31583 126.635 9.3404C127.212 10.3463 127.501 11.492 127.501 12.7774C127.501 13.6716 127.436 14.2956 127.305 14.6496H116.575C116.799 15.8418 117.33 16.7732 118.168 17.4438C119.006 18.1145 120.087 18.4498 121.409 18.4498C122.378 18.4498 123.188 18.2635 123.84 17.8909C124.511 17.4997 124.846 17.0061 124.846 16.41V16.382H127.221V16.41C127.221 17.211 126.961 17.9375 126.439 18.5895C125.936 19.2229 125.238 19.7258 124.343 20.0984C123.468 20.4524 122.49 20.6293 121.409 20.6293ZM125.098 12.6097C124.967 11.2685 124.52 10.2159 123.757 9.45217C122.993 8.66977 122.005 8.27857 120.795 8.27857C119.584 8.27857 118.596 8.66977 117.833 9.45217C117.069 10.2159 116.622 11.2685 116.491 12.6097H125.098Z" fill="#032E32"/>
<path d="M131.856 20.6293C130.142 20.6293 128.81 20.2288 127.86 19.4278C126.929 18.6081 126.463 17.4625 126.463 15.9908V15.1805H128.726V15.9908C128.726 16.7546 128.996 17.36 129.537 17.8071C130.095 18.2356 130.869 18.4498 131.856 18.4498C132.713 18.4498 133.383 18.3008 133.868 18.0027C134.371 17.7046 134.622 17.2948 134.622 16.7732C134.622 16.3634 134.464 15.9815 134.147 15.6276C133.849 15.2736 133.43 14.9942 132.89 14.7893L129.704 13.5039C128.885 13.1686 128.223 12.6842 127.72 12.0509C127.236 11.3989 126.994 10.691 126.994 9.9272C126.994 8.73497 127.413 7.80354 128.251 7.13291C129.108 6.44365 130.263 6.09902 131.716 6.09902C133.337 6.09902 134.594 6.50885 135.488 7.32851C136.401 8.12954 136.858 9.26589 136.858 10.7375V11.5479H134.594V10.7375C134.594 9.97377 134.343 9.37766 133.84 8.9492C133.337 8.50211 132.629 8.27857 131.716 8.27857C131.008 8.27857 130.431 8.4276 129.984 8.72566C129.537 9.02372 129.313 9.42423 129.313 9.9272C129.313 10.2811 129.443 10.6071 129.704 10.9052C129.984 11.1846 130.366 11.4268 130.85 11.6317L133.784 12.8053C134.771 13.1965 135.544 13.7461 136.103 14.454C136.662 15.1432 136.941 15.9163 136.941 16.7732C136.941 17.9841 136.494 18.9341 135.6 19.6234C134.706 20.294 133.458 20.6293 131.856 20.6293Z" fill="#032E32"/>
<path d="M141.914 20.6293C140.2 20.6293 138.868 20.2288 137.918 19.4278C136.987 18.6081 136.521 17.4625 136.521 15.9908V15.1805H138.785V15.9908C138.785 16.7546 139.055 17.36 139.595 17.8071C140.154 18.2356 140.927 18.4498 141.914 18.4498C142.771 18.4498 143.442 18.3008 143.926 18.0027C144.429 17.7046 144.681 17.2948 144.681 16.7732C144.681 16.3634 144.522 15.9815 144.206 15.6276C143.907 15.2736 143.488 14.9942 142.948 14.7893L139.763 13.5039C138.943 13.1686 138.282 12.6842 137.779 12.0509C137.294 11.3989 137.052 10.691 137.052 9.9272C137.052 8.73497 137.471 7.80354 138.31 7.13291C139.167 6.44365 140.321 6.09902 141.775 6.09902C143.395 6.09902 144.653 6.50885 145.547 7.32851C146.46 8.12954 146.916 9.26589 146.916 10.7375V11.5479H144.653V10.7375C144.653 9.97377 144.401 9.37766 143.898 8.9492C143.395 8.50211 142.687 8.27857 141.775 8.27857C141.067 8.27857 140.489 8.4276 140.042 8.72566C139.595 9.02372 139.371 9.42423 139.371 9.9272C139.371 10.2811 139.502 10.6071 139.763 10.9052C140.042 11.1846 140.424 11.4268 140.908 11.6317L143.842 12.8053C144.83 13.1965 145.603 13.7461 146.162 14.454C146.72 15.1432 147 15.9163 147 16.7732C147 17.9841 146.553 18.9341 145.659 19.6234C144.764 20.294 143.516 20.6293 141.914 20.6293Z" fill="#032E32"/>
</svg>
