<svg width="75" height="25" viewBox="0 0 75 25" fill="none" xmlns="http://www.w3.org/2000/svg">
<path d="M12.2367 3.57864C14.6345 3.57864 16.3807 4.25272 17.4754 5.60089C18.5961 6.92313 19.1565 8.89353 19.1565 11.5121V23.9956H13.2532V13.4955C13.3053 12.0954 13.0056 11.0195 12.354 10.2676C11.7285 9.51576 10.8423 9.13983 9.69552 9.13983C8.49661 9.13983 7.55834 9.58058 6.88069 10.4621C6.22911 11.3176 5.90332 12.5232 5.90332 14.0788V23.9956H0V0.421051H5.86423V2.02306C5.86423 2.64529 5.69482 3.51382 5.35599 4.62865C5.04324 5.74348 4.60016 6.97498 4.02677 8.32315H5.62966C6.64612 5.16014 8.84847 3.57864 12.2367 3.57864Z" fill="#032E32"/>
<path d="M26.3881 23.9956H20.4848V4.16198H26.3881V23.9956Z" fill="#032E32"/>
<path d="M27.7375 23.9956V18.7844L37.3548 8.75093L36.2602 7.66203C35.7128 8.31019 35.0743 8.81575 34.3445 9.17872C33.6408 9.54169 32.9241 9.72317 32.1943 9.72317H27.6776V4.16198H44.861V9.2565L34.9309 19.4066L36.0256 20.4956C36.5729 19.8474 37.1984 19.3418 37.9022 18.9789C38.6319 18.6159 39.3617 18.4344 40.0915 18.4344H44.9139V23.9956H27.7375Z" fill="#032E32"/>
<path d="M55.0083 24.5789C52.8972 24.5789 51.0597 24.1512 49.4959 23.2956C47.9321 22.44 46.7332 21.2215 45.8992 19.64C45.0652 18.0326 44.6482 16.1659 44.6482 14.0399C44.6482 11.9139 45.0652 10.0732 45.8992 8.5176C46.7332 6.93609 47.9321 5.71756 49.4959 4.86199C51.0597 4.00642 52.8972 3.57864 55.0083 3.57864C57.1194 3.57864 58.9569 4.00642 60.5207 4.86199C62.0845 5.71756 63.2834 6.93609 64.1174 8.5176C64.9514 10.0732 65.3684 11.9139 65.3684 14.0399C65.3684 16.1659 64.9514 18.0326 64.1174 19.64C63.2834 21.2215 62.0845 22.44 60.5207 23.2956C58.9569 24.1512 57.1194 24.5789 55.0083 24.5789ZM55.0083 18.94C56.3375 18.94 57.3931 18.4992 58.175 17.6177C58.9569 16.7362 59.3478 15.5436 59.3478 14.0399C59.3478 12.5621 58.9569 11.3954 58.175 10.5399C57.3931 9.65836 56.3375 9.21761 55.0083 9.21761C53.6791 9.21761 52.6235 9.65836 51.8416 10.5399C51.0597 11.3954 50.6688 12.5621 50.6688 14.0399C50.6688 15.5436 51.0597 16.7362 51.8416 17.6177C52.6235 18.4992 53.6791 18.94 55.0083 18.94Z" fill="#032E32"/>
<path d="M74.2926 4.49314L70.1842 0.421051L65.3684 5.1943L67.7212 7.52631L65.3684 9.85832L70.1842 14.6316L75 9.85832L72.9342 7.81074C72.2108 8.60892 71.5633 9.47437 71.0013 10.3964L69.6506 9.09412L74.2926 4.49314Z" fill="#3CDF90"/>
</svg>
