<svg width="321" height="130" viewBox="0 0 321 130" fill="none" xmlns="http://www.w3.org/2000/svg">
<rect width="125" height="38" rx="19" fill="white" fill-opacity="0.1"/>
<path d="M25.152 25.192C22.624 25.192 20.88 23.256 20.88 20.696C20.88 18.136 22.624 16.232 25.152 16.232C26.736 16.232 28.16 17.16 28.72 18.424L27.632 18.984C27.2 18.072 26.288 17.432 25.152 17.432C23.456 17.432 22.16 18.824 22.16 20.712C22.16 22.584 23.456 23.992 25.152 23.992C26.288 23.992 27.184 23.368 27.632 22.408L28.72 23C28.16 24.248 26.736 25.192 25.152 25.192ZM30.3458 25V12.888H31.5458V17.48C32.0578 16.696 32.9538 16.232 34.0098 16.232C35.8178 16.232 37.2258 17.608 37.2258 19.432V25H36.0258V19.896C36.0258 18.344 35.0818 17.432 33.8018 17.432C32.5218 17.432 31.5458 18.36 31.5458 19.896V25H30.3458ZM41.5176 25.192C39.8856 25.192 38.6856 24.184 38.6856 22.776C38.6856 21.448 39.5176 20.392 41.4216 20.072L44.5256 19.56V19.112C44.5256 18.088 43.6936 17.384 42.5096 17.384C41.4536 17.384 40.6376 17.96 40.2536 18.792L39.1656 18.2C39.6456 17.112 41.0696 16.232 42.5096 16.232C44.3976 16.232 45.7256 17.416 45.7256 19.112V25H44.5256V23.768C43.9656 24.6 42.8456 25.192 41.5176 25.192ZM39.9656 22.728C39.9656 23.496 40.6376 24.104 41.5976 24.104C43.3416 24.104 44.5256 22.872 44.5256 21.288V20.648L41.7096 21.112C40.4616 21.32 39.9656 21.944 39.9656 22.728ZM47.7139 25V16.424H48.9139V17.352C49.3619 16.696 50.1299 16.312 51.1699 16.312H51.7139V17.512H50.9619C49.7299 17.512 48.9139 18.312 48.9139 19.72V25H47.7139ZM52.6401 25V12.888H53.8401V25H52.6401ZM59.7204 25.192C57.3204 25.192 55.4644 23.288 55.4644 20.68C55.4644 18.104 57.2404 16.232 59.5924 16.232C62.0564 16.232 63.5444 18.264 63.5444 20.312C63.5444 20.52 63.5284 20.808 63.4804 21.08H56.7284C56.7764 22.92 58.2004 24.072 59.7204 24.072C60.9684 24.072 61.8004 23.4 62.3444 22.504L63.3684 23.048C62.8404 24.216 61.4644 25.192 59.7204 25.192ZM59.5924 17.352C58.2004 17.352 56.9524 18.344 56.7604 19.96H62.2484C62.2324 18.424 61.0164 17.352 59.5924 17.352ZM68.1561 25.192C66.5081 25.192 65.1961 24.296 64.6521 22.872L65.6601 22.392C66.1561 23.448 67.0841 24.104 68.1561 24.104C69.1801 24.104 69.9801 23.56 69.9801 22.744C69.9801 21.864 69.0521 21.56 68.5401 21.416L67.3081 21.064C65.7241 20.616 65.0681 19.784 65.0681 18.712C65.0681 17.208 66.3481 16.232 67.9481 16.232C69.3881 16.232 70.6841 17.032 71.1801 18.376L70.1561 18.856C69.7241 17.896 68.8761 17.32 67.9001 17.32C66.9401 17.32 66.3161 17.864 66.3161 18.616C66.3161 19.496 67.1321 19.752 67.5801 19.88L69.0041 20.296C70.3801 20.696 71.2121 21.592 71.2121 22.744C71.2121 24.168 69.9481 25.192 68.1561 25.192ZM73.2567 25V23.24H74.5367V25H73.2567ZM76.9389 25V12.888H78.1389V17.48C78.6509 16.696 79.5469 16.232 80.6029 16.232C82.4109 16.232 83.8189 17.608 83.8189 19.432V25H82.6189V19.896C82.6189 18.344 81.6749 17.432 80.3949 17.432C79.1149 17.432 78.1389 18.36 78.1389 19.896V25H76.9389ZM85.6308 14.84V13.08H86.8308V14.84H85.6308ZM85.6308 25V16.424H86.8308V25H85.6308ZM87.927 25V23.96L92.743 17.624H88.199V16.424H94.375V17.464L89.575 23.8H94.407V25H87.927ZM99.5305 25.192C97.0985 25.192 95.1625 23.288 95.1625 20.696C95.1625 18.136 97.0345 16.232 99.5305 16.232C102.011 16.232 103.883 18.12 103.883 20.696C103.883 23.336 101.915 25.192 99.5305 25.192ZM99.5305 23.992C101.243 23.992 102.603 22.568 102.603 20.696C102.603 18.84 101.243 17.432 99.5305 17.432C97.8025 17.432 96.4425 18.84 96.4425 20.696C96.4425 22.568 97.8025 23.992 99.5305 23.992Z" fill="white"/>
<rect x="132" width="94" height="38" rx="19" fill="white" fill-opacity="0.1"/>
<path d="M153.232 14.84V13.08H154.432V14.84H153.232ZM153.232 25V16.424H154.432V25H153.232ZM156.408 25V12.888H157.608V20.776L161.912 16.424H163.464L160.104 19.864L163.768 25H162.328L159.24 20.744L157.608 22.424V25H156.408ZM168.442 25.192C166.042 25.192 164.186 23.288 164.186 20.68C164.186 18.104 165.962 16.232 168.314 16.232C170.778 16.232 172.266 18.264 172.266 20.312C172.266 20.52 172.25 20.808 172.202 21.08H165.45C165.498 22.92 166.922 24.072 168.442 24.072C169.69 24.072 170.522 23.4 171.066 22.504L172.09 23.048C171.562 24.216 170.186 25.192 168.442 25.192ZM168.314 17.352C166.922 17.352 165.674 18.344 165.482 19.96H170.97C170.954 18.424 169.738 17.352 168.314 17.352ZM174.317 25V23.24H175.597V25H174.317ZM178 25V12.888H179.2V17.48C179.712 16.696 180.608 16.232 181.664 16.232C183.472 16.232 184.88 17.608 184.88 19.432V25H183.68V19.896C183.68 18.344 182.736 17.432 181.456 17.432C180.176 17.432 179.2 18.36 179.2 19.896V25H178ZM186.691 14.84V13.08H187.891V14.84H186.691ZM186.691 25V16.424H187.891V25H186.691ZM188.988 25V23.96L193.804 17.624H189.26V16.424H195.436V17.464L190.636 23.8H195.468V25H188.988ZM200.591 25.192C198.159 25.192 196.223 23.288 196.223 20.696C196.223 18.136 198.095 16.232 200.591 16.232C203.071 16.232 204.943 18.12 204.943 20.696C204.943 23.336 202.975 25.192 200.591 25.192ZM200.591 23.992C202.303 23.992 203.663 22.568 203.663 20.696C203.663 18.84 202.303 17.432 200.591 17.432C198.863 17.432 197.503 18.84 197.503 20.696C197.503 22.568 198.863 23.992 200.591 23.992Z" fill="white"/>
<rect x="233" width="125" height="38" rx="19" fill="white" fill-opacity="0.1"/>
<path d="M258.152 25.192C255.624 25.192 253.88 23.256 253.88 20.696C253.88 18.136 255.624 16.232 258.152 16.232C259.736 16.232 261.16 17.16 261.72 18.424L260.632 18.984C260.2 18.072 259.288 17.432 258.152 17.432C256.456 17.432 255.16 18.824 255.16 20.712C255.16 22.584 256.456 23.992 258.152 23.992C259.288 23.992 260.184 23.368 260.632 22.408L261.72 23C261.16 24.248 259.736 25.192 258.152 25.192ZM263.346 25V12.888H264.546V17.48C265.058 16.696 265.954 16.232 267.01 16.232C268.818 16.232 270.226 17.608 270.226 19.432V25H269.026V19.896C269.026 18.344 268.082 17.432 266.802 17.432C265.522 17.432 264.546 18.36 264.546 19.896V25H263.346ZM274.518 25.192C272.886 25.192 271.686 24.184 271.686 22.776C271.686 21.448 272.518 20.392 274.422 20.072L277.526 19.56V19.112C277.526 18.088 276.694 17.384 275.51 17.384C274.454 17.384 273.638 17.96 273.254 18.792L272.166 18.2C272.646 17.112 274.07 16.232 275.51 16.232C277.398 16.232 278.726 17.416 278.726 19.112V25H277.526V23.768C276.966 24.6 275.846 25.192 274.518 25.192ZM272.966 22.728C272.966 23.496 273.638 24.104 274.598 24.104C276.342 24.104 277.526 22.872 277.526 21.288V20.648L274.71 21.112C273.462 21.32 272.966 21.944 272.966 22.728ZM280.714 25V16.424H281.914V17.352C282.362 16.696 283.13 16.312 284.17 16.312H284.714V17.512H283.962C282.73 17.512 281.914 18.312 281.914 19.72V25H280.714ZM285.64 25V12.888H286.84V25H285.64ZM292.72 25.192C290.32 25.192 288.464 23.288 288.464 20.68C288.464 18.104 290.24 16.232 292.592 16.232C295.056 16.232 296.544 18.264 296.544 20.312C296.544 20.52 296.528 20.808 296.48 21.08H289.728C289.776 22.92 291.2 24.072 292.72 24.072C293.968 24.072 294.8 23.4 295.344 22.504L296.368 23.048C295.84 24.216 294.464 25.192 292.72 25.192ZM292.592 17.352C291.2 17.352 289.952 18.344 289.76 19.96H295.248C295.232 18.424 294.016 17.352 292.592 17.352ZM301.156 25.192C299.508 25.192 298.196 24.296 297.652 22.872L298.66 22.392C299.156 23.448 300.084 24.104 301.156 24.104C302.18 24.104 302.98 23.56 302.98 22.744C302.98 21.864 302.052 21.56 301.54 21.416L300.308 21.064C298.724 20.616 298.068 19.784 298.068 18.712C298.068 17.208 299.348 16.232 300.948 16.232C302.388 16.232 303.684 17.032 304.18 18.376L303.156 18.856C302.724 17.896 301.876 17.32 300.9 17.32C299.94 17.32 299.316 17.864 299.316 18.616C299.316 19.496 300.132 19.752 300.58 19.88L302.004 20.296C303.38 20.696 304.212 21.592 304.212 22.744C304.212 24.168 302.948 25.192 301.156 25.192ZM306.257 25V23.24H307.537V25H306.257ZM309.939 25V12.888H311.139V17.48C311.651 16.696 312.547 16.232 313.603 16.232C315.411 16.232 316.819 17.608 316.819 19.432V25H315.619V19.896C315.619 18.344 314.675 17.432 313.395 17.432C312.115 17.432 311.139 18.36 311.139 19.896V25H309.939ZM318.631 14.84V13.08H319.831V14.84H318.631ZM318.631 25V16.424H319.831V25H318.631ZM320.927 25V23.96L325.743 17.624H321.199V16.424H327.375V17.464L322.575 23.8H327.407V25H320.927ZM332.531 25.192C330.099 25.192 328.163 23.288 328.163 20.696C328.163 18.136 330.035 16.232 332.531 16.232C335.011 16.232 336.883 18.12 336.883 20.696C336.883 23.336 334.915 25.192 332.531 25.192ZM332.531 23.992C334.243 23.992 335.603 22.568 335.603 20.696C335.603 18.84 334.243 17.432 332.531 17.432C330.803 17.432 329.443 18.84 329.443 20.696C329.443 22.568 330.803 23.992 332.531 23.992Z" fill="white"/>
<rect y="46" width="109" height="38" rx="19" fill="white" fill-opacity="0.1"/>
<path d="M21.232 60.84V59.08H22.432V60.84H21.232ZM19.632 74.52C19.488 74.52 19.152 74.504 18.992 74.456V73.352C19.216 73.384 19.456 73.4 19.664 73.4C20.528 73.4 21.232 72.872 21.232 71.8V62.424H22.432V71.8C22.432 73.576 21.152 74.52 19.632 74.52ZM27.4483 71.192C25.6403 71.192 24.2322 69.816 24.2322 67.832V62.424H25.4323V67.688C25.4323 69.08 26.3443 69.992 27.6562 69.992C28.9683 69.992 29.9123 69.064 29.9123 67.528V62.424H31.1123V71H29.9123V69.944C29.4003 70.728 28.5043 71.192 27.4483 71.192ZM33.1001 71V58.888H34.3001V71H33.1001ZM36.2764 60.84V59.08H37.4764V60.84H36.2764ZM36.2764 71V62.424H37.4764V71H36.2764ZM41.9326 71.192C40.3006 71.192 39.1006 70.184 39.1006 68.776C39.1006 67.448 39.9326 66.392 41.8366 66.072L44.9406 65.56V65.112C44.9406 64.088 44.1086 63.384 42.9246 63.384C41.8686 63.384 41.0526 63.96 40.6686 64.792L39.5806 64.2C40.0606 63.112 41.4846 62.232 42.9246 62.232C44.8126 62.232 46.1406 63.416 46.1406 65.112V71H44.9406V69.768C44.3806 70.6 43.2606 71.192 41.9326 71.192ZM40.3806 68.728C40.3806 69.496 41.0526 70.104 42.0126 70.104C43.7566 70.104 44.9406 68.872 44.9406 67.288V66.648L42.1246 67.112C40.8766 67.32 40.3806 67.944 40.3806 68.728ZM48.1289 71V62.424H49.3289V63.48C49.8409 62.696 50.7369 62.232 51.7929 62.232C53.6009 62.232 55.0089 63.608 55.0089 65.432V71H53.8089V65.896C53.8089 64.344 52.8969 63.432 51.5849 63.432C50.2729 63.432 49.3289 64.36 49.3289 65.896V71H48.1289ZM57.2367 71V69.24H58.5167V71H57.2367ZM60.9189 71V58.888H62.1189V63.48C62.6309 62.696 63.5269 62.232 64.5829 62.232C66.3909 62.232 67.7989 63.608 67.7989 65.432V71H66.5989V65.896C66.5989 64.344 65.6549 63.432 64.3749 63.432C63.0949 63.432 62.1189 64.36 62.1189 65.896V71H60.9189ZM69.6107 60.84V59.08H70.8108V60.84H69.6107ZM69.6107 71V62.424H70.8108V71H69.6107ZM71.907 71V69.96L76.723 63.624H72.179V62.424H78.355V63.464L73.555 69.8H78.387V71H71.907ZM83.5105 71.192C81.0785 71.192 79.1425 69.288 79.1425 66.696C79.1425 64.136 81.0145 62.232 83.5105 62.232C85.9905 62.232 87.8625 64.12 87.8625 66.696C87.8625 69.336 85.8945 71.192 83.5105 71.192ZM83.5105 69.992C85.2225 69.992 86.5825 68.568 86.5825 66.696C86.5825 64.84 85.2225 63.432 83.5105 63.432C81.7825 63.432 80.4225 64.84 80.4225 66.696C80.4225 68.568 81.7825 69.992 83.5105 69.992Z" fill="white"/>
<rect x="116" y="46" width="120" height="38" rx="19" fill="white" fill-opacity="0.1"/>
<path d="M139.52 71L136.176 62.424H137.52L140.128 69.368L142.736 62.424H144.096L140.72 71H139.52ZM147.185 71.192C145.553 71.192 144.353 70.184 144.353 68.776C144.353 67.448 145.185 66.392 147.089 66.072L150.193 65.56V65.112C150.193 64.088 149.361 63.384 148.177 63.384C147.121 63.384 146.305 63.96 145.921 64.792L144.833 64.2C145.313 63.112 146.737 62.232 148.177 62.232C150.065 62.232 151.393 63.416 151.393 65.112V71H150.193V69.768C149.633 70.6 148.513 71.192 147.185 71.192ZM145.633 68.728C145.633 69.496 146.305 70.104 147.265 70.104C149.009 70.104 150.193 68.872 150.193 67.288V66.648L147.377 67.112C146.129 67.32 145.633 67.944 145.633 68.728ZM153.381 71V58.888H154.581V71H153.381ZM160.462 71.192C158.062 71.192 156.206 69.288 156.206 66.68C156.206 64.104 157.982 62.232 160.334 62.232C162.798 62.232 164.286 64.264 164.286 66.312C164.286 66.52 164.27 66.808 164.222 67.08H157.47C157.518 68.92 158.942 70.072 160.462 70.072C161.71 70.072 162.542 69.4 163.086 68.504L164.11 69.048C163.582 70.216 162.206 71.192 160.462 71.192ZM160.334 63.352C158.942 63.352 157.694 64.344 157.502 65.96H162.99C162.974 64.424 161.758 63.352 160.334 63.352ZM165.921 71V62.424H167.121V63.352C167.569 62.696 168.337 62.312 169.377 62.312H169.921V63.512H169.169C167.937 63.512 167.121 64.312 167.121 65.72V71H165.921ZM170.848 60.84V59.08H172.048V60.84H170.848ZM170.848 71V62.424H172.048V71H170.848ZM177.928 71.192C175.528 71.192 173.672 69.288 173.672 66.68C173.672 64.104 175.448 62.232 177.8 62.232C180.264 62.232 181.752 64.264 181.752 66.312C181.752 66.52 181.736 66.808 181.688 67.08H174.936C174.984 68.92 176.408 70.072 177.928 70.072C179.176 70.072 180.008 69.4 180.552 68.504L181.576 69.048C181.048 70.216 179.672 71.192 177.928 71.192ZM177.8 63.352C176.408 63.352 175.16 64.344 174.968 65.96H180.456C180.44 64.424 179.224 63.352 177.8 63.352ZM183.804 71V69.24H185.084V71H183.804ZM187.486 71V58.888H188.686V63.48C189.198 62.696 190.094 62.232 191.15 62.232C192.958 62.232 194.366 63.608 194.366 65.432V71H193.166V65.896C193.166 64.344 192.222 63.432 190.942 63.432C189.662 63.432 188.686 64.36 188.686 65.896V71H187.486ZM196.178 60.84V59.08H197.378V60.84H196.178ZM196.178 71V62.424H197.378V71H196.178ZM198.474 71V69.96L203.29 63.624H198.746V62.424H204.922V63.464L200.122 69.8H204.954V71H198.474ZM210.077 71.192C207.645 71.192 205.709 69.288 205.709 66.696C205.709 64.136 207.581 62.232 210.077 62.232C212.557 62.232 214.429 64.12 214.429 66.696C214.429 69.336 212.461 71.192 210.077 71.192ZM210.077 69.992C211.789 69.992 213.149 68.568 213.149 66.696C213.149 64.84 211.789 63.432 210.077 63.432C208.349 63.432 206.989 64.84 206.989 66.696C206.989 68.568 208.349 69.992 210.077 69.992Z" fill="white"/>
<rect x="243" y="46" width="125" height="38" rx="19" fill="white" fill-opacity="0.1"/>
<path d="M268.152 71.192C265.624 71.192 263.88 69.256 263.88 66.696C263.88 64.136 265.624 62.232 268.152 62.232C269.736 62.232 271.16 63.16 271.72 64.424L270.632 64.984C270.2 64.072 269.288 63.432 268.152 63.432C266.456 63.432 265.16 64.824 265.16 66.712C265.16 68.584 266.456 69.992 268.152 69.992C269.288 69.992 270.184 69.368 270.632 68.408L271.72 69C271.16 70.248 269.736 71.192 268.152 71.192ZM273.346 71V58.888H274.546V63.48C275.058 62.696 275.954 62.232 277.01 62.232C278.818 62.232 280.226 63.608 280.226 65.432V71H279.026V65.896C279.026 64.344 278.082 63.432 276.802 63.432C275.522 63.432 274.546 64.36 274.546 65.896V71H273.346ZM284.518 71.192C282.886 71.192 281.686 70.184 281.686 68.776C281.686 67.448 282.518 66.392 284.422 66.072L287.526 65.56V65.112C287.526 64.088 286.694 63.384 285.51 63.384C284.454 63.384 283.638 63.96 283.254 64.792L282.166 64.2C282.646 63.112 284.07 62.232 285.51 62.232C287.398 62.232 288.726 63.416 288.726 65.112V71H287.526V69.768C286.966 70.6 285.846 71.192 284.518 71.192ZM282.966 68.728C282.966 69.496 283.638 70.104 284.598 70.104C286.342 70.104 287.526 68.872 287.526 67.288V66.648L284.71 67.112C283.462 67.32 282.966 67.944 282.966 68.728ZM290.714 71V62.424H291.914V63.352C292.362 62.696 293.13 62.312 294.17 62.312H294.714V63.512H293.962C292.73 63.512 291.914 64.312 291.914 65.72V71H290.714ZM295.64 71V58.888H296.84V71H295.64ZM302.72 71.192C300.32 71.192 298.464 69.288 298.464 66.68C298.464 64.104 300.24 62.232 302.592 62.232C305.056 62.232 306.544 64.264 306.544 66.312C306.544 66.52 306.528 66.808 306.48 67.08H299.728C299.776 68.92 301.2 70.072 302.72 70.072C303.968 70.072 304.8 69.4 305.344 68.504L306.368 69.048C305.84 70.216 304.464 71.192 302.72 71.192ZM302.592 63.352C301.2 63.352 299.952 64.344 299.76 65.96H305.248C305.232 64.424 304.016 63.352 302.592 63.352ZM311.156 71.192C309.508 71.192 308.196 70.296 307.652 68.872L308.66 68.392C309.156 69.448 310.084 70.104 311.156 70.104C312.18 70.104 312.98 69.56 312.98 68.744C312.98 67.864 312.052 67.56 311.54 67.416L310.308 67.064C308.724 66.616 308.068 65.784 308.068 64.712C308.068 63.208 309.348 62.232 310.948 62.232C312.388 62.232 313.684 63.032 314.18 64.376L313.156 64.856C312.724 63.896 311.876 63.32 310.9 63.32C309.94 63.32 309.316 63.864 309.316 64.616C309.316 65.496 310.132 65.752 310.58 65.88L312.004 66.296C313.38 66.696 314.212 67.592 314.212 68.744C314.212 70.168 312.948 71.192 311.156 71.192ZM316.257 71V69.24H317.537V71H316.257ZM319.939 71V58.888H321.139V63.48C321.651 62.696 322.547 62.232 323.603 62.232C325.411 62.232 326.819 63.608 326.819 65.432V71H325.619V65.896C325.619 64.344 324.675 63.432 323.395 63.432C322.115 63.432 321.139 64.36 321.139 65.896V71H319.939ZM328.631 60.84V59.08H329.831V60.84H328.631ZM328.631 71V62.424H329.831V71H328.631ZM330.927 71V69.96L335.743 63.624H331.199V62.424H337.375V63.464L332.575 69.8H337.407V71H330.927ZM342.531 71.192C340.099 71.192 338.163 69.288 338.163 66.696C338.163 64.136 340.035 62.232 342.531 62.232C345.011 62.232 346.883 64.12 346.883 66.696C346.883 69.336 344.915 71.192 342.531 71.192ZM342.531 69.992C344.243 69.992 345.603 68.568 345.603 66.696C345.603 64.84 344.243 63.432 342.531 63.432C340.803 63.432 339.443 64.84 339.443 66.696C339.443 68.568 340.803 69.992 342.531 69.992Z" fill="white"/>
<rect y="92" width="125" height="38" rx="19" fill="white" fill-opacity="0.1"/>
<path d="M25.152 117.192C22.624 117.192 20.88 115.256 20.88 112.696C20.88 110.136 22.624 108.232 25.152 108.232C26.736 108.232 28.16 109.16 28.72 110.424L27.632 110.984C27.2 110.072 26.288 109.432 25.152 109.432C23.456 109.432 22.16 110.824 22.16 112.712C22.16 114.584 23.456 115.992 25.152 115.992C26.288 115.992 27.184 115.368 27.632 114.408L28.72 115C28.16 116.248 26.736 117.192 25.152 117.192ZM30.3458 117V104.888H31.5458V109.48C32.0578 108.696 32.9538 108.232 34.0098 108.232C35.8178 108.232 37.2258 109.608 37.2258 111.432V117H36.0258V111.896C36.0258 110.344 35.0818 109.432 33.8018 109.432C32.5218 109.432 31.5458 110.36 31.5458 111.896V117H30.3458ZM41.5176 117.192C39.8856 117.192 38.6856 116.184 38.6856 114.776C38.6856 113.448 39.5176 112.392 41.4216 112.072L44.5256 111.56V111.112C44.5256 110.088 43.6936 109.384 42.5096 109.384C41.4536 109.384 40.6376 109.96 40.2536 110.792L39.1656 110.2C39.6456 109.112 41.0696 108.232 42.5096 108.232C44.3976 108.232 45.7256 109.416 45.7256 111.112V117H44.5256V115.768C43.9656 116.6 42.8456 117.192 41.5176 117.192ZM39.9656 114.728C39.9656 115.496 40.6376 116.104 41.5976 116.104C43.3416 116.104 44.5256 114.872 44.5256 113.288V112.648L41.7096 113.112C40.4616 113.32 39.9656 113.944 39.9656 114.728ZM47.7139 117V108.424H48.9139V109.352C49.3619 108.696 50.1299 108.312 51.1699 108.312H51.7139V109.512H50.9619C49.7299 109.512 48.9139 110.312 48.9139 111.72V117H47.7139ZM52.6401 117V104.888H53.8401V117H52.6401ZM59.7204 117.192C57.3204 117.192 55.4644 115.288 55.4644 112.68C55.4644 110.104 57.2404 108.232 59.5924 108.232C62.0564 108.232 63.5444 110.264 63.5444 112.312C63.5444 112.52 63.5284 112.808 63.4804 113.08H56.7284C56.7764 114.92 58.2004 116.072 59.7204 116.072C60.9684 116.072 61.8004 115.4 62.3444 114.504L63.3684 115.048C62.8404 116.216 61.4644 117.192 59.7204 117.192ZM59.5924 109.352C58.2004 109.352 56.9524 110.344 56.7604 111.96H62.2484C62.2324 110.424 61.0164 109.352 59.5924 109.352ZM68.1561 117.192C66.5081 117.192 65.1961 116.296 64.6521 114.872L65.6601 114.392C66.1561 115.448 67.0841 116.104 68.1561 116.104C69.1801 116.104 69.9801 115.56 69.9801 114.744C69.9801 113.864 69.0521 113.56 68.5401 113.416L67.3081 113.064C65.7241 112.616 65.0681 111.784 65.0681 110.712C65.0681 109.208 66.3481 108.232 67.9481 108.232C69.3881 108.232 70.6841 109.032 71.1801 110.376L70.1561 110.856C69.7241 109.896 68.8761 109.32 67.9001 109.32C66.9401 109.32 66.3161 109.864 66.3161 110.616C66.3161 111.496 67.1321 111.752 67.5801 111.88L69.0041 112.296C70.3801 112.696 71.2121 113.592 71.2121 114.744C71.2121 116.168 69.9481 117.192 68.1561 117.192ZM73.2567 117V115.24H74.5367V117H73.2567ZM76.9389 117V104.888H78.1389V109.48C78.6509 108.696 79.5469 108.232 80.6029 108.232C82.4109 108.232 83.8189 109.608 83.8189 111.432V117H82.6189V111.896C82.6189 110.344 81.6749 109.432 80.3949 109.432C79.1149 109.432 78.1389 110.36 78.1389 111.896V117H76.9389ZM85.6308 106.84V105.08H86.8308V106.84H85.6308ZM85.6308 117V108.424H86.8308V117H85.6308ZM87.927 117V115.96L92.743 109.624H88.199V108.424H94.375V109.464L89.575 115.8H94.407V117H87.927ZM99.5305 117.192C97.0985 117.192 95.1625 115.288 95.1625 112.696C95.1625 110.136 97.0345 108.232 99.5305 108.232C102.011 108.232 103.883 110.12 103.883 112.696C103.883 115.336 101.915 117.192 99.5305 117.192ZM99.5305 115.992C101.243 115.992 102.603 114.568 102.603 112.696C102.603 110.84 101.243 109.432 99.5305 109.432C97.8025 109.432 96.4425 110.84 96.4425 112.696C96.4425 114.568 97.8025 115.992 99.5305 115.992Z" fill="white"/>
<rect x="132" y="92" width="137" height="38" rx="19" fill="white" fill-opacity="0.1"/>
<path d="M153.232 120.2V108.424H154.432V109.72C155.12 108.808 156.224 108.232 157.568 108.232C160 108.232 161.792 110.136 161.792 112.712C161.792 115.288 159.984 117.192 157.568 117.192C156.24 117.192 155.088 116.616 154.432 115.608V120.2H153.232ZM157.504 115.992C159.232 115.992 160.512 114.584 160.512 112.712C160.512 110.84 159.216 109.432 157.504 109.432C155.776 109.432 154.432 110.856 154.432 112.712C154.432 114.568 155.776 115.992 157.504 115.992ZM163.424 117V108.424H164.624V109.352C165.072 108.696 165.84 108.312 166.88 108.312H167.424V109.512H166.672C165.44 109.512 164.624 110.312 164.624 111.72V117H163.424ZM172.254 117.192C169.854 117.192 167.998 115.288 167.998 112.68C167.998 110.104 169.774 108.232 172.126 108.232C174.59 108.232 176.078 110.264 176.078 112.312C176.078 112.52 176.062 112.808 176.014 113.08H169.262C169.31 114.92 170.734 116.072 172.254 116.072C173.502 116.072 174.334 115.4 174.878 114.504L175.902 115.048C175.374 116.216 173.998 117.192 172.254 117.192ZM172.126 109.352C170.734 109.352 169.486 110.344 169.294 111.96H174.782C174.766 110.424 173.55 109.352 172.126 109.352ZM181.634 117.192C179.106 117.192 177.362 115.256 177.362 112.696C177.362 110.136 179.106 108.232 181.634 108.232C183.218 108.232 184.642 109.16 185.202 110.424L184.114 110.984C183.682 110.072 182.77 109.432 181.634 109.432C179.938 109.432 178.642 110.824 178.642 112.712C178.642 114.584 179.938 115.992 181.634 115.992C182.77 115.992 183.666 115.368 184.114 114.408L185.202 115C184.642 116.248 183.218 117.192 181.634 117.192ZM186.828 106.84V105.08H188.028V106.84H186.828ZM186.828 117V108.424H188.028V117H186.828ZM194.02 117.192C191.588 117.192 189.652 115.288 189.652 112.696C189.652 110.136 191.524 108.232 194.02 108.232C196.5 108.232 198.372 110.12 198.372 112.696C198.372 115.336 196.404 117.192 194.02 117.192ZM194.02 115.992C195.732 115.992 197.092 114.568 197.092 112.696C197.092 110.84 195.732 109.432 194.02 109.432C192.292 109.432 190.932 110.84 190.932 112.696C190.932 114.568 192.292 115.992 194.02 115.992ZM203.048 117.192C201.24 117.192 199.832 115.816 199.832 113.832V108.424H201.032V113.688C201.032 115.08 201.944 115.992 203.256 115.992C204.568 115.992 205.512 115.064 205.512 113.528V108.424H206.712V117H205.512V115.944C205 116.728 204.104 117.192 203.048 117.192ZM211.676 117.192C210.028 117.192 208.716 116.296 208.172 114.872L209.18 114.392C209.676 115.448 210.604 116.104 211.676 116.104C212.7 116.104 213.5 115.56 213.5 114.744C213.5 113.864 212.572 113.56 212.06 113.416L210.828 113.064C209.244 112.616 208.588 111.784 208.588 110.712C208.588 109.208 209.868 108.232 211.468 108.232C212.908 108.232 214.204 109.032 214.7 110.376L213.676 110.856C213.244 109.896 212.396 109.32 211.42 109.32C210.46 109.32 209.836 109.864 209.836 110.616C209.836 111.496 210.652 111.752 211.1 111.88L212.524 112.296C213.9 112.696 214.732 113.592 214.732 114.744C214.732 116.168 213.468 117.192 211.676 117.192ZM216.777 117V115.24H218.057V117H216.777ZM220.459 117V104.888H221.659V109.48C222.171 108.696 223.067 108.232 224.123 108.232C225.931 108.232 227.339 109.608 227.339 111.432V117H226.139V111.896C226.139 110.344 225.195 109.432 223.915 109.432C222.635 109.432 221.659 110.36 221.659 111.896V117H220.459ZM229.151 106.84V105.08H230.351V106.84H229.151ZM229.151 117V108.424H230.351V117H229.151ZM231.447 117V115.96L236.263 109.624H231.719V108.424H237.895V109.464L233.095 115.8H237.927V117H231.447ZM243.05 117.192C240.618 117.192 238.682 115.288 238.682 112.696C238.682 110.136 240.554 108.232 243.05 108.232C245.53 108.232 247.402 110.12 247.402 112.696C247.402 115.336 245.434 117.192 243.05 117.192ZM243.05 115.992C244.762 115.992 246.122 114.568 246.122 112.696C246.122 110.84 244.762 109.432 243.05 109.432C241.322 109.432 239.962 110.84 239.962 112.696C239.962 114.568 241.322 115.992 243.05 115.992Z" fill="white"/>
<rect x="276" y="92" width="125" height="38" rx="19" fill="white" fill-opacity="0.1"/>
<path d="M301.152 117.192C298.624 117.192 296.88 115.256 296.88 112.696C296.88 110.136 298.624 108.232 301.152 108.232C302.736 108.232 304.16 109.16 304.72 110.424L303.632 110.984C303.2 110.072 302.288 109.432 301.152 109.432C299.456 109.432 298.16 110.824 298.16 112.712C298.16 114.584 299.456 115.992 301.152 115.992C302.288 115.992 303.184 115.368 303.632 114.408L304.72 115C304.16 116.248 302.736 117.192 301.152 117.192ZM306.346 117V104.888H307.546V109.48C308.058 108.696 308.954 108.232 310.01 108.232C311.818 108.232 313.226 109.608 313.226 111.432V117H312.026V111.896C312.026 110.344 311.082 109.432 309.802 109.432C308.522 109.432 307.546 110.36 307.546 111.896V117H306.346ZM317.518 117.192C315.886 117.192 314.686 116.184 314.686 114.776C314.686 113.448 315.518 112.392 317.422 112.072L320.526 111.56V111.112C320.526 110.088 319.694 109.384 318.51 109.384C317.454 109.384 316.638 109.96 316.254 110.792L315.166 110.2C315.646 109.112 317.07 108.232 318.51 108.232C320.398 108.232 321.726 109.416 321.726 111.112V117H320.526V115.768C319.966 116.6 318.846 117.192 317.518 117.192ZM315.966 114.728C315.966 115.496 316.638 116.104 317.598 116.104C319.342 116.104 320.526 114.872 320.526 113.288V112.648L317.71 113.112C316.462 113.32 315.966 113.944 315.966 114.728ZM323.714 117V108.424H324.914V109.352C325.362 108.696 326.13 108.312 327.17 108.312H327.714V109.512H326.962C325.73 109.512 324.914 110.312 324.914 111.72V117H323.714ZM328.64 117V104.888H329.84V117H328.64ZM335.72 117.192C333.32 117.192 331.464 115.288 331.464 112.68C331.464 110.104 333.24 108.232 335.592 108.232C338.056 108.232 339.544 110.264 339.544 112.312C339.544 112.52 339.528 112.808 339.48 113.08H332.728C332.776 114.92 334.2 116.072 335.72 116.072C336.968 116.072 337.8 115.4 338.344 114.504L339.368 115.048C338.84 116.216 337.464 117.192 335.72 117.192ZM335.592 109.352C334.2 109.352 332.952 110.344 332.76 111.96H338.248C338.232 110.424 337.016 109.352 335.592 109.352ZM344.156 117.192C342.508 117.192 341.196 116.296 340.652 114.872L341.66 114.392C342.156 115.448 343.084 116.104 344.156 116.104C345.18 116.104 345.98 115.56 345.98 114.744C345.98 113.864 345.052 113.56 344.54 113.416L343.308 113.064C341.724 112.616 341.068 111.784 341.068 110.712C341.068 109.208 342.348 108.232 343.948 108.232C345.388 108.232 346.684 109.032 347.18 110.376L346.156 110.856C345.724 109.896 344.876 109.32 343.9 109.32C342.94 109.32 342.316 109.864 342.316 110.616C342.316 111.496 343.132 111.752 343.58 111.88L345.004 112.296C346.38 112.696 347.212 113.592 347.212 114.744C347.212 116.168 345.948 117.192 344.156 117.192ZM349.257 117V115.24H350.537V117H349.257ZM352.939 117V104.888H354.139V109.48C354.651 108.696 355.547 108.232 356.603 108.232C358.411 108.232 359.819 109.608 359.819 111.432V117H358.619V111.896C358.619 110.344 357.675 109.432 356.395 109.432C355.115 109.432 354.139 110.36 354.139 111.896V117H352.939ZM361.631 106.84V105.08H362.831V106.84H361.631ZM361.631 117V108.424H362.831V117H361.631ZM363.927 117V115.96L368.743 109.624H364.199V108.424H370.375V109.464L365.575 115.8H370.407V117H363.927ZM375.531 117.192C373.099 117.192 371.163 115.288 371.163 112.696C371.163 110.136 373.035 108.232 375.531 108.232C378.011 108.232 379.883 110.12 379.883 112.696C379.883 115.336 377.915 117.192 375.531 117.192ZM375.531 115.992C377.243 115.992 378.603 114.568 378.603 112.696C378.603 110.84 377.243 109.432 375.531 109.432C373.803 109.432 372.443 110.84 372.443 112.696C372.443 114.568 373.803 115.992 375.531 115.992Z" fill="white"/>
</svg>
