<svg width="325" height="206" viewBox="0 0 325 206" fill="none" xmlns="http://www.w3.org/2000/svg">
<rect x="1" y="1" width="323" height="203.428" rx="7.76442" fill="#EFFFF7"/>
<g clip-path="url(#clip0_275_74)">
<path d="M42.9278 27.8843C38.9 27.8843 35.6487 31.1356 35.6487 35.1634H50.207C50.207 31.1356 46.9556 27.8843 42.9278 27.8843Z" fill="#42ADE2"/>
<path d="M49.2365 38.8027H36.6193C37.881 40.9865 40.2346 42.4423 42.9279 42.4423C45.6211 42.4423 47.9747 40.9865 49.2365 38.8027Z" fill="#699635"/>
<path d="M49.2364 38.8033C49.8673 37.7357 50.207 36.4982 50.207 35.1637H35.6487C35.6487 36.4982 36.0126 37.7357 36.6192 38.8033H49.2364ZM46.3733 32.1307L48.4842 32.0094L46.3733 31.8881L48.3872 31.2087L46.3248 31.6454L48.0718 30.4808L46.2034 31.4271L47.5865 29.8499L46.0093 31.2572L46.9556 29.3646L45.8152 31.1359L46.2277 29.0735L45.5726 31.0631L45.4513 28.9521L45.3299 31.0631L44.6506 29.0735L45.0873 31.1359L43.9226 29.3646L44.8689 31.2572L43.2918 29.8499L44.6991 31.4271L42.8065 30.4808L44.5778 31.6454L42.5153 31.2087L44.505 31.8881L42.4183 32.0094L44.505 32.1307L42.5153 32.7858L44.5778 32.3491L42.8065 33.5137L44.6991 32.5675L43.2918 34.1446L44.8689 32.7373L43.9226 34.6299L45.0873 32.8586L44.6506 34.921L45.3299 32.9314L45.4513 35.0424L45.5726 32.9314L46.2277 34.921L45.8152 32.8586L46.9556 34.6299L46.0093 32.7373L47.5865 34.1446L46.2034 32.5675L48.0718 33.5137L46.3248 32.3491L48.3872 32.7858L46.3733 32.1307Z" fill="#FFE62E"/>
<path d="M45.4512 32.9064C45.947 32.9064 46.349 32.5044 46.349 32.0086C46.349 31.5128 45.947 31.1108 45.4512 31.1108C44.9554 31.1108 44.5535 31.5128 44.5535 32.0086C44.5535 32.5044 44.9554 32.9064 45.4512 32.9064Z" fill="#FFE62E"/>
<path d="M45.4514 32.9799C44.9176 32.9799 44.4565 32.5431 44.4565 31.9851C44.4565 31.4512 44.8933 30.9902 45.4514 30.9902C46.0094 30.9902 46.4462 31.427 46.4462 31.9851C46.4462 32.5431 45.9852 32.9799 45.4514 32.9799ZM45.4514 31.1843C45.0146 31.1843 44.6507 31.5483 44.6507 31.9851C44.6507 32.4218 45.0146 32.7858 45.4514 32.7858C45.8881 32.7858 46.2521 32.4218 46.2521 31.9851C46.2521 31.5483 45.8881 31.1843 45.4514 31.1843Z" fill="#42ADE2"/>
</g>
<path d="M57.4628 39.1631V32.1819H60.4148C61.1462 32.1819 61.7246 32.3614 62.1502 32.7204C62.5757 33.0728 62.7884 33.5515 62.7884 34.1566C62.7884 34.6685 62.599 35.0774 62.22 35.3833C61.841 35.6824 61.339 35.8354 60.714 35.842V36.3407C61.1395 36.3407 61.5119 36.4504 61.831 36.6698C62.1568 36.8892 62.3662 37.1817 62.4593 37.5474L62.8682 39.1431L61.2426 39.1631L60.8935 37.717C60.8204 37.4244 60.6808 37.195 60.4747 37.0288C60.2752 36.856 60.0358 36.7695 59.7566 36.7695H59.0585V39.1631H57.4628ZM60.3051 35.2935C60.5511 35.2935 60.7473 35.217 60.8935 35.0641C61.0398 34.9112 61.113 34.7051 61.113 34.4458C61.113 34.1998 61.0398 34.007 60.8935 33.8673C60.7539 33.7277 60.5578 33.6579 60.3051 33.6579H59.0585V35.2935H60.3051ZM63.9963 39.1731L62.7895 34.0768H64.3354L64.834 36.221C64.9338 36.6399 64.9836 37.2915 64.9836 38.1757H65.4025C65.4025 37.4377 65.4557 36.7861 65.5621 36.221L65.961 34.0768H68.0354L68.4344 36.221C68.5407 36.7861 68.5939 37.4377 68.5939 38.1757H69.0128C69.0128 37.2915 69.0627 36.6399 69.1624 36.221L69.6611 34.0768H71.2069L70.0001 39.1731H67.5168L67.2575 37.4278C67.2243 37.1685 67.2077 36.7961 67.2077 36.3108V35.473H66.7888V36.3108C66.7888 36.7961 66.7722 37.1685 66.7389 37.4278L66.4796 39.1731H63.9963ZM72.7516 39.3127C72.1931 39.3127 71.7576 39.1864 71.4452 38.9337C71.1327 38.6744 70.9764 38.3187 70.9764 37.8666C70.9764 37.3413 71.1692 36.9291 71.5549 36.6299C71.9405 36.3241 72.479 36.1545 73.1705 36.1213L74.2476 36.0814V36.0215C74.2476 35.7356 74.1712 35.5129 74.0182 35.3533C73.872 35.1938 73.6559 35.114 73.37 35.114C73.1173 35.114 72.9079 35.1838 72.7417 35.3234C72.5821 35.463 72.5023 35.6293 72.5023 35.8221H70.9764C71.003 35.2237 71.2224 34.7616 71.6346 34.4358C72.0469 34.1034 72.6253 33.9371 73.37 33.9371C74.1146 33.9371 74.6997 34.1266 75.1253 34.5056C75.5508 34.8779 75.7635 35.4165 75.7635 36.1213V39.1631H74.7363L74.6864 38.2954H74.2576C74.2177 38.6146 74.0615 38.8639 73.7889 39.0434C73.5163 39.2229 73.1705 39.3127 72.7516 39.3127ZM73.1406 38.2755C73.4797 38.2755 73.749 38.1857 73.9484 38.0062C74.1479 37.82 74.2476 37.5873 74.2476 37.3081V37.0488L73.2603 37.1585C73.0342 37.1851 72.8514 37.2516 72.7117 37.3579C72.5788 37.4643 72.5123 37.5906 72.5123 37.7369C72.5123 37.8965 72.5688 38.0261 72.6818 38.1259C72.7949 38.2256 72.9478 38.2755 73.1406 38.2755ZM76.6171 39.1631V34.0768H77.8737C77.8338 34.3959 77.754 34.7516 77.6344 35.1439H78.0532C78.3125 34.3327 78.8744 33.9272 79.7387 33.9272C80.3504 33.9272 80.7959 34.1 81.0751 34.4458C81.361 34.7849 81.504 35.2902 81.504 35.9617V39.1631H79.998V36.4703C80.0113 36.1113 79.9348 35.8354 79.7686 35.6426C79.6091 35.4497 79.383 35.3533 79.0904 35.3533C78.7846 35.3533 78.5452 35.4664 78.3724 35.6924C78.2062 35.9118 78.1231 36.221 78.1231 36.6199V39.1631H76.6171ZM85.7196 31.6234H87.2155V39.1631H85.9091C85.9091 38.9237 86.0055 38.568 86.1983 38.096H85.7595C85.6265 38.5082 85.427 38.814 85.1611 39.0135C84.8951 39.213 84.5527 39.3127 84.1338 39.3127C83.4557 39.3127 82.9271 39.0767 82.5481 38.6046C82.1691 38.1259 81.9796 37.461 81.9796 36.61C81.9796 35.7656 82.1691 35.1073 82.5481 34.6353C82.9271 34.1632 83.4557 33.9272 84.1338 33.9272C84.5527 33.9272 84.8951 34.0269 85.1611 34.2264C85.4337 34.4258 85.6331 34.7283 85.7595 35.1339H86.1983C86.0454 34.8547 85.9257 34.5754 85.8392 34.2962C85.7595 34.0169 85.7196 33.761 85.7196 33.5282V31.6234ZM84.6125 37.8367C84.9583 37.8367 85.2276 37.7303 85.4204 37.5175C85.6132 37.2981 85.7096 36.9956 85.7096 36.61C85.7096 36.231 85.6132 35.9351 85.4204 35.7223C85.2276 35.5096 84.9583 35.4032 84.6125 35.4032C84.2668 35.4032 83.9975 35.5096 83.8047 35.7223C83.6119 35.9351 83.5155 36.231 83.5155 36.61C83.5155 36.9956 83.6119 37.2981 83.8047 37.5175C83.9975 37.7303 84.2668 37.8367 84.6125 37.8367ZM89.7146 39.3127C89.1561 39.3127 88.7206 39.1864 88.4081 38.9337C88.0956 38.6744 87.9394 38.3187 87.9394 37.8666C87.9394 37.3413 88.1322 36.9291 88.5178 36.6299C88.9035 36.3241 89.442 36.1545 90.1335 36.1213L91.2106 36.0814V36.0215C91.2106 35.7356 91.1341 35.5129 90.9812 35.3533C90.8349 35.1938 90.6188 35.114 90.3329 35.114C90.0803 35.114 89.8709 35.1838 89.7046 35.3234C89.5451 35.463 89.4653 35.6293 89.4653 35.8221H87.9394C87.966 35.2237 88.1854 34.7616 88.5976 34.4358C89.0098 34.1034 89.5883 33.9371 90.3329 33.9371C91.0776 33.9371 91.6627 34.1266 92.0882 34.5056C92.5137 34.8779 92.7265 35.4165 92.7265 36.1213V39.1631H91.6993L91.6494 38.2954H91.2206C91.1807 38.6146 91.0244 38.8639 90.7518 39.0434C90.4792 39.2229 90.1335 39.3127 89.7146 39.3127ZM90.1036 38.2755C90.4426 38.2755 90.7119 38.1857 90.9114 38.0062C91.1108 37.82 91.2106 37.5873 91.2106 37.3081V37.0488L90.2232 37.1585C89.9972 37.1851 89.8143 37.2516 89.6747 37.3579C89.5417 37.4643 89.4752 37.5906 89.4752 37.7369C89.4752 37.8965 89.5318 38.0261 89.6448 38.1259C89.7578 38.2256 89.9107 38.2755 90.1036 38.2755ZM93.5801 39.1631V34.0768H94.8367C94.7968 34.3959 94.717 34.7516 94.5973 35.1439H95.0162C95.2755 34.3327 95.8373 33.9272 96.7017 33.9272C97.3134 33.9272 97.7588 34.1 98.0381 34.4458C98.324 34.7849 98.4669 35.2902 98.4669 35.9617V39.1631H96.961V36.4703C96.9743 36.1113 96.8978 35.8354 96.7316 35.6426C96.572 35.4497 96.346 35.3533 96.0534 35.3533C95.7476 35.3533 95.5082 35.4664 95.3353 35.6924C95.1691 35.9118 95.086 36.221 95.086 36.6199V39.1631H93.5801ZM102.735 39.1631H101.139V32.1819H105.677V33.6579H102.735V35.1339H105.497V36.61H102.735V39.1631ZM109.004 33.9272C109.509 33.9272 109.881 34.0701 110.121 34.356C110.367 34.6353 110.49 35.0741 110.49 35.6725V36.6399H108.884V36.1711C108.884 35.9118 108.827 35.7124 108.714 35.5727C108.608 35.4265 108.455 35.3533 108.256 35.3533C108.056 35.3533 107.9 35.4298 107.787 35.5827C107.68 35.7356 107.627 35.9484 107.627 36.221V39.1631H106.121V34.0768H107.378C107.338 34.3959 107.258 34.7516 107.139 35.1439H107.567C107.74 34.3327 108.219 33.9272 109.004 33.9272ZM112.318 39.3127C111.759 39.3127 111.324 39.1864 111.011 38.9337C110.699 38.6744 110.543 38.3187 110.543 37.8666C110.543 37.3413 110.735 36.9291 111.121 36.6299C111.507 36.3241 112.045 36.1545 112.737 36.1213L113.814 36.0814V36.0215C113.814 35.7356 113.737 35.5129 113.584 35.3533C113.438 35.1938 113.222 35.114 112.936 35.114C112.684 35.114 112.474 35.1838 112.308 35.3234C112.148 35.463 112.069 35.6293 112.069 35.8221H110.543C110.569 35.2237 110.789 34.7616 111.201 34.4358C111.613 34.1034 112.192 33.9371 112.936 33.9371C113.681 33.9371 114.266 34.1266 114.691 34.5056C115.117 34.8779 115.33 35.4165 115.33 36.1213V39.1631H114.303L114.253 38.2954H113.824C113.784 38.6146 113.628 38.8639 113.355 39.0434C113.082 39.2229 112.737 39.3127 112.318 39.3127ZM112.707 38.2755C113.046 38.2755 113.315 38.1857 113.515 38.0062C113.714 37.82 113.814 37.5873 113.814 37.3081V37.0488L112.826 37.1585C112.6 37.1851 112.418 37.2516 112.278 37.3579C112.145 37.4643 112.079 37.5906 112.079 37.7369C112.079 37.8965 112.135 38.0261 112.248 38.1259C112.361 38.2256 112.514 38.2755 112.707 38.2755ZM116.183 39.1631V34.0768H117.44C117.4 34.3959 117.32 34.7516 117.201 35.1439H117.619C117.879 34.3327 118.441 33.9272 119.305 33.9272C119.917 33.9272 120.362 34.1 120.641 34.4458C120.927 34.7849 121.07 35.2902 121.07 35.9617V39.1631H119.564V36.4703C119.578 36.1113 119.501 35.8354 119.335 35.6426C119.175 35.4497 118.949 35.3533 118.657 35.3533C118.351 35.3533 118.111 35.4664 117.939 35.6924C117.772 35.9118 117.689 36.221 117.689 36.6199V39.1631H116.183ZM124.169 39.3127C123.637 39.3127 123.171 39.203 122.773 38.9836C122.38 38.7642 122.078 38.4517 121.865 38.0461C121.652 37.6339 121.546 37.1552 121.546 36.61C121.546 36.0648 121.649 35.5927 121.855 35.1938C122.061 34.7882 122.354 34.4757 122.733 34.2563C123.118 34.0369 123.57 33.9272 124.089 33.9272C124.8 33.9272 125.362 34.1233 125.774 34.5156C126.193 34.9079 126.403 35.4398 126.403 36.1113V36.1911H124.847V36.1113C124.847 35.8919 124.777 35.719 124.638 35.5927C124.505 35.4664 124.322 35.4032 124.089 35.4032C123.783 35.4032 123.537 35.5129 123.351 35.7323C123.171 35.9451 123.082 36.2376 123.082 36.61C123.082 36.9889 123.178 37.2881 123.371 37.5075C123.57 37.7269 123.836 37.8367 124.169 37.8367C124.402 37.8367 124.584 37.7901 124.717 37.697C124.85 37.6039 124.917 37.4776 124.917 37.318V37.2383H126.463V37.318C126.476 37.9297 126.276 38.4151 125.864 38.7741C125.452 39.1332 124.887 39.3127 124.169 39.3127Z" fill="#032E32"/>
<rect x="35.1635" y="64.668" width="115.08" height="47.4465" rx="4.65865" fill="white"/>
<path d="M53.499 85.1191H51.7568L54.0938 77.6832H56.7495L59.0865 85.1191H57.3444L56.9939 83.9613H53.8495L53.499 85.1191ZM54.3382 82.3891H56.5158L56.1759 81.2843C55.8501 80.2221 55.6837 79.5457 55.6766 79.2554H55.1561C55.149 79.5741 54.9862 80.2539 54.6675 81.295L54.3382 82.3891ZM61.723 85.2785C61.1565 85.2785 60.6608 85.1616 60.2359 84.9279C59.818 84.6942 59.4958 84.3614 59.2692 83.9294C59.0426 83.4903 58.9293 82.9804 58.9293 82.3997C58.9293 81.819 59.039 81.3162 59.2586 80.8913C59.4781 80.4593 59.7897 80.1265 60.1934 79.8928C60.6041 79.6591 61.0857 79.5422 61.6381 79.5422C62.3958 79.5422 62.9942 79.7511 63.4333 80.1689C63.8795 80.5868 64.1025 81.1533 64.1025 81.8686V81.9536H62.4454V81.8686C62.4454 81.6349 62.371 81.4508 62.2223 81.3162C62.0807 81.1816 61.8859 81.1144 61.6381 81.1144C61.3123 81.1144 61.0503 81.2312 60.852 81.4649C60.6608 81.6915 60.5652 82.0031 60.5652 82.3997C60.5652 82.8034 60.6679 83.1221 60.8732 83.3558C61.0857 83.5895 61.369 83.7063 61.723 83.7063C61.9709 83.7063 62.1657 83.6567 62.3073 83.5576C62.4489 83.4585 62.5197 83.3239 62.5197 83.1539V83.069H64.1663V83.1539C64.1804 83.8055 63.968 84.3224 63.5289 84.7049C63.0898 85.0873 62.4879 85.2785 61.723 85.2785ZM67.1232 85.2785C66.5567 85.2785 66.0609 85.1616 65.636 84.9279C65.2182 84.6942 64.896 84.3614 64.6694 83.9294C64.4427 83.4903 64.3294 82.9804 64.3294 82.3997C64.3294 81.819 64.4392 81.3162 64.6587 80.8913C64.8783 80.4593 65.1899 80.1265 65.5935 79.8928C66.0043 79.6591 66.4858 79.5422 67.0382 79.5422C67.796 79.5422 68.3944 79.7511 68.8335 80.1689C69.2796 80.5868 69.5027 81.1533 69.5027 81.8686V81.9536H67.8456V81.8686C67.8456 81.6349 67.7712 81.4508 67.6225 81.3162C67.4808 81.1816 67.2861 81.1144 67.0382 81.1144C66.7125 81.1144 66.4504 81.2312 66.2521 81.4649C66.0609 81.6915 65.9653 82.0031 65.9653 82.3997C65.9653 82.8034 66.068 83.1221 66.2734 83.3558C66.4858 83.5895 66.7691 83.7063 67.1232 83.7063C67.3711 83.7063 67.5658 83.6567 67.7075 83.5576C67.8491 83.4585 67.9199 83.3239 67.9199 83.1539V83.069H69.5664V83.1539C69.5806 83.8055 69.3681 84.3224 68.9291 84.7049C68.49 85.0873 67.888 85.2785 67.1232 85.2785ZM72.5446 85.2785C71.971 85.2785 71.4717 85.1616 71.0468 84.9279C70.6219 84.6942 70.2961 84.3614 70.0695 83.9294C69.8429 83.4903 69.7296 82.9804 69.7296 82.3997C69.7296 81.819 69.8429 81.3162 70.0695 80.8913C70.2961 80.4593 70.6219 80.1265 71.0468 79.8928C71.4717 79.6591 71.971 79.5422 72.5446 79.5422C73.1182 79.5422 73.6175 79.6591 74.0424 79.8928C74.4673 80.1265 74.7931 80.4593 75.0197 80.8913C75.2463 81.3162 75.3596 81.819 75.3596 82.3997C75.3596 82.9804 75.2463 83.4903 75.0197 83.9294C74.7931 84.3614 74.4673 84.6942 74.0424 84.9279C73.6175 85.1616 73.1182 85.2785 72.5446 85.2785ZM72.5446 83.7382C72.9058 83.7382 73.1926 83.6178 73.4051 83.377C73.6175 83.1362 73.7237 82.8105 73.7237 82.3997C73.7237 81.9961 73.6175 81.6774 73.4051 81.4437C73.1926 81.2029 72.9058 81.0825 72.5446 81.0825C72.1834 81.0825 71.8966 81.2029 71.6842 81.4437C71.4717 81.6774 71.3655 81.9961 71.3655 82.3997C71.3655 82.8105 71.4717 83.1362 71.6842 83.377C71.8966 83.6178 72.1834 83.7382 72.5446 83.7382ZM77.8278 85.2785C77.2046 85.2785 76.7408 85.0837 76.4363 84.6942C76.1317 84.2976 75.9795 83.7346 75.9795 83.0052V79.7015H77.5941L77.5729 82.7821C77.5729 83.0867 77.6473 83.3274 77.796 83.5045C77.9447 83.6744 78.1536 83.7594 78.4227 83.7594C78.7202 83.7594 78.9503 83.6426 79.1132 83.4089C79.2832 83.1681 79.3681 82.8353 79.3681 82.4103V79.7015H80.9722V85.1191H79.655C79.7187 84.6517 79.793 84.2729 79.878 83.9825H79.4319C79.3186 84.4145 79.1344 84.7403 78.8795 84.9598C78.6245 85.1723 78.274 85.2785 77.8278 85.2785ZM82.0337 85.1191V79.7015H83.3722C83.3297 80.0415 83.2447 80.4204 83.1172 80.8382H83.5634C83.8396 79.9742 84.438 79.5422 85.3586 79.5422C86.0101 79.5422 86.4846 79.7263 86.7821 80.0946C87.0866 80.4558 87.2388 80.994 87.2388 81.7092V85.1191H85.6348V82.251C85.649 81.8686 85.5675 81.5747 85.3905 81.3693C85.2205 81.1639 84.9797 81.0613 84.6681 81.0613C84.3424 81.0613 84.0874 81.1816 83.9033 81.4224C83.7263 81.6561 83.6377 81.9854 83.6377 82.4103V85.1191H82.0337ZM90.9854 82.4847H92.5895V83.1646C92.5895 83.8302 92.4018 84.3508 92.0264 84.7261C91.6511 85.0944 91.1306 85.2785 90.4649 85.2785C89.7992 85.2785 89.2787 85.0944 88.9034 84.7261C88.528 84.3508 88.3404 83.8302 88.3404 83.1646V81.2206H87.5118V79.7015H88.3935V78.2356H89.9444V79.7015H92.4832V81.2206H89.9444V83.1646C89.9586 83.3345 90.0117 83.4691 90.1037 83.5682C90.1958 83.6603 90.3162 83.7063 90.4649 83.7063C90.6278 83.7063 90.7553 83.6603 90.8473 83.5682C90.9394 83.4691 90.9854 83.3345 90.9854 83.1646V82.4847ZM95.0598 85.1191V79.7015H96.3983C96.3558 80.0415 96.2708 80.4204 96.1433 80.8382H96.5895C96.8657 79.9742 97.4641 79.5422 98.3847 79.5422C99.0363 79.5422 99.5107 79.7263 99.8082 80.0946C100.113 80.4558 100.265 80.994 100.265 81.7092V85.1191H98.6609V82.251C98.6751 81.8686 98.5936 81.5747 98.4166 81.3693C98.2466 81.1639 98.0059 81.0613 97.6943 81.0613C97.3685 81.0613 97.1135 81.1816 96.9294 81.4224C96.7524 81.6561 96.6638 81.9854 96.6638 82.4103V85.1191H95.0598ZM103.024 85.2785C102.4 85.2785 101.937 85.0837 101.632 84.6942C101.328 84.2976 101.175 83.7346 101.175 83.0052V79.7015H102.79L102.769 82.7821C102.769 83.0867 102.843 83.3274 102.992 83.5045C103.14 83.6744 103.349 83.7594 103.618 83.7594C103.916 83.7594 104.146 83.6426 104.309 83.4089C104.479 83.1681 104.564 82.8353 104.564 82.4103V79.7015H106.168V85.1191H104.851C104.914 84.6517 104.989 84.2729 105.074 83.9825H104.628C104.514 84.4145 104.33 84.7403 104.075 84.9598C103.82 85.1723 103.47 85.2785 103.024 85.2785ZM113.55 79.5316C114.067 79.5316 114.478 79.7015 114.782 80.0415C115.094 80.3743 115.25 80.824 115.25 81.3906V85.1191H113.646L113.667 82.0385C113.667 81.734 113.592 81.4968 113.444 81.3268C113.302 81.1498 113.1 81.0613 112.838 81.0613C112.59 81.0613 112.396 81.1604 112.254 81.3587C112.112 81.5499 112.042 81.819 112.042 82.166V85.1191H110.438L110.459 82.0385C110.459 81.734 110.384 81.4968 110.236 81.3268C110.094 81.1498 109.892 81.0613 109.63 81.0613C109.382 81.0613 109.188 81.171 109.046 81.3906C108.904 81.6101 108.834 81.9146 108.834 82.3041V85.1191H107.229V79.7015H108.568C108.525 80.0415 108.44 80.4204 108.313 80.8382H108.749C108.961 79.9671 109.435 79.5316 110.172 79.5316C110.916 79.5316 111.376 79.9671 111.553 80.8382H111.957C112.049 80.4204 112.229 80.0981 112.498 79.8715C112.775 79.6449 113.125 79.5316 113.55 79.5316ZM119.449 79.5422C120.171 79.5422 120.734 79.7936 121.138 80.2964C121.542 80.7992 121.744 81.5003 121.744 82.3997C121.744 83.3062 121.542 84.0144 121.138 84.5243C120.734 85.0271 120.171 85.2785 119.449 85.2785C119.003 85.2785 118.638 85.1723 118.355 84.9598C118.072 84.7473 117.859 84.4216 117.718 83.9825H117.25C117.455 84.4853 117.558 84.8642 117.558 85.1191H116.167V77.0884H117.76V79.1173C117.76 79.3652 117.714 79.6378 117.622 79.9352C117.537 80.2327 117.413 80.5301 117.25 80.8276H117.718C117.852 80.3956 118.061 80.0733 118.344 79.8609C118.635 79.6484 119.003 79.5422 119.449 79.5422ZM118.939 83.7063C119.307 83.7063 119.594 83.593 119.8 83.3664C120.005 83.1327 120.108 82.8105 120.108 82.3997C120.108 81.9961 120.005 81.6809 119.8 81.4543C119.594 81.2277 119.307 81.1144 118.939 81.1144C118.571 81.1144 118.284 81.2277 118.079 81.4543C117.873 81.6809 117.771 81.9961 117.771 82.3997C117.771 82.8105 117.873 83.1327 118.079 83.3664C118.284 83.593 118.571 83.7063 118.939 83.7063ZM124.745 85.2785C124.179 85.2785 123.683 85.1616 123.258 84.9279C122.84 84.6942 122.518 84.3614 122.291 83.9294C122.065 83.4903 121.951 82.9804 121.951 82.3997C121.951 81.819 122.061 81.3162 122.281 80.8913C122.507 80.4593 122.83 80.1265 123.247 79.8928C123.665 79.6591 124.154 79.5422 124.713 79.5422C125.273 79.5422 125.762 79.6449 126.179 79.8503C126.597 80.0556 126.916 80.3495 127.135 80.732C127.362 81.1144 127.475 81.5641 127.475 82.081C127.475 82.3926 127.451 82.6547 127.401 82.8671H123.524C123.587 83.2283 123.725 83.5116 123.938 83.7169C124.157 83.9152 124.427 84.0144 124.745 84.0144C125.071 84.0144 125.33 83.9648 125.521 83.8657C125.719 83.7594 125.818 83.6178 125.818 83.4407V83.4089H127.348V83.4407C127.348 84.0002 127.114 84.4464 126.647 84.7792C126.179 85.1121 125.546 85.2785 124.745 85.2785ZM125.893 81.8898C125.822 81.5428 125.684 81.2737 125.478 81.0825C125.273 80.8913 125.018 80.7957 124.713 80.7957C124.409 80.7957 124.154 80.8913 123.949 81.0825C123.743 81.2737 123.605 81.5428 123.534 81.8898H125.893ZM131.168 79.5422C131.706 79.5422 132.103 79.6945 132.358 79.999C132.62 80.2964 132.751 80.7638 132.751 81.4012V82.4316H131.041V81.9323C131.041 81.6561 130.98 81.4437 130.86 81.295C130.747 81.1392 130.584 81.0613 130.371 81.0613C130.159 81.0613 129.993 81.1427 129.872 81.3056C129.759 81.4685 129.702 81.6951 129.702 81.9854V85.1191H128.098V79.7015H129.437C129.394 80.0415 129.309 80.4204 129.182 80.8382H129.638C129.823 79.9742 130.332 79.5422 131.168 79.5422Z" fill="black"/>
<path d="M52.8616 98.6742V97.8562H54.6144V93.7984C54.6144 93.5788 54.6498 93.3841 54.7206 93.2141C54.7914 93.0442 54.9047 92.8529 55.0605 92.6405L54.7206 92.3855C54.5648 92.598 54.4196 92.7503 54.2851 92.8423C54.1576 92.9273 53.977 92.9698 53.7433 92.9698H53.2759V92.2793C53.6512 92.2793 53.9593 92.1837 54.2001 91.9925C54.4479 91.8013 54.5719 91.5463 54.5719 91.2277H55.4854V97.8562H57.2063V98.6742H52.8616ZM60.8458 98.8229C60.0101 98.8229 59.355 98.6352 58.8805 98.2599C58.4131 97.8846 58.1794 97.3605 58.1794 96.6877H59.178C59.178 97.0985 59.3232 97.4243 59.6135 97.665C59.911 97.8987 60.3217 98.0156 60.8458 98.0156C61.3415 98.0156 61.7345 97.8917 62.0249 97.6438C62.3152 97.3888 62.4604 97.0489 62.4604 96.624C62.4604 96.192 62.3152 95.8486 62.0249 95.5936C61.7345 95.3387 61.3415 95.2112 60.8458 95.2112H60.2403V94.5632H60.8458C61.3273 94.5632 61.7062 94.4428 61.9824 94.202C62.2657 93.9542 62.4073 93.6249 62.4073 93.2141C62.4073 92.8034 62.2657 92.4776 61.9824 92.2368C61.6991 91.996 61.3202 91.8757 60.8458 91.8757C60.3713 91.8757 59.9924 91.996 59.7091 92.2368C59.4258 92.4776 59.2842 92.7998 59.2842 93.2035H58.2857C58.2857 92.5378 58.5123 92.0173 58.9655 91.642C59.4258 91.2595 60.0526 91.0683 60.8458 91.0683C61.6318 91.0683 62.255 91.256 62.7154 91.6313C63.1757 91.9996 63.4058 92.5024 63.4058 93.1398C63.4058 93.4797 63.3279 93.7665 63.1721 94.0002C63.0163 94.2339 62.8287 94.4074 62.6091 94.5207C62.3967 94.634 62.2055 94.6871 62.0355 94.6801V95.105C62.2055 95.0979 62.4002 95.1581 62.6197 95.2855C62.8464 95.4059 63.0411 95.5865 63.204 95.8273C63.3669 96.0681 63.4483 96.3584 63.4483 96.6984C63.4483 97.3499 63.2146 97.8669 62.7472 98.2493C62.2798 98.6317 61.646 98.8229 60.8458 98.8229ZM64.294 98.6636V97.8562L67.2684 94.7332C67.7782 94.202 68.0332 93.6815 68.0332 93.1716C68.0332 92.775 67.9057 92.4599 67.6508 92.2262C67.4029 91.9925 67.0807 91.8757 66.6841 91.8757C66.2875 91.8757 65.9618 91.9925 65.7068 92.2262C65.4589 92.4599 65.335 92.775 65.335 93.1716C65.335 93.2708 65.3456 93.3699 65.3669 93.4691L64.379 93.6603C64.3506 93.4478 64.3365 93.2849 64.3365 93.1716C64.3365 92.5272 64.5489 92.0173 64.9738 91.642C65.4058 91.2595 65.9759 91.0683 66.6841 91.0683C67.3923 91.0683 67.9588 91.2595 68.3837 91.642C68.8157 92.0173 69.0317 92.5272 69.0317 93.1716C69.0317 93.8161 68.7414 94.4464 68.1607 95.0625L65.4094 97.9306L65.7281 98.2174C65.898 97.9766 66.2627 97.8562 66.8222 97.8562H68.9999V98.6636H64.294ZM70.2386 98.6636V97.8562L73.2129 94.7332C73.7228 94.202 73.9778 93.6815 73.9778 93.1716C73.9778 92.775 73.8503 92.4599 73.5954 92.2262C73.3475 91.9925 73.0253 91.8757 72.6287 91.8757C72.2321 91.8757 71.9063 91.9925 71.6514 92.2262C71.4035 92.4599 71.2796 92.775 71.2796 93.1716C71.2796 93.2708 71.2902 93.3699 71.3115 93.4691L70.3235 93.6603C70.2952 93.4478 70.2811 93.2849 70.2811 93.1716C70.2811 92.5272 70.4935 92.0173 70.9184 91.642C71.3504 91.2595 71.9205 91.0683 72.6287 91.0683C73.3369 91.0683 73.9034 91.2595 74.3283 91.642C74.7603 92.0173 74.9763 92.5272 74.9763 93.1716C74.9763 93.8161 74.686 94.4464 74.1052 95.0625L71.354 97.9306L71.6726 98.2174C71.8426 97.9766 72.2073 97.8562 72.7668 97.8562H74.9444V98.6636H70.2386ZM77.2242 93.3203L76.8311 94.1489L76.13 93.639L76.7886 93.0017L76.7143 92.7998L75.8007 92.6617L76.0663 91.8438L76.8949 92.2793L77.0648 92.1518L76.9055 91.2277H77.7659L77.596 92.1518L77.7766 92.2793L78.6051 91.8438L78.8707 92.6617L77.9571 92.7892L77.8934 92.991L78.552 93.639L77.8615 94.1489L77.4366 93.3203H77.2242ZM80.5027 93.3203L80.1097 94.1489L79.4086 93.639L80.0672 93.0017L79.9928 92.7998L79.0793 92.6617L79.3448 91.8438L80.1734 92.2793L80.3434 92.1518L80.184 91.2277H81.0445L80.8745 92.1518L81.0551 92.2793L81.8837 91.8438L82.1492 92.6617L81.2357 92.7892L81.1719 92.991L81.8305 93.639L81.1401 94.1489L80.7152 93.3203H80.5027ZM83.7812 93.3203L83.3882 94.1489L82.6871 93.639L83.3457 93.0017L83.2713 92.7998L82.3578 92.6617L82.6233 91.8438L83.4519 92.2793L83.6219 92.1518L83.4625 91.2277H84.323L84.153 92.1518L84.3336 92.2793L85.1622 91.8438L85.4277 92.6617L84.5142 92.7892L84.4505 92.991L85.1091 93.639L84.4186 94.1489L83.9937 93.3203H83.7812ZM87.0597 93.3203L86.6667 94.1489L85.9656 93.639L86.6242 93.0017L86.5498 92.7998L85.6363 92.6617L85.9019 91.8438L86.7304 92.2793L86.9004 92.1518L86.7411 91.2277H87.6015L87.4315 92.1518L87.6121 92.2793L88.4407 91.8438L88.7063 92.6617L87.7927 92.7892L87.729 92.991L88.3876 93.639L87.6971 94.1489L87.2722 93.3203H87.0597ZM90.3383 93.3203L89.9452 94.1489L89.2441 93.639L89.9027 93.0017L89.8284 92.7998L88.9148 92.6617L89.1804 91.8438L90.009 92.2793L90.1789 92.1518L90.0196 91.2277H90.88L90.7101 92.1518L90.8906 92.2793L91.7192 91.8438L91.9848 92.6617L91.0712 92.7892L91.0075 92.991L91.6661 93.639L90.9756 94.1489L90.5507 93.3203H90.3383ZM93.6168 93.3203L93.2237 94.1489L92.5226 93.639L93.1813 93.0017L93.1069 92.7998L92.1933 92.6617L92.4589 91.8438L93.2875 92.2793L93.4574 92.1518L93.2981 91.2277H94.1585L93.9886 92.1518L94.1692 92.2793L94.9977 91.8438L95.2633 92.6617L94.3498 92.7892L94.286 92.991L94.9446 93.639L94.2541 94.1489L93.8292 93.3203H93.6168ZM96.8953 93.3203L96.5023 94.1489L95.8012 93.639L96.4598 93.0017L96.3854 92.7998L95.4719 92.6617L95.7374 91.8438L96.566 92.2793L96.736 92.1518L96.5766 91.2277H97.4371L97.2671 92.1518L97.4477 92.2793L98.2763 91.8438L98.5418 92.6617L97.6283 92.7892L97.5645 92.991L98.2231 93.639L97.5327 94.1489L97.1078 93.3203H96.8953ZM100.174 93.3203L99.7808 94.1489L99.0797 93.639L99.7383 93.0017L99.6639 92.7998L98.7504 92.6617L99.016 91.8438L99.8445 92.2793L100.014 92.1518L99.8551 91.2277H100.716L100.546 92.1518L100.726 92.2793L101.555 91.8438L101.82 92.6617L100.907 92.7892L100.843 92.991L101.502 93.639L100.811 94.1489L100.386 93.3203H100.174ZM103.452 93.3203L103.059 94.1489L102.358 93.639L103.017 93.0017L102.942 92.7998L102.029 92.6617L102.294 91.8438L103.123 92.2793L103.293 92.1518L103.134 91.2277H103.994L103.824 92.1518L104.005 92.2793L104.833 91.8438L105.099 92.6617L104.185 92.7892L104.122 92.991L104.78 93.639L104.09 94.1489L103.665 93.3203H103.452ZM106.731 93.3203L106.338 94.1489L105.637 93.639L106.295 93.0017L106.221 92.7998L105.307 92.6617L105.573 91.8438L106.402 92.2793L106.572 92.1518L106.412 91.2277H107.273L107.103 92.1518L107.283 92.2793L108.112 91.8438L108.377 92.6617L107.464 92.7892L107.4 92.991L108.059 93.639L107.368 94.1489L106.943 93.3203H106.731Z" fill="black"/>
<rect x="35.1635" y="126.438" width="115.108" height="39.1681" rx="4.5194" fill="#3CDF90"/>
<path d="M48.9385 150.021V142.475H51.6014C52.7872 142.475 53.7108 142.806 54.372 143.467C55.0332 144.128 55.3639 145.052 55.3639 146.237C55.3639 147.431 55.0404 148.361 54.3936 149.03C53.7539 149.691 52.8591 150.021 51.7092 150.021H48.9385ZM51.7092 148.426C52.2841 148.426 52.7298 148.235 53.046 147.855C53.3694 147.466 53.5311 146.927 53.5311 146.237C53.5311 145.555 53.3622 145.023 53.0244 144.642C52.6866 144.261 52.2123 144.07 51.6014 144.07H50.6634V148.426H51.7092ZM58.3813 150.183C57.8063 150.183 57.3032 150.065 56.872 149.827C56.4479 149.59 56.1209 149.252 55.8909 148.814C55.6609 148.368 55.5459 147.851 55.5459 147.262C55.5459 146.672 55.6573 146.162 55.8802 145.731C56.1101 145.292 56.4372 144.955 56.8612 144.717C57.2852 144.48 57.7812 144.362 58.3489 144.362C58.9167 144.362 59.4127 144.466 59.8367 144.674C60.2607 144.883 60.5842 145.181 60.807 145.569C61.037 145.957 61.1519 146.414 61.1519 146.938C61.1519 147.254 61.1268 147.52 61.0765 147.736H57.1415C57.2062 148.103 57.3463 148.39 57.562 148.598C57.7848 148.8 58.0579 148.9 58.3813 148.9C58.7119 148.9 58.9742 148.85 59.1683 148.749C59.3695 148.642 59.4701 148.498 59.4701 148.318V148.286H61.0226V148.318C61.0226 148.886 60.7854 149.339 60.311 149.676C59.8367 150.014 59.1934 150.183 58.3813 150.183ZM59.5456 146.744C59.4737 146.392 59.3336 146.119 59.1252 145.925C58.9167 145.731 58.658 145.634 58.3489 145.634C58.0399 145.634 57.7812 145.731 57.5727 145.925C57.3643 146.119 57.2242 146.392 57.1523 146.744H59.5456ZM65.0938 144.362C65.8268 144.362 66.3982 144.617 66.8079 145.127C67.2176 145.637 67.4224 146.349 67.4224 147.262C67.4224 148.182 67.2176 148.9 66.8079 149.418C66.3982 149.928 65.8268 150.183 65.0938 150.183C64.1954 150.183 63.6096 149.748 63.3365 148.879H62.8729C63.0382 149.188 63.164 149.518 63.2502 149.871C63.3437 150.223 63.3904 150.561 63.3904 150.884V152.501H61.7625V144.523H63.1748C63.1748 144.789 63.0742 145.174 62.8729 145.677H63.3257C63.606 144.8 64.1954 144.362 65.0938 144.362ZM64.5763 148.588C64.95 148.588 65.2411 148.473 65.4495 148.243C65.6579 148.005 65.7622 147.678 65.7622 147.262C65.7622 146.852 65.6579 146.532 65.4495 146.302C65.2411 146.072 64.95 145.957 64.5763 145.957C64.2025 145.957 63.9115 146.072 63.703 146.302C63.4946 146.532 63.3904 146.852 63.3904 147.262C63.3904 147.678 63.4946 148.005 63.703 148.243C63.9115 148.473 64.2025 148.588 64.5763 148.588ZM70.4904 150.183C69.9082 150.183 69.4015 150.065 68.9703 149.827C68.5391 149.59 68.2084 149.252 67.9785 148.814C67.7485 148.368 67.6335 147.851 67.6335 147.262C67.6335 146.672 67.7485 146.162 67.9785 145.731C68.2084 145.292 68.5391 144.955 68.9703 144.717C69.4015 144.48 69.9082 144.362 70.4904 144.362C71.0725 144.362 71.5792 144.48 72.0105 144.717C72.4417 144.955 72.7723 145.292 73.0023 145.731C73.2323 146.162 73.3473 146.672 73.3473 147.262C73.3473 147.851 73.2323 148.368 73.0023 148.814C72.7723 149.252 72.4417 149.59 72.0105 149.827C71.5792 150.065 71.0725 150.183 70.4904 150.183ZM70.4904 148.62C70.8569 148.62 71.148 148.498 71.3636 148.253C71.5792 148.009 71.687 147.678 71.687 147.262C71.687 146.852 71.5792 146.529 71.3636 146.291C71.148 146.047 70.8569 145.925 70.4904 145.925C70.1238 145.925 69.8327 146.047 69.6171 146.291C69.4015 146.529 69.2937 146.852 69.2937 147.262C69.2937 147.678 69.4015 148.009 69.6171 148.253C69.8327 148.498 70.1238 148.62 70.4904 148.62ZM75.7767 150.183C75.0508 150.183 74.4866 150.021 74.0842 149.698C73.6817 149.367 73.4804 148.907 73.4804 148.318V148.21H75.1083V148.318C75.1083 148.491 75.1658 148.627 75.2808 148.728C75.403 148.821 75.5683 148.868 75.7767 148.868C75.9852 148.868 76.1469 148.828 76.2619 148.749C76.3769 148.663 76.4344 148.545 76.4344 148.394C76.4344 148.293 76.3948 148.203 76.3158 148.124C76.2439 148.045 76.1397 147.988 76.0031 147.952L74.9143 147.628C74.5118 147.506 74.1992 147.316 73.9764 147.057C73.7535 146.798 73.6421 146.493 73.6421 146.14C73.6421 145.587 73.8362 145.156 74.2243 144.847C74.6196 144.53 75.1658 144.369 75.863 144.362C76.5673 144.362 77.1172 144.527 77.5124 144.857C77.9077 145.181 78.1054 145.637 78.1054 146.227V146.334H76.4775V146.227C76.4775 146.054 76.4236 145.921 76.3158 145.828C76.208 145.727 76.057 145.677 75.863 145.677C75.6833 145.677 75.5432 145.72 75.4425 145.806C75.3491 145.885 75.3024 145.997 75.3024 146.14C75.3024 146.327 75.4605 146.471 75.7767 146.572L76.6931 146.852C77.1315 146.988 77.4729 147.193 77.7173 147.466C77.9688 147.732 78.0946 148.041 78.0946 148.394C78.0946 148.961 77.8898 149.403 77.4801 149.72C77.0704 150.029 76.5026 150.183 75.7767 150.183ZM79.5498 144.135C79.291 144.135 79.0718 144.049 78.8921 143.876C78.7125 143.704 78.6226 143.496 78.6226 143.251C78.6226 143.007 78.7125 142.798 78.8921 142.626C79.0718 142.453 79.291 142.367 79.5498 142.367C79.8013 142.367 80.0169 142.453 80.1966 142.626C80.3763 142.798 80.4661 143.007 80.4661 143.251C80.4661 143.496 80.3763 143.704 80.1966 143.876C80.0169 144.049 79.8013 144.135 79.5498 144.135ZM80.4014 150.021H78.7735V144.523H80.4014V150.021ZM84.3521 147.348H85.98V148.038C85.98 148.713 85.7895 149.242 85.4086 149.623C85.0277 149.996 84.4994 150.183 83.8238 150.183C83.1482 150.183 82.62 149.996 82.2391 149.623C81.8581 149.242 81.6677 148.713 81.6677 148.038V146.065H80.8268V144.523H81.7216V143.036H83.2956V144.523H85.8722V146.065H83.2956V148.038C83.3099 148.21 83.3639 148.347 83.4573 148.447C83.5507 148.541 83.6729 148.588 83.8238 148.588C83.9891 148.588 84.1185 148.541 84.2119 148.447C84.3054 148.347 84.3521 148.21 84.3521 148.038V147.348ZM94.9017 144.351C95.4263 144.351 95.8432 144.523 96.1522 144.868C96.4685 145.206 96.6266 145.662 96.6266 146.237V150.021H94.9987L95.0203 146.895C95.0203 146.586 94.9448 146.345 94.7939 146.173C94.6501 145.993 94.4453 145.903 94.1794 145.903C93.9278 145.903 93.7302 146.004 93.5864 146.205C93.4427 146.399 93.3708 146.672 93.3708 147.024V150.021H91.7429L91.7645 146.895C91.7645 146.586 91.689 146.345 91.5381 146.173C91.3943 145.993 91.1895 145.903 90.9236 145.903C90.672 145.903 90.4744 146.015 90.3306 146.237C90.1869 146.46 90.115 146.769 90.115 147.165V150.021H88.4871V144.523H89.8455C89.8024 144.868 89.7161 145.253 89.5867 145.677H90.0288C90.2444 144.793 90.7259 144.351 91.4734 144.351C92.228 144.351 92.6952 144.793 92.8749 145.677H93.2845C93.378 145.253 93.5613 144.926 93.8344 144.696C94.1147 144.466 94.4704 144.351 94.9017 144.351ZM100.004 150.183C99.4223 150.183 98.9156 150.065 98.4843 149.827C98.0531 149.59 97.7225 149.252 97.4925 148.814C97.2625 148.368 97.1475 147.851 97.1475 147.262C97.1475 146.672 97.2625 146.162 97.4925 145.731C97.7225 145.292 98.0531 144.955 98.4843 144.717C98.9156 144.48 99.4223 144.362 100.004 144.362C100.587 144.362 101.093 144.48 101.525 144.717C101.956 144.955 102.286 145.292 102.516 145.731C102.746 146.162 102.861 146.672 102.861 147.262C102.861 147.851 102.746 148.368 102.516 148.814C102.286 149.252 101.956 149.59 101.525 149.827C101.093 150.065 100.587 150.183 100.004 150.183ZM100.004 148.62C100.371 148.62 100.662 148.498 100.878 148.253C101.093 148.009 101.201 147.678 101.201 147.262C101.201 146.852 101.093 146.529 100.878 146.291C100.662 146.047 100.371 145.925 100.004 145.925C99.6379 145.925 99.3468 146.047 99.1312 146.291C98.9156 146.529 98.8078 146.852 98.8078 147.262C98.8078 147.678 98.9156 148.009 99.1312 148.253C99.3468 148.498 99.6379 148.62 100.004 148.62ZM103.512 150.021V144.523H104.87C104.827 144.868 104.741 145.253 104.612 145.677H105.064C105.345 144.8 105.952 144.362 106.886 144.362C107.548 144.362 108.029 144.548 108.331 144.922C108.64 145.289 108.795 145.835 108.795 146.561V150.021H107.167V147.111C107.181 146.723 107.098 146.424 106.919 146.216C106.746 146.007 106.502 145.903 106.186 145.903C105.855 145.903 105.596 146.025 105.409 146.27C105.23 146.507 105.14 146.841 105.14 147.272V150.021H103.512ZM112.144 150.183C111.569 150.183 111.066 150.065 110.635 149.827C110.211 149.59 109.884 149.252 109.654 148.814C109.424 148.368 109.309 147.851 109.309 147.262C109.309 146.672 109.42 146.162 109.643 145.731C109.873 145.292 110.2 144.955 110.624 144.717C111.048 144.48 111.544 144.362 112.112 144.362C112.68 144.362 113.175 144.466 113.599 144.674C114.024 144.883 114.347 145.181 114.57 145.569C114.8 145.957 114.915 146.414 114.915 146.938C114.915 147.254 114.89 147.52 114.839 147.736H110.904C110.969 148.103 111.109 148.39 111.325 148.598C111.548 148.8 111.821 148.9 112.144 148.9C112.475 148.9 112.737 148.85 112.931 148.749C113.132 148.642 113.233 148.498 113.233 148.318V148.286H114.785V148.318C114.785 148.886 114.548 149.339 114.074 149.676C113.599 150.014 112.956 150.183 112.144 150.183ZM113.308 146.744C113.237 146.392 113.096 146.119 112.888 145.925C112.68 145.731 112.421 145.634 112.112 145.634C111.803 145.634 111.544 145.731 111.336 145.925C111.127 146.119 110.987 146.392 110.915 146.744H113.308ZM116.625 152.652C116.007 152.652 115.511 152.476 115.137 152.124C114.763 151.779 114.577 151.304 114.577 150.701H115.924C115.924 150.88 115.989 151.021 116.118 151.121C116.248 151.229 116.416 151.283 116.625 151.283C117.027 151.283 117.29 151.089 117.412 150.701L117.628 150.021H116.722L114.943 144.523H116.571L117.983 148.933L119.406 144.502L121.056 144.523L118.975 150.765C118.774 151.369 118.472 151.833 118.07 152.156C117.674 152.487 117.193 152.652 116.625 152.652Z" fill="white"/>
<path d="M130.132 149.914V146.579H126.796V145.467H130.132V142.131H131.244V145.467H134.579V146.579H131.244V149.914H130.132Z" fill="white"/>
<rect x="167.29" y="64.668" width="103.08" height="47.4465" rx="4.65865" fill="white"/>
<path d="M185.625 85.1191H183.883L186.22 77.6832H188.876L191.213 85.1191H189.471L189.12 83.9613H185.976L185.625 85.1191ZM186.464 82.3891H188.642L188.302 81.2843C187.976 80.2221 187.81 79.5457 187.803 79.2554H187.282C187.275 79.5741 187.112 80.2539 186.794 81.295L186.464 82.3891ZM193.849 85.2785C193.283 85.2785 192.787 85.1616 192.362 84.9279C191.944 84.6942 191.622 84.3614 191.395 83.9294C191.169 83.4903 191.055 82.9804 191.055 82.3997C191.055 81.819 191.165 81.3162 191.385 80.8913C191.604 80.4593 191.916 80.1265 192.32 79.8928C192.73 79.6591 193.212 79.5422 193.764 79.5422C194.522 79.5422 195.12 79.7511 195.56 80.1689C196.006 80.5868 196.229 81.1533 196.229 81.8686V81.9536H194.572V81.8686C194.572 81.6349 194.497 81.4508 194.349 81.3162C194.207 81.1816 194.012 81.1144 193.764 81.1144C193.439 81.1144 193.176 81.2312 192.978 81.4649C192.787 81.6915 192.691 82.0031 192.691 82.3997C192.691 82.8034 192.794 83.1221 192.999 83.3558C193.212 83.5895 193.495 83.7063 193.849 83.7063C194.097 83.7063 194.292 83.6567 194.434 83.5576C194.575 83.4585 194.646 83.3239 194.646 83.1539V83.069H196.292V83.1539C196.307 83.8055 196.094 84.3224 195.655 84.7049C195.216 85.0873 194.614 85.2785 193.849 85.2785ZM199.249 85.2785C198.683 85.2785 198.187 85.1616 197.762 84.9279C197.344 84.6942 197.022 84.3614 196.796 83.9294C196.569 83.4903 196.456 82.9804 196.456 82.3997C196.456 81.819 196.565 81.3162 196.785 80.8913C197.004 80.4593 197.316 80.1265 197.72 79.8928C198.13 79.6591 198.612 79.5422 199.164 79.5422C199.922 79.5422 200.521 79.7511 200.96 80.1689C201.406 80.5868 201.629 81.1533 201.629 81.8686V81.9536H199.972V81.8686C199.972 81.6349 199.897 81.4508 199.749 81.3162C199.607 81.1816 199.412 81.1144 199.164 81.1144C198.839 81.1144 198.577 81.2312 198.378 81.4649C198.187 81.6915 198.092 82.0031 198.092 82.3997C198.092 82.8034 198.194 83.1221 198.4 83.3558C198.612 83.5895 198.895 83.7063 199.249 83.7063C199.497 83.7063 199.692 83.6567 199.834 83.5576C199.975 83.4585 200.046 83.3239 200.046 83.1539V83.069H201.693V83.1539C201.707 83.8055 201.494 84.3224 201.055 84.7049C200.616 85.0873 200.014 85.2785 199.249 85.2785ZM204.671 85.2785C204.097 85.2785 203.598 85.1616 203.173 84.9279C202.748 84.6942 202.422 84.3614 202.196 83.9294C201.969 83.4903 201.856 82.9804 201.856 82.3997C201.856 81.819 201.969 81.3162 202.196 80.8913C202.422 80.4593 202.748 80.1265 203.173 79.8928C203.598 79.6591 204.097 79.5422 204.671 79.5422C205.244 79.5422 205.744 79.6591 206.169 79.8928C206.594 80.1265 206.919 80.4593 207.146 80.8913C207.373 81.3162 207.486 81.819 207.486 82.3997C207.486 82.9804 207.373 83.4903 207.146 83.9294C206.919 84.3614 206.594 84.6942 206.169 84.9279C205.744 85.1616 205.244 85.2785 204.671 85.2785ZM204.671 83.7382C205.032 83.7382 205.319 83.6178 205.531 83.377C205.744 83.1362 205.85 82.8105 205.85 82.3997C205.85 81.9961 205.744 81.6774 205.531 81.4437C205.319 81.2029 205.032 81.0825 204.671 81.0825C204.31 81.0825 204.023 81.2029 203.81 81.4437C203.598 81.6774 203.492 81.9961 203.492 82.3997C203.492 82.8105 203.598 83.1362 203.81 83.377C204.023 83.6178 204.31 83.7382 204.671 83.7382ZM209.954 85.2785C209.331 85.2785 208.867 85.0837 208.562 84.6942C208.258 84.2976 208.106 83.7346 208.106 83.0052V79.7015H209.72L209.699 82.7821C209.699 83.0867 209.773 83.3274 209.922 83.5045C210.071 83.6744 210.28 83.7594 210.549 83.7594C210.846 83.7594 211.077 83.6426 211.239 83.4089C211.409 83.1681 211.494 82.8353 211.494 82.4103V79.7015H213.098V85.1191H211.781C211.845 84.6517 211.919 84.2729 212.004 83.9825H211.558C211.445 84.4145 211.261 84.7403 211.006 84.9598C210.751 85.1723 210.4 85.2785 209.954 85.2785ZM214.16 85.1191V79.7015H215.498C215.456 80.0415 215.371 80.4204 215.243 80.8382H215.69C215.966 79.9742 216.564 79.5422 217.485 79.5422C218.136 79.5422 218.611 79.7263 218.908 80.0946C219.213 80.4558 219.365 80.994 219.365 81.7092V85.1191H217.761V82.251C217.775 81.8686 217.694 81.5747 217.517 81.3693C217.347 81.1639 217.106 81.0613 216.794 81.0613C216.469 81.0613 216.214 81.1816 216.03 81.4224C215.852 81.6561 215.764 81.9854 215.764 82.4103V85.1191H214.16ZM223.112 82.4847H224.716V83.1646C224.716 83.8302 224.528 84.3508 224.153 84.7261C223.777 85.0944 223.257 85.2785 222.591 85.2785C221.925 85.2785 221.405 85.0944 221.03 84.7261C220.654 84.3508 220.467 83.8302 220.467 83.1646V81.2206H219.638V79.7015H220.52V78.2356H222.071V79.7015H224.609V81.2206H222.071V83.1646C222.085 83.3345 222.138 83.4691 222.23 83.5682C222.322 83.6603 222.442 83.7063 222.591 83.7063C222.754 83.7063 222.881 83.6603 222.974 83.5682C223.066 83.4691 223.112 83.3345 223.112 83.1646V82.4847ZM227.186 85.1191V79.7015H228.525C228.482 80.0415 228.397 80.4204 228.27 80.8382H228.716C228.992 79.9742 229.59 79.5422 230.511 79.5422C231.162 79.5422 231.637 79.7263 231.934 80.0946C232.239 80.4558 232.391 80.994 232.391 81.7092V85.1191H230.787V82.251C230.801 81.8686 230.72 81.5747 230.543 81.3693C230.373 81.1639 230.132 81.0613 229.82 81.0613C229.495 81.0613 229.24 81.1816 229.056 81.4224C228.879 81.6561 228.79 81.9854 228.79 82.4103V85.1191H227.186ZM234.948 85.2785C234.353 85.2785 233.889 85.1439 233.556 84.8748C233.224 84.5986 233.057 84.2197 233.057 83.7382C233.057 83.1787 233.263 82.7396 233.673 82.421C234.084 82.0952 234.658 81.9146 235.394 81.8792L236.541 81.8367V81.773C236.541 81.4685 236.46 81.2312 236.297 81.0613C236.141 80.8913 235.911 80.8063 235.607 80.8063C235.338 80.8063 235.114 80.8807 234.937 81.0294C234.767 81.1781 234.682 81.3552 234.682 81.5605H233.057C233.085 80.9232 233.319 80.431 233.758 80.084C234.197 79.7299 234.813 79.5528 235.607 79.5528C236.4 79.5528 237.023 79.7547 237.476 80.1583C237.929 80.5549 238.156 81.1285 238.156 81.8792V85.1191H237.062L237.009 84.195H236.552C236.51 84.5349 236.343 84.8005 236.053 84.9917C235.762 85.1829 235.394 85.2785 234.948 85.2785ZM235.362 84.1737C235.723 84.1737 236.01 84.0781 236.223 83.8869C236.435 83.6886 236.541 83.4407 236.541 83.1433V82.8671L235.49 82.984C235.249 83.0123 235.054 83.0831 234.906 83.1964C234.764 83.3097 234.693 83.4443 234.693 83.6001C234.693 83.7701 234.753 83.9081 234.874 84.0144C234.994 84.1206 235.157 84.1737 235.362 84.1737ZM245.407 79.5316C245.923 79.5316 246.334 79.7015 246.639 80.0415C246.95 80.3743 247.106 80.824 247.106 81.3906V85.1191H245.502L245.523 82.0385C245.523 81.734 245.449 81.4968 245.3 81.3268C245.159 81.1498 244.957 81.0613 244.695 81.0613C244.447 81.0613 244.252 81.1604 244.111 81.3587C243.969 81.5499 243.898 81.819 243.898 82.166V85.1191H242.294L242.315 82.0385C242.315 81.734 242.241 81.4968 242.092 81.3268C241.951 81.1498 241.749 81.0613 241.487 81.0613C241.239 81.0613 241.044 81.171 240.902 81.3906C240.761 81.6101 240.69 81.9146 240.69 82.3041V85.1191H239.086V79.7015H240.424C240.382 80.0415 240.297 80.4204 240.17 80.8382H240.605C240.817 79.9671 241.292 79.5316 242.028 79.5316C242.772 79.5316 243.232 79.9671 243.409 80.8382H243.813C243.905 80.4204 244.086 80.0981 244.355 79.8715C244.631 79.6449 244.982 79.5316 245.407 79.5316ZM250.413 85.2785C249.847 85.2785 249.351 85.1616 248.926 84.9279C248.508 84.6942 248.186 84.3614 247.959 83.9294C247.733 83.4903 247.619 82.9804 247.619 82.3997C247.619 81.819 247.729 81.3162 247.949 80.8913C248.175 80.4593 248.498 80.1265 248.915 79.8928C249.333 79.6591 249.822 79.5422 250.381 79.5422C250.941 79.5422 251.429 79.6449 251.847 79.8503C252.265 80.0556 252.584 80.3495 252.803 80.732C253.03 81.1144 253.143 81.5641 253.143 82.081C253.143 82.3926 253.118 82.6547 253.069 82.8671H249.192C249.255 83.2283 249.393 83.5116 249.606 83.7169C249.825 83.9152 250.095 84.0144 250.413 84.0144C250.739 84.0144 250.997 83.9648 251.189 83.8657C251.387 83.7594 251.486 83.6178 251.486 83.4407V83.4089H253.016V83.4407C253.016 84.0002 252.782 84.4464 252.315 84.7792C251.847 85.1121 251.213 85.2785 250.413 85.2785ZM251.56 81.8898C251.49 81.5428 251.352 81.2737 251.146 81.0825C250.941 80.8913 250.686 80.7957 250.381 80.7957C250.077 80.7957 249.822 80.8913 249.617 81.0825C249.411 81.2737 249.273 81.5428 249.202 81.8898H251.56Z" fill="black"/>
<path d="M186.039 98.8229C185.395 98.8229 184.892 98.6352 184.531 98.2599C184.17 97.8846 183.989 97.3605 183.989 96.6877V96.2628H184.913V96.5815C184.913 97.0277 185.013 97.3747 185.211 97.6225C185.409 97.8704 185.685 97.9943 186.039 97.9943C186.394 97.9943 186.67 97.8704 186.868 97.6225C187.066 97.3747 187.165 97.0277 187.165 96.5815L187.176 91.2277H188.1L188.09 96.6877C188.09 97.3605 187.909 97.8846 187.548 98.2599C187.187 98.6352 186.684 98.8229 186.039 98.8229ZM191.663 98.8229C191.125 98.8229 190.654 98.7096 190.251 98.483C189.854 98.2564 189.546 97.9341 189.326 97.5163C189.114 97.0985 189.008 96.6098 189.008 96.0504C189.008 95.4909 189.114 95.0058 189.326 94.5951C189.546 94.1772 189.854 93.8586 190.251 93.639C190.654 93.4124 191.125 93.2991 191.663 93.2991C192.202 93.2991 192.669 93.4124 193.066 93.639C193.469 93.8586 193.777 94.1772 193.99 94.5951C194.209 95.0058 194.319 95.4909 194.319 96.0504C194.319 96.6098 194.209 97.0985 193.99 97.5163C193.777 97.9341 193.469 98.2564 193.066 98.483C192.669 98.7096 192.202 98.8229 191.663 98.8229ZM191.663 97.9943C192.202 97.9943 192.627 97.8208 192.938 97.4738C193.257 97.1197 193.416 96.6453 193.416 96.0504C193.416 95.4626 193.257 94.9952 192.938 94.6482C192.627 94.3012 192.202 94.1277 191.663 94.1277C191.125 94.1277 190.697 94.3012 190.378 94.6482C190.066 94.9952 189.911 95.4626 189.911 96.0504C189.911 96.6453 190.066 97.1197 190.378 97.4738C190.697 97.8208 191.125 97.9943 191.663 97.9943ZM197.717 93.2991C198.319 93.2991 198.775 93.4832 199.087 93.8515C199.406 94.2197 199.565 94.7509 199.565 95.4449V98.6636H198.705V95.5511C198.705 95.0908 198.595 94.7402 198.375 94.4995C198.163 94.2516 197.851 94.1277 197.44 94.1277C197.044 94.1277 196.729 94.2693 196.495 94.5526C196.261 94.8359 196.145 95.2183 196.145 95.6998V98.6636H195.284V90.6328H196.134V93.1291C196.134 93.6461 196.042 94.0993 195.858 94.4888H196.113C196.346 93.6957 196.881 93.2991 197.717 93.2991ZM200.908 98.6636V93.4584H201.651C201.658 93.7913 201.602 94.1348 201.481 94.4888H201.736C201.97 93.6957 202.505 93.2991 203.34 93.2991C203.942 93.2991 204.399 93.4832 204.711 93.8515C205.029 94.2197 205.189 94.7509 205.189 95.4449V98.6636H204.328V95.5511C204.328 95.0908 204.218 94.7402 203.999 94.4995C203.786 94.2516 203.475 94.1277 203.064 94.1277C202.667 94.1277 202.352 94.2693 202.119 94.5526C201.885 94.8359 201.768 95.2183 201.768 95.6998V98.6636H200.908ZM208.783 98.6636V91.2277H210.716C211.46 91.2277 212.1 91.3764 212.639 91.6738C213.177 91.9642 213.588 92.3855 213.871 92.9379C214.154 93.4903 214.296 94.1525 214.296 94.9244C214.296 95.7034 214.154 96.3761 213.871 96.9427C213.588 97.5022 213.177 97.9306 212.639 98.228C212.1 98.5184 211.46 98.6636 210.716 98.6636H208.783ZM210.716 97.835C211.537 97.835 212.175 97.5801 212.628 97.0702C213.088 96.5603 213.318 95.845 213.318 94.9244C213.318 94.025 213.088 93.3239 212.628 92.8211C212.175 92.3112 211.537 92.0562 210.716 92.0562H209.707V97.835H210.716ZM217.486 98.8229C216.948 98.8229 216.477 98.7096 216.073 98.483C215.676 98.2564 215.368 97.9341 215.149 97.5163C214.936 97.0985 214.83 96.6098 214.83 96.0504C214.83 95.4909 214.936 95.0058 215.149 94.5951C215.368 94.1772 215.676 93.8586 216.073 93.639C216.477 93.4124 216.948 93.2991 217.486 93.2991C218.024 93.2991 218.491 93.4124 218.888 93.639C219.292 93.8586 219.6 94.1772 219.812 94.5951C220.032 95.0058 220.141 95.4909 220.141 96.0504C220.141 96.6098 220.032 97.0985 219.812 97.5163C219.6 97.9341 219.292 98.2564 218.888 98.483C218.491 98.7096 218.024 98.8229 217.486 98.8229ZM217.486 97.9943C218.024 97.9943 218.449 97.8208 218.76 97.4738C219.079 97.1197 219.238 96.6453 219.238 96.0504C219.238 95.4626 219.079 94.9952 218.76 94.6482C218.449 94.3012 218.024 94.1277 217.486 94.1277C216.948 94.1277 216.519 94.3012 216.2 94.6482C215.889 94.9952 215.733 95.4626 215.733 96.0504C215.733 96.6453 215.889 97.1197 216.2 97.4738C216.519 97.8208 216.948 97.9943 217.486 97.9943ZM223.454 98.8229C222.583 98.8229 221.9 98.5751 221.404 98.0793C220.915 97.5836 220.671 96.9073 220.671 96.0504C220.671 95.4909 220.774 95.0058 220.979 94.5951C221.191 94.1772 221.489 93.8586 221.871 93.639C222.261 93.4124 222.71 93.2991 223.22 93.2991C223.702 93.2991 224.137 93.4089 224.527 93.6284C224.916 93.8409 225.221 94.1418 225.441 94.5313C225.66 94.9138 225.77 95.3493 225.77 95.8379C225.77 96.1779 225.745 96.4151 225.695 96.5497H221.616C221.701 97.0029 221.903 97.357 222.222 97.6119C222.541 97.8669 222.951 97.9943 223.454 97.9943C223.822 97.9943 224.13 97.9235 224.378 97.7819C224.633 97.6332 224.761 97.4455 224.761 97.2189V97.2083H225.664V97.2189C225.664 97.5234 225.564 97.7996 225.366 98.0475C225.175 98.2882 224.909 98.4794 224.569 98.6211C224.237 98.7556 223.865 98.8229 223.454 98.8229ZM224.856 95.7742C224.807 95.2643 224.637 94.8642 224.346 94.5738C224.056 94.2764 223.681 94.1277 223.22 94.1277C222.76 94.1277 222.385 94.2764 222.094 94.5738C221.804 94.8642 221.634 95.2643 221.584 95.7742H224.856Z" fill="black"/>
<rect x="1" y="1" width="323" height="203.428" rx="7.76442" stroke="#F2F2F2" stroke-width="2"/>
<defs>
<clipPath id="clip0_275_74">
<rect width="15.5288" height="15.5288" fill="white" transform="translate(35.1635 27.3984)"/>
</clipPath>
</defs>
</svg>
