<svg width="405" height="348" viewBox="0 0 405 348" fill="none" xmlns="http://www.w3.org/2000/svg">
<rect width="405" height="348" rx="21.4658" fill="#F9F9F9"/>
<rect x="64.9321" y="60.8198" width="263.372" height="75.0315" rx="37.5157" transform="rotate(1.82863 64.9321 60.8198)" fill="#3CDF90"/>
<rect x="78.8887" y="73.5771" width="51.2337" height="50.4205" rx="25.2102" transform="rotate(1.82863 78.8887 73.5771)" fill="white"/>
<path d="M153.537 109.688L154.086 92.469L157.752 92.5861L165.257 104.3L166.288 103.619C165.76 102.683 165.363 101.751 165.097 100.823C164.832 99.8791 164.712 99.0216 164.736 98.2508L164.91 92.8146L168.846 92.9402L168.296 110.159L164.385 110.034L157.115 98.6477L156.084 99.3289C156.612 100.265 157.009 101.205 157.274 102.149C157.54 103.077 157.66 103.926 157.636 104.697L157.472 109.814L153.537 109.688ZM171.831 110.297L171.947 106.681L175.415 106.791L175.582 101.577C175.597 101.101 175.744 100.621 176.022 100.138C176.3 99.6378 176.693 99.1579 177.2 98.698L176.368 97.785C175.912 98.1644 175.444 98.445 174.962 98.6266C174.497 98.7923 173.977 98.866 173.404 98.8477L171.829 98.7974L171.92 95.9686C173.363 96.0147 174.486 95.7879 175.29 95.2882C176.094 94.7886 176.51 94.0878 176.539 93.1859L179.688 93.2864L179.253 106.914L182.5 107.018L182.384 110.634L171.831 110.297ZM186.815 114.247L183.912 114.154L184.883 106.872L188.475 106.987L186.815 114.247ZM195.973 111.412C194.087 111.352 192.668 110.79 191.717 109.725C191.051 109.014 190.573 108.047 190.283 106.823C190.011 105.583 189.904 104.053 189.962 102.233C190.02 100.412 190.224 98.9004 190.575 97.6969C190.942 96.4774 191.481 95.5343 192.192 94.8675C193.209 93.8658 194.66 93.3951 196.546 93.4553C198.432 93.5155 199.85 94.0779 200.801 95.1424C201.468 95.8532 201.938 96.8285 202.21 98.0683C202.499 99.2923 202.615 100.814 202.557 102.635C202.498 104.455 202.286 105.975 201.918 107.194C201.568 108.398 201.038 109.333 200.327 110C199.31 111.002 197.859 111.472 195.973 111.412ZM196.087 107.845C196.677 107.864 197.135 107.641 197.462 107.175C198.028 106.422 198.349 104.864 198.424 102.503C198.499 100.141 198.279 98.5666 197.762 97.7786C197.466 97.2931 197.022 97.0409 196.432 97.022C195.842 97.0032 195.383 97.2266 195.056 97.6922C194.491 98.4457 194.17 100.003 194.095 102.365C194.019 104.726 194.24 106.301 194.756 107.089C195.053 107.574 195.496 107.827 196.087 107.845ZM209.615 111.848C207.729 111.787 206.311 111.225 205.36 110.161C204.693 109.45 204.215 108.482 203.926 107.258C203.654 106.019 203.547 104.489 203.605 102.668C203.663 100.848 203.867 99.336 204.217 98.1324C204.585 96.913 205.124 95.9699 205.834 95.3031C206.851 94.3014 208.303 93.8306 210.189 93.8908C212.074 93.951 213.493 94.5134 214.444 95.578C215.111 96.2887 215.58 97.264 215.852 98.5039C216.142 99.7279 216.257 101.25 216.199 103.07C216.141 104.891 215.928 106.41 215.561 107.63C215.211 108.833 214.68 109.769 213.969 110.435C212.952 111.437 211.501 111.908 209.615 111.848ZM209.729 108.281C210.319 108.3 210.778 108.076 211.105 107.611C211.671 106.857 211.991 105.3 212.067 102.938C212.142 100.577 211.921 99.0022 211.405 98.2142C211.108 97.7286 210.665 97.4765 210.075 97.4576C209.484 97.4388 209.026 97.6621 208.699 98.1278C208.133 98.8812 207.813 100.439 207.737 102.8C207.662 105.162 207.882 106.736 208.399 107.524C208.695 108.01 209.139 108.262 209.729 108.281ZM223.258 112.283C221.372 112.223 219.953 111.661 219.002 110.596C218.336 109.885 217.858 108.918 217.568 107.694C217.296 106.454 217.189 104.924 217.247 103.104C217.305 101.283 217.51 99.7716 217.86 98.568C218.227 97.3485 218.766 96.4054 219.477 95.7387C220.494 94.7369 221.945 94.2662 223.831 94.3264C225.717 94.3866 227.135 94.949 228.086 96.0135C228.753 96.7243 229.223 97.6996 229.495 98.9394C229.784 100.163 229.9 101.686 229.842 103.506C229.783 105.326 229.571 106.846 229.204 108.065C228.853 109.269 228.323 110.204 227.612 110.871C226.595 111.873 225.144 112.343 223.258 112.283ZM223.372 108.716C223.962 108.735 224.421 108.512 224.747 108.046C225.313 107.293 225.634 105.735 225.709 103.374C225.784 101.012 225.564 99.4377 225.047 98.6497C224.751 98.1642 224.308 97.912 223.717 97.8932C223.127 97.8743 222.668 98.0977 222.341 98.5633C221.776 99.3168 221.455 100.874 221.38 103.236C221.304 105.597 221.525 107.172 222.041 107.96C222.338 108.445 222.781 108.698 223.372 108.716ZM233.554 115.739L230.651 115.646L231.622 108.364L235.213 108.479L233.554 115.739ZM242.712 112.904C240.826 112.844 239.407 112.282 238.456 111.217C237.79 110.506 237.312 109.539 237.022 108.315C236.75 107.075 236.643 105.545 236.701 103.725C236.759 101.905 236.963 100.393 237.314 99.1891C237.681 97.9696 238.22 97.0265 238.931 96.3597C239.948 95.358 241.399 94.8873 243.285 94.9475C245.171 95.0077 246.589 95.5701 247.54 96.6346C248.207 97.3454 248.677 98.3207 248.949 99.5605C249.238 100.785 249.354 102.307 249.296 104.127C249.237 105.947 249.025 107.467 248.657 108.687C248.307 109.89 247.777 110.825 247.066 111.492C246.049 112.494 244.598 112.965 242.712 112.904ZM242.826 109.338C243.416 109.356 243.874 109.133 244.201 108.667C244.767 107.914 245.088 106.356 245.163 103.995C245.238 101.634 245.018 100.059 244.501 99.2708C244.205 98.7853 243.761 98.5331 243.171 98.5143C242.581 98.4954 242.122 98.7188 241.795 99.1844C241.23 99.9379 240.909 101.495 240.834 103.857C240.758 106.218 240.979 107.793 241.495 108.581C241.792 109.067 242.235 109.319 242.826 109.338ZM256.354 113.34C254.468 113.28 253.05 112.717 252.099 111.653C251.432 110.942 250.954 109.975 250.665 108.751C250.393 107.511 250.286 105.981 250.344 104.16C250.402 102.34 250.606 100.828 250.956 99.6246C251.324 98.4052 251.863 97.4621 252.573 96.7953C253.59 95.7936 255.042 95.3228 256.927 95.383C258.813 95.4432 260.232 96.0056 261.183 97.0702C261.85 97.7809 262.319 98.7562 262.591 99.9961C262.881 101.22 262.996 102.742 262.938 104.563C262.88 106.383 262.667 107.903 262.3 109.122C261.95 110.326 261.419 111.261 260.708 111.928C259.691 112.929 258.24 113.4 256.354 113.34ZM256.468 109.773C257.058 109.792 257.517 109.569 257.844 109.103C258.41 108.35 258.73 106.792 258.806 104.431C258.881 102.069 258.66 100.494 258.144 99.7064C257.847 99.2208 257.404 98.9687 256.814 98.9498C256.223 98.931 255.765 99.1544 255.438 99.62C254.872 100.373 254.552 101.931 254.476 104.292C254.401 106.654 254.621 108.229 255.138 109.017C255.434 109.502 255.878 109.754 256.468 109.773ZM269.997 113.775C268.111 113.715 266.692 113.153 265.741 112.088C265.075 111.378 264.597 110.41 264.307 109.186C264.035 107.946 263.928 106.416 263.986 104.596C264.044 102.776 264.249 101.264 264.599 100.06C264.966 98.8407 265.505 97.8976 266.216 97.2309C267.233 96.2291 268.684 95.7584 270.57 95.8186C272.456 95.8788 273.874 96.4412 274.825 97.5057C275.492 98.2165 275.962 99.1918 276.234 100.432C276.523 101.656 276.639 103.178 276.581 104.998C276.522 106.818 276.31 108.338 275.943 109.558C275.592 110.761 275.062 111.696 274.351 112.363C273.334 113.365 271.883 113.836 269.997 113.775ZM270.111 110.209C270.701 110.228 271.16 110.004 271.486 109.539C272.052 108.785 272.373 107.228 272.448 104.866C272.523 102.505 272.303 100.93 271.786 100.142C271.49 99.6564 271.047 99.4042 270.456 99.3854C269.866 99.3665 269.407 99.5899 269.08 100.056C268.515 100.809 268.194 102.366 268.119 104.728C268.043 107.089 268.264 108.664 268.78 109.452C269.077 109.938 269.52 110.19 270.111 110.209Z" fill="white"/>
<rect x="62.3687" y="143.51" width="277.372" height="75.0315" rx="37.5157" transform="rotate(-2.8702 62.3687 143.51)" fill="#FF459F"/>
<rect x="77.3232" y="155.082" width="51.2337" height="50.4205" rx="25.2102" transform="rotate(-2.8702 77.3232 155.082)" fill="white"/>
<path d="M98.0786 179.283L102.343 183.14L110.058 174.611" stroke="#3CDF90" stroke-width="3.25293" stroke-linecap="round" stroke-linejoin="round"/>
<path d="M154.679 184.956L153.816 167.75L157.479 167.566L165.919 178.626L166.891 177.863C166.288 176.973 165.816 176.077 165.475 175.174C165.133 174.255 164.943 173.41 164.904 172.64L164.632 167.207L168.564 167.01L169.427 184.216L165.519 184.412L157.341 173.66L156.369 174.423C156.972 175.313 157.444 176.217 157.786 177.136C158.127 178.039 158.317 178.876 158.355 179.646L158.612 184.759L154.679 184.956ZM172.962 184.064L172.781 180.45L176.247 180.277L175.985 175.066C175.962 174.591 176.068 174.101 176.306 173.596C176.543 173.075 176.895 172.564 177.363 172.064L176.458 171.223C176.035 171.638 175.591 171.956 175.126 172.176C174.676 172.38 174.165 172.496 173.591 172.524L172.018 172.603L171.876 169.777C173.318 169.704 174.419 169.386 175.18 168.822C175.94 168.259 176.297 167.526 176.252 166.625L179.398 166.467L180.081 180.084L183.326 179.922L183.507 183.535L172.962 184.064ZM191.306 183.489C189.422 183.584 187.962 183.139 186.927 182.156C186.205 181.502 185.649 180.577 185.26 179.381C184.887 178.168 184.655 176.652 184.564 174.833C184.473 173.014 184.553 171.49 184.803 170.262C185.069 169.017 185.529 168.033 186.183 167.31C187.114 166.228 188.522 165.64 190.407 165.546C192.291 165.451 193.751 165.895 194.786 166.878C195.509 167.532 196.057 168.466 196.43 169.679C196.818 170.875 197.058 172.383 197.149 174.202C197.24 176.021 197.153 177.553 196.887 178.798C196.636 180.027 196.184 181.002 195.53 181.725C194.599 182.806 193.191 183.395 191.306 183.489ZM191.128 179.925C191.718 179.895 192.156 179.635 192.444 179.144C192.946 178.347 193.138 176.769 193.02 174.409C192.901 172.049 192.553 170.498 191.973 169.755C191.638 169.295 191.175 169.08 190.586 169.11C189.996 169.139 189.557 169.399 189.269 169.89C188.767 170.688 188.575 172.266 188.694 174.626C188.812 176.985 189.161 178.537 189.74 179.28C190.075 179.739 190.538 179.954 191.128 179.925ZM201.851 186.09L198.95 186.235L199.322 178.898L202.91 178.718L201.851 186.09ZM210.746 182.514C208.861 182.609 207.402 182.165 206.367 181.182C205.644 180.528 205.088 179.603 204.7 178.407C204.327 177.193 204.095 175.677 204.004 173.858C203.912 172.039 203.992 170.516 204.243 169.287C204.509 168.042 204.969 167.058 205.622 166.335C206.554 165.253 207.962 164.665 209.846 164.571C211.731 164.476 213.19 164.921 214.225 165.904C214.948 166.558 215.496 167.491 215.869 168.705C216.258 169.901 216.497 171.408 216.589 173.227C216.68 175.046 216.592 176.578 216.326 177.824C216.076 179.052 215.624 180.027 214.97 180.75C214.038 181.832 212.63 182.42 210.746 182.514ZM210.567 178.95C211.157 178.921 211.596 178.661 211.883 178.17C212.386 177.372 212.577 175.794 212.459 173.434C212.341 171.075 211.992 169.523 211.413 168.78C211.077 168.32 210.615 168.105 210.025 168.135C209.435 168.165 208.996 168.425 208.709 168.916C208.207 169.713 208.015 171.291 208.133 173.651C208.251 176.011 208.6 177.562 209.18 178.305C209.515 178.765 209.977 178.98 210.567 178.95ZM224.378 181.831C222.494 181.925 221.034 181.481 219.999 180.498C219.276 179.844 218.721 178.919 218.332 177.723C217.959 176.51 217.727 174.994 217.636 173.175C217.545 171.356 217.624 169.832 217.875 168.604C218.141 167.358 218.601 166.374 219.255 165.652C220.186 164.57 221.594 163.982 223.479 163.887C225.363 163.793 226.823 164.237 227.858 165.22C228.581 165.874 229.128 166.808 229.501 168.021C229.89 169.217 230.13 170.725 230.221 172.544C230.312 174.363 230.225 175.895 229.959 177.14C229.708 178.368 229.256 179.344 228.602 180.067C227.671 181.148 226.263 181.736 224.378 181.831ZM224.2 178.267C224.789 178.237 225.228 177.977 225.516 177.486C226.018 176.689 226.21 175.11 226.092 172.751C225.973 170.391 225.624 168.84 225.045 168.097C224.71 167.637 224.247 167.422 223.657 167.452C223.067 167.481 222.629 167.741 222.341 168.232C221.839 169.029 221.647 170.608 221.765 172.968C221.884 175.327 222.233 176.879 222.812 177.622C223.147 178.081 223.61 178.296 224.2 178.267ZM238.011 181.147C236.126 181.242 234.666 180.798 233.631 179.815C232.909 179.161 232.353 178.236 231.965 177.04C231.592 175.826 231.36 174.31 231.268 172.491C231.177 170.672 231.257 169.149 231.507 167.92C231.773 166.675 232.233 165.691 232.887 164.968C233.819 163.887 235.227 163.298 237.111 163.204C238.995 163.109 240.455 163.554 241.49 164.537C242.213 165.191 242.761 166.124 243.134 167.338C243.522 168.534 243.762 170.041 243.853 171.86C243.945 173.679 243.857 175.211 243.591 176.457C243.34 177.685 242.888 178.66 242.235 179.383C241.303 180.465 239.895 181.053 238.011 181.147ZM237.832 177.583C238.422 177.554 238.861 177.294 239.148 176.803C239.65 176.005 239.842 174.427 239.724 172.067C239.606 169.708 239.257 168.156 238.677 167.413C238.342 166.954 237.88 166.739 237.29 166.768C236.7 166.798 236.261 167.058 235.974 167.549C235.471 168.346 235.279 169.924 235.398 172.284C235.516 174.644 235.865 176.195 236.444 176.938C236.779 177.398 237.242 177.613 237.832 177.583ZM248.555 183.748L245.654 183.894L246.026 176.556L249.615 176.377L248.555 183.748ZM257.45 180.173C255.566 180.267 254.106 179.823 253.071 178.84C252.348 178.186 251.793 177.261 251.404 176.065C251.031 174.852 250.799 173.335 250.708 171.517C250.617 169.698 250.696 168.174 250.947 166.946C251.213 165.7 251.673 164.716 252.327 163.994C253.258 162.912 254.666 162.324 256.55 162.229C258.435 162.135 259.895 162.579 260.93 163.562C261.652 164.216 262.2 165.15 262.573 166.363C262.962 167.559 263.202 169.067 263.293 170.886C263.384 172.705 263.296 174.237 263.03 175.482C262.78 176.71 262.328 177.686 261.674 178.409C260.742 179.49 259.335 180.078 257.45 180.173ZM257.271 176.609C257.861 176.579 258.3 176.319 258.588 175.828C259.09 175.031 259.282 173.452 259.163 171.093C259.045 168.733 258.696 167.182 258.117 166.439C257.782 165.979 257.319 165.764 256.729 165.793C256.139 165.823 255.7 166.083 255.413 166.574C254.911 167.371 254.719 168.95 254.837 171.31C254.955 173.669 255.304 175.221 255.884 175.964C256.219 176.423 256.681 176.638 257.271 176.609ZM271.082 179.489C269.198 179.584 267.738 179.14 266.703 178.156C265.981 177.503 265.425 176.578 265.036 175.382C264.663 174.168 264.431 172.652 264.34 170.833C264.249 169.014 264.329 167.491 264.579 166.262C264.845 165.017 265.305 164.033 265.959 163.31C266.89 162.228 268.298 161.64 270.183 161.546C272.067 161.451 273.527 161.896 274.562 162.879C275.285 163.532 275.833 164.466 276.206 165.679C276.594 166.876 276.834 168.383 276.925 170.202C277.016 172.021 276.929 173.553 276.663 174.799C276.412 176.027 275.96 177.002 275.306 177.725C274.375 178.807 272.967 179.395 271.082 179.489ZM270.904 175.925C271.494 175.896 271.932 175.635 272.22 175.145C272.722 174.347 272.914 172.769 272.796 170.409C272.677 168.049 272.329 166.498 271.749 165.755C271.414 165.295 270.951 165.08 270.361 165.11C269.772 165.14 269.333 165.4 269.045 165.891C268.543 166.688 268.351 168.266 268.47 170.626C268.588 172.986 268.937 174.537 269.516 175.28C269.851 175.74 270.314 175.955 270.904 175.925ZM284.715 178.806C282.83 178.9 281.371 178.456 280.336 177.473C279.613 176.819 279.057 175.894 278.669 174.698C278.296 173.485 278.064 171.969 277.972 170.15C277.881 168.331 277.961 166.807 278.211 165.579C278.478 164.333 278.938 163.349 279.591 162.627C280.523 161.545 281.931 160.957 283.815 160.862C285.7 160.768 287.159 161.212 288.194 162.195C288.917 162.849 289.465 163.783 289.838 164.996C290.226 166.192 290.466 167.7 290.557 169.519C290.649 171.338 290.561 172.87 290.295 174.115C290.045 175.343 289.592 176.319 288.939 177.042C288.007 178.123 286.599 178.711 284.715 178.806ZM284.536 175.242C285.126 175.212 285.565 174.952 285.852 174.461C286.354 173.664 286.546 172.085 286.428 169.726C286.31 167.366 285.961 165.815 285.381 165.072C285.046 164.612 284.584 164.397 283.994 164.427C283.404 164.456 282.965 164.716 282.678 165.207C282.176 166.004 281.984 167.583 282.102 169.943C282.22 172.302 282.569 173.854 283.148 174.597C283.484 175.056 283.946 175.271 284.536 175.242Z" fill="white"/>
<g clip-path="url(#clip0_1954_10380)">
<rect x="61.6543" y="209.023" width="291.372" height="75.0315" rx="37.5157" transform="rotate(3.37118 61.6543 209.023)" fill="#4845FF"/>
<rect x="75.2622" y="222.152" width="51.2337" height="50.4205" rx="25.2102" transform="rotate(3.37118 75.2622 222.152)" fill="white"/>
<path d="M148.912 260.259L149.925 243.061L153.585 243.276L160.773 255.188L161.822 254.535C161.319 253.585 160.947 252.643 160.707 251.708C160.467 250.757 160.37 249.897 160.415 249.127L160.735 243.698L164.666 243.929L163.653 261.127L159.746 260.897L152.786 249.319L151.736 249.972C152.239 250.922 152.611 251.872 152.85 252.823C153.091 253.758 153.189 254.61 153.144 255.38L152.843 260.49L148.912 260.259ZM167.183 261.36L167.396 257.748L170.86 257.952L171.167 252.744C171.195 252.269 171.354 251.793 171.645 251.317C171.937 250.825 172.343 250.356 172.862 249.91L172.055 248.975C171.589 249.342 171.113 249.61 170.627 249.778C170.158 249.931 169.636 249.991 169.063 249.957L167.491 249.865L167.657 247.039C169.098 247.124 170.228 246.928 171.045 246.45C171.862 245.972 172.297 245.283 172.35 244.382L175.495 244.567L174.693 258.178L177.936 258.369L177.723 261.981L167.183 261.36ZM185.481 262.783C183.598 262.672 182.195 262.071 181.273 260.982C180.626 260.253 180.174 259.273 179.918 258.042C179.679 256.795 179.613 255.263 179.72 253.445C179.827 251.627 180.072 250.121 180.455 248.927C180.855 247.718 181.419 246.79 182.147 246.142C183.191 245.168 184.654 244.737 186.538 244.848C188.422 244.959 189.824 245.559 190.746 246.649C191.394 247.377 191.837 248.365 192.076 249.612C192.332 250.843 192.406 252.368 192.299 254.186C192.192 256.004 191.939 257.517 191.539 258.727C191.156 259.92 190.601 260.841 189.872 261.488C188.829 262.462 187.365 262.894 185.481 262.783ZM185.691 259.22C186.281 259.255 186.745 259.044 187.085 258.587C187.67 257.849 188.033 256.301 188.172 253.943C188.311 251.584 188.133 250.004 187.637 249.202C187.354 248.709 186.918 248.445 186.328 248.41C185.738 248.375 185.274 248.586 184.935 249.043C184.349 249.781 183.987 251.329 183.848 253.688C183.709 256.046 183.887 257.627 184.382 258.428C184.665 258.922 185.102 259.186 185.691 259.22ZM199.107 263.585C197.224 263.474 195.821 262.874 194.899 261.784C194.252 261.056 193.8 260.076 193.544 258.845C193.305 257.598 193.239 256.065 193.346 254.247C193.453 252.429 193.698 250.923 194.081 249.73C194.481 248.521 195.045 247.592 195.773 246.945C196.817 245.971 198.28 245.539 200.164 245.65C202.047 245.761 203.45 246.362 204.372 247.452C205.019 248.18 205.463 249.168 205.701 250.414C205.958 251.646 206.032 253.17 205.925 254.988C205.818 256.806 205.564 258.32 205.165 259.529C204.782 260.723 204.226 261.643 203.498 262.291C202.454 263.265 200.991 263.696 199.107 263.585ZM199.317 260.023C199.907 260.058 200.371 259.847 200.71 259.39C201.296 258.652 201.659 257.104 201.798 254.745C201.937 252.387 201.758 250.807 201.263 250.005C200.98 249.512 200.544 249.248 199.954 249.213C199.364 249.178 198.9 249.389 198.561 249.846C197.975 250.584 197.612 252.132 197.474 254.491C197.335 256.849 197.513 258.429 198.008 259.231C198.291 259.724 198.728 259.988 199.317 260.023ZM209.306 267.317L206.407 267.146L207.574 259.893L211.161 260.104L209.306 267.317ZM218.537 264.73C216.654 264.619 215.251 264.019 214.329 262.929C213.682 262.2 213.23 261.221 212.974 259.989C212.735 258.742 212.669 257.21 212.776 255.392C212.883 253.574 213.128 252.068 213.511 250.874C213.911 249.665 214.475 248.737 215.203 248.09C216.247 247.116 217.71 246.684 219.594 246.795C221.478 246.906 222.88 247.506 223.802 248.596C224.45 249.324 224.893 250.312 225.132 251.559C225.388 252.79 225.462 254.315 225.355 256.133C225.248 257.951 224.995 259.465 224.595 260.674C224.212 261.867 223.657 262.788 222.928 263.435C221.885 264.409 220.421 264.841 218.537 264.73ZM218.747 261.168C219.337 261.202 219.801 260.991 220.141 260.535C220.726 259.797 221.089 258.248 221.228 255.89C221.367 253.531 221.189 251.951 220.693 251.149C220.41 250.656 219.974 250.392 219.384 250.357C218.794 250.323 218.33 250.534 217.991 250.99C217.405 251.728 217.043 253.277 216.904 255.635C216.765 257.994 216.943 259.574 217.438 260.375C217.721 260.869 218.158 261.133 218.747 261.168ZM232.163 265.533C230.28 265.422 228.877 264.821 227.955 263.731C227.308 263.003 226.856 262.023 226.6 260.792C226.361 259.545 226.295 258.013 226.402 256.195C226.509 254.377 226.754 252.871 227.137 251.677C227.537 250.468 228.101 249.54 228.829 248.892C229.873 247.918 231.336 247.487 233.22 247.598C235.103 247.709 236.506 248.309 237.428 249.399C238.076 250.127 238.519 251.115 238.757 252.361C239.014 253.593 239.088 255.118 238.981 256.936C238.874 258.754 238.62 260.267 238.221 261.476C237.838 262.67 237.282 263.591 236.554 264.238C235.51 265.212 234.047 265.644 232.163 265.533ZM232.373 261.97C232.963 262.005 233.427 261.794 233.766 261.337C234.352 260.599 234.715 259.051 234.854 256.692C234.993 254.334 234.814 252.754 234.319 251.952C234.036 251.459 233.6 251.195 233.01 251.16C232.42 251.125 231.956 251.336 231.617 251.793C231.031 252.531 230.669 254.079 230.53 256.438C230.391 258.796 230.569 260.376 231.064 261.178C231.347 261.671 231.784 261.935 232.373 261.97ZM245.789 266.335C243.906 266.224 242.503 265.624 241.581 264.534C240.934 263.806 240.482 262.826 240.226 261.594C239.987 260.348 239.921 258.815 240.028 256.997C240.135 255.179 240.38 253.673 240.762 252.48C241.162 251.27 241.727 250.342 242.455 249.695C243.499 248.721 244.962 248.289 246.846 248.4C248.729 248.511 250.132 249.112 251.054 250.201C251.701 250.93 252.144 251.917 252.383 253.164C252.64 254.395 252.714 255.92 252.607 257.738C252.5 259.556 252.246 261.07 251.846 262.279C251.464 263.473 250.908 264.393 250.18 265.041C249.136 266.015 247.673 266.446 245.789 266.335ZM245.999 262.773C246.589 262.808 247.053 262.597 247.392 262.14C247.978 261.402 248.341 259.854 248.479 257.495C248.618 255.137 248.44 253.556 247.945 252.755C247.662 252.261 247.225 251.997 246.636 251.963C246.046 251.928 245.582 252.139 245.243 252.596C244.657 253.334 244.294 254.882 244.155 257.24C244.016 259.599 244.195 261.179 244.69 261.981C244.973 262.474 245.409 262.738 245.999 262.773ZM255.988 270.067L253.089 269.896L254.256 262.643L257.843 262.854L255.988 270.067ZM265.219 267.48C263.336 267.369 261.933 266.768 261.011 265.679C260.364 264.95 259.912 263.97 259.656 262.739C259.417 261.492 259.351 259.96 259.458 258.142C259.565 256.324 259.81 254.818 260.193 253.624C260.593 252.415 261.157 251.487 261.885 250.839C262.929 249.865 264.392 249.434 266.276 249.545C268.159 249.656 269.562 250.256 270.484 251.346C271.132 252.074 271.575 253.062 271.813 254.309C272.07 255.54 272.144 257.065 272.037 258.883C271.93 260.701 271.677 262.214 271.277 263.424C270.894 264.617 270.338 265.538 269.61 266.185C268.566 267.159 267.103 267.591 265.219 267.48ZM265.429 263.917C266.019 263.952 266.483 263.741 266.822 263.284C267.408 262.546 267.771 260.998 267.91 258.64C268.049 256.281 267.87 254.701 267.375 253.899C267.092 253.406 266.656 253.142 266.066 253.107C265.476 253.073 265.012 253.283 264.673 253.74C264.087 254.478 263.725 256.026 263.586 258.385C263.447 260.744 263.625 262.324 264.12 263.125C264.403 263.619 264.84 263.883 265.429 263.917ZM278.845 268.282C276.962 268.171 275.559 267.571 274.637 266.481C273.99 265.753 273.538 264.773 273.282 263.542C273.043 262.295 272.977 260.763 273.084 258.944C273.191 257.126 273.436 255.621 273.819 254.427C274.218 253.218 274.783 252.289 275.511 251.642C276.555 250.668 278.018 250.237 279.902 250.347C281.785 250.458 283.188 251.059 284.11 252.149C284.757 252.877 285.201 253.865 285.439 255.111C285.696 256.343 285.77 257.867 285.663 259.685C285.556 261.504 285.302 263.017 284.902 264.226C284.52 265.42 283.964 266.34 283.236 266.988C282.192 267.962 280.729 268.393 278.845 268.282ZM279.055 264.72C279.645 264.755 280.109 264.544 280.448 264.087C281.034 263.349 281.397 261.801 281.535 259.442C281.674 257.084 281.496 255.504 281.001 254.702C280.718 254.209 280.282 253.945 279.692 253.91C279.102 253.875 278.638 254.086 278.299 254.543C277.713 255.281 277.35 256.829 277.211 259.188C277.073 261.546 277.251 263.126 277.746 263.928C278.029 264.421 278.465 264.685 279.055 264.72ZM292.471 269.085C290.588 268.974 289.185 268.374 288.263 267.284C287.615 266.556 287.164 265.576 286.907 264.344C286.669 263.098 286.603 261.565 286.71 259.747C286.817 257.929 287.062 256.423 287.444 255.229C287.844 254.02 288.408 253.092 289.137 252.445C290.18 251.471 291.644 251.039 293.528 251.15C295.411 251.261 296.814 251.861 297.736 252.951C298.383 253.68 298.826 254.667 299.065 255.914C299.321 257.145 299.396 258.67 299.289 260.488C299.182 262.306 298.928 263.82 298.528 265.029C298.146 266.223 297.59 267.143 296.862 267.791C295.818 268.765 294.355 269.196 292.471 269.085ZM292.681 265.523C293.271 265.557 293.735 265.346 294.074 264.89C294.66 264.152 295.022 262.604 295.161 260.245C295.3 257.886 295.122 256.306 294.627 255.505C294.344 255.011 293.907 254.747 293.318 254.713C292.728 254.678 292.264 254.889 291.924 255.345C291.339 256.083 290.976 257.632 290.837 259.99C290.698 262.349 290.876 263.929 291.372 264.731C291.655 265.224 292.091 265.488 292.681 265.523Z" fill="white"/>
</g>
<defs>
<clipPath id="clip0_1954_10380">
<rect x="61.6543" y="209.023" width="291.372" height="75.0315" rx="37.5157" transform="rotate(3.37118 61.6543 209.023)" fill="white"/>
</clipPath>
</defs>
</svg>
