<svg width="79" height="79" viewBox="0 0 79 79" fill="none" xmlns="http://www.w3.org/2000/svg">
<rect x="4" y="4" width="70.907" height="70.907" rx="35.4535" fill="#FCFF45"/>
<rect x="4" y="4" width="70.907" height="70.907" rx="35.4535" stroke="white" stroke-width="8"/>
<path d="M37.4241 20.9303C38.6222 20.0001 40.2875 20.0001 41.4855 20.9303L55.7079 31.9565C57.5194 33.3606 56.5477 36.2908 54.2719 36.3024H24.6348C22.3619 36.2908 21.3874 33.3606 23.2017 31.9565L37.4241 20.9303ZM39.4534 31.2152C40.0235 31.2152 40.5703 30.9855 40.9734 30.5766C41.3766 30.1678 41.6031 29.6132 41.6031 29.035C41.6031 28.4568 41.3766 27.9022 40.9734 27.4933C40.5703 27.0845 40.0235 26.8548 39.4534 26.8548C38.8832 26.8548 38.3365 27.0845 37.9333 27.4933C37.5302 27.9022 37.3037 28.4568 37.3037 29.035C37.3037 29.6132 37.5302 30.1678 37.9333 30.5766C38.3365 30.9855 38.8832 31.2152 39.4534 31.2152ZM26.5552 39.2094V47.9303H30.8546V39.2094H26.5552ZM33.7209 39.2094V47.9303H38.0202V39.2094H33.7209ZM40.8865 39.2094V47.9303H45.1859V39.2094H40.8865ZM48.0521 39.2094V47.9303H52.3515V39.2094H48.0521ZM22.2559 54.471C22.2559 52.4652 23.861 50.8373 25.8387 50.8373H53.0681C55.0458 50.8373 56.6509 52.4652 56.6509 54.471V55.1978C56.6509 55.5833 56.4999 55.953 56.2311 56.2256C55.9624 56.4981 55.5979 56.6513 55.2178 56.6513H23.689C23.3089 56.6513 22.9444 56.4981 22.6756 56.2256C22.4068 55.953 22.2559 55.5833 22.2559 55.1978V54.471Z" fill="#032E32"/>
</svg>
