<svg width="640" height="264" viewBox="0 0 640 264" fill="none" xmlns="http://www.w3.org/2000/svg">
<path d="M138.794 419.479C60.1075 467.268 -19.3314 496.454 -83.984 505.198C-116.321 509.571 -144.653 508.789 -167.236 502.9C-189.779 497.022 -206.196 486.182 -215.617 470.67C-225.038 455.158 -227.088 435.593 -221.911 412.878C-216.724 390.124 -204.355 364.622 -185.565 337.943C-147.998 284.604 -85.4737 227.568 -6.78755 179.779C71.8986 131.989 151.337 102.803 215.99 94.0597C248.327 89.6865 276.659 90.4685 299.242 96.3573C321.785 102.236 338.202 113.075 347.623 128.587C357.044 144.099 359.094 163.665 353.917 186.379C348.73 209.134 336.361 234.635 317.571 261.314C280.004 314.653 217.48 371.689 138.794 419.479Z" stroke="#FCFF45" stroke-width="12.5088"/>
<path d="M349.788 443.592C271.102 491.382 191.663 520.567 127.01 529.311C94.6735 533.684 66.3411 532.902 43.758 527.013C21.215 521.135 4.7984 510.295 -4.62274 494.783C-14.0439 479.271 -16.0938 459.706 -10.9164 436.992C-5.72986 414.237 6.63908 388.735 25.4288 362.057C62.9962 308.717 125.52 251.682 204.207 203.892C282.893 156.102 362.332 126.917 426.984 118.173C459.321 113.8 487.653 114.582 510.236 120.471C532.779 126.349 549.196 137.189 558.617 152.701C568.038 168.213 570.088 187.778 564.911 210.492C559.724 233.247 547.355 258.749 528.566 285.427C490.998 338.766 428.474 395.802 349.788 443.592Z" stroke="#FCFF45" stroke-width="12.5088"/>
</svg>
