<svg width="79" height="80" viewBox="0 0 79 80" fill="none" xmlns="http://www.w3.org/2000/svg">
<rect x="4.09302" y="4.79102" width="70.907" height="70.907" rx="35.4535" fill="#3CDF90"/>
<rect x="4.09302" y="4.79102" width="70.907" height="70.907" rx="35.4535" stroke="white" stroke-width="8"/>
<path d="M37.5171 21.7214C38.7152 20.7911 40.3805 20.7911 41.5786 21.7214L55.8009 32.7475C57.6124 34.1516 56.6407 37.0818 54.3649 37.0935H24.7279C22.4549 37.0818 21.4804 34.1516 23.2947 32.7475L37.5171 21.7214ZM39.5464 32.0062C40.1165 32.0062 40.6633 31.7765 41.0665 31.3677C41.4696 30.9588 41.6961 30.4042 41.6961 29.826C41.6961 29.2478 41.4696 28.6932 41.0665 28.2843C40.6633 27.8755 40.1165 27.6458 39.5464 27.6458C38.9763 27.6458 38.4295 27.8755 38.0263 28.2843C37.6232 28.6932 37.3967 29.2478 37.3967 29.826C37.3967 30.4042 37.6232 30.9588 38.0263 31.3677C38.4295 31.7765 38.9763 32.0062 39.5464 32.0062ZM26.6483 40.0004V48.7214H30.9476V40.0004H26.6483ZM33.8139 40.0004V48.7214H38.1133V40.0004H33.8139ZM40.9795 40.0004V48.7214H45.2789V40.0004H40.9795ZM48.1452 40.0004V48.7214H52.4445V40.0004H48.1452ZM22.3489 55.2621C22.3489 53.2562 23.954 51.6283 25.9317 51.6283H53.1611C55.1388 51.6283 56.7439 53.2562 56.7439 55.2621V55.9888C56.7439 56.3743 56.5929 56.744 56.3242 57.0166C56.0554 57.2892 55.6909 57.4423 55.3108 57.4423H23.782C23.4019 57.4423 23.0374 57.2892 22.7686 57.0166C22.4999 56.744 22.3489 56.3743 22.3489 55.9888V55.2621Z" fill="#032E32"/>
</svg>
