<svg width="70" height="70" viewBox="0 0 70 70" fill="none" xmlns="http://www.w3.org/2000/svg">
<rect x="3.5" y="3.5" width="63" height="63" rx="31.5" fill="#41F9A0"/>
<rect x="3.5" y="3.5" width="63" height="63" rx="31.5" stroke="white" stroke-width="7"/>
<path d="M32.4831 18.7166L24.1664 21.8499C22.2498 22.5666 20.6831 24.8333 20.6831 26.8666V39.2499C20.6831 41.2166 21.9831 43.7999 23.5664 44.9833L30.7331 50.3333C33.0831 52.0999 36.9498 52.0999 39.2998 50.3333L46.4664 44.9833C48.0498 43.7999 49.3498 41.2166 49.3498 39.2499V26.8666C49.3498 24.8166 47.7831 22.5499 45.8664 21.8333L37.5498 18.7166C36.1331 18.1999 33.8664 18.1999 32.4831 18.7166Z" stroke="white" stroke-width="2.5" stroke-linecap="round" stroke-linejoin="round"/>
<path d="M30.0835 34.7836L32.7668 37.467L39.9335 30.3003" stroke="white" stroke-width="2.5" stroke-linecap="round" stroke-linejoin="round"/>
</svg>
