<svg width="347" height="171" viewBox="0 0 347 171" fill="none" xmlns="http://www.w3.org/2000/svg">
<rect width="324" height="82" rx="7" fill="#EFEFEF"/>
<rect x="212" y="20" width="100.761" height="42.7349" rx="6" fill="#F8F8F8"/>
<g clip-path="url(#clip0_744_1359)">
<path d="M233.343 33.7593H240.259V48.9754H233.343V33.7593Z" fill="#E6E7E8"/>
<path d="M229.193 33.7593C226.901 33.7593 225.735 35.4624 225.735 37.5633V45.1714C225.735 47.2722 226.901 48.9754 229.193 48.9754H233.343V33.7593H229.193ZM244.409 33.7593H240.259V48.9754H244.409C246.701 48.9754 247.868 47.2722 247.868 45.1714V37.5633C247.868 35.4624 246.701 33.7593 244.409 33.7593Z" fill="#128807"/>
</g>
<path d="M254.257 46.3677V36.258H255.872L260.431 42.2695V36.258H262.535V46.3677H260.906L256.36 40.2204V46.3677H254.257ZM268.78 46.5305C265.876 46.5305 263.623 44.305 263.623 41.306C263.623 38.2935 265.794 36.0951 268.725 36.0951C270.91 36.0951 272.525 37.3029 273.054 38.7956L271.195 39.6912C270.842 38.7141 269.947 37.9949 268.725 37.9949C266.934 37.9949 265.726 39.3384 265.726 41.306C265.726 43.2873 266.988 44.6307 268.78 44.6307C270.164 44.6307 271.426 43.8029 271.426 42.3916V42.3645H268.725V40.6004H273.529V41.6724C273.529 44.9835 271.1 46.5305 268.78 46.5305ZM274.421 46.3677V36.258H276.036L280.595 42.2695V36.258H282.699V46.3677H281.07L276.524 40.2204V46.3677H274.421Z" fill="#ACACAC"/>
<path d="M289.985 38.983C290.143 38.8255 290.389 38.8111 290.563 38.94L290.613 38.983L294.441 42.8105L298.268 38.983C298.426 38.8255 298.672 38.8111 298.846 38.94L298.896 38.983C299.053 39.1405 299.068 39.387 298.939 39.5607L298.896 39.6105L294.754 43.7519C294.597 43.9095 294.35 43.9238 294.177 43.7949L294.127 43.7519L289.985 39.6105C289.812 39.4372 289.812 39.1563 289.985 38.983Z" fill="#BDBDBD"/>
<path d="M38.1561 51V32.1343H42.1718L50.7961 44.6935L51.9011 43.9119C51.2902 42.9057 50.8231 41.8995 50.4997 40.8934C50.1763 39.8692 50.0146 38.9349 50.0146 38.0904V32.1343H54.3267V51H50.0415L41.6867 38.7912L40.5817 39.5728C41.1926 40.5789 41.6597 41.5941 41.9831 42.6182C42.3065 43.6244 42.4683 44.5497 42.4683 45.3942V51H38.1561ZM56.3687 51V47.1999L63.2951 40.0848C63.7263 39.6356 64.0587 39.1865 64.2923 38.7373C64.5259 38.2701 64.6427 37.8299 64.6427 37.4167C64.6427 36.7519 64.463 36.2218 64.1036 35.8266C63.7623 35.4313 63.2861 35.2336 62.6752 35.2336C62.0643 35.2336 61.5792 35.4313 61.2199 35.8266C60.8785 36.2218 60.7078 36.7519 60.7078 37.4167V37.6053L56.207 38.0096C56.189 37.8838 56.18 37.6862 56.18 37.4167C56.18 35.6738 56.764 34.2903 57.9318 33.2662C59.0997 32.2421 60.6809 31.73 62.6752 31.73C64.6696 31.73 66.2507 32.2421 67.4186 33.2662C68.5865 34.2903 69.1704 35.6738 69.1704 37.4167C69.1704 38.2252 68.9638 39.0607 68.5506 39.9231C68.1373 40.7676 67.5444 41.5851 66.7718 42.3757L61.0851 48.251L62.0284 49.2212C62.819 48.4486 63.4927 47.9006 64.0497 47.5772C64.6067 47.2538 65.3254 47.0921 66.2058 47.0921H69.0626V51H56.3687ZM73.3912 54.8271H70.211L71.0195 46.8226H74.9544L73.3912 54.8271ZM82.6422 51.4043C80.5759 51.4043 79.0038 50.8383 77.9257 49.7063C77.1711 48.9517 76.6141 47.9096 76.2548 46.58C75.9134 45.2325 75.7427 43.5615 75.7427 41.5671C75.7427 39.5728 75.9134 37.9108 76.2548 36.5812C76.6141 35.2336 77.1711 34.1825 77.9257 33.4279C79.0038 32.296 80.5759 31.73 82.6422 31.73C84.7084 31.73 86.2806 32.296 87.3586 33.4279C88.1132 34.1825 88.6612 35.2336 89.0026 36.5812C89.362 37.9108 89.5416 39.5728 89.5416 41.5671C89.5416 43.5615 89.362 45.2325 89.0026 46.58C88.6612 47.9096 88.1132 48.9517 87.3586 49.7063C86.2806 50.8383 84.7084 51.4043 82.6422 51.4043ZM82.6422 47.4964C83.289 47.4964 83.7831 47.2358 84.1245 46.7148C84.7174 45.8703 85.0139 44.1544 85.0139 41.5671C85.0139 38.9798 84.7174 37.2639 84.1245 36.4195C83.7831 35.8984 83.289 35.6379 82.6422 35.6379C81.9953 35.6379 81.5012 35.8984 81.1599 36.4195C80.5669 37.2639 80.2705 38.9798 80.2705 41.5671C80.2705 44.1544 80.5669 45.8703 81.1599 46.7148C81.5012 47.2358 81.9953 47.4964 82.6422 47.4964ZM96.9157 51.4043C94.8495 51.4043 93.2773 50.8383 92.1993 49.7063C91.4446 48.9517 90.8877 47.9096 90.5283 46.58C90.1869 45.2325 90.0162 43.5615 90.0162 41.5671C90.0162 39.5728 90.1869 37.9108 90.5283 36.5812C90.8877 35.2336 91.4446 34.1825 92.1993 33.4279C93.2773 32.296 94.8495 31.73 96.9157 31.73C98.982 31.73 100.554 32.296 101.632 33.4279C102.387 34.1825 102.935 35.2336 103.276 36.5812C103.636 37.9108 103.815 39.5728 103.815 41.5671C103.815 43.5615 103.636 45.2325 103.276 46.58C102.935 47.9096 102.387 48.9517 101.632 49.7063C100.554 50.8383 98.982 51.4043 96.9157 51.4043ZM96.9157 47.4964C97.5625 47.4964 98.0566 47.2358 98.398 46.7148C98.9909 45.8703 99.2874 44.1544 99.2874 41.5671C99.2874 38.9798 98.9909 37.2639 98.398 36.4195C98.0566 35.8984 97.5625 35.6379 96.9157 35.6379C96.2689 35.6379 95.7748 35.8984 95.4334 36.4195C94.8405 37.2639 94.544 38.9798 94.544 41.5671C94.544 44.1544 94.8405 45.8703 95.4334 46.7148C95.7748 47.2358 96.2689 47.4964 96.9157 47.4964ZM111.189 51.4043C109.123 51.4043 107.551 50.8383 106.473 49.7063C105.718 48.9517 105.161 47.9096 104.802 46.58C104.46 45.2325 104.29 43.5615 104.29 41.5671C104.29 39.5728 104.46 37.9108 104.802 36.5812C105.161 35.2336 105.718 34.1825 106.473 33.4279C107.551 32.296 109.123 31.73 111.189 31.73C113.255 31.73 114.828 32.296 115.906 33.4279C116.66 34.1825 117.208 35.2336 117.55 36.5812C117.909 37.9108 118.089 39.5728 118.089 41.5671C118.089 43.5615 117.909 45.2325 117.55 46.58C117.208 47.9096 116.66 48.9517 115.906 49.7063C114.828 50.8383 113.255 51.4043 111.189 51.4043ZM111.189 47.4964C111.836 47.4964 112.33 47.2358 112.672 46.7148C113.264 45.8703 113.561 44.1544 113.561 41.5671C113.561 38.9798 113.264 37.2639 112.672 36.4195C112.33 35.8984 111.836 35.6379 111.189 35.6379C110.542 35.6379 110.048 35.8984 109.707 36.4195C109.114 37.2639 108.818 38.9798 108.818 41.5671C108.818 44.1544 109.114 45.8703 109.707 46.7148C110.048 47.2358 110.542 47.4964 111.189 47.4964ZM121.905 54.8271H118.725L119.534 46.8226H123.468L121.905 54.8271ZM131.156 51.4043C129.09 51.4043 127.518 50.8383 126.44 49.7063C125.685 48.9517 125.128 47.9096 124.769 46.58C124.427 45.2325 124.257 43.5615 124.257 41.5671C124.257 39.5728 124.427 37.9108 124.769 36.5812C125.128 35.2336 125.685 34.1825 126.44 33.4279C127.518 32.296 129.09 31.73 131.156 31.73C133.222 31.73 134.795 32.296 135.873 33.4279C136.627 34.1825 137.175 35.2336 137.517 36.5812C137.876 37.9108 138.056 39.5728 138.056 41.5671C138.056 43.5615 137.876 45.2325 137.517 46.58C137.175 47.9096 136.627 48.9517 135.873 49.7063C134.795 50.8383 133.222 51.4043 131.156 51.4043ZM131.156 47.4964C131.803 47.4964 132.297 47.2358 132.638 46.7148C133.231 45.8703 133.528 44.1544 133.528 41.5671C133.528 38.9798 133.231 37.2639 132.638 36.4195C132.297 35.8984 131.803 35.6379 131.156 35.6379C130.509 35.6379 130.015 35.8984 129.674 36.4195C129.081 37.2639 128.784 38.9798 128.784 41.5671C128.784 44.1544 129.081 45.8703 129.674 46.7148C130.015 47.2358 130.509 47.4964 131.156 47.4964ZM145.43 51.4043C143.363 51.4043 141.791 50.8383 140.713 49.7063C139.959 48.9517 139.402 47.9096 139.042 46.58C138.701 45.2325 138.53 43.5615 138.53 41.5671C138.53 39.5728 138.701 37.9108 139.042 36.5812C139.402 35.2336 139.959 34.1825 140.713 33.4279C141.791 32.296 143.363 31.73 145.43 31.73C147.496 31.73 149.068 32.296 150.146 33.4279C150.901 34.1825 151.449 35.2336 151.79 36.5812C152.15 37.9108 152.329 39.5728 152.329 41.5671C152.329 43.5615 152.15 45.2325 151.79 46.58C151.449 47.9096 150.901 48.9517 150.146 49.7063C149.068 50.8383 147.496 51.4043 145.43 51.4043ZM145.43 47.4964C146.077 47.4964 146.571 47.2358 146.912 46.7148C147.505 45.8703 147.801 44.1544 147.801 41.5671C147.801 38.9798 147.505 37.2639 146.912 36.4195C146.571 35.8984 146.077 35.6379 145.43 35.6379C144.783 35.6379 144.289 35.8984 143.947 36.4195C143.354 37.2639 143.058 38.9798 143.058 41.5671C143.058 44.1544 143.354 45.8703 143.947 46.7148C144.289 47.2358 144.783 47.4964 145.43 47.4964ZM159.703 51.4043C157.637 51.4043 156.065 50.8383 154.987 49.7063C154.232 48.9517 153.675 47.9096 153.316 46.58C152.974 45.2325 152.804 43.5615 152.804 41.5671C152.804 39.5728 152.974 37.9108 153.316 36.5812C153.675 35.2336 154.232 34.1825 154.987 33.4279C156.065 32.296 157.637 31.73 159.703 31.73C161.769 31.73 163.342 32.296 164.42 33.4279C165.174 34.1825 165.722 35.2336 166.064 36.5812C166.423 37.9108 166.603 39.5728 166.603 41.5671C166.603 43.5615 166.423 45.2325 166.064 46.58C165.722 47.9096 165.174 48.9517 164.42 49.7063C163.342 50.8383 161.769 51.4043 159.703 51.4043ZM159.703 47.4964C160.35 47.4964 160.844 47.2358 161.186 46.7148C161.778 45.8703 162.075 44.1544 162.075 41.5671C162.075 38.9798 161.778 37.2639 161.186 36.4195C160.844 35.8984 160.35 35.6379 159.703 35.6379C159.056 35.6379 158.562 35.8984 158.221 36.4195C157.628 37.2639 157.332 38.9798 157.332 41.5671C157.332 44.1544 157.628 45.8703 158.221 46.7148C158.562 47.2358 159.056 47.4964 159.703 47.4964Z" fill="#0B0B0B"/>
<rect y="89" width="324" height="82" rx="7" fill="#EFEFEF"/>
<rect x="212" y="109" width="100.327" height="42.3011" rx="6" fill="#F8F8F8"/>
<g clip-path="url(#clip1_744_1359)">
<path d="M244.043 122.692H229.125C226.879 122.692 225.735 124.362 225.735 126.421V130.151H247.434V126.421C247.434 124.362 246.29 122.692 244.043 122.692Z" fill="#27AAE1"/>
<path d="M225.735 133.88C225.735 135.94 226.879 137.61 229.125 137.61H244.043C246.29 137.61 247.434 135.94 247.434 133.88V133.541H225.735V133.88Z" fill="#128807"/>
<path fill-rule="evenodd" clip-rule="evenodd" d="M242.609 125.228L242.252 123.481C242.249 123.466 242.247 123.451 242.244 123.437C242.249 123.432 242.254 123.432 242.257 123.437L242.823 125.149C242.827 125.148 242.831 125.148 242.834 125.148C242.87 124.556 242.905 123.964 242.941 123.372C242.944 123.363 242.948 123.363 242.951 123.372C242.969 123.648 242.986 123.923 243.003 124.199C243.022 124.51 243.04 124.82 243.058 125.13C243.064 125.132 243.069 125.134 243.074 125.134C243.257 124.587 243.439 124.039 243.621 123.491C243.646 123.491 243.637 123.504 243.633 123.517C243.574 123.809 243.515 124.101 243.455 124.393C243.401 124.654 243.345 124.917 243.29 125.177C243.278 125.196 243.297 125.223 243.275 125.239C243.247 125.257 243.22 125.247 243.194 125.24C243.031 125.191 242.857 125.191 242.694 125.24C242.673 125.246 242.649 125.254 242.625 125.244C242.618 125.24 242.613 125.235 242.609 125.228M242.22 126.588C241.722 126.839 241.226 127.089 240.73 127.339C240.712 127.347 240.694 127.355 240.676 127.363C240.661 127.37 240.66 127.362 240.663 127.351L242.099 126.404C242.1 126.38 242.086 126.387 242.073 126.392C241.679 126.473 241.285 126.554 240.89 126.634C240.705 126.672 240.519 126.709 240.334 126.747C240.331 126.744 240.33 126.741 240.332 126.74L240.334 126.736C240.894 126.551 241.454 126.366 242.013 126.18C242.027 126.176 242.042 126.173 242.057 126.17C242.078 126.159 242.089 126.175 242.103 126.187C242.126 126.217 242.129 126.254 242.14 126.289C242.161 126.361 242.191 126.426 242.231 126.489C242.244 126.51 242.258 126.533 242.257 126.56C242.254 126.582 242.237 126.586 242.22 126.588ZM243.802 125.702C244.095 125.64 244.389 125.579 244.683 125.518C244.925 125.467 245.168 125.418 245.41 125.368C245.432 125.363 245.453 125.361 245.475 125.358C245.49 125.352 245.492 125.36 245.49 125.372C244.963 125.546 244.438 125.721 243.912 125.897L243.868 125.911C243.86 125.926 243.873 125.929 243.881 125.934C244.439 125.966 244.996 125.998 245.555 126.03C245.582 126.049 245.623 126.011 245.645 126.051L243.991 126.146C243.969 126.147 243.947 126.147 243.926 126.146C243.89 126.157 243.854 126.15 243.818 126.152C243.791 126.136 243.788 126.11 243.788 126.085C243.792 125.981 243.778 125.877 243.748 125.778C243.745 125.768 243.744 125.759 243.744 125.749C243.745 125.739 243.747 125.73 243.752 125.721C243.762 125.698 243.786 125.71 243.802 125.702ZM240.69 124.729L241.558 125.162L242.181 125.475C242.197 125.482 242.211 125.494 242.23 125.488C242.249 125.479 242.265 125.472 242.277 125.496C242.241 125.583 242.208 125.672 242.131 125.734C242.11 125.736 242.093 125.73 242.082 125.709C242.079 125.698 242.094 125.688 242.086 125.675C241.639 125.38 241.191 125.085 240.745 124.79C240.721 124.774 240.698 124.758 240.675 124.742C240.673 124.73 240.675 124.722 240.69 124.729ZM242.846 127.027C242.842 126.997 242.837 126.968 242.83 126.925C242.641 127.494 242.456 128.049 242.272 128.605C242.26 128.607 242.252 128.605 242.259 128.59C242.318 128.299 242.377 128.007 242.436 127.715C242.491 127.453 242.545 127.192 242.598 126.93C242.603 126.908 242.621 126.885 242.601 126.863C242.599 126.86 242.599 126.856 242.6 126.852C242.601 126.848 242.603 126.845 242.606 126.843C242.683 126.818 242.746 126.872 242.817 126.88C242.842 126.881 242.86 126.898 242.868 126.924C242.877 126.962 242.887 127 242.846 127.027ZM243.501 126.774C243.666 127.103 243.828 127.432 243.992 127.759L244.261 128.302C244.269 128.317 244.26 128.318 244.249 128.317L243.308 126.891C243.307 126.888 243.306 126.883 243.305 126.879C243.291 126.873 243.283 126.864 243.283 126.849C243.338 126.778 243.412 126.738 243.498 126.716C243.521 126.734 243.514 126.753 243.501 126.774Z" fill="#E4BD01"/>
<path fill-rule="evenodd" clip-rule="evenodd" d="M243.816 126.147C243.852 126.147 243.889 126.147 243.925 126.148C243.897 126.153 243.87 126.156 243.83 126.164L245.515 126.724C245.518 126.736 245.516 126.743 245.501 126.737L244.379 126.507C244.19 126.468 244.004 126.43 243.816 126.393C243.793 126.384 243.775 126.413 243.752 126.402C243.746 126.398 243.742 126.393 243.739 126.387C243.748 126.301 243.753 126.214 243.816 126.147ZM243.501 125.326C243.655 125.204 243.795 125.068 243.944 124.939C244.224 124.692 244.504 124.442 244.785 124.195C244.798 124.191 244.801 124.196 244.799 124.208C244.424 124.632 244.049 125.055 243.674 125.477C243.686 125.497 243.682 125.515 243.667 125.531C243.658 125.536 243.648 125.538 243.642 125.533C243.574 125.476 243.5 125.422 243.457 125.34C243.466 125.316 243.48 125.311 243.501 125.326ZM242.27 125.49C242.257 125.491 242.244 125.501 242.231 125.489L241.271 124.405C241.201 124.327 241.134 124.248 241.064 124.171C241.07 124.163 241.077 124.163 241.084 124.167C241.455 124.498 241.827 124.826 242.197 125.156C242.261 125.213 242.325 125.266 242.389 125.321C242.411 125.315 242.42 125.328 242.425 125.346C242.392 125.414 242.349 125.472 242.27 125.49ZM243.292 126.851L243.305 126.879C243.279 126.891 243.295 126.913 243.298 126.928C243.407 127.461 243.517 127.992 243.628 128.524C243.631 128.542 243.633 128.56 243.634 128.577C243.641 128.59 243.633 128.593 243.621 128.592L243.097 127.013L243.081 126.97C243.074 126.948 243.047 126.942 243.04 126.92C243.038 126.913 243.04 126.906 243.043 126.9C243.109 126.858 243.186 126.854 243.258 126.836C243.27 126.832 243.284 126.839 243.292 126.851Z" fill="#E4BD01"/>
<path fill-rule="evenodd" clip-rule="evenodd" d="M242.416 125.348C242.407 125.339 242.399 125.33 242.389 125.321C242.396 125.295 242.378 125.276 242.368 125.255C242.125 124.77 241.881 124.284 241.638 123.8C241.63 123.784 241.624 123.768 241.616 123.751C241.609 123.738 241.617 123.738 241.628 123.739C241.937 124.208 242.245 124.678 242.555 125.147C242.573 125.174 242.591 125.2 242.609 125.228L242.625 125.229C242.625 125.232 242.628 125.234 242.627 125.235C242.602 125.284 242.471 125.352 242.416 125.348ZM242.6 126.849L242.599 126.863C242.581 126.893 242.564 126.923 242.546 126.952L241.629 128.343C241.617 128.347 241.61 128.345 241.617 128.331L242.385 126.799C242.386 126.795 242.388 126.791 242.389 126.787C242.399 126.77 242.382 126.752 242.395 126.736C242.399 126.731 242.404 126.727 242.41 126.725C242.487 126.745 242.559 126.774 242.6 126.849ZM243.501 125.327C243.488 125.33 243.475 125.332 243.463 125.334C243.394 125.341 243.298 125.285 243.282 125.229C243.282 125.211 243.279 125.192 243.293 125.177C243.294 125.185 243.294 125.194 243.297 125.216L244.264 123.751C244.275 123.748 244.281 123.75 244.276 123.763C244.029 124.257 243.782 124.75 243.535 125.243C243.521 125.27 243.501 125.295 243.501 125.327ZM243.659 125.532C243.663 125.514 243.667 125.496 243.672 125.477C243.703 125.484 243.727 125.468 243.752 125.455C244.228 125.216 244.704 124.978 245.181 124.74C245.196 124.731 245.213 124.726 245.229 124.719C245.242 124.711 245.241 124.719 245.241 124.728C244.835 124.997 244.429 125.265 244.022 125.533C243.947 125.582 243.873 125.631 243.798 125.68C243.781 125.69 243.774 125.699 243.803 125.703C243.791 125.712 243.777 125.713 243.763 125.714C243.707 125.694 243.653 125.6 243.659 125.532ZM243.501 126.774C243.491 126.757 243.498 126.74 243.501 126.722C243.505 126.662 243.585 126.58 243.654 126.565C243.673 126.572 243.685 126.582 243.671 126.605C243.851 126.808 244.031 127.012 244.21 127.216C244.411 127.443 244.611 127.67 244.811 127.898C244.817 127.905 244.816 127.911 244.809 127.916C244.498 127.642 244.187 127.367 243.876 127.092C243.77 126.996 243.663 126.9 243.555 126.805C243.54 126.792 243.528 126.77 243.501 126.775" fill="#E4BD01"/>
<path fill-rule="evenodd" clip-rule="evenodd" d="M242.402 126.731C242.401 126.736 242.401 126.74 242.401 126.744C242.399 126.76 242.387 126.766 242.374 126.773C241.969 127.132 241.565 127.492 241.16 127.852C241.137 127.873 241.114 127.891 241.09 127.911C241.078 127.915 241.074 127.91 241.078 127.898C241.449 127.482 241.82 127.065 242.189 126.646C242.201 126.632 242.239 126.623 242.218 126.589L242.243 126.566C242.305 126.576 242.392 126.667 242.402 126.731ZM242.087 126.198L242.058 126.17C242.019 126.144 241.975 126.152 241.933 126.149C241.388 126.115 240.842 126.084 240.298 126.052C240.308 126.013 240.344 126.046 240.362 126.03C240.912 125.999 241.461 125.966 242.01 125.934C242.065 125.905 242.091 125.931 242.104 125.983C242.108 126.036 242.101 126.089 242.111 126.143C242.113 126.153 242.112 126.164 242.108 126.174C242.104 126.184 242.096 126.192 242.087 126.198ZM243.672 126.605C243.67 126.589 243.661 126.58 243.645 126.577C243.633 126.518 243.694 126.415 243.751 126.395C243.757 126.394 243.761 126.394 243.766 126.393C243.785 126.383 243.794 126.394 243.802 126.407C244.276 126.72 244.751 127.033 245.225 127.345L245.281 127.383C245.25 127.393 245.232 127.373 245.214 127.363C244.721 127.117 244.23 126.871 243.738 126.624C243.718 126.614 243.699 126.597 243.672 126.605Z" fill="#E4BD01"/>
<path fill-rule="evenodd" clip-rule="evenodd" d="M242.087 125.702L242.128 125.73C242.161 125.803 242.123 125.864 242.093 125.926C242.066 125.936 242.043 125.928 242.021 125.911C241.497 125.736 240.973 125.562 240.448 125.388C240.432 125.382 240.416 125.376 240.399 125.37C240.398 125.358 240.402 125.352 240.415 125.358C240.604 125.396 240.794 125.433 240.984 125.471C241.342 125.543 241.699 125.616 242.057 125.69C242.066 125.695 242.081 125.689 242.087 125.702ZM243.039 126.916L243.051 126.917C243.069 126.927 243.064 126.942 243.058 126.958L242.962 128.613C242.96 128.646 242.956 128.678 242.952 128.71C242.948 128.719 242.944 128.719 242.941 128.709C242.909 128.164 242.876 127.618 242.845 127.073C242.843 127.057 242.845 127.041 242.845 127.027C242.846 126.989 242.847 126.952 242.849 126.915C242.877 126.897 242.91 126.888 242.944 126.888C242.978 126.888 243.011 126.898 243.039 126.916Z" fill="#E4BD01"/>
<path fill-rule="evenodd" clip-rule="evenodd" d="M245.646 126.052C245.615 126.044 245.586 126.036 245.555 126.03C245.611 126.02 245.664 126.035 245.719 126.052H245.646Z" fill="#6BAE75"/>
<path fill-rule="evenodd" clip-rule="evenodd" d="M240.362 126.03C240.339 126.037 240.318 126.044 240.297 126.052H240.231C240.221 126.049 240.22 126.045 240.229 126.04C240.272 126.031 240.317 126.027 240.362 126.03Z" fill="#B1B632"/>
<path fill-rule="evenodd" clip-rule="evenodd" d="M242.022 125.911C242.044 125.906 242.062 125.935 242.086 125.92C242.11 125.946 242.115 125.97 242.077 125.989C242.089 125.927 242.044 125.936 242.01 125.934C242.014 125.926 242.018 125.918 242.022 125.911Z" fill="#3CA8A4"/>
<path fill-rule="evenodd" clip-rule="evenodd" d="M244.8 124.211L244.785 124.197C244.8 124.172 244.823 124.153 244.85 124.143C244.843 124.171 244.825 124.195 244.8 124.211Z" fill="#A8B63B"/>
<path fill-rule="evenodd" clip-rule="evenodd" d="M244.249 128.317C244.254 128.313 244.257 128.308 244.262 128.302C244.283 128.329 244.3 128.357 244.293 128.395C244.278 128.369 244.264 128.343 244.249 128.317Z" fill="#B9B82B"/>
<path fill-rule="evenodd" clip-rule="evenodd" d="M245.491 125.372C245.486 125.367 245.481 125.363 245.476 125.358C245.488 125.351 245.501 125.346 245.516 125.345C245.53 125.345 245.544 125.347 245.557 125.353C245.535 125.36 245.513 125.365 245.491 125.372Z" fill="#BAB829"/>
<path fill-rule="evenodd" clip-rule="evenodd" d="M240.69 124.73C240.685 124.734 240.68 124.738 240.675 124.743C240.647 124.727 240.619 124.711 240.591 124.695C240.637 124.688 240.663 124.711 240.69 124.73Z" fill="#BCB828"/>
<path fill-rule="evenodd" clip-rule="evenodd" d="M240.663 127.351C240.667 127.355 240.672 127.359 240.676 127.363C240.664 127.374 240.65 127.382 240.634 127.388C240.619 127.393 240.603 127.395 240.587 127.394C240.613 127.379 240.638 127.366 240.663 127.351Z" fill="#ADB636"/>
<path fill-rule="evenodd" clip-rule="evenodd" d="M243.621 128.592C243.625 128.587 243.63 128.582 243.635 128.577C243.651 128.6 243.652 128.626 243.637 128.656L243.621 128.592Z" fill="#B6B82D"/>
<path fill-rule="evenodd" clip-rule="evenodd" d="M241.086 124.17L241.065 124.173C241.044 124.159 241.027 124.14 241.014 124.118C241.019 124.112 241.023 124.111 241.03 124.117C241.048 124.135 241.066 124.153 241.086 124.17Z" fill="#ABB639"/>
<path fill-rule="evenodd" clip-rule="evenodd" d="M240.336 126.736C240.336 126.74 240.335 126.744 240.335 126.748C240.317 126.766 240.298 126.766 240.27 126.754C240.296 126.747 240.316 126.741 240.336 126.736Z" fill="#6DAE74"/>
<path fill-rule="evenodd" clip-rule="evenodd" d="M244.274 123.764C244.269 123.76 244.265 123.755 244.261 123.752C244.266 123.738 244.27 123.722 244.29 123.718C244.298 123.739 244.286 123.752 244.274 123.764Z" fill="#AAB639"/>
<path fill-rule="evenodd" clip-rule="evenodd" d="M245.501 126.736C245.506 126.732 245.51 126.728 245.515 126.723C245.533 126.728 245.551 126.732 245.568 126.737C245.572 126.75 245.57 126.755 245.556 126.75C245.536 126.749 245.517 126.751 245.501 126.736Z" fill="#A9B63A"/>
<path fill-rule="evenodd" clip-rule="evenodd" d="M244.916 128.012C244.887 127.999 244.871 127.991 244.868 127.968C244.894 127.966 244.901 127.985 244.916 128.012Z" fill="#55AB8A"/>
<path fill-rule="evenodd" clip-rule="evenodd" d="M242.258 128.59C242.262 128.596 242.267 128.601 242.271 128.605L242.256 128.659C242.252 128.665 242.248 128.666 242.243 128.66C242.243 128.636 242.242 128.612 242.258 128.59Z" fill="#ACB637"/>
<path fill-rule="evenodd" clip-rule="evenodd" d="M243.633 123.519C243.63 123.511 243.626 123.502 243.621 123.492C243.626 123.478 243.63 123.464 243.633 123.45C243.64 123.445 243.645 123.445 243.651 123.45C243.647 123.474 243.651 123.499 243.633 123.519Z" fill="#A8B63B"/>
<path fill-rule="evenodd" clip-rule="evenodd" d="M241.628 123.741C241.624 123.746 241.621 123.75 241.617 123.754C241.609 123.748 241.603 123.739 241.598 123.73C241.594 123.721 241.592 123.71 241.592 123.7C241.615 123.707 241.621 123.725 241.628 123.741Z" fill="#A0B543"/>
<path fill-rule="evenodd" clip-rule="evenodd" d="M243.882 125.934C243.866 125.936 243.845 125.945 243.838 125.927C243.835 125.917 243.855 125.91 243.868 125.911L243.882 125.934Z" fill="#44A99B"/>
<path fill-rule="evenodd" clip-rule="evenodd" d="M240.231 126.04C240.232 126.044 240.233 126.048 240.233 126.052H240.167C240.191 126.035 240.21 126.037 240.231 126.04Z" fill="#6FAF71"/>
<path fill-rule="evenodd" clip-rule="evenodd" d="M240.363 125.36C240.345 125.355 240.327 125.351 240.311 125.346C240.306 125.344 240.303 125.341 240.304 125.338C240.305 125.337 240.306 125.335 240.306 125.333C240.328 125.333 240.348 125.33 240.363 125.345C240.373 125.35 240.373 125.356 240.363 125.36Z" fill="#9DB445"/>
<path fill-rule="evenodd" clip-rule="evenodd" d="M245.576 125.343C245.584 125.321 245.601 125.32 245.622 125.322C245.61 125.341 245.596 125.346 245.576 125.343Z" fill="#5BAC85"/>
<path fill-rule="evenodd" clip-rule="evenodd" d="M242.952 123.372H242.941C242.936 123.348 242.938 123.323 242.946 123.3C242.956 123.323 242.958 123.348 242.952 123.372Z" fill="#A1B541"/>
<path fill-rule="evenodd" clip-rule="evenodd" d="M245.24 124.727L245.228 124.718C245.235 124.711 245.243 124.705 245.252 124.701C245.26 124.697 245.27 124.695 245.28 124.695C245.273 124.716 245.256 124.72 245.24 124.727Z" fill="#DCBC09"/>
<path fill-rule="evenodd" clip-rule="evenodd" d="M241.081 127.897C241.086 127.901 241.09 127.906 241.094 127.911C241.085 127.926 241.074 127.94 241.049 127.941C241.05 127.918 241.065 127.908 241.081 127.897Z" fill="#A3B540"/>
<path fill-rule="evenodd" clip-rule="evenodd" d="M244.809 127.915C244.81 127.908 244.812 127.902 244.812 127.896C244.828 127.908 244.849 127.918 244.848 127.947C244.828 127.943 244.818 127.93 244.809 127.915Z" fill="#C2B922"/>
<path fill-rule="evenodd" clip-rule="evenodd" d="M241.618 128.331C241.622 128.335 241.625 128.339 241.629 128.343C241.624 128.358 241.621 128.372 241.602 128.377C241.593 128.355 241.605 128.343 241.618 128.331Z" fill="#A2B541"/>
<path fill-rule="evenodd" clip-rule="evenodd" d="M242.258 123.439L242.245 123.438C242.229 123.426 242.231 123.409 242.234 123.388C242.242 123.394 242.248 123.402 242.252 123.41C242.256 123.419 242.258 123.429 242.258 123.439Z" fill="#79B068"/>
<path fill-rule="evenodd" clip-rule="evenodd" d="M241.03 124.117L241.015 124.118C240.998 124.114 240.992 124.101 240.985 124.084C240.994 124.085 241.004 124.089 241.012 124.095C241.02 124.101 241.026 124.109 241.03 124.117Z" fill="#68AE79"/>
<path fill-rule="evenodd" clip-rule="evenodd" d="M245.555 126.749L245.568 126.737C245.582 126.741 245.597 126.745 245.624 126.754C245.591 126.766 245.573 126.762 245.555 126.749Z" fill="#66AD7A"/>
<path fill-rule="evenodd" clip-rule="evenodd" d="M240.31 125.333C240.31 125.338 240.311 125.342 240.312 125.346C240.297 125.34 240.283 125.336 240.265 125.33C240.285 125.316 240.299 125.319 240.31 125.333Z" fill="#53AB8C"/>
<path fill-rule="evenodd" clip-rule="evenodd" d="M242.088 125.704C242.078 125.699 242.067 125.695 242.057 125.69L242.087 125.676C242.098 125.68 242.112 125.683 242.111 125.699C242.111 125.701 242.096 125.702 242.088 125.704Z" fill="#27A5B7"/>
<path fill-rule="evenodd" clip-rule="evenodd" d="M243.65 123.452H243.632C243.637 123.435 243.643 123.417 243.647 123.4C243.65 123.392 243.655 123.392 243.659 123.397C243.66 123.417 243.663 123.436 243.65 123.452Z" fill="#96B34C"/>
<path fill-rule="evenodd" clip-rule="evenodd" d="M240.361 125.359V125.345C240.381 125.347 240.401 125.345 240.419 125.359C240.413 125.363 240.407 125.367 240.402 125.371L240.361 125.359Z" fill="#D2BB13"/>
<path fill-rule="evenodd" clip-rule="evenodd" d="M243.659 123.398C243.655 123.399 243.651 123.4 243.647 123.401L243.663 123.355C243.678 123.376 243.673 123.388 243.659 123.398Z" fill="#4CAA93"/>
<path fill-rule="evenodd" clip-rule="evenodd" d="M243.06 126.96L243.052 126.917C243.074 126.928 243.082 126.949 243.083 126.972L243.06 126.96Z" fill="#3CA8A4"/>
<path fill-rule="evenodd" clip-rule="evenodd" d="M243.803 126.407C243.79 126.404 243.779 126.398 243.766 126.394C243.784 126.37 243.801 126.383 243.818 126.393C243.814 126.398 243.809 126.403 243.803 126.407Z" fill="#44A99B"/>
<path fill-rule="evenodd" clip-rule="evenodd" d="M242.073 126.393C242.089 126.383 242.108 126.372 242.122 126.386C242.129 126.393 242.111 126.402 242.101 126.405C242.092 126.401 242.083 126.398 242.073 126.393Z" fill="#5AAC87"/>
<path fill-rule="evenodd" clip-rule="evenodd" d="M242.375 126.775C242.384 126.765 242.393 126.754 242.402 126.745C242.412 126.764 242.402 126.777 242.388 126.789C242.384 126.784 242.38 126.78 242.375 126.775Z" fill="#5BAC85"/>
<path fill-rule="evenodd" clip-rule="evenodd" d="M242.077 125.989C242.092 125.967 242.092 125.944 242.086 125.92C242.087 125.854 242.116 125.794 242.13 125.73C242.169 125.646 242.215 125.565 242.27 125.49L242.415 125.348C242.485 125.308 242.555 125.269 242.624 125.229C242.843 125.15 243.061 125.158 243.28 125.229C243.34 125.264 243.401 125.299 243.461 125.334C243.533 125.395 243.6 125.46 243.659 125.532C243.693 125.593 243.728 125.652 243.763 125.714C243.806 125.854 243.828 125.998 243.817 126.146C243.801 126.23 243.779 126.313 243.752 126.394C243.715 126.455 243.68 126.515 243.645 126.576L243.501 126.721C243.432 126.764 243.362 126.808 243.292 126.851C243.209 126.873 243.124 126.894 243.04 126.915C242.976 126.915 242.912 126.914 242.849 126.914C242.765 126.897 242.682 126.875 242.6 126.848C242.535 126.809 242.469 126.77 242.404 126.73C242.351 126.674 242.298 126.62 242.245 126.565C242.168 126.454 242.114 126.329 242.086 126.197C242.079 126.128 242.07 126.058 242.077 125.989Z" fill="#00A0DD"/>
<path fill-rule="evenodd" clip-rule="evenodd" d="M242.949 125.255C243.053 125.255 243.155 125.276 243.251 125.315C243.347 125.355 243.434 125.413 243.507 125.487C243.58 125.56 243.638 125.647 243.677 125.743C243.716 125.839 243.737 125.941 243.736 126.045C243.735 126.254 243.652 126.455 243.504 126.603C243.355 126.751 243.155 126.834 242.945 126.834C242.736 126.833 242.536 126.749 242.388 126.6C242.24 126.452 242.157 126.252 242.156 126.043C242.157 125.833 242.241 125.633 242.39 125.485C242.539 125.337 242.74 125.255 242.949 125.255Z" fill="#E4BD01"/>
<path d="M225.735 129.473H247.434V133.541H225.735V129.473Z" fill="#F9CB38"/>
</g>
<path d="M253.823 135.15V125.041H257.691C259.781 125.041 261.273 126.153 261.273 128.27C261.273 129.655 260.595 130.632 259.523 131.12L261.83 135.15H259.468L257.419 131.486H255.927V135.15H253.823ZM255.927 129.655H257.704C258.586 129.655 259.17 129.098 259.17 128.27C259.17 127.429 258.586 126.873 257.704 126.873H255.927V129.655ZM264.367 135.15L261.721 125.041H264.001L265.697 132.246L267.488 125.041H269.659L271.451 132.246L273.147 125.041H275.427L272.781 135.15H270.338L268.574 128.365L266.81 135.15H264.367ZM276.068 135.15V125.041H282.988V126.873H278.171V129.437H282.31V131.269H278.171V135.15H276.068Z" fill="#ACACAC"/>
<path d="M289.552 127.766C289.709 127.609 289.956 127.594 290.129 127.723L290.179 127.766L294.007 131.594L297.834 127.766C297.992 127.609 298.238 127.594 298.412 127.723L298.462 127.766C298.62 127.924 298.634 128.17 298.505 128.344L298.462 128.394L294.321 132.535C294.163 132.693 293.917 132.707 293.743 132.578L293.693 132.535L289.552 128.394C289.378 128.22 289.378 127.939 289.552 127.766Z" fill="#BDBDBD"/>
<rect x="133.305" y="72.6618" width="44.1586" height="25.6428" rx="12.8214" transform="rotate(-9.59012 133.305 72.6618)" fill="#3CDF90"/>
<path d="M149.723 81.8344C149.496 81.8729 149.263 81.8366 149.059 81.7309C148.855 81.6251 148.69 81.4558 148.591 81.2484C148.491 81.041 148.462 80.8069 148.508 80.5814C148.553 80.3559 148.671 80.1514 148.843 79.9987L151.175 76.7183C151.338 76.4894 151.585 76.3346 151.862 76.2879C152.139 76.2412 152.423 76.3064 152.652 76.4693C152.881 76.6321 153.035 76.8792 153.082 77.1561C153.129 77.4331 153.063 77.7172 152.901 77.9461L151.928 79.3131L159.81 77.9813C160.087 77.9346 160.371 77.9997 160.6 78.1624C160.829 78.3251 160.984 78.5721 161.031 78.849C161.077 79.1259 161.012 79.41 160.85 79.6389C160.687 79.8677 160.44 80.0226 160.163 80.0694L149.723 81.8344ZM164.701 81.417C164.928 81.3784 165.161 81.4148 165.365 81.5205C165.569 81.6262 165.734 81.7956 165.833 82.003C165.933 82.2103 165.962 82.4445 165.916 82.6699C165.871 82.8954 165.753 83.1 165.581 83.2527L163.249 86.5331C163.169 86.6464 163.066 86.7428 162.949 86.8166C162.831 86.8905 162.699 86.9404 162.562 86.9635C162.425 86.9866 162.285 86.9825 162.149 86.9514C162.014 86.9202 161.886 86.8627 161.772 86.7821C161.659 86.7015 161.563 86.5993 161.489 86.4815C161.415 86.3636 161.365 86.2324 161.342 86.0953C161.319 85.9581 161.323 85.8178 161.354 85.6822C161.385 85.5467 161.443 85.4186 161.523 85.3053L162.496 83.9382L154.614 85.27C154.337 85.3168 154.053 85.2517 153.824 85.089C153.595 84.9263 153.44 84.6793 153.393 84.4024C153.347 84.1255 153.412 83.8414 153.574 83.6125C153.737 83.3836 153.984 83.2288 154.261 83.182L164.701 81.417Z" fill="#EFFFF7"/>
<rect x="133.305" y="72.6618" width="44.1586" height="25.6428" rx="12.8214" transform="rotate(-9.59012 133.305 72.6618)" stroke="white" stroke-width="4"/>
<mask id="path-62-outside-1_744_1359" maskUnits="userSpaceOnUse" x="303.562" y="62.8335" width="41" height="46" fill="black">
<rect fill="white" x="303.562" y="62.8335" width="41" height="46"/>
<path d="M339.547 72.5835C334.609 72.5835 329.798 70.7761 325.084 67.121C324.844 66.9344 324.551 66.8335 324.25 66.8335C323.949 66.8335 323.656 66.9344 323.416 67.121C318.702 70.7761 313.891 72.5835 308.953 72.5835C308.584 72.5835 308.23 72.7349 307.97 73.0045C307.709 73.2741 307.562 73.6397 307.562 74.021V84.0835C307.562 93.6687 313.047 100.712 323.74 105.067C324.068 105.201 324.432 105.201 324.76 105.067C335.453 100.712 340.937 93.6668 340.937 84.0835V74.021C340.937 73.6397 340.791 73.2741 340.53 73.0045C340.269 72.7349 339.916 72.5835 339.547 72.5835ZM333.07 80.8309L321.945 91.3726C321.681 91.6227 321.333 91.7577 320.975 91.7495C320.617 91.7413 320.276 91.5905 320.022 91.3285L315.387 86.5368C315.25 86.4052 315.141 86.2465 315.065 86.0702C314.989 85.8939 314.948 85.7035 314.945 85.5105C314.941 85.3175 314.976 85.1258 315.046 84.9468C315.116 84.7678 315.22 84.6052 315.352 84.4687C315.484 84.3322 315.641 84.2246 315.814 84.1523C315.987 84.08 316.173 84.0445 316.36 84.0479C316.546 84.0513 316.73 84.0935 316.901 84.1721C317.072 84.2507 317.225 84.3639 317.352 84.5052L321.048 88.3232L331.19 78.7111C331.462 78.4534 331.822 78.3179 332.19 78.3344C332.559 78.3509 332.906 78.5181 333.155 78.7992C333.405 79.0804 333.536 79.4523 333.52 79.8333C333.504 80.2144 333.342 80.5732 333.07 80.8309Z"/>
</mask>
<path d="M339.547 72.5835C334.609 72.5835 329.798 70.7761 325.084 67.121C324.844 66.9344 324.551 66.8335 324.25 66.8335C323.949 66.8335 323.656 66.9344 323.416 67.121C318.702 70.7761 313.891 72.5835 308.953 72.5835C308.584 72.5835 308.23 72.7349 307.97 73.0045C307.709 73.2741 307.562 73.6397 307.562 74.021V84.0835C307.562 93.6687 313.047 100.712 323.74 105.067C324.068 105.201 324.432 105.201 324.76 105.067C335.453 100.712 340.937 93.6668 340.937 84.0835V74.021C340.937 73.6397 340.791 73.2741 340.53 73.0045C340.269 72.7349 339.916 72.5835 339.547 72.5835ZM333.07 80.8309L321.945 91.3726C321.681 91.6227 321.333 91.7577 320.975 91.7495C320.617 91.7413 320.276 91.5905 320.022 91.3285L315.387 86.5368C315.25 86.4052 315.141 86.2465 315.065 86.0702C314.989 85.8939 314.948 85.7035 314.945 85.5105C314.941 85.3175 314.976 85.1258 315.046 84.9468C315.116 84.7678 315.22 84.6052 315.352 84.4687C315.484 84.3322 315.641 84.2246 315.814 84.1523C315.987 84.08 316.173 84.0445 316.36 84.0479C316.546 84.0513 316.73 84.0935 316.901 84.1721C317.072 84.2507 317.225 84.3639 317.352 84.5052L321.048 88.3232L331.19 78.7111C331.462 78.4534 331.822 78.3179 332.19 78.3344C332.559 78.3509 332.906 78.5181 333.155 78.7992C333.405 79.0804 333.536 79.4523 333.52 79.8333C333.504 80.2144 333.342 80.5732 333.07 80.8309Z" fill="#3CDF90"/>
<path d="M339.547 72.5835V69.0597V72.5835ZM325.084 67.121L327.244 64.3364L327.243 64.3361L325.084 67.121ZM324.25 66.8335V63.3097V66.8335ZM323.416 67.121L321.256 64.3361L321.256 64.3364L323.416 67.121ZM308.953 72.5835V69.0597V72.5835ZM323.74 105.067L325.069 101.804L325.069 101.804L323.74 105.067ZM324.76 105.067L323.431 101.804L323.43 101.804L324.76 105.067ZM333.07 80.8309L335.494 83.3887L335.494 83.3885L333.07 80.8309ZM321.945 91.3726L324.367 93.9318L324.369 93.9304L321.945 91.3726ZM320.022 91.3285L322.556 88.8793L322.555 88.8785L320.022 91.3285ZM315.387 86.5368L317.92 84.0868L317.876 84.0421L317.832 83.9989L315.387 86.5368ZM317.352 84.5052L314.735 86.8645L314.777 86.9109L314.82 86.9558L317.352 84.5052ZM321.048 88.3232L318.516 90.7738L320.941 93.2794L323.472 90.8808L321.048 88.3232ZM331.19 78.7111L328.766 76.1535L328.766 76.1535L331.19 78.7111ZM339.547 69.0597C335.537 69.0597 331.466 67.6106 327.244 64.3364L322.925 69.9056C328.129 73.9416 333.681 76.1073 339.547 76.1073V69.0597ZM327.243 64.3361C326.393 63.6769 325.343 63.3097 324.25 63.3097V70.3573C323.759 70.3573 323.294 70.1918 322.925 69.9058L327.243 64.3361ZM324.25 63.3097C323.157 63.3097 322.107 63.6769 321.256 64.3361L325.575 69.9058C325.206 70.1918 324.741 70.3573 324.25 70.3573V63.3097ZM321.256 64.3364C317.034 67.6106 312.962 69.0597 308.953 69.0597V76.1073C314.819 76.1073 320.37 73.9416 325.575 69.9056L321.256 64.3364ZM308.953 69.0597C307.611 69.0597 306.349 69.6118 305.437 70.5545L310.502 75.4546C310.112 75.8581 309.557 76.1073 308.953 76.1073V69.0597ZM305.437 70.5545C304.529 71.4932 304.039 72.7422 304.039 74.021H311.086C311.086 74.5373 310.889 75.055 310.502 75.4546L305.437 70.5545ZM304.039 74.021V84.0835H311.086V74.021H304.039ZM304.039 84.0835C304.039 89.5957 305.633 94.525 308.853 98.6917C312.04 102.815 316.661 105.989 322.411 108.331L325.069 101.804C320.126 99.7908 316.658 97.2652 314.429 94.3819C312.234 91.5417 311.086 88.1566 311.086 84.0835H304.039ZM322.41 108.33C323.59 108.811 324.909 108.811 326.089 108.33L323.43 101.804C323.955 101.59 324.545 101.59 325.069 101.804L322.41 108.33ZM326.089 108.331C331.839 105.989 336.46 102.815 339.647 98.6909C342.867 94.5241 344.461 89.5948 344.461 84.0835H337.414C337.414 88.1555 336.266 91.5407 334.07 94.3813C331.842 97.2649 328.373 99.7909 323.431 101.804L326.089 108.331ZM344.461 84.0835V74.021H337.414V84.0835H344.461ZM344.461 74.021C344.461 72.7422 343.971 71.4932 343.063 70.5545L337.997 75.4546C337.611 75.055 337.414 74.5373 337.414 74.021H344.461ZM343.063 70.5545C342.151 69.6118 340.889 69.0597 339.547 69.0597V76.1073C338.943 76.1073 338.388 75.8581 337.997 75.4546L343.063 70.5545ZM330.646 78.2731L319.521 88.8148L324.369 93.9304L335.494 83.3887L330.646 78.2731ZM319.523 88.8134C319.922 88.436 320.469 88.2133 321.056 88.2267L320.894 95.2724C322.197 95.3022 323.44 94.8094 324.367 93.9318L319.523 88.8134ZM321.056 88.2267C321.642 88.2401 322.177 88.4874 322.556 88.8793L317.489 93.7777C318.374 94.6936 319.592 95.2425 320.894 95.2724L321.056 88.2267ZM322.555 88.8785L317.92 84.0868L312.854 88.9869L317.49 93.7785L322.555 88.8785ZM317.832 83.9989C318.036 84.1961 318.194 84.4273 318.301 84.6754L311.829 87.465C312.088 88.0658 312.464 88.6144 312.942 89.0747L317.832 83.9989ZM318.301 84.6754C318.408 84.9233 318.463 85.1865 318.468 85.4504L311.421 85.5706C311.432 86.2205 311.57 86.8645 311.829 87.465L318.301 84.6754ZM318.468 85.4504C318.472 85.7142 318.426 85.9787 318.328 86.2292L311.763 83.6643C311.526 84.2728 311.41 84.9208 311.421 85.5706L318.468 85.4504ZM318.328 86.2292C318.23 86.48 318.081 86.7155 317.884 86.9187L312.819 82.0186C312.358 82.4949 312.001 83.0556 311.763 83.6643L318.328 86.2292ZM317.884 86.9187C317.687 87.1222 317.446 87.2894 317.172 87.404L314.456 80.9006C313.836 81.1597 313.28 81.5421 312.819 82.0186L317.884 86.9187ZM317.172 87.404C316.897 87.5187 316.599 87.5766 316.295 87.571L316.424 80.5247C315.747 80.5124 315.077 80.6413 314.456 80.9006L317.172 87.404ZM316.295 87.571C315.992 87.5655 315.696 87.4968 315.427 87.3727L318.375 80.9715C317.765 80.6903 317.101 80.537 316.424 80.5247L316.295 87.571ZM315.427 87.3727C315.158 87.2487 314.924 87.0738 314.735 86.8645L319.97 82.1458C319.526 81.6541 318.985 81.2526 318.375 80.9715L315.427 87.3727ZM314.82 86.9558L318.516 90.7738L323.58 85.8725L319.884 82.0545L314.82 86.9558ZM323.472 90.8808L333.614 81.2687L328.766 76.1535L318.624 85.7655L323.472 90.8808ZM333.614 81.2687C333.204 81.6575 332.636 81.8817 332.032 81.8546L332.348 74.8142C331.008 74.754 329.72 75.2492 328.766 76.1535L333.614 81.2687ZM332.032 81.8546C331.43 81.8276 330.889 81.5544 330.519 81.1374L335.792 76.4611C334.923 75.4818 333.688 74.8743 332.348 74.8142L332.032 81.8546ZM330.519 81.1374C330.153 80.7244 329.978 80.2013 329.999 79.6855L337.04 79.9811C337.094 78.7034 336.657 77.4363 335.792 76.4611L330.519 81.1374ZM329.999 79.6855C330.021 79.1695 330.24 78.6582 330.646 78.2733L335.494 83.3885C336.444 82.4882 336.987 81.2592 337.04 79.9811L329.999 79.6855Z" fill="white" mask="url(#path-62-outside-1_744_1359)"/>
<defs>
<clipPath id="clip0_744_1359">
<rect width="22.1325" height="22.1325" fill="white" transform="translate(225.735 30.3013)"/>
</clipPath>
<clipPath id="clip1_744_1359">
<rect width="21.6987" height="21.6987" fill="white" transform="translate(225.735 119.301)"/>
</clipPath>
</defs>
</svg>
