<svg width="110" height="86" viewBox="0 0 110 86" fill="none" xmlns="http://www.w3.org/2000/svg">
<g clip-path="url(#clip0_264_226)">
<rect width="110" height="85.027" rx="9.51351" fill="white"/>
<path d="M30.7014 20.9054L30.6216 20.9911V21.108V21.7026V22.4582L31.1365 21.9052C44.0312 8.05535 65.9688 8.05535 78.8635 21.9052L79.3784 22.4582V21.7026V21.108V20.9911L79.2987 20.9054C66.1689 6.80302 43.8312 6.80302 30.7014 20.9054Z" fill="#3CDF90" stroke="#3CDF90" stroke-width="0.594595"/>
<path d="M30.7014 66.2025L30.6216 66.1169V65.9999V65.4053V64.6497L31.1365 65.2027C44.0312 79.0526 65.9688 79.0526 78.8635 65.2027L79.3784 64.6497V65.4053V65.9999V66.1169L79.2987 66.2025C66.1689 80.3049 43.8312 80.3049 30.7014 66.2025Z" fill="#3CDF90" stroke="#3CDF90" stroke-width="0.594595"/>
<path d="M80.9999 25.1875C73.2218 25.1875 66.6312 30.1156 64.1968 37.0625H97.803C95.3687 30.1156 88.778 25.1875 80.9999 25.1875Z" fill="#C94747"/>
<path d="M80.9999 60.8125C88.778 60.8125 95.3687 55.8844 97.803 48.9375H64.1968C66.6312 55.8844 73.2218 60.8125 80.9999 60.8125Z" fill="#699635"/>
<path d="M64.1969 37.0625C63.5438 38.9031 63.1875 40.9219 63.1875 43C63.1875 45.0781 63.5438 47.0969 64.1969 48.9375H97.8031C98.4562 47.0969 98.8125 45.0781 98.8125 43C98.8125 40.9219 98.4562 38.9031 97.8031 37.0625H64.1969Z" fill="#FFCE31"/>
<path d="M81 46.1469L84.6813 48.9375L83.2562 44.425L86.9375 41.5156H82.425L81 37.0625L79.6344 41.5156H75.0625L78.7438 44.425L77.3187 48.9375L81 46.1469Z" fill="#3E4347"/>
<path d="M12.4324 42.8107C12.4324 50.5999 17.427 57.1999 24.3243 59.6377V25.9836C17.427 28.4215 12.4324 35.0215 12.4324 42.8107ZM48.1081 42.8107C48.1081 35.0215 43.1729 28.4215 36.2162 25.9836V59.6377C43.1729 57.1999 48.1081 50.5999 48.1081 42.8107Z" fill="#00A210"/>
<path d="M24.3242 59.6378C26.1675 60.2918 28.1891 60.6486 30.2702 60.6486C32.3512 60.6486 34.3729 60.2918 36.2161 59.6378V25.9837C34.3729 25.3297 32.3512 24.9729 30.2702 24.9729C28.1891 24.9729 26.1675 25.3297 24.3242 25.9837V59.6378Z" fill="#F9F9F9"/>
</g>
<defs>
<clipPath id="clip0_264_226">
<rect width="110" height="85.027" rx="9.51351" fill="white"/>
</clipPath>
</defs>
</svg>
