<svg width="110" height="86" viewBox="0 0 110 86" fill="none" xmlns="http://www.w3.org/2000/svg">
<g clip-path="url(#clip0_264_213)">
<rect width="110" height="85.027" rx="9.51351" fill="white"/>
<path d="M30.7014 20.9054L30.6216 20.9911V21.108V21.7026V22.4582L31.1365 21.9052C44.0312 8.05535 65.9688 8.05535 78.8635 21.9052L79.3784 22.4582V21.7026V21.108V20.9911L79.2987 20.9054C66.1689 6.80302 43.8312 6.80302 30.7014 20.9054Z" fill="#3CDF90" stroke="#3CDF90" stroke-width="0.594595"/>
<path d="M30.7014 66.2025L30.6216 66.1169V65.9999V65.4053V64.6497L31.1365 65.2027C44.0312 79.0526 65.9688 79.0526 78.8635 65.2027L79.3784 64.6497V65.4053V65.9999V66.1169L79.2987 66.2025C66.1689 80.3049 43.8312 80.3049 30.7014 66.2025Z" fill="#3CDF90" stroke="#3CDF90" stroke-width="0.594595"/>
<path d="M12.4325 42.8107C12.4325 50.5999 17.4271 57.1999 24.3244 59.6377V25.9836C17.4271 28.4215 12.4325 35.0215 12.4325 42.8107ZM48.1082 42.8107C48.1082 35.0215 43.173 28.4215 36.2163 25.9836V59.6377C43.173 57.1999 48.1082 50.5999 48.1082 42.8107Z" fill="#00A210"/>
<path d="M24.3243 59.6378C26.1676 60.2918 28.1892 60.6486 30.2703 60.6486C32.3514 60.6486 34.373 60.2918 36.2162 59.6378V25.9837C34.373 25.3297 32.3514 24.9729 30.2703 24.9729C28.1892 24.9729 26.1676 25.3297 24.3243 25.9837V59.6378Z" fill="#F9F9F9"/>
<path d="M80.9189 24.9729C71.0486 24.9729 63.0811 32.9405 63.0811 42.8107H98.7567C98.7567 32.9405 90.7892 24.9729 80.9189 24.9729Z" fill="#42ADE2"/>
<path d="M96.3784 51.7295H65.4595C68.5514 57.0808 74.3189 60.6484 80.9189 60.6484C87.5189 60.6484 93.2865 57.0808 96.3784 51.7295Z" fill="#699635"/>
<path d="M96.3784 51.7297C97.9243 49.1134 98.7567 46.081 98.7567 42.8107H63.0811C63.0811 46.081 63.9729 49.1134 65.4594 51.7297H96.3784ZM89.3621 35.3783L94.5351 35.081L89.3621 34.7837L94.2973 33.1188L89.2432 34.1891L93.5243 31.3351L88.9459 33.654L92.3351 29.7891L88.4702 33.2378L90.7892 28.5999L87.9946 32.9405L89.0054 27.8864L87.4 32.7621L87.1027 27.5891L86.8054 32.7621L85.1405 27.8864L86.2108 32.9405L83.3567 28.5999L85.6757 33.2378L81.8108 29.7891L85.2594 33.654L80.6216 31.3351L84.9621 34.1891L79.9081 33.1188L84.7838 34.7837L79.6702 35.081L84.7838 35.3783L79.9081 36.9837L84.9621 35.9134L80.6216 38.7675L85.2594 36.4486L81.8108 40.3134L85.6757 36.8648L83.3567 41.5026L86.2108 37.1621L85.1405 42.2161L86.8054 37.3405L87.1027 42.5134L87.4 37.3405L89.0054 42.2161L87.9946 37.1621L90.7892 41.5026L88.4702 36.8648L92.3351 40.3134L88.9459 36.4486L93.5243 38.7675L89.2432 35.9134L94.2973 36.9837L89.3621 35.3783Z" fill="#FFE62E"/>
<path d="M87.1027 37.2811C88.3177 37.2811 89.3027 36.2961 89.3027 35.0811C89.3027 33.8661 88.3177 32.8811 87.1027 32.8811C85.8877 32.8811 84.9027 33.8661 84.9027 35.0811C84.9027 36.2961 85.8877 37.2811 87.1027 37.2811Z" fill="#FFE62E"/>
<path d="M87.1026 37.4594C85.7945 37.4594 84.6648 36.3891 84.6648 35.0216C84.6648 33.7135 85.7351 32.5837 87.1026 32.5837C88.4702 32.5837 89.5405 33.654 89.5405 35.0216C89.5405 36.3891 88.4107 37.4594 87.1026 37.4594ZM87.1026 33.0594C86.0324 33.0594 85.1405 33.9513 85.1405 35.0216C85.1405 36.0918 86.0324 36.9837 87.1026 36.9837C88.1729 36.9837 89.0648 36.0918 89.0648 35.0216C89.0648 33.9513 88.1729 33.0594 87.1026 33.0594Z" fill="#42ADE2"/>
</g>
<defs>
<clipPath id="clip0_264_213">
<rect width="110" height="85.027" rx="9.51351" fill="white"/>
</clipPath>
</defs>
</svg>
