<svg width="762" height="542" viewBox="0 0 762 542" fill="none" xmlns="http://www.w3.org/2000/svg">
<path d="M396.191 383.339C320.821 441.397 241.263 478.494 173.879 491.847C105.856 505.326 53.3998 494.19 27.6149 460.716C1.82993 427.242 4.44903 373.681 34.8421 311.35C64.9493 249.605 121.121 182.148 196.49 124.091C271.86 66.0335 351.418 28.9366 418.802 15.5837C486.826 2.10406 539.282 13.2406 565.067 46.7143C590.852 80.188 588.233 133.749 557.839 196.08C527.732 257.825 471.56 325.282 396.191 383.339Z" stroke="#FCFF45" stroke-width="18.8707"/>
<path d="M565.191 418.339C489.821 476.397 410.263 513.494 342.879 526.847C274.856 540.326 222.4 529.19 196.615 495.716C170.83 462.242 173.449 408.681 203.842 346.35C233.949 284.605 290.121 217.148 365.49 159.091C440.86 101.034 520.418 63.9366 587.802 50.5837C655.826 37.1041 708.282 48.2406 734.067 81.7143C759.852 115.188 757.232 168.749 726.839 231.08C696.732 292.825 640.56 360.282 565.191 418.339Z" stroke="#29C278" stroke-width="18.8707"/>
</svg>
