<svg width="314" height="292" viewBox="0 0 314 292" fill="none" xmlns="http://www.w3.org/2000/svg">
<rect x="18" y="22.5532" width="278" height="75.6859" rx="9" fill="#EFFFF7"/>
<rect x="39.1047" y="37.8359" width="45.8482" height="45.1204" rx="22.5602" fill="white"/>
<path d="M56.5707 60.3962L60.2094 64.0349L67.4869 56.7574" stroke="#3CDF90" stroke-width="2.91099" stroke-linecap="round" stroke-linejoin="round"/>
<path d="M98.008 66V55.57H102.404C104.462 55.57 105.708 56.676 105.708 58.51C105.708 59.224 105.442 59.868 104.868 60.386C105.806 60.988 106.128 61.856 106.128 62.808C106.128 64.81 104.728 66 102.404 66H98.008ZM99.912 59.616H102.502C103.286 59.616 103.79 59.112 103.79 58.384C103.79 57.656 103.286 57.194 102.502 57.194H99.912V59.616ZM99.912 64.32H102.6C103.58 64.32 104.224 63.718 104.224 62.808C104.224 61.884 103.58 61.282 102.6 61.282H99.912V64.32ZM109.424 66.168C107.828 66.168 106.806 65.328 106.806 63.984C106.806 62.724 107.646 61.842 109.438 61.548L111.706 61.184V60.932C111.706 60.274 111.146 59.784 110.306 59.784C109.508 59.784 108.878 60.246 108.598 60.932L107.1 60.204C107.548 59.014 108.85 58.216 110.376 58.216C112.238 58.216 113.54 59.336 113.54 60.932V66H111.804V65.188C111.216 65.832 110.432 66.168 109.424 66.168ZM108.71 63.914C108.71 64.446 109.144 64.768 109.76 64.768C110.922 64.768 111.706 63.942 111.706 62.892V62.584L109.788 62.906C109.06 63.046 108.71 63.368 108.71 63.914ZM114.815 66V58.384H116.537V59.322C116.943 58.594 117.741 58.216 118.693 58.216C120.373 58.216 121.563 59.392 121.563 61.1V66H119.729V61.534C119.729 60.526 119.099 59.896 118.189 59.896C117.279 59.896 116.649 60.54 116.649 61.534V66H114.815ZM122.694 66V55.402H124.528V61.408L127.412 58.384H129.694L126.88 61.45L129.75 66H127.65L125.508 62.612L124.528 63.676V66H122.694ZM134.718 66L131.722 58.384H133.724L135.53 63.354L137.336 58.384H139.338L136.342 66H134.718ZM143.407 66.168C141.069 66.168 139.487 64.404 139.487 62.178C139.487 59.896 141.125 58.216 143.267 58.216C145.633 58.216 146.977 59.91 146.977 61.94C146.977 62.22 146.949 62.5 146.879 62.71H141.391C141.503 63.83 142.315 64.558 143.421 64.558C144.261 64.558 144.849 64.166 145.185 63.578L146.669 64.306C146.207 65.398 144.961 66.168 143.407 66.168ZM143.267 59.728C142.343 59.728 141.643 60.302 141.433 61.31H145.017C144.933 60.372 144.233 59.728 143.267 59.728ZM147.947 66V58.384H149.669V59.462C150.061 58.594 150.789 58.3 151.727 58.3H152.175V59.924H151.517C150.481 59.924 149.781 60.596 149.781 61.758V66H147.947ZM152.764 57.53V55.57H154.598V57.53H152.764ZM152.764 66V58.384H154.598V66H152.764ZM156.753 66V60.022H155.409V58.384H156.753V58.132C156.753 56.396 157.873 55.402 159.637 55.402C159.861 55.402 160.155 55.43 160.351 55.472V57.054C160.183 57.026 160.001 57.012 159.875 57.012C159.063 57.012 158.587 57.362 158.587 58.132V58.384H163.081V66H161.247V60.022H158.587V66H156.753ZM167.855 66.168C165.573 66.168 163.879 64.446 163.879 62.178C163.879 59.924 165.573 58.216 167.855 58.216C169.479 58.216 170.837 59.126 171.313 60.47L169.703 61.17C169.409 60.4 168.723 59.896 167.855 59.896C166.651 59.896 165.783 60.862 165.783 62.192C165.783 63.522 166.651 64.488 167.855 64.488C168.737 64.488 169.409 63.998 169.703 63.2L171.313 63.928C170.865 65.23 169.507 66.168 167.855 66.168ZM174.554 66.168C172.958 66.168 171.936 65.328 171.936 63.984C171.936 62.724 172.776 61.842 174.568 61.548L176.836 61.184V60.932C176.836 60.274 176.276 59.784 175.436 59.784C174.638 59.784 174.008 60.246 173.728 60.932L172.23 60.204C172.678 59.014 173.98 58.216 175.506 58.216C177.368 58.216 178.67 59.336 178.67 60.932V66H176.934V65.188C176.346 65.832 175.562 66.168 174.554 66.168ZM173.84 63.914C173.84 64.446 174.274 64.768 174.89 64.768C176.052 64.768 176.836 63.942 176.836 62.892V62.584L174.918 62.906C174.19 63.046 173.84 63.368 173.84 63.914ZM183.28 66.084C181.558 66.084 180.578 65.09 180.578 63.382V60.022H179.262V58.384H179.402C180.144 58.384 180.578 57.978 180.578 57.236V56.648H182.412V58.384H184.162V60.022H182.412V63.284C182.412 64.054 182.804 64.474 183.7 64.474C183.826 64.474 184.008 64.46 184.19 64.432V66C183.924 66.042 183.56 66.084 183.28 66.084ZM185.171 57.53V55.57H187.005V57.53H185.171ZM185.171 66V58.384H187.005V66H185.171ZM192.003 66.168C189.763 66.168 187.971 64.488 187.971 62.192C187.971 59.896 189.749 58.216 192.003 58.216C194.229 58.216 196.021 59.896 196.021 62.192C196.021 64.502 194.215 66.168 192.003 66.168ZM192.003 64.488C193.221 64.488 194.103 63.522 194.103 62.192C194.103 60.876 193.221 59.896 192.003 59.896C190.757 59.896 189.875 60.876 189.875 62.192C189.875 63.522 190.757 64.488 192.003 64.488ZM196.991 66V58.384H198.713V59.322C199.119 58.594 199.917 58.216 200.869 58.216C202.549 58.216 203.739 59.392 203.739 61.1V66H201.905V61.534C201.905 60.526 201.275 59.896 200.365 59.896C199.455 59.896 198.825 60.54 198.825 61.534V66H196.991ZM207.093 66V55.57H208.577L213.547 62.262V55.57H215.451V66H213.953L208.997 59.182V66H207.093ZM219.612 66.168C217.82 66.168 216.742 64.908 216.742 63.046V58.384H218.576V62.892C218.576 63.858 219.206 64.488 220.116 64.488C221.012 64.488 221.656 63.858 221.656 62.85V58.384H223.49V66H221.754V65.09C221.334 65.804 220.564 66.168 219.612 66.168ZM224.774 66V58.384H226.496V59.336C226.888 58.594 227.672 58.216 228.624 58.216C229.646 58.216 230.528 58.692 230.976 59.448C231.494 58.622 232.334 58.216 233.342 58.216C234.952 58.216 236.156 59.392 236.156 61.1V66H234.322V61.534C234.322 60.526 233.748 59.896 232.852 59.896C231.97 59.896 231.382 60.54 231.382 61.534V66H229.548V61.534C229.548 60.526 228.974 59.896 228.078 59.896C227.196 59.896 226.608 60.54 226.608 61.534V66H224.774ZM241.446 66.168C240.452 66.168 239.57 65.804 239.01 65.146V66H237.288V55.402H239.122V59.154C239.668 58.552 240.48 58.216 241.46 58.216C243.63 58.216 245.296 59.952 245.296 62.192C245.296 64.432 243.658 66.168 241.446 66.168ZM241.236 64.488C242.496 64.488 243.392 63.522 243.392 62.192C243.392 60.876 242.482 59.896 241.236 59.896C240.018 59.896 239.122 60.862 239.122 62.192C239.122 63.536 240.018 64.488 241.236 64.488ZM249.886 66.168C247.548 66.168 245.966 64.404 245.966 62.178C245.966 59.896 247.604 58.216 249.746 58.216C252.112 58.216 253.456 59.91 253.456 61.94C253.456 62.22 253.428 62.5 253.358 62.71H247.87C247.982 63.83 248.794 64.558 249.9 64.558C250.74 64.558 251.328 64.166 251.664 63.578L253.148 64.306C252.686 65.398 251.44 66.168 249.886 66.168ZM249.746 59.728C248.822 59.728 248.122 60.302 247.912 61.31H251.496C251.412 60.372 250.712 59.728 249.746 59.728ZM254.426 66V58.384H256.148V59.462C256.54 58.594 257.268 58.3 258.206 58.3H258.654V59.924H257.996C256.96 59.924 256.26 60.596 256.26 61.758V66H254.426Z" fill="black"/>
<rect x="18" y="108.239" width="278" height="75.6859" rx="9" fill="#EFFFF7"/>
<rect x="39.1047" y="123.522" width="45.8482" height="45.1204" rx="22.5602" fill="white"/>
<path d="M56.5707 146.082L60.2094 149.721L67.4869 142.443" stroke="#3CDF90" stroke-width="2.91099" stroke-linecap="round" stroke-linejoin="round"/>
<path d="M98.008 152V141.57H99.492L104.462 148.262V141.57H106.366V152H104.868L99.912 145.182V152H98.008ZM110.121 152.168C108.525 152.168 107.503 151.328 107.503 149.984C107.503 148.724 108.343 147.842 110.135 147.548L112.403 147.184V146.932C112.403 146.274 111.843 145.784 111.003 145.784C110.205 145.784 109.575 146.246 109.295 146.932L107.797 146.204C108.245 145.014 109.547 144.216 111.073 144.216C112.935 144.216 114.237 145.336 114.237 146.932V152H112.501V151.188C111.913 151.832 111.129 152.168 110.121 152.168ZM109.407 149.914C109.407 150.446 109.841 150.768 110.457 150.768C111.619 150.768 112.403 149.942 112.403 148.892V148.584L110.485 148.906C109.757 149.046 109.407 149.368 109.407 149.914ZM118.847 152.084C117.125 152.084 116.145 151.09 116.145 149.382V146.022H114.829V144.384H114.969C115.711 144.384 116.145 143.978 116.145 143.236V142.648H117.979V144.384H119.729V146.022H117.979V149.284C117.979 150.054 118.371 150.474 119.267 150.474C119.393 150.474 119.575 150.46 119.757 150.432V152C119.491 152.042 119.127 152.084 118.847 152.084ZM120.739 143.53V141.57H122.573V143.53H120.739ZM120.739 152V144.384H122.573V152H120.739ZM127.57 152.168C125.33 152.168 123.538 150.488 123.538 148.192C123.538 145.896 125.316 144.216 127.57 144.216C129.796 144.216 131.588 145.896 131.588 148.192C131.588 150.502 129.782 152.168 127.57 152.168ZM127.57 150.488C128.788 150.488 129.67 149.522 129.67 148.192C129.67 146.876 128.788 145.896 127.57 145.896C126.324 145.896 125.442 146.876 125.442 148.192C125.442 149.522 126.324 150.488 127.57 150.488ZM132.559 152V144.384H134.281V145.322C134.687 144.594 135.485 144.216 136.437 144.216C138.117 144.216 139.307 145.392 139.307 147.1V152H137.473V147.534C137.473 146.526 136.843 145.896 135.933 145.896C135.023 145.896 134.393 146.54 134.393 147.534V152H132.559ZM142.748 152.168C141.152 152.168 140.13 151.328 140.13 149.984C140.13 148.724 140.97 147.842 142.762 147.548L145.03 147.184V146.932C145.03 146.274 144.47 145.784 143.63 145.784C142.832 145.784 142.202 146.246 141.922 146.932L140.424 146.204C140.872 145.014 142.174 144.216 143.7 144.216C145.562 144.216 146.864 145.336 146.864 146.932V152H145.128V151.188C144.54 151.832 143.756 152.168 142.748 152.168ZM142.034 149.914C142.034 150.446 142.468 150.768 143.084 150.768C144.246 150.768 145.03 149.942 145.03 148.892V148.584L143.112 148.906C142.384 149.046 142.034 149.368 142.034 149.914ZM148.139 152V141.402H149.973V152H148.139ZM153.468 152V141.57H155.372V152H153.468ZM160.346 152.168C158.134 152.168 156.496 150.432 156.496 148.192C156.496 145.952 158.162 144.216 160.332 144.216C161.312 144.216 162.124 144.552 162.67 145.154V141.402H164.504V152H162.768V151.16C162.208 151.818 161.326 152.168 160.346 152.168ZM160.542 150.488C161.774 150.488 162.67 149.536 162.67 148.192C162.67 146.862 161.774 145.896 160.542 145.896C159.296 145.896 158.4 146.876 158.4 148.192C158.4 149.522 159.296 150.488 160.542 150.488ZM169.403 152.168C167.065 152.168 165.483 150.404 165.483 148.178C165.483 145.896 167.121 144.216 169.263 144.216C171.629 144.216 172.973 145.91 172.973 147.94C172.973 148.22 172.945 148.5 172.875 148.71H167.387C167.499 149.83 168.311 150.558 169.417 150.558C170.257 150.558 170.845 150.166 171.181 149.578L172.665 150.306C172.203 151.398 170.957 152.168 169.403 152.168ZM169.263 145.728C168.339 145.728 167.639 146.302 167.429 147.31H171.013C170.929 146.372 170.229 145.728 169.263 145.728ZM173.943 152V144.384H175.665V145.322C176.071 144.594 176.869 144.216 177.821 144.216C179.501 144.216 180.691 145.392 180.691 147.1V152H178.857V147.534C178.857 146.526 178.227 145.896 177.317 145.896C176.407 145.896 175.777 146.54 175.777 147.534V152H173.943ZM185.294 152.084C183.572 152.084 182.592 151.09 182.592 149.382V146.022H181.276V144.384H181.416C182.158 144.384 182.592 143.978 182.592 143.236V142.648H184.426V144.384H186.176V146.022H184.426V149.284C184.426 150.054 184.818 150.474 185.714 150.474C185.84 150.474 186.022 150.46 186.204 150.432V152C185.938 152.042 185.574 152.084 185.294 152.084ZM187.185 143.53V141.57H189.019V143.53H187.185ZM187.185 152V144.384H189.019V152H187.185ZM193.764 152.084C192.042 152.084 191.062 151.09 191.062 149.382V146.022H189.746V144.384H189.886C190.628 144.384 191.062 143.978 191.062 143.236V142.648H192.896V144.384H194.646V146.022H192.896V149.284C192.896 150.054 193.288 150.474 194.184 150.474C194.31 150.474 194.492 150.46 194.674 150.432V152C194.408 152.042 194.044 152.084 193.764 152.084ZM196.579 155.094C196.173 155.094 195.767 155.038 195.445 154.884V153.344C195.697 153.414 196.061 153.47 196.369 153.47C197.209 153.47 197.503 153.05 197.797 152.406L197.965 152L194.955 144.384H196.929L198.903 149.634L200.863 144.384H202.851L199.533 152.77C198.945 154.24 198.007 155.094 196.579 155.094ZM210.561 152.168C207.579 152.168 205.353 149.886 205.353 146.778C205.353 143.67 207.565 141.402 210.561 141.402C212.787 141.402 214.411 142.662 214.957 144.146L213.249 144.944C212.843 143.894 211.877 143.138 210.561 143.138C208.601 143.138 207.257 144.608 207.257 146.778C207.257 148.962 208.601 150.432 210.561 150.432C211.877 150.432 212.843 149.676 213.249 148.626L214.957 149.424C214.411 150.908 212.787 152.168 210.561 152.168ZM218.102 152.168C216.506 152.168 215.484 151.328 215.484 149.984C215.484 148.724 216.324 147.842 218.116 147.548L220.384 147.184V146.932C220.384 146.274 219.824 145.784 218.984 145.784C218.186 145.784 217.556 146.246 217.276 146.932L215.778 146.204C216.226 145.014 217.528 144.216 219.054 144.216C220.916 144.216 222.218 145.336 222.218 146.932V152H220.482V151.188C219.894 151.832 219.11 152.168 218.102 152.168ZM217.388 149.914C217.388 150.446 217.822 150.768 218.438 150.768C219.6 150.768 220.384 149.942 220.384 148.892V148.584L218.466 148.906C217.738 149.046 217.388 149.368 217.388 149.914ZM223.493 152V144.384H225.215V145.462C225.607 144.594 226.335 144.3 227.273 144.3H227.721V145.924H227.063C226.027 145.924 225.327 146.596 225.327 147.758V152H223.493ZM231.851 152.168C229.639 152.168 228.001 150.432 228.001 148.192C228.001 145.952 229.667 144.216 231.837 144.216C232.817 144.216 233.629 144.552 234.175 145.154V141.402H236.009V152H234.273V151.16C233.713 151.818 232.831 152.168 231.851 152.168ZM232.047 150.488C233.279 150.488 234.175 149.536 234.175 148.192C234.175 146.862 233.279 145.896 232.047 145.896C230.801 145.896 229.905 146.876 229.905 148.192C229.905 149.522 230.801 150.488 232.047 150.488Z" fill="black"/>
<rect x="18" y="193.925" width="278" height="75.6859" rx="9" fill="#EFFFF7"/>
<rect x="39.1047" y="209.208" width="45.8482" height="45.1204" rx="22.5602" fill="white"/>
<path d="M56.5707 231.768L60.2094 235.407L67.4869 228.129" stroke="#3CDF90" stroke-width="2.91099" stroke-linecap="round" stroke-linejoin="round"/>
<path d="M98.008 237V226.57H101.9C104.028 226.57 105.526 227.746 105.526 229.86C105.526 231.946 104.014 233.15 101.9 233.15H99.912V237H98.008ZM99.912 231.47H101.928C102.95 231.47 103.622 230.84 103.622 229.86C103.622 228.88 102.95 228.25 101.928 228.25H99.912V231.47ZM106.512 237V229.384H108.234V230.462C108.626 229.594 109.354 229.3 110.292 229.3H110.74V230.924H110.082C109.046 230.924 108.346 231.596 108.346 232.758V237H106.512ZM115.052 237.168C112.812 237.168 111.02 235.488 111.02 233.192C111.02 230.896 112.798 229.216 115.052 229.216C117.278 229.216 119.07 230.896 119.07 233.192C119.07 235.502 117.264 237.168 115.052 237.168ZM115.052 235.488C116.27 235.488 117.152 234.522 117.152 233.192C117.152 231.876 116.27 230.896 115.052 230.896C113.806 230.896 112.924 231.876 112.924 233.192C112.924 234.522 113.806 235.488 115.052 235.488ZM123.765 237.168C121.525 237.168 119.733 235.488 119.733 233.192C119.733 230.896 121.511 229.216 123.765 229.216C125.991 229.216 127.783 230.896 127.783 233.192C127.783 235.502 125.977 237.168 123.765 237.168ZM123.765 235.488C124.983 235.488 125.865 234.522 125.865 233.192C125.865 231.876 124.983 230.896 123.765 230.896C122.519 230.896 121.637 231.876 121.637 233.192C121.637 234.522 122.519 235.488 123.765 235.488ZM129.458 237V231.022H128.114V229.384H129.458V229.132C129.458 227.396 130.578 226.402 132.342 226.402C132.566 226.402 132.86 226.43 133.056 226.472V228.054C132.888 228.026 132.706 228.012 132.58 228.012C131.768 228.012 131.292 228.362 131.292 229.132V229.384H132.986V231.022H131.292V237H129.458ZM139.636 237.168C137.396 237.168 135.604 235.488 135.604 233.192C135.604 230.896 137.382 229.216 139.636 229.216C141.862 229.216 143.654 230.896 143.654 233.192C143.654 235.502 141.848 237.168 139.636 237.168ZM139.636 235.488C140.854 235.488 141.736 234.522 141.736 233.192C141.736 231.876 140.854 230.896 139.636 230.896C138.39 230.896 137.508 231.876 137.508 233.192C137.508 234.522 138.39 235.488 139.636 235.488ZM145.329 237V231.022H143.985V229.384H145.329V229.132C145.329 227.396 146.449 226.402 148.213 226.402C148.437 226.402 148.731 226.43 148.927 226.472V228.054C148.759 228.026 148.577 228.012 148.451 228.012C147.639 228.012 147.163 228.362 147.163 229.132V229.384H148.857V231.022H147.163V237H145.329ZM151.083 237L154.681 226.57H157.145L160.743 237H158.671L157.929 234.76H153.897L153.141 237H151.083ZM154.443 233.08H157.383L155.913 228.684L154.443 233.08ZM164.598 237.168C162.386 237.168 160.748 235.432 160.748 233.192C160.748 230.952 162.414 229.216 164.584 229.216C165.564 229.216 166.376 229.552 166.922 230.154V226.402H168.756V237H167.02V236.16C166.46 236.818 165.578 237.168 164.598 237.168ZM164.794 235.488C166.026 235.488 166.922 234.536 166.922 233.192C166.922 231.862 166.026 230.896 164.794 230.896C163.548 230.896 162.652 231.876 162.652 233.192C162.652 234.522 163.548 235.488 164.794 235.488ZM173.585 237.168C171.373 237.168 169.735 235.432 169.735 233.192C169.735 230.952 171.401 229.216 173.571 229.216C174.551 229.216 175.363 229.552 175.909 230.154V226.402H177.743V237H176.007V236.16C175.447 236.818 174.565 237.168 173.585 237.168ZM173.781 235.488C175.013 235.488 175.909 234.536 175.909 233.192C175.909 231.862 175.013 230.896 173.781 230.896C172.535 230.896 171.639 231.876 171.639 233.192C171.639 234.522 172.535 235.488 173.781 235.488ZM179.029 237V229.384H180.751V230.462C181.143 229.594 181.871 229.3 182.809 229.3H183.257V230.924H182.599C181.563 230.924 180.863 231.596 180.863 232.758V237H179.029ZM187.457 237.168C185.119 237.168 183.537 235.404 183.537 233.178C183.537 230.896 185.175 229.216 187.317 229.216C189.683 229.216 191.027 230.91 191.027 232.94C191.027 233.22 190.999 233.5 190.929 233.71H185.441C185.553 234.83 186.365 235.558 187.471 235.558C188.311 235.558 188.899 235.166 189.235 234.578L190.719 235.306C190.257 236.398 189.011 237.168 187.457 237.168ZM187.317 230.728C186.393 230.728 185.693 231.302 185.483 232.31H189.067C188.983 231.372 188.283 230.728 187.317 230.728ZM194.895 237.168C193.271 237.168 191.983 236.328 191.535 235.012L192.907 234.354C193.313 235.208 194.041 235.726 194.895 235.726C195.553 235.726 195.987 235.418 195.987 234.914C195.987 234.48 195.595 234.256 195.105 234.116L193.859 233.766C192.571 233.402 191.899 232.604 191.899 231.554C191.899 230.154 193.061 229.216 194.713 229.216C196.141 229.216 197.317 229.958 197.793 231.19L196.393 231.848C196.141 231.162 195.469 230.714 194.699 230.714C194.083 230.714 193.705 231.022 193.705 231.47C193.705 231.904 194.069 232.114 194.601 232.268L195.819 232.632C197.079 232.996 197.779 233.78 197.779 234.844C197.779 236.23 196.617 237.168 194.895 237.168ZM201.667 237.168C200.043 237.168 198.755 236.328 198.307 235.012L199.679 234.354C200.085 235.208 200.813 235.726 201.667 235.726C202.325 235.726 202.759 235.418 202.759 234.914C202.759 234.48 202.367 234.256 201.877 234.116L200.631 233.766C199.343 233.402 198.671 232.604 198.671 231.554C198.671 230.154 199.833 229.216 201.485 229.216C202.913 229.216 204.089 229.958 204.565 231.19L203.165 231.848C202.913 231.162 202.241 230.714 201.471 230.714C200.855 230.714 200.477 231.022 200.477 231.47C200.477 231.904 200.841 232.114 201.373 232.268L202.591 232.632C203.851 232.996 204.551 233.78 204.551 234.844C204.551 236.23 203.389 237.168 201.667 237.168Z" fill="black"/>
<rect x="0.5" y="1.05322" width="313" height="290.058" rx="17.5" stroke="#CDCDCD"/>
</svg>
